<svg width="131" height="50" viewBox="0 0 131 50" fill="none" xmlns="http://www.w3.org/2000/svg">
<path d="M23.55 9.82422V39.6742H18.55V36.9242C16.85 38.7742 13.85 40.1742 10 40.1742C1.45 40.1742 0 32.4242 0 29.0242V28.5242C0 25.1242 1.45 17.3742 10 17.3742C13.85 17.3742 16.85 18.7742 18.55 20.6242V9.82422H23.55ZM5 28.5242C5 33.6742 7.2 35.3742 10.5 36.0242C13.1 36.5242 15.9 35.9242 17.45 33.1242C18.05 31.9742 18.2 30.5242 18.2 28.8242V28.7242C18.2 27.3242 17.85 25.3242 17.25 24.2742C16.1 22.2742 13.25 21.3742 10.8 21.3742C7.4 21.3742 5 24.3242 5 28.5242Z" fill="#FF3D00"/>
<path d="M50.1008 9.82422V39.6742H45.1008V36.9242C43.4008 38.7742 40.4008 40.1742 36.5508 40.1742C28.0008 40.1742 26.5508 32.4242 26.5508 29.0242V28.5242C26.5508 25.1242 28.0008 17.3742 36.5508 17.3742C40.4008 17.3742 43.4008 18.7742 45.1008 20.6242V9.82422H50.1008ZM31.5508 28.5242C31.5508 33.6742 33.7508 35.3742 37.0508 36.0242C39.6508 36.5242 42.4508 35.9242 44.0008 33.1242C44.6008 31.9742 44.7508 30.5242 44.7508 28.8242V28.7242C44.7508 27.3242 44.4008 25.3242 43.8008 24.2742C42.6508 22.2742 39.8008 21.3742 37.3508 21.3742C33.9508 21.3742 31.5508 24.3242 31.5508 28.5242Z" fill="#FF3D00"/>
<path d="M53.0996 13.8242H58.0996V17.1742C59.7996 15.2742 62.2996 13.8742 66.1496 13.8742C67.3996 13.8742 68.5496 14.0242 69.4996 14.2242L68.0996 17.6742C64.8996 17.3742 61.4996 18.8242 59.5496 21.1242C58.6996 22.1242 58.0996 24.3242 58.0996 25.4742V36.1742H53.0996V13.8242Z" fill="#FF3D00"/>
<path d="M72.5 13.8242H77.5V17.0742C79.2 15.1742 81.7 13.8242 85.5 13.8242C94.05 13.8242 95 19.7242 95 23.1242V36.1742H90V23.1242C90 20.1742 88.45 18.7742 85.5 18.3242C81.85 17.7742 77.8 20.0242 77.5 23.4242V36.1742H72.5V13.8242Z" fill="#FF3D00"/>
<path d="M99.05 19.0758H104.1V40.0758H99.05V19.0758ZM98 12.8758C98 11.2258 98.95 9.92578 101.5 9.92578C104.15 9.92578 105.1 11.2258 105.1 12.8758C105.1 14.4758 104.15 15.7758 101.5 15.7758C98.95 15.7758 98 14.4758 98 12.8758Z" fill="#FF3D00"/>
<path d="M108.1 13.8242H113.1V17.0742C114.8 15.1742 117.3 13.8242 121.1 13.8242C129.65 13.8242 130.6 19.7242 130.6 23.1242V36.1742H125.6V23.1242C125.6 20.1742 124.05 18.7742 121.1 18.3242C117.45 17.7742 113.4 20.0242 113.1 23.4242V36.1742H108.1V13.8242Z" fill="#FF3D00"/>
</svg>
