<svg width="64" height="75" viewBox="0 0 64 75" fill="none" xmlns="http://www.w3.org/2000/svg">
<path d="M53.8068 15.5722L19.7282 43.9722M27.7568 52.0365L35.5353 59.7793C36.013 60.2689 36.6103 60.6253 37.268 60.8132C37.9257 61.0012 38.6211 61.0141 39.2853 60.8508C39.9532 60.6951 40.5698 60.3703 41.0758 59.9074C41.5819 59.4446 41.9602 58.8593 42.1746 58.2079L54.9461 19.9222C55.2132 19.2051 55.2688 18.4264 55.106 17.6786C54.9432 16.9309 54.569 16.2457 54.0279 15.7046C53.4868 15.1635 52.8016 14.7893 52.0539 14.6265C51.3062 14.4638 50.5274 14.5193 49.8103 14.7865L11.5246 27.5615C10.8508 27.7911 10.2505 28.1965 9.78589 28.7359C9.32126 29.2752 9.00913 29.9289 8.88177 30.6293C8.75023 31.2668 8.77928 31.9269 8.96631 32.5504C9.15335 33.1738 9.49248 33.741 9.9532 34.2007L19.7282 43.9757L19.4068 56.3543L27.7568 52.0365Z" stroke="white" stroke-width="5" stroke-linecap="round" stroke-linejoin="round"/>
</svg>
