<svg width="90" height="30" viewBox="0 0 90 30" fill="none" xmlns="http://www.w3.org/2000/svg">
<path d="M81.8329 0.951172C86.6829 0.951172 89.3329 3.95115 89.3329 9.35112C89.3329 14.8011 86.6829 17.8511 81.8329 17.8511H67.1828V28.801H62.1828V17.8511H62.1328V0.951172H81.8329ZM67.2328 13.3511H79.3829C82.5829 13.3511 84.3329 11.9511 84.3329 9.40112C84.3329 6.85113 82.5829 5.45114 79.3829 5.45114H67.2328V13.3511Z" fill="white"/>
<path d="M43.9337 24.7998C50.9837 24.7998 54.1337 20.7999 54.1337 14.6499C54.1337 8.49994 50.9837 4.49997 43.9337 4.49997C36.8336 4.49997 33.6836 8.49994 33.6836 14.6499C33.6836 20.7999 36.8336 24.7998 43.9337 24.7998ZM28.6836 14.6499C28.6836 6.59996 34.1336 0 43.9337 0C53.6837 0 59.1337 6.59996 59.1337 14.6499C59.1337 22.6999 53.6837 29.2998 43.9337 29.2998C34.1336 29.2998 28.6836 22.6999 28.6836 14.6499Z" fill="white"/>
<path d="M27.2001 0.951172V5.50114H16.3501V28.801H11.3501V5.50114H0.5V0.951172H27.2001Z" fill="white"/>
</svg>
