<svg width="29" height="20" viewBox="0 0 29 20" fill="none" xmlns="http://www.w3.org/2000/svg">
<path d="M7.47059 13.3529L5 10.8235C6.21569 9.60784 7.60784 8.67647 9.17647 8.02941C10.7451 7.38235 12.3922 7.05883 14.1176 7.05883C15.8431 7.05883 17.4953 7.38745 19.0741 8.04471C20.6529 8.70196 22.04 9.64784 23.2353 10.8824L20.7647 13.3529C19.8824 12.4706 18.8675 11.7894 17.72 11.3094C16.5725 10.8294 15.3718 10.589 14.1176 10.5882C12.8627 10.5882 11.662 10.8286 10.5153 11.3094C9.36863 11.7902 8.35373 12.4714 7.47059 13.3529ZM2.47059 8.35294L0 5.88235C1.86275 3.98039 4.0149 2.52432 6.45647 1.51412C8.89804 0.503923 11.4518 -0.000783401 14.1176 9.127e-07C16.7843 9.127e-07 19.3384 0.505099 21.78 1.5153C24.2216 2.52549 26.3733 3.98118 28.2353 5.88235L25.7647 8.35294C24.2157 6.80392 22.4361 5.61294 20.4259 4.78C18.4157 3.94706 16.3129 3.5302 14.1176 3.52941C11.9216 3.52941 9.81843 3.94628 7.80824 4.78C5.79804 5.61373 4.01882 6.80471 2.47059 8.35294ZM14.1176 20L9.97059 15.8235C10.5196 15.2745 11.1522 14.8529 11.8682 14.5588C12.5843 14.2647 13.3341 14.1176 14.1176 14.1176C14.902 14.1176 15.6522 14.2647 16.3682 14.5588C17.0843 14.8529 17.7165 15.2745 18.2647 15.8235L14.1176 20Z" fill="white"/>
</svg>
