<svg width="26" height="29" viewBox="0 0 26 29" fill="none" xmlns="http://www.w3.org/2000/svg">
<g clip-path="url(#clip0_1497_923)">
<g clip-path="url(#clip1_1497_923)">
<g clip-path="url(#clip2_1497_923)">
<path d="M1.76079 10.5725C4.02661 17.5715 8.82199 23.4717 15.208 27.118L16.2307 27.7263C17.3633 28.3996 18.6971 28.6512 19.9971 28.4369C21.2971 28.2225 22.4798 27.556 23.3369 26.5547L24.9955 24.6179C25.2551 24.3141 25.3917 23.9241 25.3782 23.5246C25.3648 23.1251 25.2023 22.7452 24.9229 22.4596L20.5961 18.0374C20.4455 17.8835 20.2652 17.7616 20.0663 17.6791C19.8673 17.5967 19.6538 17.5553 19.4384 17.5575C19.2231 17.5596 19.0104 17.6053 18.8131 17.6918C18.6159 17.7783 18.4381 17.9038 18.2905 18.0607L16.5761 19.883C12.9995 17.5594 10.2878 14.1214 8.86026 10.1006L11.0282 8.85495C11.215 8.74773 11.3782 8.60384 11.5081 8.43193C11.638 8.26002 11.7318 8.06362 11.7839 7.85453C11.836 7.64545 11.8454 7.42799 11.8114 7.21521C11.7774 7.00243 11.7008 6.79872 11.5862 6.61632L8.29206 1.37843C8.07937 1.04012 7.74778 0.79379 7.36259 0.687949C6.9774 0.582108 6.56654 0.624436 6.21095 0.806595L3.92793 1.97746C2.74858 2.58224 1.82203 3.58626 1.31334 4.81067C0.804659 6.03508 0.746872 7.40036 1.15028 8.66329L1.76079 10.5725Z" fill="white"/>
</g>
</g>
</g>
<defs>
<clipPath id="clip0_1497_923">
<rect width="25" height="29" fill="white" transform="translate(0.589844)"/>
</clipPath>
<clipPath id="clip1_1497_923">
<rect width="25" height="29" fill="white" transform="translate(0.589844)"/>
</clipPath>
<clipPath id="clip2_1497_923">
<rect width="25" height="29" fill="white" transform="translate(0.589844)"/>
</clipPath>
</defs>
</svg>
