<svg width="17" height="22" viewBox="0 0 17 22" fill="none" xmlns="http://www.w3.org/2000/svg">
<path d="M16.2812 18.0648V9.7567C16.2809 9.64993 16.2554 9.54475 16.2068 9.44968C16.1383 9.30194 16.0196 9.18327 15.8719 9.11475L8.42904 5.78407C8.33845 5.74295 8.24011 5.72168 8.14062 5.72168C8.04114 5.72168 7.9428 5.74295 7.85221 5.78407L0.409357 9.11475C0.289653 9.17499 0.188434 9.26643 0.116383 9.37942C0.0443321 9.49241 0.00412298 9.62276 0 9.7567V17.9625C0.00695552 18.0957 0.0483209 18.2249 0.120063 18.3374C0.191805 18.4499 0.291476 18.5419 0.409357 18.6044L7.85221 21.9351C7.94229 21.978 8.04083 22.0003 8.14062 22.0003C8.24042 22.0003 8.33896 21.978 8.42904 21.9351L15.8719 18.6044C15.9793 18.5552 16.0729 18.4802 16.1444 18.386C16.2158 18.2919 16.2628 18.1815 16.2812 18.0648ZM1.39554 10.8266L7.44286 13.5433V20.2232L1.39554 17.5159V10.8266ZM8.83839 13.5433L14.8857 10.8266V17.5159L8.83839 20.2232V13.5433ZM8.15923 7.17961L13.8995 9.7567L8.15923 12.3245L2.41893 9.7567L8.15923 7.17961Z" fill="#F8F8F8"/>
<path d="M4.3664 1.36073C6.18576 0.451049 7.77771 1.73977 8.34626 2.49784C8.34761 1.92902 10.6191 1.361 11.1877 1.361C11.7562 1.361 12.8933 2.49784 12.8933 3.63521C12.8933 4.77258 8.91481 9.88927 8.34626 9.88927C7.77771 9.88927 2.09219 2.49784 4.3664 1.36073Z" fill="#788590" stroke="#788590"/>
<path d="M10.8707 0.222656C9.91815 0.222656 9.07276 0.610336 8.5 1.27668C7.92724 0.610336 7.08185 0.222656 6.12931 0.222656C5.29967 0.223691 4.5043 0.563967 3.91766 1.16885C3.33102 1.77372 3.001 2.59382 3 3.44925C3 6.98578 8.01685 9.81149 8.23022 9.93029C8.31313 9.97633 8.40583 10.0004 8.5 10.0004C8.59417 10.0004 8.68687 9.97633 8.76978 9.93029C8.98315 9.81149 14 6.98578 14 3.44925C13.999 2.59382 13.669 1.77372 13.0823 1.16885C12.4957 0.563967 11.7003 0.223691 10.8707 0.222656ZM10.6104 7.18231C9.95004 7.76008 9.24414 8.2801 8.5 8.73694C7.75587 8.2801 7.04996 7.76008 6.38961 7.18231C5.36216 6.27349 4.13793 4.88752 4.13793 3.44925C4.13793 2.90468 4.34774 2.38242 4.72119 1.99735C5.09465 1.61229 5.60116 1.39596 6.12931 1.39596C6.97328 1.39596 7.67974 1.85551 7.97323 2.59567C8.01595 2.70357 8.08887 2.7959 8.18269 2.8609C8.2765 2.92589 8.38697 2.9606 8.5 2.9606C8.61303 2.9606 8.7235 2.92589 8.81731 2.8609C8.91113 2.7959 8.98405 2.70357 9.02677 2.59567C9.32026 1.85551 10.0267 1.39596 10.8707 1.39596C11.3988 1.39596 11.9054 1.61229 12.2788 1.99735C12.6523 2.38242 12.8621 2.90468 12.8621 3.44925C12.8621 4.88752 11.6378 6.27349 10.6104 7.18231Z" fill="#F8F8F8"/>
</svg>
