<svg width="18" height="20" viewBox="0 0 18 20" fill="none" xmlns="http://www.w3.org/2000/svg">
<path d="M10.4423 6.42857H7.33549C6.95361 6.42857 6.64509 6.74777 6.64509 7.14286V19.2857C6.64509 19.6808 6.95361 20 7.33549 20H10.4423C10.8242 20 11.1327 19.6808 11.1327 19.2857V7.14286C11.1327 6.74777 10.8242 6.42857 10.4423 6.42857ZM17.0874 0H13.9806C13.5987 0 13.2902 0.319196 13.2902 0.714286V19.2857C13.2902 19.6808 13.5987 20 13.9806 20H17.0874C17.4693 20 17.7778 19.6808 17.7778 19.2857V0.714286C17.7778 0.319196 17.4693 0 17.0874 0ZM3.7972 12.8571H0.690399C0.308522 12.8571 0 13.1763 0 13.5714V19.2857C0 19.6808 0.308522 20 0.690399 20H3.7972C4.17907 20 4.48759 19.6808 4.48759 19.2857V13.5714C4.48759 13.1763 4.17907 12.8571 3.7972 12.8571Z" fill="white"/>
</svg>
