<svg width="36" height="18" viewBox="0 0 36 18" fill="none" xmlns="http://www.w3.org/2000/svg">
<rect width="33" height="18" rx="7" fill="#BBC2C7"/>
<path fill-rule="evenodd" clip-rule="evenodd" d="M24 0H7C3.13281 0 0 3.13379 0 7V11C0 14.8662 3.13281 18 7 18H24V0Z" fill="white"/>
<path d="M9.18945 14L13.4824 5.66016V5.5918H8.50586V4.10156H15.3281V5.61914L11.0352 14H9.18945ZM20.168 14.1367C17.96 14.1367 16.4014 12.9609 16.4082 11.3477C16.4014 10.0898 17.3379 9.06445 18.5273 8.87305V8.81836C17.4883 8.59961 16.7842 7.69727 16.7773 6.61719C16.7842 5.08594 18.2129 3.96484 20.168 3.96484C22.1094 3.96484 23.5449 5.08594 23.5449 6.61719C23.5449 7.7041 22.8203 8.59961 21.7949 8.81836V8.87305C22.9775 9.06445 23.9209 10.0898 23.9277 11.3477C23.9209 12.9609 22.3555 14.1367 20.168 14.1367ZM18.2402 11.1836C18.2334 12.0996 18.9922 12.7285 20.168 12.7285C21.3301 12.7285 22.0889 12.0996 22.0957 11.1836C22.0889 10.2539 21.2822 9.56348 20.168 9.57031C19.0537 9.56348 18.2334 10.2471 18.2402 11.1836ZM18.5137 6.78125C18.5205 7.64941 19.2041 8.24414 20.168 8.24414C21.1182 8.24414 21.8086 7.64941 21.8086 6.78125C21.8086 5.94043 21.1387 5.35938 20.168 5.35938C19.1768 5.35938 18.5205 5.94043 18.5137 6.78125Z" fill="#788590"/>
<path fill-rule="evenodd" clip-rule="evenodd" d="M34 11.6582C35.1641 11.2461 36 10.1357 36 8.8291C36 7.52246 35.1641 6.41211 34 6V11.6582Z" fill="#BBC2C7"/>
</svg>
