<svg width="18" height="15" viewBox="0 0 18 15" fill="none" xmlns="http://www.w3.org/2000/svg">
<path d="M4.12293 15L2.19613 7.99724H0.124309V7.00276H1.9268L0 0H1.11878L2.99378 7.00276H6.45373L8.30801 0H9.57182L11.4157 7.00276H14.886L16.761 0H17.8591L15.9427 7.00276H17.7762V7.99724H15.6733L13.7569 15H12.5552L10.6595 7.99724H7.20994L5.32459 15H4.12293ZM3.25276 7.99724L4.68232 13.3425H4.76519L6.18439 7.99724H3.25276ZM7.47928 7.00276H10.3902L8.97099 1.76105H8.88812L7.47928 7.00276ZM11.6851 7.99724L13.0939 13.3425H13.1975L14.6271 7.99724H11.6851Z" fill="white"/>
</svg>
