<svg width="64" height="75" viewBox="0 0 64 75" fill="none" xmlns="http://www.w3.org/2000/svg">
<g clip-path="url(#clip0_1366_2860)">
<g clip-path="url(#clip1_1366_2860)">
<path d="M25.8677 16.8632L27.8958 20.4976C29.724 23.7788 28.9896 28.0788 26.1083 30.9632C26.1083 30.9632 22.6083 34.4601 28.9521 40.8007C35.2865 47.1351 38.7865 43.6445 38.7865 43.6445C41.6709 40.7601 45.974 40.0257 49.2521 41.8539L52.8865 43.8851C57.8396 46.6476 58.424 53.5914 54.0709 57.9476C51.4553 60.5601 48.249 62.5976 44.7084 62.7289C38.7459 62.957 28.6177 61.4476 18.4583 51.2914C8.30207 41.132 6.79269 31.0038 7.02081 25.0413C7.15519 21.5007 9.18957 18.2945 11.8021 15.6788C16.1583 11.3257 23.1021 11.9101 25.8646 16.8663" stroke="white" stroke-width="5"/>
</g>
</g>
<defs>
<clipPath id="clip0_1366_2860">
<rect width="64" height="74" fill="white" transform="translate(0 0.75)"/>
</clipPath>
<clipPath id="clip1_1366_2860">
<rect width="64" height="64" fill="white" transform="translate(0 5.75)"/>
</clipPath>
</defs>
</svg>
