<svg width="123" height="135" viewBox="0 0 123 135" fill="none" xmlns="http://www.w3.org/2000/svg">
<path fill-rule="evenodd" clip-rule="evenodd" d="M47.2355 64.889C37.6832 60.1785 30.84 50.8095 29.6721 39.748C19.162 44.9309 11.9316 55.7533 11.9316 68.2644C11.9316 85.8139 26.1581 100.041 43.7074 100.041C50.2009 100.041 56.2395 98.0928 61.2708 94.7496C52.7045 89.0575 47.0583 79.3203 47.0583 68.2644C47.0583 67.1242 47.1184 65.9981 47.2355 64.889Z" fill="#C21920" fill-opacity="0.8"/>
<path fill-rule="evenodd" clip-rule="evenodd" d="M52.1692 62.1678L51.8307 65.373C51.7306 66.3212 51.6791 67.2853 51.6791 68.2631C51.6791 77.7064 56.4957 86.0267 63.8276 90.8986L69.621 94.7482L63.8276 98.5978C58.0618 102.429 51.1377 104.661 43.7063 104.661C23.6044 104.661 7.30859 88.3652 7.30859 68.2631C7.30859 53.9254 15.5991 41.5326 27.6268 35.6014L33.5714 32.6699L34.2674 39.2614C35.2639 48.6996 41.1064 56.7124 49.2785 60.7423L52.1692 62.1678ZM29.671 39.7468C28.1611 40.4914 26.7188 41.3524 25.3559 42.3181C17.2326 48.0741 11.9305 57.5494 11.9305 68.2631C11.9305 85.8125 26.157 100.039 43.7063 100.039C48.3705 100.039 52.7999 99.0343 56.79 97.2292C58.3549 96.5212 59.8522 95.6901 61.2696 94.7482C59.9003 93.8383 58.6055 92.825 57.3965 91.7195C51.0425 85.9093 47.0572 77.5516 47.0572 68.2631C47.0572 67.1229 47.1173 65.9968 47.2344 64.8877C39.0861 60.8696 32.9092 53.4618 30.5445 44.5054C30.137 42.962 29.8427 41.3727 29.671 39.7468Z" fill="#F3F4F3"/>
<path fill-rule="evenodd" clip-rule="evenodd" d="M93.0477 36.3972C93.0477 37.5374 92.9876 38.6635 92.8705 39.7726C88.638 37.6854 83.8735 36.5128 78.8352 36.5128C72.3417 36.5128 66.3031 38.4606 61.2719 41.8038C56.2406 38.4606 50.202 36.5128 43.7085 36.5128C38.6702 36.5128 33.9058 37.6854 29.6732 39.7726C29.5561 38.6635 29.4961 37.5374 29.4961 36.3972C29.4961 18.8478 43.7226 4.62109 61.2719 4.62109C78.8212 4.62109 93.0477 18.8478 93.0477 36.3972Z" fill="#DAD0C7" fill-opacity="0.8"/>
<path fill-rule="evenodd" clip-rule="evenodd" d="M96.7698 46.8503L90.8252 43.9188C87.2144 42.1382 83.1479 41.1356 78.8341 41.1356C73.2785 41.1356 68.1254 42.7991 63.8287 45.6543L61.2708 47.354L58.7128 45.6543C54.4161 42.7991 49.263 41.1356 43.7074 41.1356C39.3936 41.1356 35.3271 42.1382 31.7163 43.9188L25.7717 46.8503L25.0757 40.2588C24.9417 38.9888 24.873 37.7007 24.873 36.3981C24.873 16.296 41.1689 0 61.2708 0C81.3726 0 97.6685 16.296 97.6685 36.3981C97.6685 37.7007 97.5998 38.9888 97.4658 40.2588L96.7698 46.8503ZM92.8694 39.7735C92.9865 38.6644 93.0465 37.5383 93.0465 36.3981C93.0465 35.8469 93.0325 35.2989 93.0048 34.7546C92.1496 17.969 78.2688 4.62198 61.2708 4.62198C44.2727 4.62198 30.392 17.969 29.5367 34.7546C29.509 35.2989 29.495 35.8469 29.495 36.3981C29.495 37.5383 29.555 38.6644 29.6721 39.7735C31.1106 39.0641 32.6105 38.4604 34.1617 37.9725C37.1747 37.0247 40.3814 36.5137 43.7074 36.5137C50.2009 36.5137 56.2395 38.4615 61.2708 41.8046C66.302 38.4615 72.3406 36.5137 78.8341 36.5137C82.1601 36.5137 85.3668 37.0247 88.3798 37.9725C89.931 38.4604 91.4309 39.0641 92.8694 39.7735Z" fill="#F3F4F3"/>
<path fill-rule="evenodd" clip-rule="evenodd" d="M92.7529 39.748C91.585 50.8094 84.7419 60.1784 75.1896 64.889C75.3067 65.9981 75.3667 67.1242 75.3667 68.2644C75.3667 79.3203 69.7205 89.0574 61.1543 94.7495C66.1856 98.0927 72.2241 100.04 78.7176 100.04C96.2669 100.04 110.493 85.8138 110.493 68.2644C110.493 55.7533 103.263 44.9309 92.7529 39.748Z" fill="#F4B01B"/>
<path fill-rule="evenodd" clip-rule="evenodd" d="M88.8503 32.6699L94.7949 35.6014C106.823 41.5326 115.113 53.9254 115.113 68.2631C115.113 88.3652 98.8174 104.661 78.7155 104.661C71.2841 104.661 64.36 102.429 58.5942 98.5978L52.8008 94.7482L58.5942 90.8986C65.9261 86.0267 70.7426 77.7064 70.7426 68.2631C70.7426 67.2853 70.6911 66.3212 70.591 65.373L70.2526 62.1678L73.1432 60.7423C81.3154 56.7124 87.1579 48.6996 88.1544 39.2614L88.8503 32.6699ZM65.0253 91.7195C71.3792 85.9093 75.3646 77.5516 75.3646 68.2631C75.3646 67.1229 75.3045 65.9968 75.1874 64.8877C83.3356 60.8696 89.5126 53.4618 91.8773 44.5054C92.2848 42.962 92.5791 41.3727 92.7507 39.7468C94.2607 40.4914 95.703 41.3524 97.0658 42.3181C105.189 48.0741 110.491 57.5494 110.491 68.2631C110.491 85.8125 96.2647 100.039 78.7155 100.039C74.0513 100.039 69.6219 99.0343 65.6318 97.2291C64.0669 96.5212 62.5695 95.6901 61.1521 94.7482C62.5215 93.8383 63.8163 92.825 65.0253 91.7195Z" fill="#F3F4F3"/>
<path fill-rule="evenodd" clip-rule="evenodd" d="M43.7599 36.5137C38.7216 36.5137 33.9572 37.6863 29.7246 39.7735C30.8925 50.8349 37.7356 60.2039 47.288 64.9145C48.3064 55.2687 53.6404 46.9098 61.3233 41.8047C56.292 38.4615 50.2534 36.5137 43.7599 36.5137Z" fill="#EF897F"/>
<path fill-rule="evenodd" clip-rule="evenodd" d="M47.2355 64.889C37.6832 60.1785 30.84 50.8095 29.6721 39.748C19.162 44.9309 11.9316 55.7533 11.9316 68.2644C11.9316 85.8139 26.1581 100.041 43.7074 100.041C50.2009 100.041 56.2395 98.0928 61.2708 94.7496C52.7045 89.0575 47.0583 79.3203 47.0583 68.2644C47.0583 67.1242 47.1184 65.9981 47.2355 64.889Z" fill="#C21920"/>
<path fill-rule="evenodd" clip-rule="evenodd" d="M61.3263 41.8301C69.0091 46.9352 74.3431 55.2941 75.3616 64.9399C71.1291 67.0271 66.3646 68.1997 61.3263 68.1997C56.288 68.1997 51.5236 67.0271 47.291 64.9399C48.3095 55.2941 53.6435 46.9352 61.3263 41.8301Z" fill="#542623"/>
<path fill-rule="evenodd" clip-rule="evenodd" d="M75.1896 64.9145C84.7419 60.2039 91.585 50.8349 92.7529 39.7735C88.5204 37.6863 83.756 36.5137 78.7176 36.5137C72.2241 36.5137 66.1856 38.4615 61.1543 41.8047C68.8371 46.9098 74.1712 55.2687 75.1896 64.9145Z" fill="#F6DD73"/>
<path fill-rule="evenodd" clip-rule="evenodd" d="M93.0477 36.3972C93.0477 37.5374 92.9876 38.6635 92.8705 39.7726C88.638 37.6854 83.8735 36.5128 78.8352 36.5128C72.3417 36.5128 66.3031 38.4606 61.2719 41.8038C56.2406 38.4606 50.202 36.5128 43.7085 36.5128C38.6702 36.5128 33.9058 37.6854 29.6732 39.7726C29.5561 38.6635 29.4961 37.5374 29.4961 36.3972C29.4961 18.8478 43.7226 4.62109 61.2719 4.62109C78.8212 4.62109 93.0477 18.8478 93.0477 36.3972Z" fill="#DAD0C7"/>
<path fill-rule="evenodd" clip-rule="evenodd" d="M92.7529 39.748C91.585 50.8094 84.7419 60.1784 75.1896 64.889C75.3067 65.9981 75.3667 67.1242 75.3667 68.2644C75.3667 79.3203 69.7205 89.0574 61.1543 94.7495C66.1856 98.0927 72.2241 100.04 78.7176 100.04C96.2669 100.04 110.493 85.8138 110.493 68.2644C110.493 55.7533 103.263 44.9309 92.7529 39.748Z" fill="#F4B01B"/>
<path fill-rule="evenodd" clip-rule="evenodd" d="M75.3044 64.9375C71.0718 67.0247 66.3074 68.1973 61.2691 68.1973C56.2308 68.1973 51.4663 67.0247 47.2338 64.9375C47.1167 66.0466 47.0566 67.1727 47.0566 68.3128C47.0566 79.3687 52.7029 89.1059 61.2691 94.798C69.8353 89.1059 75.4815 79.3687 75.4815 68.3128C75.4815 67.1727 75.4215 66.0466 75.3044 64.9375Z" fill="#EB5E3C"/>
<path d="M122.396 110.844V125.261H119.598V110.844H122.396ZM108.347 119.126C107.424 120.615 106.265 121.84 104.87 122.801C103.476 123.743 101.93 124.328 100.234 124.554V121.953C101.723 121.689 103.033 121.039 104.164 120.003C105.294 118.966 106.161 117.675 106.764 116.13C107.386 114.566 107.707 112.879 107.725 111.07L110.524 111.24C110.524 113.218 110.175 115.093 109.478 116.865L117.139 122.179L115.556 124.215L108.347 119.126ZM101.704 126.589H122.396V134.985H119.57V129.02H101.704V126.589Z" fill="white"/>
<path d="M88.9185 121.278H68.2829V110.988H71.0532V113.9H86.1765V110.988H88.9185V121.278ZM86.1765 119.045V116.048H71.0532V119.045H86.1765ZM90.6711 123.652V126.027H80.0141V129.787H77.1873V126.027H66.5586V123.652H90.6711ZM71.0815 132.331H89.4273V134.705H68.2264V128.204H71.0815V132.331Z" fill="white"/>
<path d="M41.4213 119.835C40.5733 121.06 39.4897 122.068 38.1705 122.86C36.8513 123.633 35.372 124.113 33.7324 124.302V121.871C35.5227 121.607 36.9927 120.9 38.1422 119.75C39.2918 118.582 40.0173 117.14 40.3188 115.425H33.9868V113.079H40.3754V110.422H43.2022V113.079H49.5059V115.425H43.1739C43.0608 116.179 42.863 116.933 42.5803 117.687L49.8734 121.955L48.6013 124.075L41.4213 119.835ZM55.9793 110.846V124.302H53.1807V119.015H48.5448V116.528H53.1807V110.846H55.9793ZM53.1807 125.63H55.9793V134.676H35.4285V125.63H38.227V127.835H53.1807V125.63ZM53.1807 132.443V130.04H38.227V132.443H53.1807Z" fill="white"/>
<path d="M25.1867 118.111H21.7946V123.962H18.996V110.846H21.7946V115.453H25.1867V118.111ZM8.08463 118.365C7.18005 119.741 6.03991 120.872 4.66421 121.757C3.2885 122.643 1.73377 123.199 0 123.425V120.881C1.48878 120.617 2.77968 120.023 3.8727 119.1C4.98458 118.177 5.83261 117.018 6.41682 115.623C7.00102 114.228 7.30255 112.711 7.32139 111.072L10.1199 111.241C10.1199 112.994 9.81839 114.634 9.21534 116.16L16.7629 121.051L15.3212 123.114L8.08463 118.365ZM1.61127 125.291H21.7946V134.676H1.61127V125.291ZM4.4098 132.33H18.996V127.665H4.4098V132.33Z" fill="white"/>
</svg>
