<svg width="180" height="66" viewBox="0 0 180 66" fill="none" xmlns="http://www.w3.org/2000/svg">
<path fill-rule="evenodd" clip-rule="evenodd" d="M0 33C0 14.7754 14.7754 0 33 0H147C165.225 0 180 14.7754 180 33C180 51.2246 165.225 66 147 66H33C14.7754 66 0 51.2246 0 33ZM124.275 24V42.5391H121.979V24H124.275ZM108.914 37.4336C113.775 35.125 116.012 31.9883 116.422 27.7734H109.859V25.9688H118.738C118.738 31.4844 116.596 36.1719 110.105 39.2578L108.914 37.4336ZM105.162 31.2383V24H102.887V42.498H105.162V33.1465H107.91V31.2383H105.162ZM97.9434 27.8145C97.4922 32.0391 95.0508 35.1758 90.5391 37.4336L91.832 39.1953C97.9941 36.1602 100.25 31.373 100.262 25.9277H91.5449V27.8145H97.9434ZM89.4336 38.5V40.3867H72.4922V38.5H79.793V35.4844H74.5039V29.4141H85.168V27.1172H74.4609V25.2715H87.4219V31.2188H76.7793V33.6172H87.8535V35.4844H82.0508V38.5H89.4336ZM68.8633 31.0547V24H66.5859V42.5391H68.8633V32.9824H71.7148V31.0547H68.8633ZM55 25.5176V38.1914H63.9004V25.5176H61.625V30.1523H57.2559V25.5176H55ZM61.625 36.3242H57.2559V31.9375H61.625V36.3242Z" fill="white"/>
</svg>
