<svg width="134" height="54" viewBox="0 0 134 54" fill="none" xmlns="http://www.w3.org/2000/svg">
<path d="M133.667 0.90625L36.1216 47.3472C28.0327 51.1738 21.2382 53.0933 15.7437 53.0933C9.52142 53.0933 5.00472 50.6582 2.2047 45.7818C0.443574 42.6509 -0.0730969 38.6814 0.649131 33.8671C1.37136 29.0528 3.2936 23.9279 6.40473 18.4738C8.9992 14.0633 13.2492 8.26747 19.1659 1.08019C17.1591 4.61274 15.6874 8.49146 14.8104 12.56C13.2548 19.9833 14.6548 25.4312 19.0104 28.91C21.0826 30.5313 23.9326 31.3451 27.566 31.3451C30.466 31.3451 33.7327 30.8233 37.3661 29.7796L133.667 0.90625Z" fill="black"/>
</svg>
