<svg width="970" height="943" viewBox="0 0 970 943" fill="none" xmlns="http://www.w3.org/2000/svg">
<g opacity="0.1" filter="url(#filter0_f_1516_446)">
<path fill-rule="evenodd" clip-rule="evenodd" d="M366.69 577.184C286.139 537.462 228.433 458.457 218.584 365.18C129.956 408.885 68.9844 500.146 68.9844 605.648C68.9844 753.636 188.952 873.604 336.94 873.604C391.697 873.604 442.619 857.179 485.046 828.987C412.81 780.988 365.197 698.878 365.197 605.648C365.197 596.033 365.703 586.537 366.69 577.184Z" fill="#C21920" fill-opacity="0.8"/>
<path fill-rule="evenodd" clip-rule="evenodd" d="M408.295 554.247L405.441 581.275C404.597 589.271 404.163 597.401 404.163 605.646C404.163 685.278 444.779 755.44 506.607 796.523L555.461 828.986L506.607 861.448C457.986 893.756 399.597 912.578 336.93 912.578C167.417 912.578 30 775.16 30 605.646C30 484.741 99.9115 380.238 201.337 330.222L251.466 305.502L257.335 361.086C265.738 440.674 315.006 508.243 383.919 542.226L408.295 554.247ZM218.575 365.178C205.842 371.457 193.68 378.718 182.188 386.861C113.686 435.4 68.9753 515.302 68.9753 605.646C68.9753 753.634 188.943 873.603 336.93 873.603C376.262 873.603 413.614 865.129 447.261 849.906C460.457 843.936 473.084 836.928 485.037 828.986C473.489 821.313 462.571 812.768 452.376 803.445C398.795 754.45 365.188 683.973 365.188 605.646C365.188 596.032 365.694 586.535 366.681 577.183C297.97 543.299 245.882 480.832 225.941 405.306C222.505 392.291 220.023 378.889 218.575 365.178Z" fill="#F3F4F3"/>
<path fill-rule="evenodd" clip-rule="evenodd" d="M753.008 336.927C753.008 346.542 752.502 356.038 751.514 365.391C715.822 347.79 675.645 337.902 633.159 337.902C578.401 337.902 527.48 354.327 485.053 382.519C442.626 354.327 391.704 337.902 336.947 337.902C294.46 337.902 254.283 347.79 218.592 365.391C217.604 356.038 217.098 346.542 217.098 336.927C217.098 188.939 337.065 68.9707 485.053 68.9707C633.04 68.9707 753.008 188.939 753.008 336.927Z" fill="#DAD0C7" fill-opacity="0.8"/>
<path fill-rule="evenodd" clip-rule="evenodd" d="M784.396 425.072L734.267 400.352C703.818 385.336 669.527 376.882 633.15 376.882C586.301 376.882 542.847 390.91 506.614 414.986L485.044 429.319L463.473 414.986C427.24 390.91 383.786 376.882 336.938 376.882C300.56 376.882 266.269 385.336 235.82 400.352L185.691 425.072L179.823 369.488C178.692 358.778 178.113 347.916 178.113 336.932C178.113 167.418 315.531 30 485.044 30C654.557 30 791.974 167.418 791.974 336.932C791.974 347.916 791.396 358.778 790.265 369.488L784.396 425.072ZM751.505 365.395C752.492 356.043 752.999 346.546 752.999 336.932C752.999 332.284 752.88 327.663 752.647 323.073C745.435 181.526 628.383 68.9755 485.044 68.9755C341.704 68.9755 224.653 181.526 217.441 323.073C217.207 327.663 217.089 332.284 217.089 336.932C217.089 346.546 217.595 356.043 218.582 365.395C230.712 359.414 243.36 354.323 256.441 350.208C281.85 342.216 308.89 337.906 336.938 337.906C391.695 337.906 442.617 354.331 485.044 382.523C527.471 354.331 578.392 337.906 633.15 337.906C661.197 337.906 688.238 342.216 713.646 350.208C726.727 354.323 739.375 359.414 751.505 365.395Z" fill="#F3F4F3"/>
<path fill-rule="evenodd" clip-rule="evenodd" d="M750.522 365.18C740.673 458.456 682.967 537.462 602.416 577.184C603.403 586.537 603.91 596.033 603.91 605.647C603.91 698.878 556.297 780.988 484.061 828.987C526.488 857.179 577.409 873.604 632.167 873.604C780.154 873.604 900.122 753.636 900.122 605.647C900.122 500.146 839.15 408.885 750.522 365.18Z" fill="#F4B01B"/>
<path fill-rule="evenodd" clip-rule="evenodd" d="M717.616 305.502L767.744 330.222C869.17 380.238 939.082 484.741 939.082 605.646C939.082 775.16 801.664 912.578 632.151 912.578C569.485 912.578 511.096 893.756 462.475 861.448L413.621 828.986L462.475 796.523C524.303 755.44 564.919 685.278 564.919 605.646C564.919 597.401 564.485 589.271 563.641 581.275L560.787 554.247L585.163 542.226C654.076 508.243 703.344 440.674 711.747 361.086L717.616 305.502ZM516.706 803.445C570.287 754.45 603.894 683.973 603.894 605.646C603.894 596.032 603.388 586.535 602.4 577.183C671.112 543.299 723.2 480.832 743.141 405.306C746.577 392.291 749.059 378.889 750.507 365.178C763.24 371.457 775.402 378.718 786.894 386.861C855.396 435.4 900.107 515.301 900.107 605.646C900.107 753.634 780.139 873.603 632.151 873.603C592.82 873.603 555.468 865.128 521.821 849.906C508.624 843.936 495.998 836.928 484.045 828.986C495.593 821.313 506.511 812.768 516.706 803.445Z" fill="#F3F4F3"/>
<path fill-rule="evenodd" clip-rule="evenodd" d="M337.379 337.904C294.892 337.904 254.715 347.793 219.023 365.393C228.872 458.67 286.578 537.676 367.13 577.398C375.718 496.058 420.698 425.571 485.485 382.521C443.058 354.329 392.136 337.904 337.379 337.904Z" fill="#EF897F"/>
<path fill-rule="evenodd" clip-rule="evenodd" d="M366.69 577.184C286.139 537.462 228.433 458.457 218.584 365.18C129.956 408.885 68.9844 500.146 68.9844 605.648C68.9844 753.636 188.952 873.604 336.94 873.604C391.697 873.604 442.619 857.179 485.046 828.987C412.81 780.988 365.197 698.878 365.197 605.648C365.197 596.033 365.703 586.537 366.69 577.184Z" fill="#C21920"/>
<path fill-rule="evenodd" clip-rule="evenodd" d="M485.521 382.744C550.308 425.794 595.288 496.281 603.876 577.621C568.185 595.221 528.008 605.109 485.521 605.109C443.035 605.109 402.858 595.221 367.166 577.621C375.754 496.281 420.734 425.794 485.521 382.744Z" fill="#542623"/>
<path fill-rule="evenodd" clip-rule="evenodd" d="M602.416 577.398C682.968 537.676 740.673 458.67 750.522 365.393C714.83 347.793 674.653 337.904 632.167 337.904C577.409 337.904 526.488 354.329 484.061 382.521C548.847 425.571 593.828 496.058 602.416 577.398Z" fill="#F6DD73"/>
<path fill-rule="evenodd" clip-rule="evenodd" d="M753.008 336.927C753.008 346.542 752.502 356.038 751.514 365.391C715.822 347.79 675.645 337.902 633.159 337.902C578.401 337.902 527.48 354.327 485.053 382.519C442.626 354.327 391.704 337.902 336.947 337.902C294.46 337.902 254.283 347.79 218.592 365.391C217.604 356.038 217.098 346.542 217.098 336.927C217.098 188.939 337.065 68.9707 485.053 68.9707C633.04 68.9707 753.008 188.939 753.008 336.927Z" fill="#DAD0C7"/>
<path fill-rule="evenodd" clip-rule="evenodd" d="M750.522 365.18C740.673 458.456 682.967 537.462 602.416 577.184C603.403 586.537 603.91 596.033 603.91 605.647C603.91 698.878 556.297 780.988 484.061 828.987C526.488 857.179 577.409 873.604 632.167 873.604C780.154 873.604 900.122 753.636 900.122 605.647C900.122 500.146 839.15 408.885 750.522 365.18Z" fill="#F4B01B"/>
<path fill-rule="evenodd" clip-rule="evenodd" d="M603.384 577.594C567.692 595.194 527.515 605.083 485.029 605.083C442.542 605.083 402.365 595.194 366.673 577.594C365.686 586.946 365.18 596.442 365.18 606.057C365.18 699.287 412.793 781.397 485.029 829.396C557.265 781.397 604.878 699.287 604.878 606.057C604.878 596.442 604.371 586.946 603.384 577.594Z" fill="#EB5E3C"/>
</g>
<defs>
<filter id="filter0_f_1516_446" x="0" y="0" width="969.082" height="942.578" filterUnits="userSpaceOnUse" color-interpolation-filters="sRGB">
<feFlood flood-opacity="0" result="BackgroundImageFix"/>
<feBlend mode="normal" in="SourceGraphic" in2="BackgroundImageFix" result="shape"/>
<feGaussianBlur stdDeviation="15" result="effect1_foregroundBlur_1516_446"/>
</filter>
</defs>
</svg>
