<svg width="1292" height="840" viewBox="0 0 1292 840" fill="none" xmlns="http://www.w3.org/2000/svg">
<g opacity="0.1" filter="url(#filter0_f_1516_434)">
<path d="M1086.57 354.945C990.532 354.945 919.545 286.236 919.545 192.473C919.545 98.7092 990.532 30 1086.57 30C1182.61 30 1253.6 98.7092 1253.6 192.473C1253.6 286.236 1182.61 354.945 1086.57 354.945ZM1086.57 292.689C1142.75 292.689 1184.51 250.553 1184.51 192.473C1184.51 134.013 1142.75 92.2558 1086.57 92.2558C1030.39 92.2558 988.633 134.013 988.633 192.473C988.633 250.553 1030.39 292.689 1086.57 292.689Z" fill="white"/>
<path d="M681.135 72.4838C681.135 53.4055 696.601 37.9395 715.679 37.9395V37.9395C734.757 37.9395 750.223 53.4054 750.223 72.4837V208.953C750.223 251.618 784.809 286.204 827.473 286.204H874.165C891.042 286.204 904.724 299.885 904.724 316.762V316.762C904.724 333.639 891.042 347.321 874.165 347.321H792.929C731.187 347.321 681.135 297.268 681.135 235.526V72.4838Z" fill="white"/>
<path d="M598.053 347.321C583.036 347.321 569.631 337.906 564.535 323.779L551.39 287.342H431.434L417.661 325.519C412.942 338.601 400.527 347.321 386.619 347.321V347.321C363.422 347.321 347.465 324.019 355.85 302.39L445.417 71.3863C453.234 51.2255 472.635 37.9395 494.259 37.9395V37.9395C515.882 37.9395 535.283 51.2255 543.1 71.3863L631.277 298.805C640.332 322.159 623.101 347.321 598.053 347.321V347.321ZM452.692 227.364H530.132L498.587 139.534C496.17 132.805 486.653 132.805 484.236 139.534L452.692 227.364Z" fill="white"/>
<path d="M238.146 72.4838C238.146 53.4055 253.612 37.9395 272.69 37.9395V37.9395C291.768 37.9395 307.234 53.4055 307.234 72.4838V312.776C307.234 331.855 291.768 347.321 272.69 347.321V347.321C253.612 347.321 238.146 331.855 238.146 312.776V221.67H101.487V312.776C101.487 331.855 86.021 347.321 66.9427 347.321V347.321C47.8644 347.321 32.3984 331.855 32.3984 312.776V72.4838C32.3984 53.4055 47.8644 37.9395 66.9427 37.9395V37.9395C86.021 37.9395 101.487 53.4055 101.487 72.4838V160.553H238.146V72.4838Z" fill="white"/>
<path d="M1050.18 809.158C1031.1 809.158 1015.63 793.692 1015.63 774.614V603.798C1015.63 538.177 1068.83 484.98 1134.45 484.98V484.98C1214.93 484.98 1262 529.774 1262 598.104C1262 667.193 1214.93 711.986 1134.45 711.986H1084.72V774.614C1084.72 793.692 1069.26 809.158 1050.18 809.158V809.158ZM1084.72 650.869H1131.41C1169.75 650.869 1192.91 632.648 1192.91 598.104C1192.91 563.939 1169.75 546.097 1131.41 546.097V546.097C1105.63 546.097 1084.72 567.002 1084.72 592.789V650.869Z" fill="white"/>
<path d="M807.555 809.502C711.514 809.502 640.527 740.793 640.527 647.029C640.527 553.266 711.514 484.557 807.555 484.557C903.595 484.557 974.582 553.266 974.582 647.029C974.582 740.793 903.595 809.502 807.555 809.502ZM807.555 747.246C863.737 747.246 905.494 705.109 905.494 647.029C905.494 588.569 863.737 546.812 807.555 546.812C751.373 546.812 709.616 588.569 709.616 647.029C709.616 705.109 751.373 747.246 807.555 747.246Z" fill="white"/>
<path d="M530.349 527.04C530.349 507.962 545.815 492.496 564.893 492.496V492.496C583.971 492.496 599.437 507.962 599.437 527.04V767.333C599.437 786.411 583.971 801.877 564.893 801.877V801.877C545.815 801.877 530.349 786.411 530.349 767.333V676.227H393.69V767.333C393.69 786.411 378.224 801.877 359.146 801.877V801.877C340.068 801.877 324.602 786.411 324.602 767.333V527.04C324.602 507.962 340.068 492.496 359.146 492.496V492.496C378.224 492.496 393.69 507.962 393.69 527.04V615.11H530.349V527.04Z" fill="white"/>
<path d="M158.761 484.898C211.808 484.898 254.561 509.74 273.101 547.91C282.456 567.17 264.847 585.874 243.435 585.874V585.874C225.073 585.874 210.881 570.559 197.781 557.693C187.903 547.99 173.186 542.599 154.206 542.599C121.939 542.599 104.097 555.506 104.097 574.106C104.097 597.263 128.013 605.234 188.37 617.761C259.736 632.566 284.031 667.87 284.031 714.182C284.031 773.401 228.229 809.464 159.14 809.464C98.5294 809.464 50.8535 783.354 32.2865 739.507C24.0945 720.161 41.5612 702.035 62.5703 702.035V702.035C81.1041 702.035 95.7376 717.421 108.388 730.966C120.368 743.793 139.594 751.384 164.075 751.384C192.166 751.384 213.045 737.338 213.045 717.219C213.045 692.544 192.166 682.675 137.123 672.425C69.9325 659.898 33.4902 632.187 33.4902 574.106C33.4902 518.304 88.913 484.898 158.761 484.898Z" fill="white"/>
</g>
<defs>
<filter id="filter0_f_1516_434" x="-6" y="0" width="1298" height="839.502" filterUnits="userSpaceOnUse" color-interpolation-filters="sRGB">
<feFlood flood-opacity="0" result="BackgroundImageFix"/>
<feBlend mode="normal" in="SourceGraphic" in2="BackgroundImageFix" result="shape"/>
<feGaussianBlur stdDeviation="15" result="effect1_foregroundBlur_1516_434"/>
</filter>
</defs>
</svg>
