<svg width="161" height="96" viewBox="0 0 161 96" fill="none" xmlns="http://www.w3.org/2000/svg">
<path d="M72.8946 4.204L84.1263 5.37346L91.2413 14.1424L90.0719 25.3742L81.3029 32.4893L70.0712 31.3198L62.9561 22.5509L64.1256 11.3191L72.8946 4.204Z" fill="#5CA775" fill-opacity="0.95"/>
<path d="M87.6443 7.47479L97.3594 11.0865L101.675 20.5099L98.0634 30.225L88.64 34.5408L78.925 30.9291L74.6092 21.5057L78.2209 11.7906L87.6443 7.47479Z" fill="#F1D566" fill-opacity="0.7"/>
<path d="M86.5956 20.4452L94.554 21.63L99.3436 28.0953L98.1588 36.0537L91.6935 40.8434L83.7351 39.6585L78.9455 33.1932L80.1303 25.2348L86.5956 20.4452Z" fill="#804FD0" fill-opacity="0.8"/>
<path d="M78.5563 29.0822L86.5026 27.8191L93.0147 32.5449L94.2778 40.4913L89.552 47.0034L81.6056 48.2665L75.0936 43.5407L73.8305 35.5943L78.5563 29.0822Z" fill="#EBAA70" fill-opacity="0.8"/>
<path d="M46.6828 61.8119C46.6828 61.5682 46.6584 61.3733 46.6096 61.2271C46.577 61.0646 46.5038 60.9265 46.3899 60.8128C46.2759 60.6991 46.1213 60.6098 45.926 60.5448C45.7307 60.4635 45.4785 60.3823 45.1693 60.3011C45.0553 60.2686 44.974 60.2036 44.9251 60.1061C44.8926 59.9924 44.8844 59.8868 44.9007 59.7894C44.9333 59.6756 44.9902 59.5782 45.0716 59.4969C45.1693 59.4157 45.2913 59.3832 45.4378 59.3995L48.0011 59.6675C48.2452 59.7 48.3754 59.7812 48.3917 59.9112C48.4242 60.0249 48.4405 60.1224 48.4405 60.2036C48.4405 60.3173 48.4242 60.4635 48.3917 60.6422C48.3754 60.8209 48.3673 61.0727 48.3673 61.3976V69.7071C48.3673 70.0808 48.5463 70.2676 48.9043 70.2676C50.9713 70.2676 52.9731 70.1376 54.9098 69.8777C56.8628 69.6015 58.8646 69.2035 60.9152 68.6837V58.9365C60.9152 58.3679 60.7769 57.9699 60.5002 57.7425C60.2398 57.515 59.8004 57.3201 59.182 57.1576C59.068 57.1251 58.9948 57.0602 58.9623 56.9627C58.9297 56.849 58.9297 56.7434 58.9623 56.6459C58.9948 56.5322 59.0518 56.4347 59.1331 56.3535C59.2308 56.2723 59.3447 56.2398 59.4749 56.256L62.2335 56.6459C62.4939 56.6784 62.6323 56.7596 62.6485 56.8896C62.6811 57.0033 62.6974 57.1008 62.6974 57.182C62.6974 57.2795 62.6811 57.4338 62.6485 57.645C62.616 57.8562 62.5997 58.1323 62.5997 58.4735V76.6763C62.5997 77.1474 62.5102 77.5698 62.3312 77.9435C62.1684 78.3334 61.8999 78.5283 61.5256 78.5283C61.3465 78.5283 61.2001 78.4308 61.0861 78.2359C60.9722 78.0409 60.9152 77.7242 60.9152 77.2855V69.7071C58.8158 70.3244 56.7407 70.8118 54.6901 71.1692C52.6557 71.5103 50.5318 71.6972 48.3185 71.7296C47.7814 71.7459 47.3745 71.5916 47.0978 71.2667C46.8212 70.9418 46.6828 70.5356 46.6828 70.0483V61.8119Z" fill="white"/>
<path d="M22.1406 74.0172C22.043 73.9198 21.9941 73.8142 21.9941 73.7005C21.9941 73.5867 22.0186 73.4893 22.0674 73.408C22.1162 73.3106 22.1894 73.2456 22.2871 73.2131C22.3847 73.1806 22.4905 73.1887 22.6045 73.2375C22.816 73.3349 23.1578 73.3918 23.6298 73.408C24.1017 73.4243 24.6632 73.4324 25.3142 73.4324H31.8079V70.5326C31.8079 70.2889 31.7835 70.0859 31.7347 69.9234C31.7021 69.761 31.6289 69.631 31.515 69.5335C31.4173 69.4198 31.2708 69.3305 31.0756 69.2655C30.8965 69.1843 30.6605 69.103 30.3676 69.0218C30.2537 68.9893 30.1723 68.9243 30.1235 68.8269C30.0909 68.7132 30.0828 68.6076 30.0991 68.5101C30.1316 68.3964 30.1886 68.2989 30.2699 68.2177C30.3676 68.1364 30.4897 68.104 30.6361 68.1202L33.1262 68.3883C33.3703 68.4207 33.5005 68.502 33.5168 68.6319C33.5493 68.7456 33.5656 68.8431 33.5656 68.9243C33.5656 69.0381 33.5493 69.1843 33.5168 69.363C33.5005 69.5417 33.4924 69.7935 33.4924 70.1184V73.4324H41.6705C41.8984 73.4324 42.0693 73.4162 42.1832 73.3837C42.2971 73.3512 42.411 73.3349 42.525 73.3349C42.8016 73.3349 42.94 73.4893 42.94 73.7979C42.94 74.0416 42.8179 74.269 42.5738 74.4802C42.3297 74.6752 42.0286 74.7727 41.6705 74.7727H25.3142C24.9399 74.7727 24.6144 74.797 24.3377 74.8458C24.0773 74.8782 23.8495 74.8945 23.6542 74.8945C23.4426 74.8945 23.2066 74.8295 22.9462 74.6995C22.6858 74.5533 22.4173 74.3259 22.1406 74.0172ZM34.3468 59.0797C34.005 60.2169 33.5168 61.2809 32.8821 62.2719C34.3631 63.1979 35.6976 64.0264 36.8857 64.7574C38.09 65.4885 39.1642 66.1139 40.1081 66.6338C40.3197 66.7962 40.4987 67.0399 40.6452 67.3648C40.808 67.6897 40.8893 67.9659 40.8893 68.1933C40.8893 68.372 40.808 68.5263 40.6452 68.6563C40.4825 68.7863 40.2953 68.77 40.0837 68.6076C39.1561 67.8603 38.0249 67.0561 36.6904 66.1951C35.3721 65.3341 33.8586 64.3757 32.1497 63.3197C31.2871 64.4082 30.2374 65.3991 29.0005 66.2926C27.7636 67.1861 26.3151 67.974 24.6551 68.6563C24.5249 68.705 24.3947 68.705 24.2645 68.6563C24.1506 68.6076 24.0529 68.5426 23.9715 68.4614C23.9064 68.3639 23.8739 68.2664 23.8739 68.1689C23.8739 68.0552 23.9309 67.9659 24.0448 67.9009C25.9652 66.8774 27.6009 65.6997 28.9517 64.3675C30.3188 63.0354 31.3929 61.5652 32.1741 59.9569C32.1741 59.6483 32.0602 59.3965 31.8323 59.2015C31.6045 58.9904 31.222 58.7873 30.685 58.5923C30.571 58.5436 30.4978 58.4705 30.4652 58.373C30.4327 58.2593 30.4327 58.1537 30.4652 58.0562C30.4978 57.9425 30.5629 57.8532 30.6605 57.7882C30.7582 57.707 30.8803 57.6826 31.0267 57.7151L33.9562 58.3974C34.2003 58.4461 34.3305 58.5517 34.3468 58.7142C34.3794 58.8766 34.3794 58.9985 34.3468 59.0797Z" fill="white"/>
<path d="M3.30764 69.8289C3.30764 70.2026 3.48666 70.3894 3.84471 70.3894C5.56985 70.4219 7.40078 70.3082 9.3375 70.0483C11.2742 69.7883 13.4062 69.3741 15.7335 68.8055V58.9365C15.7335 58.3679 15.5952 57.9699 15.3185 57.7425C15.0581 57.515 14.6187 57.3201 14.0003 57.1576C13.8863 57.1251 13.8131 57.0602 13.7806 56.9627C13.748 56.849 13.748 56.7434 13.7806 56.6459C13.8131 56.5322 13.8701 56.4347 13.9514 56.3535C14.0491 56.2723 14.163 56.2398 14.2932 56.256L17.0518 56.6459C17.3122 56.6784 17.4505 56.7596 17.4668 56.8896C17.4994 57.0033 17.5156 57.1008 17.5156 57.182C17.5156 57.2795 17.4994 57.4338 17.4668 57.645C17.4343 57.8562 17.418 58.1323 17.418 58.4735V65.1016H19.9813C20.2091 65.1016 20.38 65.0853 20.494 65.0528C20.6079 65.0203 20.7218 65.0041 20.8357 65.0041C20.9334 65.0041 21.0229 65.0528 21.1043 65.1503C21.2019 65.2478 21.2507 65.3534 21.2507 65.4671C21.2507 65.5646 21.2101 65.6702 21.1287 65.7839C21.0473 65.8976 20.9415 66.0032 20.8113 66.1007C20.6974 66.1981 20.5591 66.2794 20.3963 66.3443C20.2498 66.4093 20.1115 66.4418 19.9813 66.4418H17.418V76.6763C17.418 77.1474 17.3285 77.5698 17.1495 77.9435C16.9867 78.3334 16.7182 78.5283 16.3439 78.5283C16.1648 78.5283 16.0184 78.4308 15.9044 78.2359C15.7905 78.0409 15.7335 77.7242 15.7335 77.2855V69.8289C13.4225 70.495 11.2335 70.9905 9.16661 71.3154C7.09969 71.6403 5.13043 71.819 3.25881 71.8515C2.72174 71.8677 2.31486 71.7134 2.03819 71.3885C1.76152 71.0636 1.62318 70.6575 1.62318 70.1701V61.8606C1.62318 61.4383 1.53367 61.1458 1.35464 60.9834C1.19189 60.8209 0.850121 60.6991 0.329324 60.6179C0.199124 60.6016 0.109612 60.5448 0.0607872 60.4473C0.0119625 60.3336 -0.00431246 60.2199 0.0119625 60.1061C0.0282374 59.9924 0.0689247 59.895 0.134024 59.8137C0.215399 59.7163 0.304911 59.6675 0.402561 59.6675H10.4116C10.6395 59.6675 10.8104 59.6513 10.9243 59.6188C11.0382 59.5863 11.1522 59.5701 11.2661 59.5701C11.3637 59.5701 11.4532 59.6188 11.5346 59.7163C11.6323 59.8137 11.6811 59.9193 11.6811 60.033C11.6811 60.1305 11.6404 60.2361 11.559 60.3498C11.4777 60.4635 11.3719 60.5691 11.2417 60.6666C11.1277 60.7641 10.9894 60.8453 10.8267 60.9103C10.6802 60.9753 10.5418 61.0078 10.4116 61.0078H3.30764V69.8289Z" fill="white"/>
<path d="M149.686 68.2015V71.7888C149.686 72.0768 149.823 72.2207 150.099 72.2207C151.287 72.2207 152.412 72.1769 153.475 72.0893C154.551 71.9891 155.577 71.8576 156.552 71.6949C156.727 71.6698 156.846 71.6448 156.909 71.6197C156.984 71.5947 157.065 71.5759 157.152 71.5634C157.228 71.5634 157.303 71.601 157.378 71.6761C157.453 71.7387 157.49 71.8138 157.49 71.9015C157.503 72.0642 157.415 72.2145 157.228 72.3522C157.04 72.4899 156.84 72.5776 156.627 72.6152C155.527 72.828 154.395 72.997 153.232 73.1222C152.081 73.2475 150.886 73.3226 149.648 73.3476C149.236 73.3601 148.923 73.2412 148.71 72.9908C148.498 72.7404 148.391 72.4273 148.391 72.0517V64.4453C148.391 64.1197 148.323 63.8943 148.185 63.7691C148.06 63.6439 147.797 63.55 147.397 63.4874C147.297 63.4749 147.228 63.4311 147.191 63.3559C147.153 63.2683 147.141 63.1807 147.153 63.093C147.166 63.0054 147.197 62.9302 147.247 62.8676C147.309 62.7925 147.378 62.7549 147.453 62.7549H154.901C155.076 62.7549 155.208 62.7424 155.295 62.7174C155.383 62.6923 155.47 62.6798 155.558 62.6798C155.633 62.6798 155.702 62.7174 155.764 62.7925C155.839 62.8676 155.877 62.949 155.877 63.0367C155.877 63.1118 155.845 63.1932 155.783 63.2808C155.72 63.3685 155.639 63.4498 155.539 63.525C155.452 63.6001 155.345 63.6627 155.22 63.7128C155.108 63.7629 155.001 63.7879 154.901 63.7879H149.686V67.1686H154.245C154.42 67.1686 154.551 67.156 154.639 67.131C154.726 67.106 154.814 67.0934 154.901 67.0934C154.976 67.0934 155.045 67.131 155.108 67.2061C155.183 67.2812 155.22 67.3626 155.22 67.4503C155.22 67.5254 155.189 67.6068 155.126 67.6944C155.064 67.7821 154.983 67.8635 154.882 67.9386C154.795 68.0137 154.689 68.0763 154.564 68.1264C154.451 68.1765 154.345 68.2015 154.245 68.2015H149.686ZM155.877 67.4315C155.802 67.3564 155.758 67.2812 155.745 67.2061C155.745 67.1185 155.764 67.0433 155.802 66.9807C155.852 66.9056 155.914 66.8555 155.989 66.8305C156.064 66.8055 156.146 66.8117 156.233 66.8493C156.396 66.9244 156.658 66.9682 157.021 66.9807C157.384 66.9933 157.815 66.9995 158.316 66.9995H159.554V62.5671C159.554 62.1289 159.448 61.8221 159.235 61.6468C159.035 61.4715 158.697 61.3213 158.222 61.1961C158.134 61.171 158.078 61.121 158.053 61.0458C158.028 60.9582 158.028 60.8768 158.053 60.8017C158.078 60.714 158.122 60.6389 158.184 60.5763C158.259 60.5137 158.347 60.4887 158.447 60.5012L160.567 60.8017C160.767 60.8267 160.873 60.8893 160.886 60.9895C160.911 61.0771 160.923 61.1523 160.923 61.2149C160.923 61.29 160.911 61.4089 160.886 61.5717C160.861 61.7345 160.848 61.9473 160.848 62.2103V76.24C160.848 76.6031 160.779 76.9286 160.642 77.2166C160.517 77.5171 160.31 77.6673 160.023 77.6673C159.885 77.6673 159.773 77.5922 159.685 77.442C159.598 77.2917 159.554 77.0476 159.554 76.7095V68.0137H158.316C158.028 68.0137 157.797 68.0325 157.621 68.0701C157.446 68.0951 157.284 68.1076 157.134 68.1076C156.971 68.1076 156.771 68.0575 156.533 67.9574C156.308 67.8447 156.089 67.6694 155.877 67.4315Z" fill="white"/>
<path d="M137.501 65.6097C137.426 65.5346 137.388 65.4532 137.388 65.3655C137.388 65.2779 137.407 65.2028 137.444 65.1402C137.482 65.0776 137.538 65.0337 137.613 65.0087C137.688 64.9837 137.769 64.9899 137.857 65.0275C138.02 65.1026 138.282 65.1464 138.645 65.159C139.008 65.1715 139.439 65.1777 139.939 65.1777H140.596V62.9428C140.596 62.517 140.502 62.2228 140.315 62.06C140.127 61.8847 139.802 61.7345 139.339 61.6093C139.252 61.5842 139.195 61.5342 139.17 61.459C139.145 61.3839 139.145 61.3025 139.17 61.2149C139.195 61.1272 139.239 61.0584 139.302 61.0083C139.377 60.9457 139.464 60.9206 139.564 60.9331L141.553 61.1961C141.753 61.2211 141.859 61.2837 141.872 61.3839C141.897 61.4715 141.909 61.5467 141.909 61.6093C141.909 61.6844 141.897 61.8034 141.872 61.9661C141.847 62.1289 141.834 62.3417 141.834 62.6047V72.0705C141.834 72.4336 141.765 72.7591 141.628 73.0471C141.503 73.3226 141.309 73.4603 141.046 73.4603C140.921 73.4603 140.815 73.3852 140.727 73.2349C140.64 73.0847 140.596 72.8468 140.596 72.5212V66.1919H139.939C139.652 66.1919 139.42 66.2107 139.245 66.2483C139.07 66.2733 138.908 66.2858 138.758 66.2858C138.595 66.2858 138.395 66.2358 138.157 66.1356C137.932 66.0229 137.713 65.8476 137.501 65.6097ZM138.889 70.2863C138.864 70.424 138.776 70.5304 138.626 70.6055C138.476 70.6681 138.332 70.6181 138.195 70.4553C137.682 69.8167 137.15 69.1969 136.6 68.5959C136.062 67.9949 135.481 67.3939 134.855 66.7929C134.455 67.5317 133.967 68.2203 133.392 68.8589C132.817 69.4974 132.148 70.0922 131.385 70.6431C131.31 70.7057 131.222 70.7308 131.122 70.7182C131.034 70.6932 130.953 70.6494 130.878 70.5868C130.816 70.5242 130.772 70.4553 130.747 70.3802C130.734 70.2925 130.766 70.2174 130.841 70.1548C132.854 68.2892 134.161 66.098 134.762 63.5813C134.762 63.2933 134.674 63.068 134.499 62.9052C134.336 62.7424 134.049 62.5859 133.636 62.4357C133.548 62.3981 133.492 62.3417 133.467 62.2666C133.442 62.179 133.442 62.0976 133.467 62.0225C133.492 61.9348 133.542 61.866 133.617 61.8159C133.692 61.7533 133.786 61.7345 133.899 61.7595L135.925 62.2478C136.112 62.2979 136.212 62.3856 136.225 62.5108C136.237 62.6235 136.237 62.7111 136.225 62.7737C136.125 63.3246 136.006 63.8505 135.868 64.3514C135.731 64.8522 135.556 65.3405 135.343 65.8163C135.881 66.3797 136.419 66.9244 136.957 67.4503C137.507 67.9636 138.063 68.4645 138.626 68.9528C138.714 69.0905 138.789 69.2908 138.851 69.5538C138.914 69.8167 138.926 70.0609 138.889 70.2863ZM145.324 72.202C145.324 72.5651 145.255 72.8906 145.117 73.1786C144.992 73.4541 144.792 73.5918 144.517 73.5918C144.392 73.5918 144.286 73.5167 144.198 73.3664C144.111 73.2162 144.067 72.9783 144.067 72.6527V62.5671C144.067 62.1289 143.96 61.8221 143.748 61.6468C143.548 61.4715 143.21 61.3213 142.735 61.1961C142.647 61.171 142.591 61.121 142.566 61.0458C142.541 60.9582 142.541 60.8768 142.566 60.8017C142.591 60.714 142.635 60.6389 142.697 60.5763C142.772 60.5137 142.86 60.4887 142.96 60.5012L145.042 60.8017C145.242 60.8267 145.349 60.8893 145.361 60.9895C145.386 61.0771 145.399 61.1523 145.399 61.2149C145.399 61.29 145.386 61.4089 145.361 61.5717C145.336 61.7345 145.324 61.9473 145.324 62.2103V72.202ZM136.112 74.343C136.112 74.1427 136.094 73.9799 136.056 73.8547C136.019 73.717 135.95 73.6043 135.85 73.5167C135.762 73.429 135.637 73.3601 135.474 73.3101C135.324 73.2475 135.131 73.1849 134.893 73.1222C134.805 73.0972 134.743 73.0471 134.705 72.972C134.68 72.8843 134.674 72.803 134.687 72.7278C134.712 72.6402 134.755 72.5651 134.818 72.5025C134.893 72.4399 134.987 72.4148 135.099 72.4273L137.125 72.6527C137.313 72.6778 137.413 72.7404 137.426 72.8405C137.451 72.9282 137.463 73.0033 137.463 73.0659C137.463 73.1535 137.451 73.2662 137.426 73.404C137.413 73.5417 137.407 73.7358 137.407 73.9862V76.6156C137.407 76.9036 137.544 77.0475 137.82 77.0475H145.061C145.236 77.0475 145.38 77.0288 145.493 76.9912C145.618 76.9662 145.724 76.9536 145.811 76.9536C145.887 76.9536 145.955 76.9912 146.018 77.0663C146.093 77.1415 146.13 77.2228 146.13 77.3105C146.13 77.3856 146.093 77.467 146.018 77.5546C145.955 77.6548 145.868 77.7425 145.755 77.8176C145.655 77.8927 145.543 77.9553 145.418 78.0054C145.292 78.0555 145.174 78.0805 145.061 78.0805H137.369C136.957 78.0805 136.644 77.9553 136.431 77.7049C136.219 77.467 136.112 77.1602 136.112 76.7846V74.343Z" fill="white"/>
<path d="M119.933 78.2683C119.52 78.2683 119.208 78.1431 118.995 77.8927C118.782 77.6548 118.676 77.3481 118.676 76.9724V73.6481C118.676 73.3226 118.632 73.0972 118.545 72.972C118.457 72.8468 118.232 72.7529 117.869 72.6903C117.769 72.6778 117.701 72.6339 117.663 72.5588C117.626 72.4712 117.613 72.3835 117.626 72.2959C117.638 72.2082 117.669 72.1331 117.719 72.0705C117.782 71.9954 117.851 71.9578 117.926 71.9578H125.88C126.28 71.9578 126.562 71.939 126.724 71.9015C126.899 71.8639 127.056 71.8451 127.193 71.8451C127.356 71.8451 127.519 71.914 127.681 72.0517C127.856 72.1769 127.944 72.3021 127.944 72.4273C127.944 72.515 127.931 72.6277 127.906 72.7654C127.894 72.9031 127.887 73.0972 127.887 73.3476V77.5171C127.887 77.6799 127.806 77.8426 127.644 78.0054C127.494 78.1807 127.312 78.2683 127.1 78.2683H119.933ZM128 65.5534H129.97C130.145 65.5534 130.276 65.5408 130.364 65.5158C130.451 65.4908 130.539 65.4782 130.627 65.4782C130.702 65.4782 130.77 65.5158 130.833 65.5909C130.908 65.666 130.945 65.7474 130.945 65.8351C130.945 65.9102 130.914 65.9916 130.852 66.0792C130.789 66.1669 130.708 66.2483 130.608 66.3234C130.52 66.3985 130.414 66.4611 130.289 66.5112C130.176 66.5613 130.07 66.5863 129.97 66.5863H128V69.5726C128 69.9357 127.931 70.2675 127.794 70.568C127.669 70.856 127.462 71 127.175 71C127.037 71 126.924 70.9248 126.837 70.7746C126.749 70.6243 126.706 70.3802 126.706 70.0421V68.1264C124.93 68.6398 123.247 69.0217 121.659 69.2721C120.071 69.5225 118.557 69.6602 117.119 69.6853C116.706 69.6978 116.394 69.5788 116.181 69.3284C115.968 69.078 115.862 68.765 115.862 68.3893V64.126C115.862 63.8004 115.793 63.5751 115.656 63.4498C115.531 63.3246 115.268 63.2307 114.868 63.1681C114.768 63.1556 114.699 63.1118 114.661 63.0367C114.624 62.949 114.611 62.8614 114.624 62.7737C114.636 62.6861 114.668 62.6109 114.718 62.5483C114.78 62.4732 114.849 62.4357 114.924 62.4357H122.616C122.791 62.4357 122.922 62.4231 123.01 62.3981C123.097 62.3731 123.185 62.3605 123.272 62.3605C123.347 62.3605 123.416 62.3981 123.479 62.4732C123.554 62.5483 123.591 62.6297 123.591 62.7174C123.591 62.7925 123.56 62.8739 123.498 62.9615C123.435 63.0492 123.354 63.1306 123.254 63.2057C123.166 63.2808 123.06 63.3434 122.935 63.3935C122.822 63.4436 122.716 63.4686 122.616 63.4686H117.156V68.1264C117.156 68.4144 117.294 68.5584 117.569 68.5584C118.895 68.5834 120.302 68.4958 121.79 68.2954C123.279 68.0951 124.917 67.7758 126.706 67.3376V62.5671C126.706 62.1289 126.599 61.8221 126.387 61.6468C126.187 61.4715 125.849 61.3213 125.374 61.1961C125.286 61.171 125.23 61.121 125.205 61.0458C125.18 60.9582 125.18 60.8768 125.205 60.8017C125.23 60.714 125.274 60.6389 125.336 60.5763C125.411 60.5137 125.499 60.4887 125.599 60.5012L127.719 60.8017C127.919 60.8267 128.025 60.8893 128.038 60.9895C128.063 61.0771 128.075 61.1523 128.075 61.2149C128.075 61.29 128.063 61.4089 128.038 61.5717C128.013 61.7345 128 61.9473 128 62.2103V65.5534ZM119.971 76.8034C119.971 77.0914 120.108 77.2354 120.383 77.2354H126.593V72.9908H119.971V76.8034Z" fill="white"/>
<path d="M102.758 75.0567C102.758 74.4182 102.877 73.8798 103.114 73.4415C103.365 72.9908 103.702 72.6277 104.128 72.3522C104.553 72.0768 105.047 71.8764 105.61 71.7512C106.185 71.626 106.792 71.5634 107.429 71.5634C108.067 71.5634 108.668 71.626 109.23 71.7512C109.806 71.8764 110.3 72.0768 110.712 72.3522C111.138 72.6277 111.475 72.9908 111.726 73.4415C111.976 73.8798 112.101 74.4182 112.101 75.0567C112.101 75.6953 111.976 76.2337 111.726 76.6719C111.475 77.1227 111.138 77.4795 110.712 77.7425C110.3 78.0179 109.806 78.2183 109.23 78.3435C108.668 78.4687 108.067 78.5313 107.429 78.5313C106.792 78.5313 106.185 78.4687 105.61 78.3435C105.047 78.2183 104.553 78.0179 104.128 77.7425C103.702 77.4795 103.365 77.1227 103.114 76.6719C102.877 76.2337 102.758 75.6953 102.758 75.0567ZM104.109 75.0755C104.109 75.5263 104.196 75.9019 104.371 76.2024C104.547 76.5154 104.784 76.7658 105.084 76.9536C105.397 77.154 105.753 77.298 106.154 77.3856C106.554 77.4733 106.979 77.5171 107.429 77.5171C107.892 77.5171 108.324 77.4733 108.724 77.3856C109.137 77.298 109.493 77.154 109.793 76.9536C110.093 76.7658 110.331 76.5154 110.506 76.2024C110.681 75.9019 110.769 75.5263 110.769 75.0755C110.769 74.6248 110.681 74.2429 110.506 73.9298C110.331 73.6043 110.093 73.3414 109.793 73.141C109.493 72.9407 109.137 72.7967 108.724 72.7091C108.324 72.6214 107.892 72.5776 107.429 72.5776C106.979 72.5776 106.554 72.6214 106.154 72.7091C105.753 72.7967 105.397 72.9407 105.084 73.141C104.784 73.3414 104.547 73.6043 104.371 73.9298C104.196 74.2429 104.109 74.6248 104.109 75.0755ZM104.991 62.4544C104.74 63.5688 104.365 64.6018 103.865 65.5534C104.54 66.0667 105.197 66.5425 105.835 66.9807C106.473 67.419 107.123 67.8259 107.786 68.2015C107.898 68.3017 108.005 68.4833 108.105 68.7462C108.217 68.9966 108.274 69.2345 108.274 69.4599C108.274 69.535 108.255 69.6039 108.217 69.6665C108.18 69.7291 108.124 69.7792 108.048 69.8167C107.986 69.8543 107.917 69.8731 107.842 69.8731C107.767 69.8731 107.692 69.8355 107.617 69.7604C106.979 69.1844 106.304 68.621 105.591 68.0701C104.878 67.5066 104.134 66.962 103.358 66.4361C102.896 67.1498 102.339 67.8196 101.689 68.4457C101.051 69.0592 100.3 69.6227 99.4374 70.136C99.3499 70.1861 99.2561 70.2049 99.156 70.1924C99.0685 70.1673 98.9872 70.1235 98.9121 70.0609C98.8496 69.9983 98.8121 69.9294 98.7996 69.8543C98.787 69.7792 98.8183 69.7103 98.8934 69.6477C100.031 68.7462 100.982 67.7633 101.745 66.699C102.52 65.6222 103.089 64.4766 103.452 63.262C103.452 62.9741 103.352 62.7487 103.152 62.5859C102.964 62.4231 102.664 62.2666 102.251 62.1164C102.164 62.0788 102.108 62.0225 102.083 61.9473C102.058 61.8597 102.058 61.7783 102.083 61.7032C102.108 61.6155 102.158 61.5467 102.233 61.4966C102.308 61.434 102.402 61.4152 102.514 61.4402L104.69 61.9286C104.878 61.9661 104.978 62.0475 104.991 62.1727C105.003 62.2979 105.003 62.3918 104.991 62.4544ZM112.044 65.3655H114.014C114.189 65.3655 114.321 65.353 114.408 65.328C114.496 65.3029 114.583 65.2904 114.671 65.2904C114.746 65.2904 114.815 65.328 114.877 65.4031C114.952 65.4782 114.99 65.5596 114.99 65.6473C114.99 65.7224 114.959 65.8038 114.896 65.8914C114.834 65.9791 114.752 66.0605 114.652 66.1356C114.565 66.2107 114.458 66.2733 114.333 66.3234C114.221 66.3735 114.114 66.3985 114.014 66.3985H112.044V70.0609C112.044 70.424 111.976 70.7558 111.838 71.0563C111.713 71.3443 111.507 71.4883 111.219 71.4883C111.081 71.4883 110.969 71.4131 110.881 71.2629C110.794 71.1126 110.75 70.8685 110.75 70.5304V62.5671C110.75 62.1289 110.644 61.8221 110.431 61.6468C110.231 61.4715 109.893 61.3213 109.418 61.1961C109.33 61.171 109.274 61.121 109.249 61.0458C109.224 60.9582 109.224 60.8768 109.249 60.8017C109.274 60.714 109.318 60.6389 109.38 60.5763C109.456 60.5137 109.543 60.4887 109.643 60.5012L111.763 60.8017C111.963 60.8267 112.069 60.8893 112.082 60.9895C112.107 61.0771 112.119 61.1523 112.119 61.2149C112.119 61.29 112.107 61.4089 112.082 61.5717C112.057 61.7345 112.044 61.9473 112.044 62.2103V65.3655Z" fill="white"/>
<path d="M86.0588 68.3893V71.7888C86.0588 72.0768 86.1964 72.2207 86.4716 72.2207C88.06 72.2207 89.6046 72.1394 91.1054 71.9766C92.6188 71.8013 94.1634 71.5133 95.7393 71.1126V62.5671C95.7393 62.1289 95.6329 61.8221 95.4203 61.6468C95.2202 61.4715 94.8825 61.3213 94.4073 61.1961C94.3197 61.171 94.2634 61.121 94.2384 61.0458C94.2134 60.9582 94.2134 60.8768 94.2384 60.8017C94.2634 60.714 94.3072 60.6389 94.3697 60.5763C94.4448 60.5137 94.5323 60.4887 94.6324 60.5012L96.7523 60.8017C96.9524 60.8267 97.0587 60.8893 97.0712 60.9895C97.0963 61.0771 97.1088 61.1523 97.1088 61.2149C97.1088 61.29 97.0963 61.4089 97.0712 61.5717C97.0462 61.7345 97.0337 61.9473 97.0337 62.2103V76.24C97.0337 76.6031 96.9649 76.9286 96.8274 77.2166C96.7023 77.5171 96.4959 77.6673 96.2083 77.6673C96.0707 77.6673 95.9581 77.5922 95.8706 77.442C95.783 77.2917 95.7393 77.0476 95.7393 76.7095V71.9015C94.1258 72.3773 92.5312 72.7341 90.9553 72.972C89.3794 73.1974 87.7348 73.3226 86.0213 73.3476C85.6086 73.3601 85.2959 73.2412 85.0833 72.9908C84.8707 72.7404 84.7644 72.4273 84.7644 72.0517V69.0467C84.7644 68.7212 84.6956 68.4958 84.558 68.3706C84.4329 68.2454 84.1703 68.1514 83.7701 68.0888C83.67 68.0763 83.6012 68.0325 83.5637 67.9574C83.5262 67.8697 83.5137 67.7821 83.5262 67.6944C83.5387 67.6068 83.5699 67.5317 83.62 67.4691C83.6825 67.3939 83.7513 67.3564 83.8263 67.3564H90.3738V63.7879H86.6404C86.3528 63.7879 86.1026 63.8067 85.89 63.8443C85.6899 63.8693 85.5148 63.8818 85.3647 63.8818C85.2021 63.8818 85.0208 63.8317 84.8206 63.7316C84.6205 63.6189 84.4142 63.4436 84.2016 63.2057C84.1265 63.1306 84.089 63.0492 84.089 62.9615C84.089 62.8739 84.1077 62.7988 84.1453 62.7362C84.1828 62.661 84.2391 62.6109 84.3141 62.5859C84.3892 62.5609 84.4705 62.5671 84.558 62.6047C84.7206 62.6798 84.9832 62.7236 85.3459 62.7362C85.7086 62.7487 86.1401 62.7549 86.6404 62.7549H89.6609C90.0611 62.7549 90.3425 62.7362 90.5051 62.6986C90.6802 62.661 90.8365 62.6423 90.9741 62.6423C91.1367 62.6423 91.2993 62.7111 91.4619 62.8488C91.637 62.9741 91.7245 63.0993 91.7245 63.2245C91.7245 63.3121 91.712 63.4248 91.687 63.5625C91.6745 63.7003 91.6682 63.8943 91.6682 64.1448V67.6381C91.6682 67.8009 91.5869 67.9699 91.4243 68.1452C91.2743 68.308 91.0929 68.3893 90.8803 68.3893H86.0588Z" fill="white"/>
<path d="M72.8233 78.2683C72.4106 78.2683 72.0979 78.1431 71.8853 77.8927C71.6727 77.6548 71.5664 77.3481 71.5664 76.9724V73.6481C71.5664 73.3226 71.5226 73.0972 71.435 72.972C71.3475 72.8468 71.1224 72.7529 70.7597 72.6903C70.6596 72.6778 70.5908 72.6339 70.5533 72.5588C70.5158 72.4712 70.5033 72.3835 70.5158 72.2959C70.5283 72.2082 70.5595 72.1331 70.6096 72.0705C70.6721 71.9954 70.7409 71.9578 70.8159 71.9578H79.1831C79.4958 71.9453 79.7209 71.9265 79.8585 71.9015C80.0086 71.8639 80.1462 71.8451 80.2712 71.8451C80.4338 71.8451 80.5964 71.914 80.759 72.0517C80.9341 72.1769 81.0216 72.3021 81.0216 72.4273C81.0216 72.515 81.0091 72.6277 80.9841 72.7654C80.9716 72.9031 80.9654 73.0972 80.9654 73.3476V77.5171C80.9654 77.6799 80.8841 77.8426 80.7215 78.0054C80.5714 78.1807 80.39 78.2683 80.1774 78.2683H72.8233ZM72.8608 76.8034C72.8608 77.0914 72.9984 77.2354 73.2736 77.2354H79.6709V72.9908H72.8608V76.8034ZM73.555 62.4544C73.3173 63.5563 72.9421 64.5955 72.4293 65.5721C73.1047 66.098 73.7738 66.5926 74.4367 67.0559C75.1121 67.5066 75.7812 67.9198 76.4441 68.2954C76.5566 68.3956 76.663 68.5772 76.763 68.8401C76.8756 69.0905 76.9319 69.3284 76.9319 69.5538C76.9319 69.6289 76.9131 69.6978 76.8756 69.7604C76.8381 69.823 76.7818 69.8731 76.7067 69.9106C76.6442 69.9482 76.5754 69.967 76.5004 69.967C76.4253 69.967 76.3503 69.9294 76.2752 69.8543C75.6499 69.2909 74.962 68.7149 74.2116 68.1264C73.4612 67.5379 72.6982 66.9807 71.9228 66.4549C71.4475 67.1686 70.8847 67.8322 70.2344 68.4457C69.5965 69.0592 68.8523 69.6227 68.0019 70.136C67.9143 70.1861 67.8205 70.2049 67.7205 70.1924C67.6329 70.1673 67.5516 70.1235 67.4766 70.0609C67.414 69.9983 67.3765 69.9294 67.364 69.8543C67.3515 69.7792 67.3828 69.7103 67.4578 69.6477C68.5959 68.7462 69.5465 67.7633 70.3094 66.699C71.0848 65.6222 71.6539 64.4766 72.0166 63.262C72.0166 62.9741 71.9166 62.7487 71.7164 62.5859C71.5288 62.4231 71.2287 62.2666 70.8159 62.1164C70.7284 62.0788 70.6721 62.0225 70.6471 61.9473C70.6221 61.8597 70.6221 61.7783 70.6471 61.7032C70.6721 61.6155 70.7221 61.5467 70.7972 61.4966C70.8722 61.434 70.966 61.4152 71.0786 61.4402L73.2548 61.9286C73.4424 61.9661 73.5425 62.0475 73.555 62.1727C73.5675 62.2979 73.5675 62.3918 73.555 62.4544ZM81.0779 69.5726C81.0779 69.9357 81.0091 70.2675 80.8716 70.568C80.7465 70.856 80.5401 71 80.2525 71C80.1149 71 80.0023 70.9248 79.9148 70.7746C79.8272 70.6243 79.7835 70.3802 79.7835 70.0421V62.5671C79.7835 62.1289 79.6771 61.8221 79.4645 61.6468C79.2644 61.4715 78.9267 61.3213 78.4515 61.1961C78.3639 61.171 78.3076 61.121 78.2826 61.0458C78.2576 60.9582 78.2576 60.8768 78.2826 60.8017C78.3076 60.714 78.3514 60.6389 78.4139 60.5763C78.489 60.5137 78.5765 60.4887 78.6766 60.5012L80.7965 60.8017C80.9966 60.8267 81.1029 60.8893 81.1154 60.9895C81.1405 61.0771 81.153 61.1523 81.153 61.2149C81.153 61.29 81.1405 61.4089 81.1154 61.5717C81.0904 61.7345 81.0779 61.9473 81.0779 62.2103V69.5726Z" fill="white"/>
<path d="M157.885 91.6272V94.1433C157.885 94.3425 157.942 94.4803 158.057 94.5569C158.172 94.6335 158.341 94.691 158.563 94.7293C158.624 94.7369 158.666 94.7637 158.689 94.8097C158.72 94.848 158.731 94.8901 158.724 94.9361C158.724 94.982 158.708 95.0242 158.678 95.0625C158.655 95.0931 158.62 95.1084 158.574 95.1084H156.38C156.334 95.1084 156.296 95.0931 156.265 95.0625C156.242 95.0242 156.227 94.982 156.219 94.9361C156.219 94.8901 156.231 94.848 156.254 94.8097C156.284 94.7637 156.33 94.7369 156.391 94.7293C156.614 94.691 156.782 94.6335 156.897 94.5569C157.012 94.4803 157.069 94.3425 157.069 94.1433V91.5238L155.047 88.1116C154.94 87.9354 154.821 87.8052 154.691 87.7209C154.561 87.629 154.385 87.5639 154.163 87.5256C154.101 87.518 154.055 87.495 154.025 87.4567C154.002 87.4107 153.99 87.3648 153.99 87.3188C153.998 87.2729 154.013 87.2346 154.036 87.2039C154.067 87.1656 154.105 87.1465 154.151 87.1465H156.139C156.185 87.1465 156.219 87.1656 156.242 87.2039C156.273 87.2346 156.288 87.2729 156.288 87.3188C156.296 87.3648 156.284 87.4107 156.254 87.4567C156.231 87.495 156.188 87.518 156.127 87.5256C155.897 87.5563 155.783 87.6099 155.783 87.6865C155.783 87.7554 155.832 87.8665 155.932 88.0197L157.598 90.8575L159.333 88.0197C159.432 87.8665 159.482 87.7554 159.482 87.6865C159.482 87.6099 159.367 87.5563 159.137 87.5256C159.076 87.518 159.03 87.495 158.999 87.4567C158.976 87.4107 158.965 87.3648 158.965 87.3188C158.973 87.2729 158.988 87.2346 159.011 87.2039C159.042 87.1656 159.08 87.1465 159.126 87.1465H160.769C160.815 87.1465 160.849 87.1656 160.872 87.2039C160.903 87.2346 160.918 87.2729 160.918 87.3188C160.926 87.3648 160.914 87.4107 160.884 87.4567C160.861 87.495 160.819 87.518 160.757 87.5256C160.55 87.5563 160.405 87.6214 160.321 87.7209C160.236 87.8129 160.145 87.9431 160.045 88.1116L157.885 91.6272Z" fill="white"/>
<path d="M150.43 90.846C150.928 90.846 151.353 90.8115 151.705 90.7426C152.058 90.666 152.345 90.5587 152.567 90.4209C152.789 90.283 152.95 90.1145 153.05 89.9153C153.149 89.7162 153.199 89.4903 153.199 89.2375C153.199 89.0307 153.161 88.8354 153.084 88.6516C153.007 88.4677 152.87 88.3069 152.67 88.169C152.479 88.0311 152.215 87.9239 151.878 87.8473C151.541 87.7707 151.112 87.7324 150.591 87.7324H150.108C149.948 87.7324 149.867 87.8205 149.867 87.9967V90.846H150.43ZM149.867 94.1433C149.867 94.3425 149.925 94.4803 150.039 94.5569C150.154 94.6335 150.323 94.691 150.545 94.7293C150.606 94.7369 150.648 94.7637 150.671 94.8097C150.702 94.848 150.713 94.8901 150.706 94.9361C150.706 94.982 150.69 95.0242 150.66 95.0625C150.637 95.0931 150.602 95.1084 150.556 95.1084H148.362C148.316 95.1084 148.278 95.0931 148.247 95.0625C148.224 95.0242 148.209 94.982 148.201 94.9361C148.201 94.8901 148.213 94.848 148.236 94.8097C148.266 94.7637 148.312 94.7369 148.374 94.7293C148.596 94.691 148.764 94.6335 148.879 94.5569C148.994 94.4803 149.051 94.3425 149.051 94.1433V88.1116C149.051 87.9124 148.994 87.7746 148.879 87.698C148.764 87.6214 148.596 87.5639 148.374 87.5256C148.312 87.518 148.266 87.495 148.236 87.4567C148.213 87.4107 148.201 87.3648 148.201 87.3188C148.209 87.2729 148.224 87.2346 148.247 87.2039C148.278 87.1656 148.316 87.1465 148.362 87.1465H150.258C150.855 87.1465 151.387 87.1771 151.855 87.2384C152.33 87.2997 152.728 87.4107 153.05 87.5716C153.371 87.7248 153.616 87.9354 153.785 88.2035C153.961 88.4716 154.049 88.8162 154.049 89.2375C154.049 89.6511 153.961 89.9996 153.785 90.283C153.609 90.5587 153.364 90.7809 153.05 90.9494C152.736 91.1179 152.356 91.2404 151.912 91.317C151.468 91.386 150.978 91.4204 150.442 91.4204H149.867V94.1433Z" fill="white"/>
<path d="M142.405 94.7293C142.466 94.7369 142.508 94.7637 142.531 94.8097C142.562 94.848 142.574 94.8901 142.566 94.9361C142.566 94.982 142.551 95.0242 142.52 95.0625C142.497 95.0931 142.462 95.1084 142.416 95.1084H140.452C140.406 95.1084 140.368 95.0931 140.337 95.0625C140.314 95.0242 140.299 94.982 140.291 94.9361C140.291 94.8901 140.303 94.848 140.325 94.8097C140.356 94.7637 140.402 94.7369 140.463 94.7293C140.685 94.691 140.854 94.6335 140.969 94.5569C141.084 94.4727 141.176 94.3348 141.245 94.1433L143.749 87.3533C143.803 87.2154 143.902 87.1465 144.048 87.1465H144.37C144.515 87.1465 144.615 87.2154 144.668 87.3533L147.127 94.1433C147.196 94.3348 147.288 94.4727 147.403 94.5569C147.518 94.6335 147.686 94.691 147.908 94.7293C147.97 94.7369 148.012 94.7637 148.035 94.8097C148.065 94.848 148.077 94.8901 148.069 94.9361C148.069 94.982 148.054 95.0242 148.023 95.0625C148 95.0931 147.966 95.1084 147.92 95.1084H145.76C145.714 95.1084 145.676 95.0931 145.645 95.0625C145.622 95.0242 145.607 94.982 145.599 94.9361C145.599 94.8901 145.61 94.848 145.633 94.8097C145.664 94.7637 145.71 94.7369 145.771 94.7293C145.993 94.691 146.147 94.6412 146.231 94.5799C146.315 94.511 146.323 94.3808 146.254 94.1893L145.633 92.4889H142.531L141.934 94.1548C141.865 94.3463 141.869 94.4803 141.945 94.5569C142.03 94.6335 142.183 94.691 142.405 94.7293ZM144.059 88.215L142.738 91.9144H145.415L144.059 88.215Z" fill="white"/>
<path d="M136.457 90.8575C136.955 90.8575 137.373 90.823 137.71 90.7541C138.047 90.6775 138.319 90.5702 138.525 90.4324C138.732 90.2945 138.878 90.126 138.962 89.9268C139.054 89.7277 139.1 89.5017 139.1 89.249C139.1 89.0422 139.069 88.8469 139.008 88.663C138.947 88.4792 138.824 88.3184 138.64 88.1805C138.464 88.0426 138.211 87.9354 137.882 87.8588C137.56 87.7746 137.139 87.7324 136.618 87.7324H136.136C135.975 87.7324 135.894 87.8205 135.894 87.9967V90.8575H136.457ZM137.216 91.4089C137.093 91.4242 136.971 91.4319 136.848 91.4319C136.725 91.4319 136.599 91.4319 136.469 91.4319H135.894V94.1433C135.894 94.3425 135.952 94.4803 136.067 94.5569C136.182 94.6335 136.35 94.691 136.572 94.7293C136.634 94.7369 136.676 94.7637 136.699 94.8097C136.729 94.848 136.741 94.8901 136.733 94.9361C136.733 94.982 136.718 95.0242 136.687 95.0625C136.664 95.0931 136.63 95.1084 136.584 95.1084H134.389C134.343 95.1084 134.305 95.0931 134.274 95.0625C134.251 95.0242 134.236 94.982 134.229 94.9361C134.229 94.8901 134.24 94.848 134.263 94.8097C134.294 94.7637 134.34 94.7369 134.401 94.7293C134.623 94.691 134.791 94.6335 134.906 94.5569C135.021 94.4803 135.079 94.3425 135.079 94.1433V88.1116C135.079 87.9124 135.021 87.7746 134.906 87.698C134.791 87.6214 134.623 87.5639 134.401 87.5256C134.34 87.518 134.294 87.495 134.263 87.4567C134.24 87.4107 134.229 87.3648 134.229 87.3188C134.236 87.2729 134.251 87.2346 134.274 87.2039C134.305 87.1656 134.343 87.1465 134.389 87.1465H136.285C136.882 87.1465 137.407 87.1771 137.859 87.2384C138.319 87.2997 138.702 87.4107 139.008 87.5716C139.322 87.7248 139.556 87.9392 139.709 88.215C139.87 88.483 139.95 88.8277 139.95 89.249C139.95 89.8464 139.789 90.306 139.468 90.6277C139.146 90.9417 138.69 91.1638 138.1 91.294L139.812 94.1433C139.912 94.3195 140.007 94.4535 140.099 94.5454C140.199 94.6374 140.36 94.6986 140.582 94.7293C140.643 94.7369 140.685 94.7637 140.708 94.8097C140.739 94.848 140.75 94.8901 140.743 94.9361C140.743 94.982 140.727 95.0242 140.697 95.0625C140.674 95.0931 140.639 95.1084 140.593 95.1084H138.399C138.353 95.1084 138.315 95.0931 138.284 95.0625C138.261 95.0242 138.246 94.982 138.238 94.9361C138.238 94.8901 138.25 94.848 138.273 94.8097C138.303 94.7637 138.349 94.7369 138.411 94.7293C138.633 94.691 138.793 94.6374 138.893 94.5684C139 94.4918 139 94.3654 138.893 94.1893L137.216 91.4089Z" fill="white"/>
<path d="M133.223 87.1465C133.391 87.1465 133.475 87.2269 133.475 87.3878V88.3873C133.475 88.4486 133.456 88.4984 133.418 88.5367C133.38 88.5673 133.337 88.5864 133.291 88.5941C133.246 88.6018 133.2 88.5941 133.154 88.5711C133.108 88.5482 133.081 88.5099 133.073 88.4562C133.02 88.2111 132.962 88.0311 132.901 87.9163C132.84 87.7937 132.706 87.7324 132.499 87.7324H129.96C129.791 87.7324 129.707 87.8205 129.707 87.9967V90.6966H132.005C132.204 90.6966 132.342 90.6353 132.418 90.5128C132.495 90.3826 132.552 90.2064 132.591 89.9843C132.598 89.923 132.625 89.8809 132.671 89.8579C132.717 89.8273 132.763 89.8158 132.809 89.8234C132.863 89.8234 132.909 89.8388 132.947 89.8694C132.985 89.8924 133.004 89.9268 133.004 89.9728V92.0178C133.004 92.0638 132.985 92.1021 132.947 92.1327C132.909 92.1557 132.863 92.171 132.809 92.1787C132.763 92.1787 132.717 92.1672 132.671 92.1442C132.625 92.1136 132.598 92.0676 132.591 92.0064C132.552 91.7842 132.495 91.6081 132.418 91.4779C132.342 91.34 132.204 91.2711 132.005 91.2711H129.707V94.2582C129.707 94.4344 129.791 94.5225 129.96 94.5225H132.729C132.828 94.5225 132.909 94.4995 132.97 94.4535C133.039 94.4076 133.092 94.3463 133.131 94.2697C133.177 94.1855 133.211 94.0935 133.234 93.994C133.257 93.8944 133.276 93.7872 133.291 93.6723C133.299 93.611 133.326 93.5689 133.372 93.5459C133.418 93.5153 133.464 93.5038 133.51 93.5114C133.563 93.5114 133.609 93.5267 133.648 93.5574C133.686 93.5804 133.705 93.6148 133.705 93.6608V94.8671C133.705 95.028 133.621 95.1084 133.452 95.1084H128.202C128.156 95.1084 128.118 95.0931 128.087 95.0625C128.064 95.0242 128.049 94.982 128.041 94.9361C128.041 94.8901 128.053 94.848 128.075 94.8097C128.106 94.7637 128.152 94.7369 128.213 94.7293C128.435 94.691 128.604 94.6335 128.719 94.5569C128.834 94.4803 128.891 94.3425 128.891 94.1433V88.1116C128.891 87.9124 128.834 87.7746 128.719 87.698C128.604 87.6214 128.435 87.5639 128.213 87.5256C128.152 87.518 128.106 87.495 128.075 87.4567C128.053 87.4107 128.041 87.3648 128.041 87.3188C128.049 87.2729 128.064 87.2346 128.087 87.2039C128.118 87.1656 128.156 87.1465 128.202 87.1465H133.223Z" fill="white"/>
<path d="M125.8 90.6966V88.1116C125.8 87.9124 125.742 87.7746 125.627 87.698C125.512 87.6214 125.344 87.5639 125.122 87.5256C125.06 87.518 125.014 87.495 124.984 87.4567C124.961 87.4107 124.949 87.3648 124.949 87.3188C124.957 87.2729 124.972 87.2346 124.995 87.2039C125.026 87.1656 125.064 87.1465 125.11 87.1465H127.305C127.351 87.1465 127.385 87.1656 127.408 87.2039C127.439 87.2346 127.454 87.2729 127.454 87.3188C127.462 87.3648 127.45 87.4107 127.419 87.4567C127.397 87.495 127.354 87.518 127.293 87.5256C127.071 87.5639 126.902 87.6214 126.788 87.698C126.673 87.7746 126.615 87.9124 126.615 88.1116V94.1433C126.615 94.3425 126.673 94.4803 126.788 94.5569C126.902 94.6335 127.071 94.691 127.293 94.7293C127.354 94.7369 127.397 94.7637 127.419 94.8097C127.45 94.848 127.462 94.8901 127.454 94.9361C127.454 94.982 127.439 95.0242 127.408 95.0625C127.385 95.0931 127.351 95.1084 127.305 95.1084H125.11C125.064 95.1084 125.026 95.0931 124.995 95.0625C124.972 95.0242 124.957 94.982 124.949 94.9361C124.949 94.8901 124.961 94.848 124.984 94.8097C125.014 94.7637 125.06 94.7369 125.122 94.7293C125.344 94.691 125.512 94.6335 125.627 94.5569C125.742 94.4803 125.8 94.3425 125.8 94.1433V91.2711H121.836V94.1433C121.836 94.3425 121.893 94.4803 122.008 94.5569C122.123 94.6335 122.292 94.691 122.514 94.7293C122.575 94.7369 122.617 94.7637 122.64 94.8097C122.671 94.848 122.682 94.8901 122.675 94.9361C122.675 94.982 122.659 95.0242 122.629 95.0625C122.606 95.0931 122.571 95.1084 122.525 95.1084H120.331C120.285 95.1084 120.247 95.0931 120.216 95.0625C120.193 95.0242 120.178 94.982 120.17 94.9361C120.17 94.8901 120.181 94.848 120.204 94.8097C120.235 94.7637 120.281 94.7369 120.342 94.7293C120.564 94.691 120.733 94.6335 120.848 94.5569C120.963 94.4803 121.02 94.3425 121.02 94.1433V88.1116C121.02 87.9124 120.963 87.7746 120.848 87.698C120.733 87.6214 120.564 87.5639 120.342 87.5256C120.281 87.518 120.235 87.495 120.204 87.4567C120.181 87.4107 120.17 87.3648 120.17 87.3188C120.178 87.2729 120.193 87.2346 120.216 87.2039C120.247 87.1656 120.285 87.1465 120.331 87.1465H122.525C122.571 87.1465 122.606 87.1656 122.629 87.2039C122.659 87.2346 122.675 87.2729 122.675 87.3188C122.682 87.3648 122.671 87.4107 122.64 87.4567C122.617 87.495 122.575 87.518 122.514 87.5256C122.292 87.5639 122.123 87.6214 122.008 87.698C121.893 87.7746 121.836 87.9124 121.836 88.1116V90.6966H125.8Z" fill="white"/>
<path d="M116.283 87.7324H114.709C114.502 87.7324 114.368 87.8167 114.307 87.9852C114.246 88.146 114.188 88.349 114.135 88.5941C114.119 88.6477 114.089 88.686 114.043 88.709C114.004 88.732 113.962 88.7396 113.916 88.732C113.87 88.7243 113.828 88.7052 113.79 88.6745C113.752 88.6362 113.732 88.5864 113.732 88.5252V87.3878C113.732 87.2269 113.817 87.1465 113.985 87.1465H119.408C119.577 87.1465 119.661 87.2269 119.661 87.3878V88.5252C119.661 88.5864 119.642 88.6362 119.603 88.6745C119.565 88.7052 119.523 88.7243 119.477 88.732C119.431 88.7396 119.385 88.732 119.339 88.709C119.293 88.686 119.266 88.6477 119.259 88.5941C119.205 88.349 119.148 88.146 119.086 87.9852C119.025 87.8167 118.891 87.7324 118.684 87.7324H117.099V94.1433C117.099 94.3425 117.156 94.4803 117.271 94.5569C117.386 94.6335 117.554 94.691 117.777 94.7293C117.838 94.7369 117.88 94.7637 117.903 94.8097C117.934 94.848 117.945 94.8901 117.937 94.9361C117.937 94.982 117.922 95.0242 117.891 95.0625C117.868 95.0931 117.834 95.1084 117.788 95.1084H115.594C115.548 95.1084 115.509 95.0931 115.479 95.0625C115.456 95.0242 115.44 94.982 115.433 94.9361C115.433 94.8901 115.444 94.848 115.467 94.8097C115.498 94.7637 115.544 94.7369 115.605 94.7293C115.827 94.691 115.996 94.6335 116.111 94.5569C116.226 94.4803 116.283 94.3425 116.283 94.1433V87.7324Z" fill="#6BB283"/>
<path d="M105.229 91.6272V94.1433C105.229 94.3425 105.286 94.4803 105.401 94.5569C105.516 94.6335 105.684 94.691 105.907 94.7293C105.968 94.7369 106.01 94.7637 106.033 94.8097C106.064 94.848 106.075 94.8901 106.067 94.9361C106.067 94.982 106.052 95.0242 106.022 95.0625C105.999 95.0931 105.964 95.1084 105.918 95.1084H103.724C103.678 95.1084 103.639 95.0931 103.609 95.0625C103.586 95.0242 103.571 94.982 103.563 94.9361C103.563 94.8901 103.574 94.848 103.597 94.8097C103.628 94.7637 103.674 94.7369 103.735 94.7293C103.957 94.691 104.126 94.6335 104.241 94.5569C104.356 94.4803 104.413 94.3425 104.413 94.1433V91.5238L102.391 88.1116C102.284 87.9354 102.165 87.8052 102.035 87.7209C101.905 87.629 101.728 87.5639 101.506 87.5256C101.445 87.518 101.399 87.495 101.368 87.4567C101.345 87.4107 101.334 87.3648 101.334 87.3188C101.342 87.2729 101.357 87.2346 101.38 87.2039C101.411 87.1656 101.449 87.1465 101.495 87.1465H103.482C103.528 87.1465 103.563 87.1656 103.586 87.2039C103.616 87.2346 103.632 87.2729 103.632 87.3188C103.639 87.3648 103.628 87.4107 103.597 87.4567C103.574 87.495 103.532 87.518 103.471 87.5256C103.241 87.5563 103.126 87.6099 103.126 87.6865C103.126 87.7554 103.176 87.8665 103.276 88.0197L104.942 90.8575L106.676 88.0197C106.776 87.8665 106.826 87.7554 106.826 87.6865C106.826 87.6099 106.711 87.5563 106.481 87.5256C106.42 87.518 106.374 87.495 106.343 87.4567C106.32 87.4107 106.309 87.3648 106.309 87.3188C106.316 87.2729 106.332 87.2346 106.355 87.2039C106.385 87.1656 106.424 87.1465 106.47 87.1465H108.113C108.158 87.1465 108.193 87.1656 108.216 87.2039C108.247 87.2346 108.262 87.2729 108.262 87.3188C108.27 87.3648 108.258 87.4107 108.227 87.4567C108.204 87.495 108.162 87.518 108.101 87.5256C107.894 87.5563 107.749 87.6214 107.664 87.7209C107.58 87.8129 107.488 87.9431 107.389 88.1116L105.229 91.6272Z" fill="white"/>
<path d="M97.8409 87.6304C97.2971 87.6304 96.872 87.7415 96.5656 87.9636C96.2592 88.1857 96.0256 88.4691 95.8648 88.8138C95.7116 89.1585 95.6159 89.5376 95.5776 89.9512C95.5393 90.3648 95.5201 90.7593 95.5201 91.1346C95.5201 91.4792 95.5393 91.8546 95.5776 92.2605C95.6235 92.6664 95.7231 93.0456 95.8763 93.3979C96.0371 93.7502 96.2669 94.0451 96.5656 94.2826C96.8643 94.5124 97.2741 94.6272 97.7949 94.6272C98.2315 94.6272 98.603 94.5851 98.9094 94.5009C99.2158 94.4166 99.4723 94.2941 99.6791 94.1332V91.778C99.6791 91.6018 99.6332 91.4716 99.5413 91.3873C99.4494 91.2954 99.2923 91.2303 99.0702 91.192C99.0089 91.1844 98.963 91.1614 98.9323 91.1231C98.9094 91.0771 98.8979 91.0312 98.8979 90.9852C98.9055 90.9393 98.9209 90.901 98.9438 90.8703C98.9745 90.832 99.0128 90.8129 99.0587 90.8129H101.115C101.161 90.8129 101.196 90.832 101.219 90.8703C101.249 90.901 101.265 90.9393 101.265 90.9852C101.272 91.0312 101.261 91.0771 101.23 91.1231C101.207 91.1614 101.165 91.1844 101.104 91.192C100.882 91.2303 100.725 91.2954 100.633 91.3873C100.541 91.4716 100.495 91.6018 100.495 91.778V94.0298C100.495 94.1983 100.422 94.3553 100.277 94.5009C100.139 94.6464 99.9434 94.7766 99.6906 94.8915C99.4455 94.9987 99.1583 95.083 98.829 95.1443C98.5073 95.2055 98.1626 95.2362 97.7949 95.2362C97.2052 95.2362 96.7073 95.1289 96.3014 94.9145C95.9031 94.7 95.5814 94.409 95.3363 94.0413C95.0988 93.6737 94.9265 93.2409 94.8193 92.743C94.7197 92.2452 94.6699 91.709 94.6699 91.1346C94.6699 90.5218 94.7197 89.9627 94.8193 89.4572C94.9265 88.9516 95.1027 88.5189 95.3478 88.1589C95.5929 87.7989 95.9184 87.5193 96.3243 87.3202C96.7303 87.1211 97.2358 87.0215 97.8409 87.0215C98.3694 87.0215 98.8098 87.0636 99.1621 87.1479C99.5221 87.2245 99.8438 87.3317 100.127 87.4696C100.204 87.5079 100.265 87.5462 100.311 87.5844C100.357 87.6227 100.38 87.684 100.38 87.7683V89.101C100.38 89.1623 100.361 89.2121 100.323 89.2504C100.284 89.281 100.242 89.3001 100.196 89.3078C100.15 89.3155 100.104 89.3078 100.058 89.2848C100.012 89.2619 99.9855 89.2236 99.9779 89.1699C99.9242 88.8942 99.863 88.6606 99.794 88.4691C99.7328 88.2776 99.6294 88.1206 99.4838 87.9981C99.346 87.8678 99.1468 87.7759 98.8864 87.7223C98.6336 87.661 98.2851 87.6304 97.8409 87.6304Z" fill="white"/>
<path d="M90.9418 95.2362C90.352 95.2362 89.8618 95.1289 89.4712 94.9145C89.0882 94.7 88.7818 94.409 88.5521 94.0413C88.3223 93.6737 88.1614 93.2409 88.0695 92.743C87.9776 92.2452 87.9316 91.709 87.9316 91.1346C87.9316 90.5218 87.9814 89.9627 88.081 89.4572C88.1806 88.9516 88.3452 88.5189 88.575 88.1589C88.8125 87.7989 89.1227 87.5193 89.5056 87.3202C89.8886 87.1211 90.3673 87.0215 90.9418 87.0215C91.5162 87.0215 91.9949 87.1287 92.3779 87.3432C92.7609 87.5576 93.0672 87.8525 93.297 88.2278C93.5268 88.5955 93.6876 89.0282 93.7796 89.5261C93.8791 90.024 93.9289 90.5601 93.9289 91.1346C93.9289 91.7473 93.8791 92.3065 93.7796 92.812C93.68 93.3098 93.5153 93.7388 93.2855 94.0987C93.0557 94.4587 92.7494 94.7383 92.3664 94.9375C91.9834 95.1366 91.5086 95.2362 90.9418 95.2362ZM90.9418 94.6272C91.4396 94.6272 91.8303 94.5162 92.1136 94.2941C92.397 94.0719 92.6115 93.7885 92.757 93.4439C92.9026 93.0992 92.9906 92.7239 93.0213 92.3179C93.0596 91.9043 93.0787 91.5099 93.0787 91.1346C93.0787 90.9048 93.0711 90.6597 93.0557 90.3993C93.0481 90.1312 93.0213 89.8708 92.9753 89.618C92.9294 89.3576 92.8604 89.1087 92.7685 88.8712C92.6843 88.6261 92.5617 88.4155 92.4009 88.2393C92.2477 88.0555 92.0485 87.91 91.8034 87.8027C91.566 87.6879 91.2788 87.6304 90.9418 87.6304C90.6048 87.6304 90.3175 87.684 90.0801 87.7913C89.8427 87.8908 89.6435 88.0287 89.4827 88.2049C89.3295 88.381 89.2031 88.584 89.1035 88.8138C89.0116 89.0436 88.9427 89.2887 88.8967 89.5491C88.8508 89.8095 88.8201 90.0776 88.8048 90.3533C88.7895 90.6214 88.7818 90.8818 88.7818 91.1346C88.7818 91.3644 88.7857 91.6095 88.7933 91.8699C88.8086 92.1303 88.8393 92.3907 88.8852 92.6511C88.9312 92.9115 88.9963 93.1605 89.0805 93.3979C89.1725 93.6354 89.2988 93.846 89.4597 94.0298C89.6205 94.2136 89.8197 94.3592 90.0571 94.4664C90.3022 94.5736 90.5971 94.6272 90.9418 94.6272Z" fill="white"/>
<path d="M86.3627 94.5225C86.4623 94.5225 86.5427 94.4957 86.604 94.442C86.6729 94.3808 86.7265 94.3003 86.7648 94.2008C86.8031 94.1012 86.8338 93.9901 86.8568 93.8676C86.8874 93.745 86.9142 93.6187 86.9372 93.4885C86.9448 93.4348 86.9716 93.4004 87.0176 93.385C87.0636 93.3621 87.1133 93.3582 87.167 93.3736C87.2206 93.3889 87.2665 93.4157 87.3048 93.454C87.3431 93.4923 87.3623 93.5421 87.3623 93.6033V94.8671C87.3623 95.028 87.278 95.1084 87.1095 95.1084H82.1003C82.0543 95.1084 82.016 95.0931 81.9854 95.0625C81.9624 95.0242 81.9471 94.982 81.9395 94.9361C81.9395 94.8901 81.9509 94.848 81.9739 94.8097C82.0046 94.7637 82.0505 94.7369 82.1118 94.7293C82.3339 94.691 82.5024 94.6335 82.6173 94.5569C82.7322 94.4803 82.7896 94.3425 82.7896 94.1433V88.1116C82.7896 87.9124 82.7322 87.7746 82.6173 87.698C82.5024 87.6214 82.3339 87.5639 82.1118 87.5256C82.0505 87.518 82.0046 87.495 81.9739 87.4567C81.9509 87.4107 81.9395 87.3648 81.9395 87.3188C81.9471 87.2729 81.9624 87.2346 81.9854 87.2039C82.016 87.1656 82.0543 87.1465 82.1003 87.1465H84.2947C84.3407 87.1465 84.3751 87.1656 84.3981 87.2039C84.4287 87.2346 84.4441 87.2729 84.4441 87.3188C84.4517 87.3648 84.4402 87.4107 84.4096 87.4567C84.3866 87.495 84.3445 87.518 84.2832 87.5256C84.0611 87.5639 83.8926 87.6214 83.7777 87.698C83.6628 87.7746 83.6054 87.9124 83.6054 88.1116V94.2582C83.6054 94.4344 83.6896 94.5225 83.8581 94.5225H86.3627Z" fill="white"/>
<path d="M78.3246 95.2362C77.7348 95.2362 77.2446 95.1289 76.854 94.9145C76.471 94.7 76.1646 94.409 75.9349 94.0413C75.7051 93.6737 75.5442 93.2409 75.4523 92.743C75.3604 92.2452 75.3145 91.709 75.3145 91.1346C75.3145 90.5218 75.3642 89.9627 75.4638 89.4572C75.5634 88.9516 75.7281 88.5189 75.9578 88.1589C76.1953 87.7989 76.5055 87.5193 76.8885 87.3202C77.2714 87.1211 77.7501 87.0215 78.3246 87.0215C78.899 87.0215 79.3777 87.1287 79.7607 87.3432C80.1437 87.5576 80.4501 87.8525 80.6798 88.2278C80.9096 88.5955 81.0705 89.0282 81.1624 89.5261C81.2619 90.024 81.3117 90.5601 81.3117 91.1346C81.3117 91.7473 81.2619 92.3065 81.1624 92.812C81.0628 93.3098 80.8981 93.7388 80.6683 94.0987C80.4386 94.4587 80.1322 94.7383 79.7492 94.9375C79.3662 95.1366 78.8914 95.2362 78.3246 95.2362ZM78.3246 94.6272C78.8224 94.6272 79.2131 94.5162 79.4965 94.2941C79.7799 94.0719 79.9943 93.7885 80.1398 93.4439C80.2854 93.0992 80.3735 92.7239 80.4041 92.3179C80.4424 91.9043 80.4615 91.5099 80.4615 91.1346C80.4615 90.9048 80.4539 90.6597 80.4386 90.3993C80.4309 90.1312 80.4041 89.8708 80.3581 89.618C80.3122 89.3576 80.2432 89.1087 80.1513 88.8712C80.0671 88.6261 79.9445 88.4155 79.7837 88.2393C79.6305 88.0555 79.4314 87.91 79.1863 87.8027C78.9488 87.6879 78.6616 87.6304 78.3246 87.6304C77.9876 87.6304 77.7003 87.684 77.4629 87.7913C77.2255 87.8908 77.0263 88.0287 76.8655 88.2049C76.7123 88.381 76.5859 88.584 76.4863 88.8138C76.3944 89.0436 76.3255 89.2887 76.2795 89.5491C76.2336 89.8095 76.2029 90.0776 76.1876 90.3533C76.1723 90.6214 76.1646 90.8818 76.1646 91.1346C76.1646 91.3644 76.1685 91.6095 76.1761 91.8699C76.1914 92.1303 76.2221 92.3907 76.268 92.6511C76.314 92.9115 76.3791 93.1605 76.4634 93.3979C76.5553 93.6354 76.6816 93.846 76.8425 94.0298C77.0033 94.2136 77.2025 94.3592 77.4399 94.4664C77.685 94.5736 77.9799 94.6272 78.3246 94.6272Z" fill="white"/>
<path d="M72.8972 90.6966V88.1116C72.8972 87.9124 72.8398 87.7746 72.7249 87.698C72.61 87.6214 72.4415 87.5639 72.2193 87.5256C72.1581 87.518 72.1121 87.495 72.0815 87.4567C72.0585 87.4107 72.047 87.3648 72.047 87.3188C72.0547 87.2729 72.07 87.2346 72.093 87.2039C72.1236 87.1656 72.1619 87.1465 72.2079 87.1465H74.4023C74.4482 87.1465 74.4827 87.1656 74.5057 87.2039C74.5363 87.2346 74.5516 87.2729 74.5516 87.3188C74.5593 87.3648 74.5478 87.4107 74.5172 87.4567C74.4942 87.495 74.4521 87.518 74.3908 87.5256C74.1687 87.5639 74.0001 87.6214 73.8853 87.698C73.7704 87.7746 73.7129 87.9124 73.7129 88.1116V94.1433C73.7129 94.3425 73.7704 94.4803 73.8853 94.5569C74.0001 94.6335 74.1687 94.691 74.3908 94.7293C74.4521 94.7369 74.4942 94.7637 74.5172 94.8097C74.5478 94.848 74.5593 94.8901 74.5516 94.9361C74.5516 94.982 74.5363 95.0242 74.5057 95.0625C74.4827 95.0931 74.4482 95.1084 74.4023 95.1084H72.2079C72.1619 95.1084 72.1236 95.0931 72.093 95.0625C72.07 95.0242 72.0547 94.982 72.047 94.9361C72.047 94.8901 72.0585 94.848 72.0815 94.8097C72.1121 94.7637 72.1581 94.7369 72.2193 94.7293C72.4415 94.691 72.61 94.6335 72.7249 94.5569C72.8398 94.4803 72.8972 94.3425 72.8972 94.1433V91.2711H68.9335V94.1433C68.9335 94.3425 68.9909 94.4803 69.1058 94.5569C69.2207 94.6335 69.3892 94.691 69.6113 94.7293C69.6726 94.7369 69.7147 94.7637 69.7377 94.8097C69.7684 94.848 69.7798 94.8901 69.7722 94.9361C69.7722 94.982 69.7569 95.0242 69.7262 95.0625C69.7033 95.0931 69.6688 95.1084 69.6228 95.1084H67.4284C67.3825 95.1084 67.3442 95.0931 67.3135 95.0625C67.2906 95.0242 67.2752 94.982 67.2676 94.9361C67.2676 94.8901 67.2791 94.848 67.302 94.8097C67.3327 94.7637 67.3786 94.7369 67.4399 94.7293C67.662 94.691 67.8305 94.6335 67.9454 94.5569C68.0603 94.4803 68.1178 94.3425 68.1178 94.1433V88.1116C68.1178 87.9124 68.0603 87.7746 67.9454 87.698C67.8305 87.6214 67.662 87.5639 67.4399 87.5256C67.3786 87.518 67.3327 87.495 67.302 87.4567C67.2791 87.4107 67.2676 87.3648 67.2676 87.3188C67.2752 87.2729 67.2906 87.2346 67.3135 87.2039C67.3442 87.1656 67.3825 87.1465 67.4284 87.1465H69.6228C69.6688 87.1465 69.7033 87.1656 69.7262 87.2039C69.7569 87.2346 69.7722 87.2729 69.7722 87.3188C69.7798 87.3648 69.7684 87.4107 69.7377 87.4567C69.7147 87.495 69.6726 87.518 69.6113 87.5256C69.3892 87.5639 69.2207 87.6214 69.1058 87.698C68.9909 87.7746 68.9335 87.9124 68.9335 88.1116V90.6966H72.8972Z" fill="white"/>
<path d="M64.2347 87.0215C65.0543 87.0215 65.7551 87.1632 66.3372 87.4466C66.4138 87.4849 66.4751 87.5232 66.521 87.5615C66.567 87.5998 66.59 87.661 66.59 87.7453V89.078C66.59 89.1393 66.5708 89.1891 66.5325 89.2274C66.4942 89.258 66.4521 89.2772 66.4062 89.2848C66.3602 89.2925 66.3142 89.2848 66.2683 89.2619C66.2223 89.2389 66.1955 89.2006 66.1879 89.147C66.1419 88.8942 66.0845 88.6721 66.0155 88.4806C65.9543 88.2891 65.8585 88.1321 65.7283 88.0095C65.5981 87.8793 65.4143 87.7836 65.1768 87.7223C64.9394 87.661 64.6254 87.6304 64.2347 87.6304C63.8977 87.6304 63.6105 87.684 63.3731 87.7913C63.1356 87.8908 62.9365 88.0287 62.7756 88.2049C62.6224 88.381 62.4961 88.584 62.3965 88.8138C62.3046 89.0436 62.2356 89.2887 62.1897 89.5491C62.1437 89.8095 62.1131 90.0776 62.0978 90.3533C62.0825 90.6214 62.0748 90.8818 62.0748 91.1346C62.0748 91.3644 62.0786 91.6095 62.0863 91.8699C62.1016 92.1303 62.1322 92.3907 62.1782 92.6511C62.2242 92.9115 62.2893 93.1605 62.3735 93.3979C62.4654 93.6354 62.5918 93.846 62.7526 94.0298C62.9135 94.2136 63.1126 94.3592 63.3501 94.4664C63.5952 94.5736 63.8901 94.6272 64.2347 94.6272C64.7096 94.6272 65.1194 94.5736 65.4641 94.4664C65.8164 94.3592 66.1457 94.2175 66.4521 94.0413C66.5057 94.0107 66.5517 94.0107 66.59 94.0413C66.6359 94.0643 66.6666 94.0987 66.6819 94.1447C66.7049 94.1907 66.7125 94.2404 66.7049 94.2941C66.7049 94.3477 66.6857 94.3898 66.6474 94.4204C66.3411 94.6655 65.9887 94.8647 65.5904 95.0179C65.1998 95.1634 64.7479 95.2362 64.2347 95.2362C63.645 95.2362 63.1548 95.1289 62.7641 94.9145C62.3812 94.7 62.0748 94.409 61.845 94.0413C61.6152 93.6737 61.4544 93.2409 61.3625 92.743C61.2706 92.2452 61.2246 91.709 61.2246 91.1346C61.2246 90.5218 61.2744 89.9627 61.374 89.4572C61.4735 88.9516 61.6382 88.5189 61.868 88.1589C62.1054 87.7989 62.4156 87.5193 62.7986 87.3202C63.1816 87.1211 63.6603 87.0215 64.2347 87.0215Z" fill="white"/>
<path d="M57.8147 91.6272V94.1433C57.8147 94.3425 57.8721 94.4803 57.987 94.5569C58.1019 94.6335 58.2704 94.691 58.4926 94.7293C58.5538 94.7369 58.596 94.7637 58.6189 94.8097C58.6496 94.848 58.6611 94.8901 58.6534 94.9361C58.6534 94.982 58.6381 95.0242 58.6074 95.0625C58.5845 95.0931 58.55 95.1084 58.504 95.1084H56.3096C56.2637 95.1084 56.2254 95.0931 56.1947 95.0625C56.1718 95.0242 56.1565 94.982 56.1488 94.9361C56.1488 94.8901 56.1603 94.848 56.1833 94.8097C56.2139 94.7637 56.2599 94.7369 56.3211 94.7293C56.5432 94.691 56.7118 94.6335 56.8266 94.5569C56.9415 94.4803 56.999 94.3425 56.999 94.1433V91.5238L54.9769 88.1116C54.8697 87.9354 54.751 87.8052 54.6208 87.7209C54.4905 87.629 54.3144 87.5639 54.0923 87.5256C54.031 87.518 53.985 87.495 53.9544 87.4567C53.9314 87.4107 53.9199 87.3648 53.9199 87.3188C53.9276 87.2729 53.9429 87.2346 53.9659 87.2039C53.9965 87.1656 54.0348 87.1465 54.0808 87.1465H56.0684C56.1143 87.1465 56.1488 87.1656 56.1718 87.2039C56.2024 87.2346 56.2177 87.2729 56.2177 87.3188C56.2254 87.3648 56.2139 87.4107 56.1833 87.4567C56.1603 87.495 56.1182 87.518 56.0569 87.5256C55.8271 87.5563 55.7122 87.6099 55.7122 87.6865C55.7122 87.7554 55.762 87.8665 55.8616 88.0197L57.5275 90.8575L59.2623 88.0197C59.3619 87.8665 59.4117 87.7554 59.4117 87.6865C59.4117 87.6099 59.2968 87.5563 59.067 87.5256C59.0057 87.518 58.9598 87.495 58.9291 87.4567C58.9062 87.4107 58.8947 87.3648 58.8947 87.3188C58.9023 87.2729 58.9177 87.2346 58.9406 87.2039C58.9713 87.1656 59.0096 87.1465 59.0555 87.1465H60.6984C60.7444 87.1465 60.7789 87.1656 60.8019 87.2039C60.8325 87.2346 60.8478 87.2729 60.8478 87.3188C60.8555 87.3648 60.844 87.4107 60.8133 87.4567C60.7904 87.495 60.7482 87.518 60.687 87.5256C60.4802 87.5563 60.3346 87.6214 60.2504 87.7209C60.1661 87.8129 60.0742 87.9431 59.9746 88.1116L57.8147 91.6272Z" fill="white"/>
<path d="M51.1804 95.2362C50.7898 95.2362 50.4451 95.2055 50.1464 95.1443C49.8553 95.0906 49.5796 94.9987 49.3192 94.8685C49.2426 94.8302 49.1813 94.7919 49.1353 94.7536C49.0894 94.7153 49.0664 94.6541 49.0664 94.5698V93.5817C49.0664 93.5205 49.0856 93.4745 49.1239 93.4439C49.1621 93.4056 49.2043 93.3864 49.2502 93.3864C49.3038 93.3788 49.3498 93.3864 49.3881 93.4094C49.4341 93.4324 49.4609 93.4707 49.4685 93.5243C49.4992 93.7311 49.5489 93.9073 49.6179 94.0528C49.6868 94.1907 49.7864 94.3056 49.9166 94.3975C50.0468 94.4817 50.2115 94.543 50.4106 94.5813C50.6174 94.6119 50.874 94.6272 51.1804 94.6272C51.7089 94.6272 52.1378 94.4855 52.4672 94.2022C52.7965 93.9188 52.9612 93.5396 52.9612 93.0647C52.9612 92.743 52.8654 92.475 52.674 92.2605C52.4825 92.046 52.245 91.8546 51.9616 91.686C51.6782 91.5175 51.368 91.3605 51.031 91.215C50.694 91.0618 50.3838 90.8856 50.1004 90.6865C49.817 90.4874 49.5796 90.2537 49.3881 89.9857C49.1966 89.7099 49.1009 89.3691 49.1009 88.9631C49.1009 88.6491 49.1621 88.3734 49.2847 88.1359C49.4072 87.8908 49.5758 87.6879 49.7902 87.527C50.0047 87.3585 50.2536 87.2321 50.537 87.1479C50.8281 87.0636 51.1344 87.0215 51.4561 87.0215C51.7778 87.0215 52.0804 87.0521 52.3638 87.1134C52.6548 87.167 52.9305 87.2589 53.191 87.3891C53.2676 87.4274 53.3288 87.4657 53.3748 87.504C53.4207 87.5423 53.4437 87.6036 53.4437 87.6879V88.6759C53.4437 88.7372 53.4246 88.787 53.3863 88.8253C53.348 88.8559 53.302 88.8751 53.2484 88.8827C53.2025 88.8827 53.1565 88.8712 53.1105 88.8482C53.0722 88.8253 53.0493 88.787 53.0416 88.7334C53.0033 88.5266 52.9535 88.3504 52.8923 88.2049C52.8386 88.0593 52.7544 87.9444 52.6395 87.8602C52.5246 87.7759 52.3714 87.7147 52.1799 87.6764C51.9961 87.6381 51.7548 87.6189 51.4561 87.6189C51.2493 87.6189 51.054 87.6457 50.8702 87.6993C50.6864 87.7453 50.5255 87.8219 50.3876 87.9291C50.2574 88.0287 50.1502 88.1627 50.066 88.3312C49.9894 88.4921 49.9511 88.6874 49.9511 88.9172C49.9511 89.2236 50.0468 89.4801 50.2383 89.6869C50.4298 89.8861 50.6672 90.0661 50.9506 90.2269C51.234 90.3878 51.5442 90.5448 51.8812 90.698C52.2182 90.8512 52.5284 91.0312 52.8118 91.238C53.0952 91.4371 53.3327 91.6822 53.5241 91.9733C53.7156 92.2567 53.8114 92.6167 53.8114 93.0532C53.8114 93.4362 53.7386 93.7656 53.5931 94.0413C53.4552 94.317 53.2676 94.543 53.0301 94.7192C52.7927 94.8953 52.5131 95.0255 52.1914 95.1098C51.8697 95.194 51.5327 95.2362 51.1804 95.2362Z" fill="white"/>
<path d="M45.0492 90.846C45.547 90.846 45.9721 90.8115 46.3245 90.7426C46.6768 90.666 46.964 90.5587 47.1861 90.4209C47.4083 90.283 47.5691 90.1145 47.6687 89.9153C47.7683 89.7162 47.818 89.4903 47.818 89.2375C47.818 89.0307 47.7797 88.8354 47.7031 88.6516C47.6266 88.4677 47.4887 88.3069 47.2895 88.169C47.0981 88.0311 46.8338 87.9239 46.4968 87.8473C46.1598 87.7707 45.7309 87.7324 45.21 87.7324H44.7275C44.5666 87.7324 44.4862 87.8205 44.4862 87.9967V90.846H45.0492ZM44.4862 94.1433C44.4862 94.3425 44.5437 94.4803 44.6586 94.5569C44.7734 94.6335 44.942 94.691 45.1641 94.7293C45.2253 94.7369 45.2675 94.7637 45.2905 94.8097C45.3211 94.848 45.3326 94.8901 45.3249 94.9361C45.3249 94.982 45.3096 95.0242 45.279 95.0625C45.256 95.0931 45.2215 95.1084 45.1756 95.1084H42.9812C42.9352 95.1084 42.8969 95.0931 42.8663 95.0625C42.8433 95.0242 42.828 94.982 42.8203 94.9361C42.8203 94.8901 42.8318 94.848 42.8548 94.8097C42.8854 94.7637 42.9314 94.7369 42.9926 94.7293C43.2148 94.691 43.3833 94.6335 43.4982 94.5569C43.6131 94.4803 43.6705 94.3425 43.6705 94.1433V88.1116C43.6705 87.9124 43.6131 87.7746 43.4982 87.698C43.3833 87.6214 43.2148 87.5639 42.9926 87.5256C42.9314 87.518 42.8854 87.495 42.8548 87.4567C42.8318 87.4107 42.8203 87.3648 42.8203 87.3188C42.828 87.2729 42.8433 87.2346 42.8663 87.2039C42.8969 87.1656 42.9352 87.1465 42.9812 87.1465H44.8768C45.4743 87.1465 46.0066 87.1771 46.4738 87.2384C46.9487 87.2997 47.347 87.4107 47.6687 87.5716C47.9904 87.7248 48.2355 87.9354 48.404 88.2035C48.5801 88.4716 48.6682 88.8162 48.6682 89.2375C48.6682 89.6511 48.5801 89.9996 48.404 90.283C48.2278 90.5587 47.9827 90.7809 47.6687 90.9494C47.3547 91.1179 46.9755 91.2404 46.5313 91.317C46.087 91.386 45.5968 91.4204 45.0607 91.4204H44.4862V94.1433Z" fill="#6BB283"/>
<path d="M35.9882 94.1433C35.9882 94.3425 36.0456 94.4803 36.1605 94.5569C36.2754 94.6335 36.4439 94.691 36.666 94.7293C36.7273 94.7369 36.7694 94.7637 36.7924 94.8097C36.823 94.848 36.8345 94.8901 36.8269 94.9361C36.8269 94.982 36.8116 95.0242 36.7809 95.0625C36.7579 95.0931 36.7235 95.1084 36.6775 95.1084H34.4831C34.4372 95.1084 34.3989 95.0931 34.3682 95.0625C34.3452 95.0242 34.3299 94.982 34.3223 94.9361C34.3223 94.8901 34.3338 94.848 34.3567 94.8097C34.3874 94.7637 34.4333 94.7369 34.4946 94.7293C34.7167 94.691 34.8852 94.6335 35.0001 94.5569C35.115 94.4803 35.1725 94.3425 35.1725 94.1433V88.1116C35.1725 87.9124 35.115 87.7746 35.0001 87.698C34.8852 87.6214 34.7167 87.5639 34.4946 87.5256C34.4333 87.518 34.3874 87.495 34.3567 87.4567C34.3338 87.4107 34.3223 87.3648 34.3223 87.3188C34.3299 87.2729 34.3452 87.2346 34.3682 87.2039C34.3989 87.1656 34.4372 87.1465 34.4831 87.1465H36.6775C36.7235 87.1465 36.7579 87.1656 36.7809 87.2039C36.8116 87.2346 36.8269 87.2729 36.8269 87.3188C36.8345 87.3648 36.823 87.4107 36.7924 87.4567C36.7694 87.495 36.7273 87.518 36.666 87.5256C36.4439 87.5639 36.2754 87.6214 36.1605 87.698C36.0456 87.7746 35.9882 87.9124 35.9882 88.1116V94.1433Z" fill="white"/>
<path d="M27.8777 94.1433C27.8777 94.3425 27.9351 94.4803 28.05 94.5569C28.1649 94.6335 28.3334 94.691 28.5555 94.7293C28.6168 94.7369 28.6589 94.7637 28.6819 94.8097C28.7125 94.848 28.724 94.8901 28.7163 94.9361C28.7163 94.982 28.701 95.0242 28.6704 95.0625C28.6474 95.0931 28.6129 95.1084 28.567 95.1084H26.5105C26.4645 95.1084 26.4262 95.0931 26.3956 95.0625C26.3726 95.0242 26.3573 94.982 26.3496 94.9361C26.3496 94.8901 26.3611 94.848 26.3841 94.8097C26.4147 94.7637 26.4607 94.7369 26.5219 94.7293C26.7441 94.691 26.9126 94.6335 27.0275 94.5569C27.1424 94.4803 27.1998 94.3425 27.1998 94.1433V88.1116C27.1998 87.9124 27.1424 87.7746 27.0275 87.698C26.9126 87.6214 26.7441 87.5639 26.5219 87.5256C26.4607 87.518 26.4147 87.495 26.3841 87.4567C26.3611 87.4107 26.3496 87.3648 26.3496 87.3188C26.3573 87.2729 26.3726 87.2346 26.3956 87.2039C26.4262 87.1656 26.4645 87.1465 26.5105 87.1465H28.0615C28.1687 87.1465 28.253 87.2001 28.3142 87.3073L32.1056 93.9135V88.1116C32.1056 87.9124 32.0482 87.7746 31.9333 87.698C31.8184 87.6214 31.6499 87.5639 31.4278 87.5256C31.3665 87.518 31.3205 87.495 31.2899 87.4567C31.2669 87.4107 31.2554 87.3648 31.2554 87.3188C31.2631 87.2729 31.2784 87.2346 31.3014 87.2039C31.332 87.1656 31.3703 87.1465 31.4163 87.1465H33.4728C33.5188 87.1465 33.5532 87.1656 33.5762 87.2039C33.6068 87.2346 33.6222 87.2729 33.6222 87.3188C33.6298 87.3648 33.6183 87.4107 33.5877 87.4567C33.5647 87.495 33.5226 87.518 33.4613 87.5256C33.2392 87.5639 33.0707 87.6214 32.9558 87.698C32.8409 87.7746 32.7835 87.9124 32.7835 88.1116V94.8671C32.7835 95.028 32.703 95.1084 32.5422 95.1084H32.0711C31.9639 95.1084 31.8797 95.0548 31.8184 94.9476L27.8777 88.0886V94.1433Z" fill="white"/>
<path d="M22.6742 95.2362C22.0844 95.2362 21.5942 95.1289 21.2036 94.9145C20.8206 94.7 20.5143 94.409 20.2845 94.0413C20.0547 93.6737 19.8938 93.2409 19.8019 92.743C19.71 92.2452 19.6641 91.709 19.6641 91.1346C19.6641 90.5218 19.7138 89.9627 19.8134 89.4572C19.913 88.9516 20.0777 88.5189 20.3074 88.1589C20.5449 87.7989 20.8551 87.5193 21.2381 87.3202C21.621 87.1211 22.0997 87.0215 22.6742 87.0215C23.2486 87.0215 23.7273 87.1287 24.1103 87.3432C24.4933 87.5576 24.7997 87.8525 25.0294 88.2278C25.2592 88.5955 25.4201 89.0282 25.512 89.5261C25.6116 90.024 25.6613 90.5601 25.6613 91.1346C25.6613 91.7473 25.6116 92.3065 25.512 92.812C25.4124 93.3098 25.2477 93.7388 25.018 94.0987C24.7882 94.4587 24.4818 94.7383 24.0988 94.9375C23.7159 95.1366 23.241 95.2362 22.6742 95.2362ZM22.6742 94.6272C23.172 94.6272 23.5627 94.5162 23.8461 94.2941C24.1295 94.0719 24.3439 93.7885 24.4895 93.4439C24.635 93.0992 24.7231 92.7239 24.7537 92.3179C24.792 91.9043 24.8111 91.5099 24.8111 91.1346C24.8111 90.9048 24.8035 90.6597 24.7882 90.3993C24.7805 90.1312 24.7537 89.8708 24.7077 89.618C24.6618 89.3576 24.5929 89.1087 24.5009 88.8712C24.4167 88.6261 24.2941 88.4155 24.1333 88.2393C23.9801 88.0555 23.781 87.91 23.5359 87.8027C23.2984 87.6879 23.0112 87.6304 22.6742 87.6304C22.3372 87.6304 22.05 87.684 21.8125 87.7913C21.5751 87.8908 21.3759 88.0287 21.2151 88.2049C21.0619 88.381 20.9355 88.584 20.8359 88.8138C20.744 89.0436 20.6751 89.2887 20.6291 89.5491C20.5832 89.8095 20.5525 90.0776 20.5372 90.3533C20.5219 90.6214 20.5143 90.8818 20.5143 91.1346C20.5143 91.3644 20.5181 91.6095 20.5257 91.8699C20.5411 92.1303 20.5717 92.3907 20.6177 92.6511C20.6636 92.9115 20.7287 93.1605 20.813 93.3979C20.9049 93.6354 21.0313 93.846 21.1921 94.0298C21.353 94.2136 21.5521 94.3592 21.7895 94.4664C22.0346 94.5736 22.3295 94.6272 22.6742 94.6272Z" fill="white"/>
<path d="M16.4011 95.2362C16.0105 95.2362 15.6658 95.2055 15.3671 95.1443C15.076 95.0906 14.8003 94.9987 14.5399 94.8685C14.4633 94.8302 14.402 94.7919 14.356 94.7536C14.3101 94.7153 14.2871 94.6541 14.2871 94.5698V93.5817C14.2871 93.5205 14.3063 93.4745 14.3446 93.4439C14.3829 93.4056 14.425 93.3864 14.4709 93.3864C14.5245 93.3788 14.5705 93.3864 14.6088 93.4094C14.6548 93.4324 14.6816 93.4707 14.6892 93.5243C14.7199 93.7311 14.7696 93.9073 14.8386 94.0528C14.9075 94.1907 15.0071 94.3056 15.1373 94.3975C15.2675 94.4817 15.4322 94.543 15.6313 94.5813C15.8381 94.6119 16.0947 94.6272 16.4011 94.6272C16.9296 94.6272 17.3585 94.4855 17.6879 94.2022C18.0172 93.9188 18.1819 93.5396 18.1819 93.0647C18.1819 92.743 18.0861 92.475 17.8947 92.2605C17.7032 92.046 17.4657 91.8546 17.1823 91.686C16.8989 91.5175 16.5887 91.3605 16.2517 91.215C15.9147 91.0618 15.6045 90.8856 15.3211 90.6865C15.0377 90.4874 14.8003 90.2537 14.6088 89.9857C14.4173 89.7099 14.3216 89.3691 14.3216 88.9631C14.3216 88.6491 14.3829 88.3734 14.5054 88.1359C14.6279 87.8908 14.7965 87.6879 15.0109 87.527C15.2254 87.3585 15.4743 87.2321 15.7577 87.1479C16.0488 87.0636 16.3551 87.0215 16.6768 87.0215C16.9985 87.0215 17.3011 87.0521 17.5845 87.1134C17.8755 87.167 18.1513 87.2589 18.4117 87.3891C18.4883 87.4274 18.5495 87.4657 18.5955 87.504C18.6415 87.5423 18.6644 87.6036 18.6644 87.6879V88.6759C18.6644 88.7372 18.6453 88.787 18.607 88.8253C18.5687 88.8559 18.5227 88.8751 18.4691 88.8827C18.4232 88.8827 18.3772 88.8712 18.3312 88.8482C18.293 88.8253 18.27 88.787 18.2623 88.7334C18.224 88.5266 18.1742 88.3504 18.113 88.2049C18.0593 88.0593 17.9751 87.9444 17.8602 87.8602C17.7453 87.7759 17.5921 87.7147 17.4006 87.6764C17.2168 87.6381 16.9755 87.6189 16.6768 87.6189C16.47 87.6189 16.2747 87.6457 16.0909 87.6993C15.9071 87.7453 15.7462 87.8219 15.6083 87.9291C15.4781 88.0287 15.3709 88.1627 15.2867 88.3312C15.2101 88.4921 15.1718 88.6874 15.1718 88.9172C15.1718 89.2236 15.2675 89.4801 15.459 89.6869C15.6505 89.8861 15.8879 90.0661 16.1713 90.2269C16.4547 90.3878 16.7649 90.5448 17.1019 90.698C17.4389 90.8512 17.7491 91.0312 18.0325 91.238C18.3159 91.4371 18.5534 91.6822 18.7449 91.9733C18.9363 92.2567 19.0321 92.6167 19.0321 93.0532C19.0321 93.4362 18.9593 93.7656 18.8138 94.0413C18.6759 94.317 18.4883 94.543 18.2508 94.7192C18.0134 94.8953 17.7338 95.0255 17.4121 95.1098C17.0904 95.194 16.7534 95.2362 16.4011 95.2362Z" fill="white"/>
<path d="M8.49093 94.7293C8.55221 94.7369 8.59434 94.7637 8.61731 94.8097C8.64795 94.848 8.65944 94.8901 8.65178 94.9361C8.65178 94.982 8.63646 95.0242 8.60582 95.0625C8.58285 95.0931 8.54838 95.1084 8.50242 95.1084H6.5378C6.49184 95.1084 6.45355 95.0931 6.42291 95.0625C6.39993 95.0242 6.38461 94.982 6.37695 94.9361C6.37695 94.8901 6.38844 94.848 6.41142 94.8097C6.44206 94.7637 6.48801 94.7369 6.54929 94.7293C6.77141 94.691 6.93992 94.6335 7.05481 94.5569C7.1697 94.4727 7.26161 94.3348 7.33054 94.1433L9.83515 87.3533C9.88877 87.2154 9.98834 87.1465 10.1339 87.1465H10.4556C10.6011 87.1465 10.7007 87.2154 10.7543 87.3533L13.2129 94.1433C13.2819 94.3348 13.3738 94.4727 13.4887 94.5569C13.6036 94.6335 13.7721 94.691 13.9942 94.7293C14.0555 94.7369 14.0976 94.7637 14.1206 94.8097C14.1512 94.848 14.1627 94.8901 14.155 94.9361C14.155 94.982 14.1397 95.0242 14.1091 95.0625C14.0861 95.0931 14.0516 95.1084 14.0057 95.1084H11.8457C11.7998 95.1084 11.7615 95.0931 11.7308 95.0625C11.7079 95.0242 11.6925 94.982 11.6849 94.9361C11.6849 94.8901 11.6964 94.848 11.7194 94.8097C11.75 94.7637 11.7959 94.7369 11.8572 94.7293C12.0793 94.691 12.2325 94.6412 12.3168 94.5799C12.401 94.511 12.4087 94.3808 12.3398 94.1893L11.7194 92.4889H8.61731L8.01988 94.1548C7.95095 94.3463 7.95478 94.4803 8.03137 94.5569C8.11563 94.6335 8.26881 94.691 8.49093 94.7293ZM10.1454 88.215L8.82412 91.9144H11.5011L10.1454 88.215Z" fill="white"/>
<path d="M0.160846 95.1084C0.11489 95.1084 0.0765935 95.0931 0.0459561 95.0625C0.0229781 95.0242 0.00765934 94.982 0 94.9361C0 94.8901 0.011489 94.848 0.0344671 94.8097C0.0651045 94.7637 0.111061 94.7369 0.172335 94.7293C0.394457 94.691 0.562963 94.6335 0.677853 94.5569C0.792743 94.4803 0.850188 94.3425 0.850188 94.1433V88.1116C0.850188 87.9124 0.792743 87.7746 0.677853 87.698C0.562963 87.6214 0.394457 87.5639 0.172335 87.5256C0.111061 87.518 0.0651045 87.495 0.0344671 87.4567C0.011489 87.4107 0 87.3648 0 87.3188C0.00765934 87.2729 0.0229781 87.2346 0.0459561 87.2039C0.0765935 87.1656 0.11489 87.1465 0.160846 87.1465H2.13696C2.74205 87.1465 3.29735 87.2001 3.80287 87.3073C4.30839 87.4146 4.74114 87.6175 5.10113 87.9163C5.46112 88.2073 5.74069 88.6133 5.93983 89.1341C6.13897 89.6473 6.23854 90.3136 6.23854 91.1332C6.23854 91.9527 6.13514 92.6229 5.92834 93.1438C5.72154 93.657 5.43431 94.0591 5.06666 94.3501C4.69901 94.6412 4.2586 94.8403 3.74542 94.9476C3.23991 95.0548 2.68843 95.1084 2.091 95.1084H0.160846ZM1.66591 94.2582C1.66591 94.4344 1.75016 94.5225 1.91867 94.5225H2.32078C3.39309 94.5225 4.17052 94.2506 4.65306 93.7067C5.14326 93.1629 5.38836 92.3051 5.38836 91.1332C5.38836 90.6507 5.3424 90.2026 5.25049 89.789C5.16623 89.3754 5.01305 89.0154 4.79093 88.709C4.56881 88.4026 4.27009 88.1652 3.89478 87.9967C3.52713 87.8205 3.05991 87.7324 2.49312 87.7324H1.91867C1.75016 87.7324 1.66591 87.8205 1.66591 87.9967V94.2582Z" fill="#6BB283"/>
</svg>
