<svg width="273" height="201" viewBox="0 0 273 201" fill="none" xmlns="http://www.w3.org/2000/svg">
<path d="M13.8568 76.6463L28.8324 78.2056L38.3192 89.8976L36.7599 104.873L25.068 114.36L10.0924 112.801L0.605591 101.109L2.16487 86.1332L13.8568 76.6463Z" fill="#5CA775" fill-opacity="0.95"/>
<path d="M33.5244 81.0061L46.4778 85.8217L52.2322 98.3863L47.4166 111.34L34.8521 117.094L21.8986 112.279L16.1443 99.7139L20.9598 86.7605L33.5244 81.0061Z" fill="#F1D566" fill-opacity="0.7"/>
<path d="M32.1261 98.3006L42.7373 99.8804L49.1235 108.501L47.5437 119.112L38.9234 125.498L28.3121 123.918L21.926 115.298L23.5058 104.687L32.1261 98.3006Z" fill="#804FD0" fill-opacity="0.8"/>
<path d="M21.4045 109.816L31.9996 108.132L40.6824 114.433L42.3665 125.028L36.0654 133.711L25.4703 135.395L16.7875 129.094L15.1034 118.499L21.4045 109.816Z" fill="#EBAA70" fill-opacity="0.8"/>
<path d="M119.907 86.8117C119.907 86.4868 119.874 86.2269 119.809 86.0319C119.765 85.8153 119.668 85.6312 119.516 85.4796C119.364 85.328 119.158 85.2088 118.897 85.1222C118.637 85.0139 118.301 84.9056 117.888 84.7973C117.737 84.754 117.628 84.6673 117.563 84.5374C117.52 84.3857 117.509 84.2449 117.53 84.115C117.574 83.9634 117.65 83.8334 117.758 83.7251C117.888 83.6168 118.051 83.5735 118.246 83.5951L121.664 83.9525C121.99 83.9959 122.163 84.1042 122.185 84.2774C122.228 84.4291 122.25 84.559 122.25 84.6673C122.25 84.8189 122.228 85.0139 122.185 85.2522C122.163 85.4904 122.152 85.8262 122.152 86.2594V97.3386C122.152 97.8368 122.391 98.0859 122.869 98.0859C125.624 98.0859 128.294 97.9126 130.876 97.5661C133.48 97.1979 136.149 96.6672 138.883 95.974V82.9778C138.883 82.2197 138.699 81.689 138.33 81.3858C137.983 81.0825 137.397 80.8226 136.572 80.606C136.42 80.5627 136.322 80.476 136.279 80.3461C136.236 80.1945 136.236 80.0537 136.279 79.9237C136.322 79.7721 136.398 79.6421 136.507 79.5338C136.637 79.4255 136.789 79.3822 136.963 79.4039L140.641 79.9237C140.988 79.967 141.172 80.0753 141.194 80.2486C141.238 80.4002 141.259 80.5302 141.259 80.6385C141.259 80.7685 141.238 80.9742 141.194 81.2558C141.151 81.5374 141.129 81.9056 141.129 82.3605V106.631C141.129 107.259 141.01 107.822 140.771 108.32C140.554 108.84 140.196 109.1 139.697 109.1C139.458 109.1 139.263 108.97 139.111 108.71C138.959 108.45 138.883 108.028 138.883 107.443V97.3386C136.084 98.1617 133.317 98.8116 130.583 99.2881C127.87 99.7429 125.039 99.992 122.087 100.035C121.371 100.057 120.829 99.8512 120.46 99.418C120.091 98.9848 119.907 98.4433 119.907 97.7935V86.8117Z" fill="white"/>
<path d="M87.1836 103.085C87.0534 102.955 86.9883 102.814 86.9883 102.662C86.9883 102.511 87.0208 102.381 87.0859 102.273C87.151 102.143 87.2487 102.056 87.3789 102.013C87.5091 101.969 87.6501 101.98 87.802 102.045C88.0841 102.175 88.5398 102.251 89.1691 102.273C89.7984 102.294 90.5471 102.305 91.4151 102.305H100.073V98.4387C100.073 98.1138 100.041 97.843 99.9757 97.6264C99.9323 97.4098 99.8346 97.2365 99.6827 97.1066C99.5525 96.955 99.3572 96.8358 99.0968 96.7492C98.8581 96.6409 98.5435 96.5326 98.1529 96.4243C98.001 96.381 97.8925 96.2943 97.8274 96.1643C97.784 96.0127 97.7731 95.8719 97.7948 95.742C97.8382 95.5903 97.9142 95.4604 98.0227 95.3521C98.1529 95.2438 98.3156 95.2005 98.5109 95.2221L101.831 95.5795C102.157 95.6228 102.33 95.7311 102.352 95.9044C102.395 96.056 102.417 96.186 102.417 96.2943C102.417 96.4459 102.395 96.6409 102.352 96.8791C102.33 97.1174 102.319 97.4531 102.319 97.8863V102.305H113.223C113.527 102.305 113.755 102.283 113.907 102.24C114.059 102.197 114.211 102.175 114.363 102.175C114.732 102.175 114.916 102.381 114.916 102.792C114.916 103.117 114.753 103.421 114.428 103.702C114.102 103.962 113.701 104.092 113.223 104.092H91.4151C90.916 104.092 90.482 104.125 90.1131 104.19C89.7659 104.233 89.4621 104.255 89.2017 104.255C88.9196 104.255 88.6049 104.168 88.2577 103.995C87.9105 103.8 87.5525 103.496 87.1836 103.085ZM103.459 83.1681C103.003 84.6843 102.352 86.1031 101.506 87.4244C103.48 88.659 105.26 89.7637 106.844 90.7384C108.449 91.7131 109.882 92.5471 111.14 93.2402C111.422 93.4568 111.661 93.7817 111.856 94.2149C112.073 94.6481 112.182 95.0163 112.182 95.3196C112.182 95.5579 112.073 95.7636 111.856 95.9369C111.639 96.1102 111.39 96.0885 111.108 95.8719C109.871 94.8756 108.363 93.8034 106.583 92.6554C104.826 91.5074 102.808 90.2294 100.529 88.8215C99.3789 90.2727 97.9793 91.594 96.3301 92.7853C94.6809 93.9766 92.7496 95.0272 90.5362 95.9369C90.3626 96.0019 90.189 96.0019 90.0154 95.9369C89.8635 95.8719 89.7333 95.7853 89.6248 95.677C89.538 95.547 89.4946 95.4171 89.4946 95.2871C89.4946 95.1355 89.5706 95.0163 89.7225 94.9297C92.2831 93.5651 94.4639 91.9947 96.265 90.2186C98.0878 88.4424 99.52 86.4822 100.562 84.3378C100.562 83.9262 100.41 83.5905 100.106 83.3306C99.8021 83.049 99.2921 82.7782 98.576 82.5183C98.4241 82.4533 98.3265 82.3559 98.2831 82.2259C98.2397 82.0743 98.2397 81.9335 98.2831 81.8035C98.3265 81.6519 98.4133 81.5328 98.5435 81.4461C98.6737 81.3378 98.8364 81.3053 99.0317 81.3486L102.938 82.2584C103.263 82.3234 103.437 82.4642 103.459 82.6808C103.502 82.8974 103.502 83.0598 103.459 83.1681Z" fill="white"/>
<path d="M62.0742 97.5011C62.0742 97.9993 62.3129 98.2484 62.7903 98.2484C65.0905 98.2917 67.5318 98.1401 70.1141 97.7935C72.6963 97.4469 75.539 96.8946 78.6421 96.1365V82.9778C78.6421 82.2197 78.4577 81.689 78.0888 81.3858C77.7416 81.0825 77.1557 80.8226 76.3311 80.606C76.1792 80.5627 76.0815 80.476 76.0381 80.3461C75.9947 80.1945 75.9947 80.0537 76.0381 79.9237C76.0815 79.7721 76.1575 79.6421 76.266 79.5338C76.3962 79.4255 76.5481 79.3822 76.7217 79.4039L80.3998 79.9237C80.747 79.967 80.9315 80.0753 80.9532 80.2486C80.9966 80.4002 81.0183 80.5302 81.0183 80.6385C81.0183 80.7685 80.9966 80.9742 80.9532 81.2558C80.9098 81.5374 80.8881 81.9056 80.8881 82.3605V91.1979H84.3058C84.6096 91.1979 84.8374 91.1763 84.9893 91.1329C85.1412 91.0896 85.2931 91.068 85.445 91.068C85.5752 91.068 85.6946 91.1329 85.8031 91.2629C85.9333 91.3929 85.9984 91.5337 85.9984 91.6853C85.9984 91.8152 85.9441 91.956 85.8356 92.1077C85.7271 92.2593 85.5861 92.4001 85.4125 92.53C85.2606 92.66 85.0761 92.7683 84.8591 92.8549C84.6638 92.9416 84.4794 92.9849 84.3058 92.9849H80.8881V106.631C80.8881 107.259 80.7687 107.822 80.53 108.32C80.313 108.84 79.955 109.1 79.4559 109.1C79.2172 109.1 79.0219 108.97 78.87 108.71C78.7181 108.45 78.6421 108.028 78.6421 107.443V97.5011C75.5607 98.3892 72.6421 99.0498 69.8862 99.483C67.1303 99.9162 64.5046 100.154 62.0091 100.198C61.293 100.219 60.7505 100.014 60.3817 99.5805C60.0128 99.1473 59.8283 98.6058 59.8283 97.956V86.8767C59.8283 86.3135 59.709 85.9236 59.4703 85.707C59.2533 85.4904 58.7976 85.328 58.1032 85.2197C57.9296 85.198 57.8102 85.1222 57.7451 84.9922C57.68 84.8406 57.6583 84.689 57.68 84.5374C57.7017 84.3857 57.756 84.2558 57.8428 84.1475C57.9513 84.0175 58.0706 83.9525 58.2008 83.9525H71.5463C71.85 83.9525 72.0779 83.9309 72.2298 83.8876C72.3817 83.8442 72.5336 83.8226 72.6855 83.8226C72.8157 83.8226 72.935 83.8876 73.0435 84.0175C73.1737 84.1475 73.2388 84.2883 73.2388 84.4399C73.2388 84.5699 73.1846 84.7106 73.0761 84.8623C72.9676 85.0139 72.8265 85.1547 72.6529 85.2846C72.501 85.4146 72.3166 85.5229 72.0996 85.6096C71.9043 85.6962 71.7199 85.7395 71.5463 85.7395H62.0742V97.5011Z" fill="white"/>
<path d="M257.246 95.3299V100.113C257.246 100.497 257.43 100.689 257.797 100.689C259.381 100.689 260.882 100.63 262.299 100.514C263.733 100.38 265.101 100.205 266.402 99.9877C266.635 99.9543 266.793 99.9209 266.877 99.8875C266.977 99.8541 267.085 99.8291 267.202 99.8124C267.302 99.8124 267.402 99.8625 267.502 99.9626C267.602 100.046 267.652 100.146 267.652 100.263C267.669 100.48 267.552 100.681 267.302 100.864C267.052 101.048 266.785 101.165 266.502 101.215C265.034 101.499 263.525 101.724 261.974 101.891C260.44 102.058 258.847 102.158 257.196 102.191C256.646 102.208 256.229 102.049 255.946 101.716C255.662 101.382 255.52 100.964 255.52 100.463V90.3215C255.52 89.8875 255.429 89.587 255.245 89.42C255.079 89.2531 254.728 89.1279 254.195 89.0444C254.061 89.0277 253.97 88.9693 253.92 88.8691C253.87 88.7523 253.853 88.6354 253.87 88.5185C253.886 88.4017 253.928 88.3015 253.995 88.218C254.078 88.1179 254.17 88.0678 254.27 88.0678H264.2C264.434 88.0678 264.609 88.0511 264.726 88.0177C264.842 87.9843 264.959 87.9676 265.076 87.9676C265.176 87.9676 265.268 88.0177 265.351 88.1179C265.451 88.218 265.501 88.3265 265.501 88.4434C265.501 88.5436 265.459 88.6521 265.376 88.769C265.293 88.8858 265.184 88.9943 265.051 89.0945C264.934 89.1947 264.792 89.2781 264.626 89.3449C264.475 89.4117 264.334 89.4451 264.2 89.4451H257.246V93.9526H263.325C263.558 93.9526 263.733 93.9359 263.85 93.9025C263.967 93.8691 264.084 93.8524 264.2 93.8524C264.3 93.8524 264.392 93.9025 264.475 94.0027C264.576 94.1029 264.626 94.2114 264.626 94.3282C264.626 94.4284 264.584 94.5369 264.5 94.6538C264.417 94.7706 264.309 94.8792 264.175 94.9793C264.059 95.0795 263.917 95.163 263.75 95.2297C263.6 95.2965 263.458 95.3299 263.325 95.3299H257.246ZM265.501 94.3032C265.401 94.203 265.343 94.1029 265.326 94.0027C265.326 93.8858 265.351 93.7857 265.401 93.7022C265.468 93.602 265.551 93.5352 265.651 93.5019C265.751 93.4685 265.86 93.4768 265.976 93.5269C266.193 93.6271 266.543 93.6855 267.027 93.7022C267.51 93.7189 268.086 93.7272 268.753 93.7272H270.404V87.8174C270.404 87.2331 270.262 86.824 269.979 86.5903C269.712 86.3566 269.261 86.1563 268.628 85.9893C268.511 85.9559 268.436 85.8891 268.403 85.789C268.369 85.6721 268.369 85.5636 268.403 85.4634C268.436 85.3466 268.494 85.2464 268.578 85.1629C268.678 85.0795 268.795 85.0461 268.928 85.0628L271.755 85.4634C272.021 85.4968 272.163 85.5803 272.18 85.7139C272.213 85.8307 272.23 85.9309 272.23 86.0144C272.23 86.1145 272.213 86.2731 272.18 86.4902C272.146 86.7072 272.13 86.991 272.13 87.3416V106.048C272.13 106.532 272.038 106.966 271.855 107.35C271.688 107.751 271.413 107.951 271.029 107.951C270.846 107.951 270.696 107.851 270.579 107.65C270.462 107.45 270.404 107.125 270.404 106.674V95.0795H268.753C268.369 95.0795 268.061 95.1045 267.827 95.1546C267.594 95.188 267.377 95.2047 267.177 95.2047C266.96 95.2047 266.693 95.1379 266.377 95.0044C266.076 94.8541 265.785 94.6204 265.501 94.3032Z" fill="white"/>
<path d="M241.001 91.8741C240.901 91.774 240.851 91.6655 240.851 91.5486C240.851 91.4317 240.876 91.3316 240.926 91.2481C240.976 91.1646 241.051 91.1062 241.151 91.0728C241.251 91.0394 241.359 91.0478 241.476 91.0978C241.693 91.198 242.043 91.2564 242.527 91.2731C243.01 91.2898 243.586 91.2982 244.253 91.2982H245.128V88.3182C245.128 87.7506 245.003 87.3583 244.753 87.1412C244.503 86.9075 244.069 86.7072 243.452 86.5402C243.335 86.5068 243.26 86.4401 243.227 86.3399C243.194 86.2397 243.194 86.1312 243.227 86.0144C243.26 85.8975 243.319 85.8057 243.402 85.7389C243.502 85.6554 243.619 85.622 243.752 85.6387L246.404 85.9893C246.671 86.0227 246.812 86.1062 246.829 86.2397C246.862 86.3566 246.879 86.4568 246.879 86.5402C246.879 86.6404 246.862 86.799 246.829 87.016C246.796 87.2331 246.779 87.5169 246.779 87.8674V100.489C246.779 100.973 246.687 101.407 246.504 101.791C246.337 102.158 246.079 102.342 245.728 102.342C245.562 102.342 245.42 102.241 245.303 102.041C245.186 101.841 245.128 101.524 245.128 101.09V92.6504H244.253C243.869 92.6504 243.561 92.6755 243.327 92.7256C243.094 92.7589 242.877 92.7756 242.677 92.7756C242.46 92.7756 242.193 92.7089 241.876 92.5753C241.576 92.4251 241.284 92.1913 241.001 91.8741ZM242.852 98.1095C242.818 98.2932 242.702 98.4351 242.502 98.5353C242.302 98.6187 242.11 98.552 241.926 98.3349C241.243 97.4835 240.534 96.6571 239.8 95.8558C239.083 95.0544 238.308 94.2531 237.474 93.4518C236.94 94.4368 236.29 95.3549 235.523 96.2064C234.756 97.0578 233.863 97.8508 232.846 98.5853C232.746 98.6688 232.629 98.7022 232.496 98.6855C232.379 98.6521 232.271 98.5937 232.171 98.5102C232.087 98.4267 232.029 98.3349 231.996 98.2348C231.979 98.1179 232.021 98.0177 232.121 97.9343C234.806 95.4468 236.548 92.5252 237.349 89.1696C237.349 88.7856 237.232 88.4851 236.999 88.2681C236.782 88.0511 236.398 87.8424 235.848 87.6421C235.731 87.592 235.656 87.5169 235.623 87.4167C235.589 87.2998 235.589 87.1913 235.623 87.0912C235.656 86.9743 235.723 86.8825 235.823 86.8157C235.923 86.7322 236.048 86.7072 236.198 86.7406L238.9 87.3917C239.15 87.4584 239.283 87.5753 239.3 87.7422C239.317 87.8925 239.317 88.0094 239.3 88.0928C239.166 88.8274 239.008 89.5286 238.825 90.1963C238.641 90.8641 238.408 91.5152 238.124 92.1496C238.841 92.9009 239.558 93.6271 240.275 94.3282C241.009 95.0127 241.751 95.6805 242.502 96.3316C242.618 96.5152 242.718 96.7823 242.802 97.1329C242.885 97.4835 242.902 97.809 242.852 98.1095ZM251.432 100.664C251.432 101.148 251.34 101.582 251.156 101.966C250.99 102.333 250.723 102.517 250.356 102.517C250.189 102.517 250.048 102.417 249.931 102.216C249.814 102.016 249.756 101.699 249.756 101.265V87.8174C249.756 87.2331 249.614 86.824 249.33 86.5903C249.064 86.3566 248.613 86.1563 247.98 85.9893C247.863 85.9559 247.788 85.8891 247.755 85.789C247.721 85.6721 247.721 85.5636 247.755 85.4634C247.788 85.3466 247.846 85.2464 247.93 85.1629C248.03 85.0795 248.146 85.0461 248.28 85.0628L251.056 85.4634C251.323 85.4968 251.465 85.5803 251.482 85.7139C251.515 85.8307 251.532 85.9309 251.532 86.0144C251.532 86.1145 251.515 86.2731 251.482 86.4901C251.448 86.7072 251.432 86.991 251.432 87.3416V100.664ZM239.15 103.519C239.15 103.251 239.125 103.034 239.075 102.867C239.025 102.684 238.933 102.534 238.8 102.417C238.683 102.3 238.516 102.208 238.299 102.141C238.099 102.058 237.841 101.974 237.524 101.891C237.407 101.857 237.324 101.791 237.274 101.691C237.24 101.574 237.232 101.465 237.249 101.365C237.282 101.248 237.34 101.148 237.424 101.064C237.524 100.981 237.649 100.948 237.799 100.964L240.501 101.265C240.751 101.298 240.884 101.382 240.901 101.515C240.934 101.632 240.951 101.732 240.951 101.816C240.951 101.933 240.934 102.083 240.901 102.266C240.884 102.45 240.876 102.709 240.876 103.043V106.549C240.876 106.933 241.059 107.125 241.426 107.125H251.081C251.315 107.125 251.507 107.1 251.657 107.049C251.824 107.016 251.965 106.999 252.082 106.999C252.182 106.999 252.274 107.049 252.357 107.15C252.457 107.25 252.507 107.358 252.507 107.475C252.507 107.575 252.457 107.684 252.357 107.801C252.274 107.934 252.157 108.051 252.007 108.151C251.874 108.251 251.723 108.335 251.557 108.402C251.39 108.469 251.232 108.502 251.081 108.502H240.826C240.275 108.502 239.858 108.335 239.575 108.001C239.291 107.684 239.15 107.275 239.15 106.774V103.519Z" fill="white"/>
<path d="M217.577 108.752C217.027 108.752 216.61 108.585 216.327 108.251C216.043 107.934 215.901 107.525 215.901 107.024V102.592C215.901 102.158 215.843 101.857 215.726 101.691C215.61 101.524 215.309 101.398 214.826 101.315C214.692 101.298 214.601 101.24 214.551 101.14C214.501 101.023 214.484 100.906 214.501 100.789C214.517 100.672 214.559 100.572 214.626 100.489C214.709 100.388 214.801 100.338 214.901 100.338H225.507C226.04 100.338 226.416 100.313 226.632 100.263C226.866 100.213 227.074 100.188 227.258 100.188C227.475 100.188 227.691 100.28 227.908 100.463C228.142 100.63 228.258 100.797 228.258 100.964C228.258 101.081 228.242 101.231 228.208 101.415C228.192 101.599 228.183 101.857 228.183 102.191V107.751C228.183 107.968 228.075 108.185 227.858 108.402C227.658 108.635 227.416 108.752 227.133 108.752H217.577ZM228.333 91.799H230.96C231.193 91.799 231.368 91.7823 231.485 91.7489C231.602 91.7155 231.719 91.6988 231.835 91.6988C231.935 91.6988 232.027 91.7489 232.111 91.8491C232.211 91.9493 232.261 92.0578 232.261 92.1746C232.261 92.2748 232.219 92.3833 232.136 92.5002C232.052 92.617 231.944 92.7256 231.81 92.8257C231.694 92.9259 231.552 93.0094 231.385 93.0761C231.235 93.1429 231.093 93.1763 230.96 93.1763H228.333V97.158C228.333 97.6421 228.242 98.0845 228.058 98.4852C227.891 98.8691 227.616 99.0611 227.233 99.0611C227.049 99.0611 226.899 98.961 226.783 98.7606C226.666 98.5603 226.607 98.2348 226.607 97.784V95.2297C224.239 95.9142 221.997 96.4234 219.879 96.7573C217.761 97.0912 215.743 97.2748 213.825 97.3082C213.275 97.3249 212.858 97.1663 212.575 96.8324C212.291 96.4985 212.149 96.0812 212.149 95.5803V89.8958C212.149 89.4618 212.058 89.1613 211.874 88.9943C211.707 88.8274 211.357 88.7022 210.824 88.6187C210.69 88.602 210.598 88.5436 210.548 88.4434C210.498 88.3265 210.482 88.2097 210.498 88.0928C210.515 87.976 210.557 87.8758 210.624 87.7923C210.707 87.6922 210.799 87.6421 210.899 87.6421H221.154C221.388 87.6421 221.563 87.6254 221.68 87.592C221.796 87.5586 221.913 87.5419 222.03 87.5419C222.13 87.5419 222.222 87.592 222.305 87.6922C222.405 87.7923 222.455 87.9008 222.455 88.0177C222.455 88.1179 222.413 88.2264 222.33 88.3432C222.247 88.4601 222.138 88.5686 222.005 88.6688C221.888 88.769 221.746 88.8524 221.58 88.9192C221.43 88.986 221.288 89.0194 221.154 89.0194H213.875V95.2297C213.875 95.6137 214.059 95.8057 214.426 95.8057C216.193 95.8391 218.069 95.7222 220.054 95.4551C222.038 95.188 224.223 94.7623 226.607 94.178V87.8174C226.607 87.2331 226.466 86.824 226.182 86.5903C225.915 86.3566 225.465 86.1563 224.831 85.9893C224.715 85.9559 224.64 85.8891 224.606 85.789C224.573 85.6721 224.573 85.5636 224.606 85.4634C224.64 85.3466 224.698 85.2464 224.781 85.1629C224.881 85.0795 224.998 85.0461 225.132 85.0628L227.958 85.4634C228.225 85.4968 228.367 85.5803 228.383 85.7139C228.417 85.8307 228.433 85.9309 228.433 86.0144C228.433 86.1145 228.417 86.2731 228.383 86.4901C228.35 86.7072 228.333 86.991 228.333 87.3416V91.799ZM217.627 106.799C217.627 107.183 217.811 107.375 218.178 107.375H226.457V101.716H217.627V106.799Z" fill="white"/>
<path d="M194.676 104.47C194.676 103.619 194.834 102.901 195.151 102.317C195.485 101.716 195.935 101.231 196.502 100.864C197.069 100.497 197.728 100.23 198.478 100.063C199.245 99.8959 200.054 99.8124 200.905 99.8124C201.755 99.8124 202.555 99.8959 203.306 100.063C204.073 100.23 204.732 100.497 205.282 100.864C205.849 101.231 206.299 101.716 206.633 102.317C206.966 102.901 207.133 103.619 207.133 104.47C207.133 105.322 206.966 106.039 206.633 106.624C206.299 107.225 205.849 107.701 205.282 108.051C204.732 108.418 204.073 108.686 203.306 108.852C202.555 109.019 201.755 109.103 200.905 109.103C200.054 109.103 199.245 109.019 198.478 108.852C197.728 108.686 197.069 108.418 196.502 108.051C195.935 107.701 195.485 107.225 195.151 106.624C194.834 106.039 194.676 105.322 194.676 104.47ZM196.477 104.495C196.477 105.096 196.594 105.597 196.827 105.998C197.061 106.415 197.378 106.749 197.778 106.999C198.195 107.267 198.67 107.458 199.204 107.575C199.737 107.692 200.304 107.751 200.905 107.751C201.522 107.751 202.097 107.692 202.63 107.575C203.181 107.458 203.656 107.267 204.056 106.999C204.457 106.749 204.773 106.415 205.007 105.998C205.24 105.597 205.357 105.096 205.357 104.495C205.357 103.894 205.24 103.385 205.007 102.968C204.773 102.534 204.457 102.183 204.056 101.916C203.656 101.649 203.181 101.457 202.63 101.34C202.097 101.223 201.522 101.165 200.905 101.165C200.304 101.165 199.737 101.223 199.204 101.34C198.67 101.457 198.195 101.649 197.778 101.916C197.378 102.183 197.061 102.534 196.827 102.968C196.594 103.385 196.477 103.894 196.477 104.495ZM197.653 87.6671C197.319 89.1529 196.819 90.5302 196.152 91.799C197.052 92.4835 197.928 93.1179 198.778 93.7022C199.629 94.2865 200.496 94.8291 201.38 95.3299C201.53 95.4635 201.672 95.7055 201.805 96.0561C201.955 96.39 202.03 96.7072 202.03 97.0077C202.03 97.1079 202.005 97.1997 201.955 97.2832C201.905 97.3666 201.83 97.4334 201.73 97.4835C201.647 97.5336 201.555 97.5586 201.455 97.5586C201.355 97.5586 201.255 97.5085 201.155 97.4084C200.304 96.6404 199.404 95.8892 198.453 95.1546C197.503 94.4034 196.51 93.6771 195.476 92.976C194.859 93.9276 194.117 94.8207 193.25 95.6555C192.4 96.4735 191.399 97.2247 190.249 97.9092C190.132 97.976 190.007 98.001 189.873 97.9843C189.757 97.951 189.648 97.8925 189.548 97.809C189.465 97.7256 189.415 97.6338 189.398 97.5336C189.381 97.4334 189.423 97.3416 189.523 97.2581C191.041 96.0561 192.308 94.7456 193.325 93.3266C194.359 91.8908 195.118 90.3633 195.602 88.7439C195.602 88.3599 195.468 88.0594 195.201 87.8424C194.951 87.6254 194.551 87.4167 194.001 87.2164C193.884 87.1663 193.809 87.0912 193.776 86.991C193.742 86.8741 193.742 86.7656 193.776 86.6654C193.809 86.5486 193.876 86.4568 193.976 86.39C194.076 86.3065 194.201 86.2815 194.351 86.3149L197.252 86.9659C197.503 87.016 197.636 87.1245 197.653 87.2915C197.669 87.4584 197.669 87.5836 197.653 87.6671ZM207.058 91.5486H209.684C209.918 91.5486 210.093 91.5319 210.21 91.4985C210.326 91.4651 210.443 91.4484 210.56 91.4484C210.66 91.4484 210.752 91.4985 210.835 91.5987C210.935 91.6988 210.985 91.8074 210.985 91.9242C210.985 92.0244 210.943 92.1329 210.86 92.2498C210.777 92.3666 210.668 92.4751 210.535 92.5753C210.418 92.6755 210.276 92.7589 210.11 92.8257C209.96 92.8925 209.818 92.9259 209.684 92.9259H207.058V97.809C207.058 98.2932 206.966 98.7356 206.783 99.1363C206.616 99.5202 206.341 99.7122 205.957 99.7122C205.774 99.7122 205.624 99.6121 205.507 99.4117C205.39 99.2114 205.332 98.8858 205.332 98.4351V87.8174C205.332 87.2331 205.19 86.824 204.907 86.5903C204.64 86.3566 204.19 86.1563 203.556 85.9893C203.439 85.9559 203.364 85.8891 203.331 85.789C203.298 85.6721 203.298 85.5636 203.331 85.4634C203.364 85.3466 203.423 85.2464 203.506 85.1629C203.606 85.0795 203.723 85.0461 203.856 85.0628L206.683 85.4634C206.95 85.4968 207.091 85.5803 207.108 85.7139C207.141 85.8307 207.158 85.9309 207.158 86.0144C207.158 86.1145 207.141 86.2731 207.108 86.4902C207.075 86.7072 207.058 86.991 207.058 87.3416V91.5486Z" fill="white"/>
<path d="M172.41 95.5803V100.113C172.41 100.497 172.594 100.689 172.961 100.689C175.079 100.689 177.138 100.58 179.139 100.363C181.157 100.13 183.217 99.7456 185.318 99.2114V87.8174C185.318 87.2331 185.176 86.824 184.892 86.5903C184.626 86.3566 184.175 86.1563 183.542 85.9893C183.425 85.9559 183.35 85.8891 183.317 85.789C183.283 85.6721 183.283 85.5636 183.317 85.4634C183.35 85.3466 183.408 85.2464 183.492 85.1629C183.592 85.0795 183.708 85.0461 183.842 85.0628L186.668 85.4634C186.935 85.4968 187.077 85.5803 187.094 85.7139C187.127 85.8307 187.144 85.9309 187.144 86.0144C187.144 86.1145 187.127 86.2731 187.094 86.4902C187.06 86.7072 187.044 86.991 187.044 87.3416V106.048C187.044 106.532 186.952 106.966 186.769 107.35C186.602 107.751 186.327 107.951 185.943 107.951C185.76 107.951 185.61 107.851 185.493 107.65C185.376 107.45 185.318 107.125 185.318 106.674V100.263C183.166 100.898 181.04 101.373 178.939 101.691C176.838 101.991 174.645 102.158 172.36 102.191C171.81 102.208 171.393 102.049 171.11 101.716C170.826 101.382 170.685 100.964 170.685 100.463V96.4568C170.685 96.0227 170.593 95.7222 170.409 95.5553C170.243 95.3883 169.892 95.2631 169.359 95.1797C169.225 95.163 169.134 95.1045 169.084 95.0044C169.034 94.8875 169.017 94.7706 169.034 94.6538C169.05 94.5369 169.092 94.4368 169.159 94.3533C169.242 94.2531 169.334 94.203 169.434 94.203H178.164V89.4451H173.186C172.802 89.4451 172.469 89.4701 172.185 89.5202C171.919 89.5536 171.685 89.5703 171.485 89.5703C171.268 89.5703 171.026 89.5035 170.76 89.37C170.493 89.2197 170.218 88.986 169.934 88.6688C169.834 88.5686 169.784 88.4601 169.784 88.3432C169.784 88.2264 169.809 88.1262 169.859 88.0427C169.909 87.9426 169.984 87.8758 170.084 87.8424C170.184 87.809 170.293 87.8174 170.409 87.8674C170.626 87.9676 170.976 88.026 171.46 88.0427C171.944 88.0594 172.519 88.0678 173.186 88.0678H177.213C177.747 88.0678 178.122 88.0427 178.339 87.9927C178.572 87.9426 178.781 87.9175 178.964 87.9175C179.181 87.9175 179.398 88.0094 179.615 88.193C179.848 88.3599 179.965 88.5269 179.965 88.6938C179.965 88.8107 179.948 88.9609 179.915 89.1446C179.898 89.3282 179.89 89.587 179.89 89.9209V94.5787C179.89 94.7957 179.781 95.0211 179.564 95.2548C179.364 95.4718 179.123 95.5803 178.839 95.5803H172.41Z" fill="white"/>
<path d="M154.763 108.752C154.213 108.752 153.796 108.585 153.512 108.251C153.229 107.934 153.087 107.525 153.087 107.024V102.592C153.087 102.158 153.029 101.857 152.912 101.691C152.795 101.524 152.495 101.398 152.012 101.315C151.878 101.298 151.786 101.24 151.736 101.14C151.686 101.023 151.67 100.906 151.686 100.789C151.703 100.672 151.745 100.572 151.811 100.489C151.895 100.388 151.987 100.338 152.087 100.338H163.243C163.66 100.322 163.96 100.297 164.143 100.263C164.343 100.213 164.527 100.188 164.694 100.188C164.91 100.188 165.127 100.28 165.344 100.463C165.577 100.63 165.694 100.797 165.694 100.964C165.694 101.081 165.678 101.231 165.644 101.415C165.628 101.599 165.619 101.857 165.619 102.191V107.751C165.619 107.968 165.511 108.185 165.294 108.402C165.094 108.635 164.852 108.752 164.569 108.752H154.763ZM154.813 106.799C154.813 107.183 154.997 107.375 155.363 107.375H163.893V101.716H154.813V106.799ZM155.739 87.6671C155.422 89.1362 154.922 90.5219 154.238 91.8241C155.138 92.5252 156.03 93.1847 156.914 93.8024C157.815 94.4034 158.707 94.9543 159.591 95.4551C159.741 95.5887 159.883 95.8307 160.016 96.1813C160.166 96.5152 160.241 96.8324 160.241 97.1329C160.241 97.2331 160.216 97.3249 160.166 97.4084C160.116 97.4918 160.041 97.5586 159.941 97.6087C159.858 97.6588 159.766 97.6838 159.666 97.6838C159.566 97.6838 159.466 97.6338 159.366 97.5336C158.532 96.7823 157.615 96.0144 156.614 95.2297C155.614 94.4451 154.596 93.7022 153.562 93.001C152.929 93.9526 152.178 94.8374 151.311 95.6555C150.461 96.4735 149.468 97.2247 148.335 97.9092C148.218 97.976 148.093 98.001 147.959 97.9843C147.843 97.951 147.734 97.8925 147.634 97.809C147.551 97.7256 147.501 97.6338 147.484 97.5336C147.467 97.4334 147.509 97.3416 147.609 97.2581C149.127 96.0561 150.394 94.7456 151.411 93.3266C152.445 91.8908 153.204 90.3633 153.688 88.7439C153.688 88.3599 153.554 88.0594 153.287 87.8424C153.037 87.6254 152.637 87.4167 152.087 87.2164C151.97 87.1663 151.895 87.0912 151.861 86.991C151.828 86.8741 151.828 86.7656 151.861 86.6654C151.895 86.5486 151.962 86.4568 152.062 86.39C152.162 86.3065 152.287 86.2815 152.437 86.3149L155.338 86.9659C155.589 87.016 155.722 87.1245 155.739 87.2915C155.755 87.4584 155.755 87.5836 155.739 87.6671ZM165.769 97.158C165.769 97.6421 165.678 98.0845 165.494 98.4852C165.327 98.8691 165.052 99.0611 164.669 99.0611C164.485 99.0611 164.335 98.961 164.218 98.7606C164.102 98.5603 164.043 98.2348 164.043 97.784V87.8174C164.043 87.2331 163.902 86.824 163.618 86.5903C163.351 86.3566 162.901 86.1563 162.267 85.9893C162.151 85.9559 162.076 85.8891 162.042 85.789C162.009 85.6721 162.009 85.5636 162.042 85.4634C162.076 85.3466 162.134 85.2464 162.217 85.1629C162.317 85.0795 162.434 85.0461 162.567 85.0628L165.394 85.4634C165.661 85.4968 165.803 85.5803 165.819 85.7139C165.853 85.8307 165.869 85.9309 165.869 86.0144C165.869 86.1145 165.853 86.2731 165.819 86.4901C165.786 86.7072 165.769 86.991 165.769 87.3416V97.158Z" fill="white"/>
<path d="M268.177 126.564V129.919C268.177 130.184 268.254 130.368 268.407 130.47C268.56 130.573 268.785 130.649 269.081 130.7C269.163 130.71 269.219 130.746 269.25 130.807C269.291 130.859 269.306 130.915 269.296 130.976C269.296 131.037 269.275 131.093 269.234 131.144C269.204 131.185 269.158 131.206 269.097 131.206H266.171C266.109 131.206 266.058 131.185 266.017 131.144C265.987 131.093 265.966 131.037 265.956 130.976C265.956 130.915 265.972 130.859 266.002 130.807C266.043 130.746 266.104 130.71 266.186 130.7C266.482 130.649 266.707 130.573 266.86 130.47C267.013 130.368 267.09 130.184 267.09 129.919V126.426L264.394 121.877C264.251 121.642 264.092 121.468 263.919 121.356C263.745 121.233 263.51 121.146 263.214 121.095C263.132 121.085 263.071 121.055 263.03 121.003C263 120.942 262.984 120.881 262.984 120.82C262.995 120.758 263.015 120.707 263.046 120.666C263.087 120.615 263.138 120.59 263.199 120.59H265.849C265.91 120.59 265.956 120.615 265.987 120.666C266.028 120.707 266.048 120.758 266.048 120.82C266.058 120.881 266.043 120.942 266.002 121.003C265.972 121.055 265.915 121.085 265.834 121.095C265.527 121.136 265.374 121.208 265.374 121.31C265.374 121.402 265.44 121.55 265.573 121.754L267.794 125.538L270.108 121.754C270.24 121.55 270.307 121.402 270.307 121.31C270.307 121.208 270.154 121.136 269.847 121.095C269.765 121.085 269.704 121.055 269.663 121.003C269.633 120.942 269.617 120.881 269.617 120.82C269.628 120.758 269.648 120.707 269.679 120.666C269.719 120.615 269.771 120.59 269.832 120.59H272.022C272.084 120.59 272.13 120.615 272.16 120.666C272.201 120.707 272.222 120.758 272.222 120.82C272.232 120.881 272.216 120.942 272.176 121.003C272.145 121.055 272.089 121.085 272.007 121.095C271.731 121.136 271.537 121.223 271.425 121.356C271.313 121.478 271.19 121.652 271.057 121.877L268.177 126.564Z" fill="white"/>
<path d="M258.237 125.522C258.901 125.522 259.468 125.477 259.938 125.385C260.408 125.282 260.791 125.14 261.087 124.956C261.383 124.772 261.597 124.547 261.73 124.282C261.863 124.016 261.929 123.715 261.929 123.378C261.929 123.102 261.878 122.842 261.776 122.597C261.674 122.352 261.49 122.137 261.225 121.953C260.969 121.769 260.617 121.626 260.168 121.524C259.718 121.422 259.146 121.371 258.452 121.371H257.809C257.594 121.371 257.487 121.489 257.487 121.723V125.522H258.237ZM257.487 129.919C257.487 130.184 257.563 130.368 257.717 130.47C257.87 130.573 258.094 130.649 258.391 130.7C258.472 130.71 258.529 130.746 258.559 130.807C258.6 130.859 258.615 130.915 258.605 130.976C258.605 131.037 258.585 131.093 258.544 131.144C258.513 131.185 258.467 131.206 258.406 131.206H255.48C255.419 131.206 255.368 131.185 255.327 131.144C255.296 131.093 255.276 131.037 255.266 130.976C255.266 130.915 255.281 130.859 255.312 130.807C255.352 130.746 255.414 130.71 255.495 130.7C255.792 130.649 256.016 130.573 256.169 130.47C256.323 130.368 256.399 130.184 256.399 129.919V121.877C256.399 121.611 256.323 121.427 256.169 121.325C256.016 121.223 255.792 121.146 255.495 121.095C255.414 121.085 255.352 121.055 255.312 121.003C255.281 120.942 255.266 120.881 255.266 120.82C255.276 120.758 255.296 120.707 255.327 120.666C255.368 120.615 255.419 120.59 255.48 120.59H258.008C258.804 120.59 259.514 120.631 260.137 120.712C260.77 120.794 261.301 120.942 261.73 121.157C262.159 121.361 262.486 121.642 262.711 121.999C262.945 122.357 263.063 122.816 263.063 123.378C263.063 123.929 262.945 124.394 262.711 124.772C262.476 125.14 262.149 125.436 261.73 125.66C261.311 125.885 260.806 126.048 260.214 126.151C259.621 126.242 258.968 126.288 258.253 126.288H257.487V129.919Z" fill="white"/>
<path d="M247.537 130.7C247.619 130.71 247.675 130.746 247.706 130.807C247.747 130.859 247.762 130.915 247.752 130.976C247.752 131.037 247.731 131.093 247.691 131.144C247.66 131.185 247.614 131.206 247.553 131.206H244.933C244.872 131.206 244.821 131.185 244.78 131.144C244.749 131.093 244.729 131.037 244.719 130.976C244.719 130.915 244.734 130.859 244.765 130.807C244.806 130.746 244.867 130.71 244.949 130.7C245.245 130.649 245.469 130.573 245.623 130.47C245.776 130.358 245.898 130.174 245.99 129.919L249.33 120.866C249.401 120.682 249.534 120.59 249.728 120.59H250.157C250.351 120.59 250.484 120.682 250.555 120.866L253.833 129.919C253.925 130.174 254.048 130.358 254.201 130.47C254.354 130.573 254.579 130.649 254.875 130.7C254.957 130.71 255.013 130.746 255.044 130.807C255.084 130.859 255.1 130.915 255.09 130.976C255.09 131.037 255.069 131.093 255.028 131.144C254.998 131.185 254.952 131.206 254.89 131.206H252.01C251.949 131.206 251.898 131.185 251.857 131.144C251.827 131.093 251.806 131.037 251.796 130.976C251.796 130.915 251.811 130.859 251.842 130.807C251.883 130.746 251.944 130.71 252.026 130.7C252.322 130.649 252.526 130.583 252.639 130.501C252.751 130.409 252.761 130.236 252.669 129.98L251.842 127.713H247.706L246.909 129.934C246.817 130.19 246.823 130.368 246.925 130.47C247.037 130.573 247.241 130.649 247.537 130.7ZM249.743 122.014L247.982 126.947H251.551L249.743 122.014Z" fill="white"/>
<path d="M239.609 125.538C240.272 125.538 240.829 125.492 241.278 125.4C241.728 125.298 242.09 125.155 242.366 124.971C242.642 124.787 242.836 124.563 242.948 124.297C243.071 124.031 243.132 123.73 243.132 123.393C243.132 123.117 243.091 122.857 243.009 122.612C242.928 122.367 242.764 122.152 242.519 121.969C242.284 121.785 241.947 121.642 241.508 121.54C241.079 121.427 240.517 121.371 239.823 121.371H239.18C238.965 121.371 238.858 121.489 238.858 121.723V125.538H239.609ZM240.62 126.273C240.456 126.294 240.293 126.304 240.129 126.304C239.966 126.304 239.797 126.304 239.624 126.304H238.858V129.919C238.858 130.184 238.935 130.368 239.088 130.47C239.241 130.573 239.466 130.649 239.762 130.7C239.843 130.71 239.9 130.746 239.93 130.807C239.971 130.859 239.986 130.915 239.976 130.976C239.976 131.037 239.956 131.093 239.915 131.144C239.884 131.185 239.838 131.206 239.777 131.206H236.851C236.79 131.206 236.739 131.185 236.698 131.144C236.667 131.093 236.647 131.037 236.637 130.976C236.637 130.915 236.652 130.859 236.683 130.807C236.724 130.746 236.785 130.71 236.866 130.7C237.163 130.649 237.387 130.573 237.541 130.47C237.694 130.368 237.77 130.184 237.77 129.919V121.877C237.77 121.611 237.694 121.427 237.541 121.325C237.387 121.223 237.163 121.146 236.866 121.095C236.785 121.085 236.724 121.055 236.683 121.003C236.652 120.942 236.637 120.881 236.637 120.82C236.647 120.758 236.667 120.707 236.698 120.666C236.739 120.615 236.79 120.59 236.851 120.59H239.379C240.175 120.59 240.875 120.631 241.477 120.712C242.09 120.794 242.601 120.942 243.009 121.157C243.428 121.361 243.739 121.647 243.944 122.014C244.158 122.372 244.265 122.831 244.265 123.393C244.265 124.19 244.051 124.803 243.622 125.231C243.193 125.65 242.585 125.946 241.799 126.12L244.082 129.919C244.214 130.154 244.342 130.333 244.465 130.455C244.597 130.578 244.812 130.659 245.108 130.7C245.19 130.71 245.246 130.746 245.276 130.807C245.317 130.859 245.333 130.915 245.322 130.976C245.322 131.037 245.302 131.093 245.261 131.144C245.231 131.185 245.185 131.206 245.123 131.206H242.197C242.136 131.206 242.085 131.185 242.044 131.144C242.014 131.093 241.993 131.037 241.983 130.976C241.983 130.915 241.998 130.859 242.029 130.807C242.07 130.746 242.131 130.71 242.213 130.7C242.509 130.649 242.723 130.578 242.856 130.486C242.999 130.384 242.999 130.215 242.856 129.98L240.62 126.273Z" fill="white"/>
<path d="M235.295 120.59C235.52 120.59 235.632 120.697 235.632 120.912V122.244C235.632 122.326 235.607 122.392 235.556 122.443C235.505 122.484 235.449 122.51 235.387 122.52C235.326 122.53 235.265 122.52 235.204 122.489C235.142 122.459 235.107 122.408 235.096 122.336C235.025 122.009 234.948 121.769 234.867 121.616C234.785 121.453 234.606 121.371 234.33 121.371H230.945C230.72 121.371 230.608 121.489 230.608 121.723V125.323H233.672C233.937 125.323 234.121 125.242 234.223 125.078C234.325 124.905 234.402 124.67 234.453 124.374C234.463 124.292 234.499 124.236 234.56 124.205C234.621 124.164 234.683 124.149 234.744 124.159C234.815 124.159 234.877 124.18 234.928 124.22C234.979 124.251 235.004 124.297 235.004 124.358V127.085C235.004 127.146 234.979 127.197 234.928 127.238C234.877 127.269 234.815 127.289 234.744 127.299C234.683 127.299 234.621 127.284 234.56 127.254C234.499 127.213 234.463 127.151 234.453 127.07C234.402 126.774 234.325 126.539 234.223 126.365C234.121 126.181 233.937 126.089 233.672 126.089H230.608V130.072C230.608 130.307 230.72 130.424 230.945 130.424H234.637C234.77 130.424 234.877 130.394 234.958 130.333C235.05 130.271 235.122 130.19 235.173 130.087C235.234 129.975 235.28 129.853 235.311 129.72C235.341 129.587 235.367 129.444 235.387 129.291C235.398 129.209 235.433 129.153 235.495 129.122C235.556 129.082 235.617 129.066 235.678 129.076C235.75 129.076 235.811 129.097 235.862 129.138C235.913 129.168 235.939 129.214 235.939 129.276V130.884C235.939 131.099 235.826 131.206 235.602 131.206H228.601C228.54 131.206 228.489 131.185 228.448 131.144C228.417 131.093 228.397 131.037 228.387 130.976C228.387 130.915 228.402 130.859 228.433 130.807C228.474 130.746 228.535 130.71 228.616 130.7C228.913 130.649 229.137 130.573 229.291 130.47C229.444 130.368 229.52 130.184 229.52 129.919V121.877C229.52 121.611 229.444 121.427 229.291 121.325C229.137 121.223 228.913 121.146 228.616 121.095C228.535 121.085 228.474 121.055 228.433 121.003C228.402 120.942 228.387 120.881 228.387 120.82C228.397 120.758 228.417 120.707 228.448 120.666C228.489 120.615 228.54 120.59 228.601 120.59H235.295Z" fill="white"/>
<path d="M225.397 125.323V121.877C225.397 121.611 225.32 121.427 225.167 121.325C225.014 121.223 224.789 121.146 224.493 121.095C224.411 121.085 224.35 121.055 224.309 121.003C224.279 120.942 224.263 120.881 224.263 120.82C224.273 120.758 224.294 120.707 224.324 120.666C224.365 120.615 224.416 120.59 224.478 120.59H227.404C227.465 120.59 227.511 120.615 227.541 120.666C227.582 120.707 227.603 120.758 227.603 120.82C227.613 120.881 227.598 120.942 227.557 121.003C227.526 121.055 227.47 121.085 227.388 121.095C227.092 121.146 226.867 121.223 226.714 121.325C226.561 121.427 226.484 121.611 226.484 121.877V129.919C226.484 130.184 226.561 130.368 226.714 130.47C226.867 130.573 227.092 130.649 227.388 130.7C227.47 130.71 227.526 130.746 227.557 130.807C227.598 130.859 227.613 130.915 227.603 130.976C227.603 131.037 227.582 131.093 227.541 131.144C227.511 131.185 227.465 131.206 227.404 131.206H224.478C224.416 131.206 224.365 131.185 224.324 131.144C224.294 131.093 224.273 131.037 224.263 130.976C224.263 130.915 224.279 130.859 224.309 130.807C224.35 130.746 224.411 130.71 224.493 130.7C224.789 130.649 225.014 130.573 225.167 130.47C225.32 130.368 225.397 130.184 225.397 129.919V126.089H220.112V129.919C220.112 130.184 220.188 130.368 220.342 130.47C220.495 130.573 220.719 130.649 221.016 130.7C221.097 130.71 221.154 130.746 221.184 130.807C221.225 130.859 221.24 130.915 221.23 130.976C221.23 131.037 221.21 131.093 221.169 131.144C221.138 131.185 221.092 131.206 221.031 131.206H218.105C218.044 131.206 217.993 131.185 217.952 131.144C217.921 131.093 217.901 131.037 217.891 130.976C217.891 130.915 217.906 130.859 217.937 130.807C217.977 130.746 218.039 130.71 218.12 130.7C218.417 130.649 218.641 130.573 218.794 130.47C218.948 130.368 219.024 130.184 219.024 129.919V121.877C219.024 121.611 218.948 121.427 218.794 121.325C218.641 121.223 218.417 121.146 218.12 121.095C218.039 121.085 217.977 121.055 217.937 121.003C217.906 120.942 217.891 120.881 217.891 120.82C217.901 120.758 217.921 120.707 217.952 120.666C217.993 120.615 218.044 120.59 218.105 120.59H221.031C221.092 120.59 221.138 120.615 221.169 120.666C221.21 120.707 221.23 120.758 221.23 120.82C221.24 120.881 221.225 120.942 221.184 121.003C221.154 121.055 221.097 121.085 221.016 121.095C220.719 121.146 220.495 121.223 220.342 121.325C220.188 121.427 220.112 121.611 220.112 121.877V125.323H225.397Z" fill="white"/>
<path d="M212.709 121.371H210.611C210.335 121.371 210.156 121.483 210.075 121.708C209.993 121.923 209.916 122.193 209.845 122.52C209.824 122.591 209.783 122.643 209.722 122.673C209.671 122.704 209.615 122.714 209.554 122.704C209.492 122.694 209.436 122.668 209.385 122.627C209.334 122.576 209.309 122.51 209.309 122.428V120.912C209.309 120.697 209.421 120.59 209.646 120.59H216.876C217.101 120.59 217.213 120.697 217.213 120.912V122.428C217.213 122.51 217.188 122.576 217.136 122.627C217.085 122.668 217.029 122.694 216.968 122.704C216.907 122.714 216.845 122.704 216.784 122.673C216.723 122.643 216.687 122.591 216.677 122.52C216.605 122.193 216.529 121.923 216.447 121.708C216.365 121.483 216.187 121.371 215.911 121.371H213.797V129.919C213.797 130.184 213.874 130.368 214.027 130.47C214.18 130.573 214.405 130.649 214.701 130.7C214.782 130.71 214.839 130.746 214.869 130.807C214.91 130.859 214.925 130.915 214.915 130.976C214.915 131.037 214.895 131.093 214.854 131.144C214.823 131.185 214.777 131.206 214.716 131.206H211.79C211.729 131.206 211.678 131.185 211.637 131.144C211.606 131.093 211.586 131.037 211.576 130.976C211.576 130.915 211.591 130.859 211.622 130.807C211.663 130.746 211.724 130.71 211.806 130.7C212.102 130.649 212.326 130.573 212.48 130.47C212.633 130.368 212.709 130.184 212.709 129.919V121.371Z" fill="#6BB283"/>
<path d="M197.97 126.564V129.919C197.97 130.184 198.047 130.368 198.2 130.47C198.353 130.573 198.578 130.649 198.874 130.7C198.956 130.71 199.012 130.746 199.043 130.807C199.084 130.859 199.099 130.915 199.089 130.976C199.089 131.037 199.068 131.093 199.027 131.144C198.997 131.185 198.951 131.206 198.89 131.206H195.964C195.902 131.206 195.851 131.185 195.81 131.144C195.78 131.093 195.759 131.037 195.749 130.976C195.749 130.915 195.764 130.859 195.795 130.807C195.836 130.746 195.897 130.71 195.979 130.7C196.275 130.649 196.5 130.573 196.653 130.47C196.806 130.368 196.883 130.184 196.883 129.919V126.426L194.187 121.877C194.044 121.642 193.885 121.468 193.712 121.356C193.538 121.233 193.303 121.146 193.007 121.095C192.925 121.085 192.864 121.055 192.823 121.003C192.793 120.942 192.777 120.881 192.777 120.82C192.788 120.758 192.808 120.707 192.839 120.666C192.879 120.615 192.931 120.59 192.992 120.59H195.642C195.703 120.59 195.749 120.615 195.78 120.666C195.821 120.707 195.841 120.758 195.841 120.82C195.851 120.881 195.836 120.942 195.795 121.003C195.764 121.055 195.708 121.085 195.627 121.095C195.32 121.136 195.167 121.208 195.167 121.31C195.167 121.402 195.233 121.55 195.366 121.754L197.587 125.538L199.901 121.754C200.033 121.55 200.1 121.402 200.1 121.31C200.1 121.208 199.946 121.136 199.64 121.095C199.558 121.085 199.497 121.055 199.456 121.003C199.426 120.942 199.41 120.881 199.41 120.82C199.421 120.758 199.441 120.707 199.472 120.666C199.512 120.615 199.564 120.59 199.625 120.59H201.815C201.877 120.59 201.923 120.615 201.953 120.666C201.994 120.707 202.015 120.758 202.015 120.82C202.025 120.881 202.009 120.942 201.969 121.003C201.938 121.055 201.882 121.085 201.8 121.095C201.524 121.136 201.33 121.223 201.218 121.356C201.106 121.478 200.983 121.652 200.85 121.877L197.97 126.564Z" fill="white"/>
<path d="M188.119 121.236C187.393 121.236 186.827 121.384 186.418 121.68C186.01 121.976 185.698 122.354 185.484 122.814C185.28 123.273 185.152 123.779 185.101 124.33C185.05 124.882 185.024 125.408 185.024 125.908C185.024 126.368 185.05 126.868 185.101 127.409C185.162 127.95 185.295 128.456 185.499 128.926C185.714 129.396 186.02 129.789 186.418 130.105C186.816 130.412 187.363 130.565 188.057 130.565C188.639 130.565 189.135 130.509 189.543 130.396C189.952 130.284 190.294 130.121 190.57 129.906V126.766C190.57 126.531 190.508 126.357 190.386 126.245C190.263 126.122 190.054 126.036 189.758 125.985C189.676 125.974 189.615 125.944 189.574 125.893C189.543 125.831 189.528 125.77 189.528 125.709C189.538 125.648 189.559 125.596 189.589 125.556C189.63 125.505 189.681 125.479 189.742 125.479H192.484C192.546 125.479 192.592 125.505 192.622 125.556C192.663 125.596 192.684 125.648 192.684 125.709C192.694 125.77 192.678 125.831 192.638 125.893C192.607 125.944 192.551 125.974 192.469 125.985C192.173 126.036 191.964 126.122 191.841 126.245C191.718 126.357 191.657 126.531 191.657 126.766V129.768C191.657 129.993 191.56 130.202 191.366 130.396C191.182 130.59 190.922 130.764 190.585 130.917C190.258 131.06 189.875 131.172 189.436 131.254C189.007 131.336 188.548 131.377 188.057 131.377C187.271 131.377 186.607 131.234 186.066 130.948C185.535 130.662 185.106 130.274 184.779 129.784C184.463 129.293 184.233 128.716 184.09 128.053C183.957 127.389 183.891 126.674 183.891 125.908C183.891 125.091 183.957 124.345 184.09 123.671C184.233 122.997 184.468 122.42 184.794 121.94C185.121 121.46 185.555 121.088 186.097 120.822C186.638 120.557 187.312 120.424 188.119 120.424C188.823 120.424 189.41 120.48 189.88 120.592C190.36 120.694 190.789 120.837 191.167 121.021C191.269 121.072 191.351 121.123 191.412 121.174C191.473 121.226 191.504 121.307 191.504 121.42V123.197C191.504 123.278 191.478 123.345 191.427 123.396C191.376 123.437 191.32 123.462 191.259 123.472C191.198 123.482 191.136 123.472 191.075 123.442C191.014 123.411 190.978 123.36 190.968 123.288C190.896 122.921 190.815 122.609 190.723 122.354C190.641 122.099 190.503 121.889 190.309 121.726C190.125 121.552 189.86 121.43 189.513 121.358C189.176 121.277 188.711 121.236 188.119 121.236Z" fill="white"/>
<path d="M178.92 131.377C178.133 131.377 177.48 131.234 176.959 130.948C176.448 130.662 176.04 130.274 175.733 129.784C175.427 129.293 175.213 128.716 175.09 128.053C174.968 127.389 174.906 126.674 174.906 125.908C174.906 125.091 174.973 124.345 175.105 123.671C175.238 122.997 175.458 122.42 175.764 121.94C176.081 121.46 176.494 121.088 177.005 120.822C177.516 120.557 178.154 120.424 178.92 120.424C179.686 120.424 180.324 120.567 180.835 120.853C181.345 121.139 181.754 121.532 182.06 122.032C182.366 122.522 182.581 123.1 182.703 123.763C182.836 124.427 182.903 125.142 182.903 125.908C182.903 126.725 182.836 127.47 182.703 128.144C182.571 128.808 182.351 129.38 182.045 129.86C181.738 130.34 181.33 130.713 180.819 130.978C180.309 131.244 179.675 131.377 178.92 131.377ZM178.92 130.565C179.584 130.565 180.104 130.417 180.482 130.121C180.86 129.824 181.146 129.447 181.34 128.987C181.534 128.527 181.652 128.027 181.692 127.486C181.743 126.934 181.769 126.408 181.769 125.908C181.769 125.602 181.759 125.275 181.738 124.928C181.728 124.57 181.692 124.223 181.631 123.886C181.57 123.539 181.478 123.207 181.355 122.89C181.243 122.563 181.08 122.283 180.865 122.048C180.661 121.803 180.395 121.608 180.069 121.466C179.752 121.312 179.369 121.236 178.92 121.236C178.47 121.236 178.087 121.307 177.771 121.45C177.454 121.583 177.189 121.767 176.974 122.002C176.77 122.237 176.602 122.507 176.469 122.814C176.346 123.12 176.254 123.447 176.193 123.794C176.132 124.141 176.091 124.499 176.07 124.866C176.05 125.224 176.04 125.571 176.04 125.908C176.04 126.214 176.045 126.541 176.055 126.888C176.076 127.236 176.116 127.583 176.178 127.93C176.239 128.277 176.326 128.609 176.438 128.926C176.561 129.242 176.729 129.523 176.944 129.768C177.158 130.013 177.424 130.207 177.74 130.35C178.067 130.493 178.46 130.565 178.92 130.565Z" fill="white"/>
<path d="M172.816 130.424C172.948 130.424 173.056 130.389 173.137 130.317C173.229 130.236 173.301 130.128 173.352 129.996C173.403 129.863 173.444 129.715 173.474 129.551C173.515 129.388 173.551 129.219 173.582 129.046C173.592 128.974 173.628 128.928 173.689 128.908C173.75 128.877 173.816 128.872 173.888 128.893C173.959 128.913 174.021 128.949 174.072 129C174.123 129.051 174.148 129.117 174.148 129.199V130.884C174.148 131.099 174.036 131.206 173.811 131.206H167.132C167.071 131.206 167.02 131.185 166.979 131.144C166.949 131.093 166.928 131.037 166.918 130.976C166.918 130.915 166.933 130.859 166.964 130.807C167.005 130.746 167.066 130.71 167.148 130.7C167.444 130.649 167.669 130.573 167.822 130.47C167.975 130.368 168.052 130.184 168.052 129.919V121.877C168.052 121.611 167.975 121.427 167.822 121.325C167.669 121.223 167.444 121.146 167.148 121.095C167.066 121.085 167.005 121.055 166.964 121.003C166.933 120.942 166.918 120.881 166.918 120.82C166.928 120.758 166.949 120.707 166.979 120.666C167.02 120.615 167.071 120.59 167.132 120.59H170.058C170.12 120.59 170.166 120.615 170.196 120.666C170.237 120.707 170.257 120.758 170.257 120.82C170.268 120.881 170.252 120.942 170.211 121.003C170.181 121.055 170.125 121.085 170.043 121.095C169.747 121.146 169.522 121.223 169.369 121.325C169.216 121.427 169.139 121.611 169.139 121.877V130.072C169.139 130.307 169.252 130.424 169.476 130.424H172.816Z" fill="white"/>
<path d="M162.096 131.377C161.309 131.377 160.656 131.234 160.135 130.948C159.624 130.662 159.216 130.274 158.909 129.784C158.603 129.293 158.388 128.716 158.266 128.053C158.143 127.389 158.082 126.674 158.082 125.908C158.082 125.091 158.148 124.345 158.281 123.671C158.414 122.997 158.634 122.42 158.94 121.94C159.256 121.46 159.67 121.088 160.181 120.822C160.691 120.557 161.33 120.424 162.096 120.424C162.861 120.424 163.5 120.567 164.01 120.853C164.521 121.139 164.929 121.532 165.236 122.032C165.542 122.522 165.757 123.1 165.879 123.763C166.012 124.427 166.078 125.142 166.078 125.908C166.078 126.725 166.012 127.47 165.879 128.144C165.746 128.808 165.527 129.38 165.221 129.86C164.914 130.34 164.506 130.713 163.995 130.978C163.484 131.244 162.851 131.377 162.096 131.377ZM162.096 130.565C162.759 130.565 163.28 130.417 163.658 130.121C164.036 129.824 164.322 129.447 164.516 128.987C164.71 128.527 164.827 128.027 164.868 127.486C164.919 126.934 164.945 126.408 164.945 125.908C164.945 125.602 164.935 125.275 164.914 124.928C164.904 124.57 164.868 124.223 164.807 123.886C164.746 123.539 164.654 123.207 164.531 122.89C164.419 122.563 164.255 122.283 164.041 122.048C163.837 121.803 163.571 121.608 163.244 121.466C162.928 121.312 162.545 121.236 162.096 121.236C161.646 121.236 161.263 121.307 160.947 121.45C160.63 121.583 160.365 121.767 160.15 122.002C159.946 122.237 159.777 122.507 159.645 122.814C159.522 123.12 159.43 123.447 159.369 123.794C159.308 124.141 159.267 124.499 159.246 124.866C159.226 125.224 159.216 125.571 159.216 125.908C159.216 126.214 159.221 126.541 159.231 126.888C159.251 127.236 159.292 127.583 159.353 127.93C159.415 128.277 159.502 128.609 159.614 128.926C159.736 129.242 159.905 129.523 160.119 129.768C160.334 130.013 160.599 130.207 160.916 130.35C161.243 130.493 161.636 130.565 162.096 130.565Z" fill="white"/>
<path d="M154.862 125.323V121.877C154.862 121.611 154.785 121.427 154.632 121.325C154.479 121.223 154.254 121.146 153.958 121.095C153.876 121.085 153.815 121.055 153.774 121.003C153.743 120.942 153.728 120.881 153.728 120.82C153.738 120.758 153.759 120.707 153.789 120.666C153.83 120.615 153.881 120.59 153.943 120.59H156.868C156.93 120.59 156.976 120.615 157.006 120.666C157.047 120.707 157.068 120.758 157.068 120.82C157.078 120.881 157.062 120.942 157.022 121.003C156.991 121.055 156.935 121.085 156.853 121.095C156.557 121.146 156.332 121.223 156.179 121.325C156.026 121.427 155.949 121.611 155.949 121.877V129.919C155.949 130.184 156.026 130.368 156.179 130.47C156.332 130.573 156.557 130.649 156.853 130.7C156.935 130.71 156.991 130.746 157.022 130.807C157.062 130.859 157.078 130.915 157.068 130.976C157.068 131.037 157.047 131.093 157.006 131.144C156.976 131.185 156.93 131.206 156.868 131.206H153.943C153.881 131.206 153.83 131.185 153.789 131.144C153.759 131.093 153.738 131.037 153.728 130.976C153.728 130.915 153.743 130.859 153.774 130.807C153.815 130.746 153.876 130.71 153.958 130.7C154.254 130.649 154.479 130.573 154.632 130.47C154.785 130.368 154.862 130.184 154.862 129.919V126.089H149.577V129.919C149.577 130.184 149.653 130.368 149.806 130.47C149.96 130.573 150.184 130.649 150.48 130.7C150.562 130.71 150.618 130.746 150.649 130.807C150.69 130.859 150.705 130.915 150.695 130.976C150.695 131.037 150.675 131.093 150.634 131.144C150.603 131.185 150.557 131.206 150.496 131.206H147.57C147.509 131.206 147.458 131.185 147.417 131.144C147.386 131.093 147.366 131.037 147.355 130.976C147.355 130.915 147.371 130.859 147.401 130.807C147.442 130.746 147.504 130.71 147.585 130.7C147.881 130.649 148.106 130.573 148.259 130.47C148.412 130.368 148.489 130.184 148.489 129.919V121.877C148.489 121.611 148.412 121.427 148.259 121.325C148.106 121.223 147.881 121.146 147.585 121.095C147.504 121.085 147.442 121.055 147.401 121.003C147.371 120.942 147.355 120.881 147.355 120.82C147.366 120.758 147.386 120.707 147.417 120.666C147.458 120.615 147.509 120.59 147.57 120.59H150.496C150.557 120.59 150.603 120.615 150.634 120.666C150.675 120.707 150.695 120.758 150.695 120.82C150.705 120.881 150.69 120.942 150.649 121.003C150.618 121.055 150.562 121.085 150.48 121.095C150.184 121.146 149.96 121.223 149.806 121.325C149.653 121.427 149.577 121.611 149.577 121.877V125.323H154.862Z" fill="white"/>
<path d="M143.31 120.424C144.403 120.424 145.338 120.613 146.114 120.991C146.216 121.042 146.298 121.093 146.359 121.144C146.42 121.195 146.451 121.277 146.451 121.389V123.166C146.451 123.248 146.425 123.314 146.374 123.365C146.323 123.406 146.267 123.431 146.206 123.442C146.144 123.452 146.083 123.442 146.022 123.411C145.961 123.38 145.925 123.329 145.915 123.258C145.853 122.921 145.777 122.625 145.685 122.369C145.603 122.114 145.475 121.905 145.302 121.741C145.128 121.568 144.883 121.44 144.567 121.358C144.25 121.277 143.831 121.236 143.31 121.236C142.861 121.236 142.478 121.307 142.161 121.45C141.845 121.583 141.579 121.767 141.365 122.002C141.161 122.237 140.992 122.507 140.859 122.814C140.737 123.12 140.645 123.447 140.584 123.794C140.522 124.141 140.482 124.499 140.461 124.866C140.441 125.224 140.43 125.571 140.43 125.908C140.43 126.214 140.436 126.541 140.446 126.888C140.466 127.236 140.507 127.583 140.568 127.93C140.63 128.277 140.716 128.609 140.829 128.926C140.951 129.242 141.12 129.523 141.334 129.768C141.549 130.013 141.814 130.207 142.131 130.35C142.458 130.493 142.851 130.565 143.31 130.565C143.944 130.565 144.49 130.493 144.949 130.35C145.419 130.207 145.858 130.018 146.267 129.784C146.338 129.743 146.4 129.743 146.451 129.784C146.512 129.814 146.553 129.86 146.573 129.921C146.604 129.983 146.614 130.049 146.604 130.121C146.604 130.192 146.578 130.248 146.527 130.289C146.119 130.616 145.649 130.881 145.118 131.086C144.597 131.28 143.995 131.377 143.31 131.377C142.524 131.377 141.87 131.234 141.35 130.948C140.839 130.662 140.43 130.274 140.124 129.784C139.818 129.293 139.603 128.716 139.481 128.053C139.358 127.389 139.297 126.674 139.297 125.908C139.297 125.091 139.363 124.345 139.496 123.671C139.629 122.997 139.848 122.42 140.155 121.94C140.471 121.46 140.885 121.088 141.396 120.822C141.906 120.557 142.544 120.424 143.31 120.424Z" fill="white"/>
<path d="M134.752 126.564V129.919C134.752 130.184 134.828 130.368 134.981 130.47C135.135 130.573 135.359 130.649 135.655 130.7C135.737 130.71 135.793 130.746 135.824 130.807C135.865 130.859 135.88 130.915 135.87 130.976C135.87 131.037 135.849 131.093 135.809 131.144C135.778 131.185 135.732 131.206 135.671 131.206H132.745C132.684 131.206 132.633 131.185 132.592 131.144C132.561 131.093 132.541 131.037 132.53 130.976C132.53 130.915 132.546 130.859 132.576 130.807C132.617 130.746 132.679 130.71 132.76 130.7C133.056 130.649 133.281 130.573 133.434 130.47C133.587 130.368 133.664 130.184 133.664 129.919V126.426L130.968 121.877C130.825 121.642 130.667 121.468 130.493 121.356C130.319 121.233 130.085 121.146 129.788 121.095C129.707 121.085 129.645 121.055 129.605 121.003C129.574 120.942 129.559 120.881 129.559 120.82C129.569 120.758 129.589 120.707 129.62 120.666C129.661 120.615 129.712 120.59 129.773 120.59H132.423C132.484 120.59 132.53 120.615 132.561 120.666C132.602 120.707 132.622 120.758 132.622 120.82C132.633 120.881 132.617 120.942 132.576 121.003C132.546 121.055 132.49 121.085 132.408 121.095C132.101 121.136 131.948 121.208 131.948 121.31C131.948 121.402 132.015 121.55 132.147 121.754L134.369 125.538L136.682 121.754C136.815 121.55 136.881 121.402 136.881 121.31C136.881 121.208 136.728 121.136 136.421 121.095C136.34 121.085 136.278 121.055 136.238 121.003C136.207 120.942 136.192 120.881 136.192 120.82C136.202 120.758 136.222 120.707 136.253 120.666C136.294 120.615 136.345 120.59 136.406 120.59H138.597C138.658 120.59 138.704 120.615 138.735 120.666C138.775 120.707 138.796 120.758 138.796 120.82C138.806 120.881 138.791 120.942 138.75 121.003C138.719 121.055 138.663 121.085 138.581 121.095C138.306 121.136 138.112 121.223 137.999 121.356C137.887 121.478 137.764 121.652 137.632 121.877L134.752 126.564Z" fill="white"/>
<path d="M125.905 131.377C125.384 131.377 124.924 131.336 124.526 131.254C124.138 131.183 123.77 131.06 123.423 130.887C123.321 130.835 123.239 130.784 123.178 130.733C123.117 130.682 123.086 130.601 123.086 130.488V129.171C123.086 129.089 123.111 129.028 123.163 128.987C123.214 128.936 123.27 128.91 123.331 128.91C123.403 128.9 123.464 128.91 123.515 128.941C123.576 128.972 123.612 129.023 123.622 129.094C123.663 129.37 123.729 129.605 123.821 129.799C123.913 129.983 124.046 130.136 124.22 130.258C124.393 130.371 124.613 130.453 124.878 130.504C125.154 130.544 125.496 130.565 125.905 130.565C126.609 130.565 127.181 130.376 127.62 129.998C128.059 129.62 128.279 129.115 128.279 128.481C128.279 128.053 128.151 127.695 127.896 127.409C127.641 127.123 127.324 126.868 126.946 126.643C126.568 126.419 126.155 126.209 125.705 126.015C125.256 125.811 124.842 125.576 124.465 125.311C124.087 125.045 123.77 124.734 123.515 124.376C123.26 124.008 123.132 123.554 123.132 123.013C123.132 122.594 123.214 122.226 123.377 121.91C123.54 121.583 123.765 121.312 124.051 121.098C124.337 120.873 124.669 120.705 125.047 120.592C125.435 120.48 125.843 120.424 126.272 120.424C126.701 120.424 127.105 120.465 127.482 120.546C127.87 120.618 128.238 120.74 128.585 120.914C128.687 120.965 128.769 121.016 128.83 121.067C128.892 121.118 128.922 121.2 128.922 121.312V122.63C128.922 122.711 128.897 122.778 128.846 122.829C128.795 122.87 128.733 122.895 128.662 122.905C128.601 122.905 128.539 122.89 128.478 122.86C128.427 122.829 128.396 122.778 128.386 122.706C128.335 122.431 128.269 122.196 128.187 122.002C128.116 121.808 128.003 121.654 127.85 121.542C127.697 121.43 127.493 121.348 127.237 121.297C126.992 121.246 126.671 121.22 126.272 121.22C125.996 121.22 125.736 121.256 125.491 121.328C125.246 121.389 125.031 121.491 124.848 121.634C124.674 121.767 124.531 121.945 124.419 122.17C124.317 122.385 124.265 122.645 124.265 122.951C124.265 123.36 124.393 123.702 124.648 123.978C124.904 124.243 125.22 124.483 125.598 124.698C125.976 124.912 126.39 125.122 126.839 125.326C127.288 125.53 127.702 125.77 128.08 126.046C128.458 126.311 128.774 126.638 129.03 127.026C129.285 127.404 129.413 127.884 129.413 128.466C129.413 128.977 129.316 129.416 129.122 129.784C128.938 130.151 128.687 130.453 128.371 130.687C128.054 130.922 127.682 131.096 127.253 131.208C126.824 131.321 126.374 131.377 125.905 131.377Z" fill="white"/>
<path d="M117.73 125.522C118.393 125.522 118.96 125.477 119.43 125.385C119.9 125.282 120.283 125.14 120.579 124.956C120.875 124.772 121.09 124.547 121.222 124.282C121.355 124.016 121.421 123.715 121.421 123.378C121.421 123.102 121.37 122.842 121.268 122.597C121.166 122.352 120.982 122.137 120.717 121.953C120.461 121.769 120.109 121.626 119.66 121.524C119.21 121.422 118.639 121.371 117.944 121.371H117.301C117.086 121.371 116.979 121.489 116.979 121.723V125.522H117.73ZM116.979 129.919C116.979 130.184 117.056 130.368 117.209 130.47C117.362 130.573 117.587 130.649 117.883 130.7C117.965 130.71 118.021 130.746 118.051 130.807C118.092 130.859 118.108 130.915 118.097 130.976C118.097 131.037 118.077 131.093 118.036 131.144C118.005 131.185 117.959 131.206 117.898 131.206H114.972C114.911 131.206 114.86 131.185 114.819 131.144C114.788 131.093 114.768 131.037 114.758 130.976C114.758 130.915 114.773 130.859 114.804 130.807C114.845 130.746 114.906 130.71 114.988 130.7C115.284 130.649 115.508 130.573 115.662 130.47C115.815 130.368 115.891 130.184 115.891 129.919V121.877C115.891 121.611 115.815 121.427 115.662 121.325C115.508 121.223 115.284 121.146 114.988 121.095C114.906 121.085 114.845 121.055 114.804 121.003C114.773 120.942 114.758 120.881 114.758 120.82C114.768 120.758 114.788 120.707 114.819 120.666C114.86 120.615 114.911 120.59 114.972 120.59H117.5C118.296 120.59 119.006 120.631 119.629 120.712C120.262 120.794 120.793 120.942 121.222 121.157C121.651 121.361 121.978 121.642 122.203 121.999C122.438 122.357 122.555 122.816 122.555 123.378C122.555 123.929 122.438 124.394 122.203 124.772C121.968 125.14 121.641 125.436 121.222 125.66C120.804 125.885 120.298 126.048 119.706 126.151C119.113 126.242 118.46 126.288 117.745 126.288H116.979V129.919Z" fill="#6BB283"/>
<path d="M105.647 129.919C105.647 130.184 105.724 130.368 105.877 130.47C106.03 130.573 106.255 130.649 106.551 130.7C106.632 130.71 106.689 130.746 106.719 130.807C106.76 130.859 106.775 130.915 106.765 130.976C106.765 131.037 106.745 131.093 106.704 131.144C106.673 131.185 106.627 131.206 106.566 131.206H103.64C103.579 131.206 103.528 131.185 103.487 131.144C103.456 131.093 103.436 131.037 103.426 130.976C103.426 130.915 103.441 130.859 103.472 130.807C103.513 130.746 103.574 130.71 103.656 130.7C103.952 130.649 104.176 130.573 104.33 130.47C104.483 130.368 104.559 130.184 104.559 129.919V121.877C104.559 121.611 104.483 121.427 104.33 121.325C104.176 121.223 103.952 121.146 103.656 121.095C103.574 121.085 103.513 121.055 103.472 121.003C103.441 120.942 103.426 120.881 103.426 120.82C103.436 120.758 103.456 120.707 103.487 120.666C103.528 120.615 103.579 120.59 103.64 120.59H106.566C106.627 120.59 106.673 120.615 106.704 120.666C106.745 120.707 106.765 120.758 106.765 120.82C106.775 120.881 106.76 120.942 106.719 121.003C106.689 121.055 106.632 121.085 106.551 121.095C106.255 121.146 106.03 121.223 105.877 121.325C105.724 121.427 105.647 121.611 105.647 121.877V129.919Z" fill="white"/>
<path d="M94.8343 129.919C94.8343 130.184 94.9109 130.368 95.064 130.47C95.2172 130.573 95.4419 130.649 95.7381 130.7C95.8198 130.71 95.8759 130.746 95.9066 130.807C95.9474 130.859 95.9627 130.915 95.9525 130.976C95.9525 131.037 95.9321 131.093 95.8913 131.144C95.8606 131.185 95.8147 131.206 95.7534 131.206H93.0113C92.9501 131.206 92.899 131.185 92.8581 131.144C92.8275 131.093 92.8071 131.037 92.7969 130.976C92.7969 130.915 92.8122 130.859 92.8428 130.807C92.8837 130.746 92.945 130.71 93.0267 130.7C93.3228 130.649 93.5475 130.573 93.7007 130.47C93.8539 130.368 93.9305 130.184 93.9305 129.919V121.877C93.9305 121.611 93.8539 121.427 93.7007 121.325C93.5475 121.223 93.3228 121.146 93.0267 121.095C92.945 121.085 92.8837 121.055 92.8428 121.003C92.8122 120.942 92.7969 120.881 92.7969 120.82C92.8071 120.758 92.8275 120.707 92.8581 120.666C92.899 120.615 92.9501 120.59 93.0113 120.59H95.0794C95.2223 120.59 95.3347 120.661 95.4164 120.804L100.472 129.613V121.877C100.472 121.611 100.395 121.427 100.242 121.325C100.089 121.223 99.8639 121.146 99.5677 121.095C99.486 121.085 99.4248 121.055 99.3839 121.003C99.3533 120.942 99.338 120.881 99.338 120.82C99.3482 120.758 99.3686 120.707 99.3992 120.666C99.4401 120.615 99.4911 120.59 99.5524 120.59H102.294C102.356 120.59 102.402 120.615 102.432 120.666C102.473 120.707 102.494 120.758 102.494 120.82C102.504 120.881 102.489 120.942 102.448 121.003C102.417 121.055 102.361 121.085 102.279 121.095C101.983 121.146 101.758 121.223 101.605 121.325C101.452 121.427 101.375 121.611 101.375 121.877V130.884C101.375 131.099 101.268 131.206 101.054 131.206H100.426C100.283 131.206 100.17 131.134 100.089 130.991L94.8343 121.846V129.919Z" fill="white"/>
<path d="M87.8963 131.377C87.11 131.377 86.4564 131.234 85.9355 130.948C85.4249 130.662 85.0164 130.274 84.71 129.784C84.4036 129.293 84.1892 128.716 84.0666 128.053C83.9441 127.389 83.8828 126.674 83.8828 125.908C83.8828 125.091 83.9492 124.345 84.082 123.671C84.2147 122.997 84.4343 122.42 84.7407 121.94C85.0572 121.46 85.4709 121.088 85.9815 120.822C86.4921 120.557 87.1304 120.424 87.8963 120.424C88.6622 120.424 89.3005 120.567 89.8112 120.853C90.3218 121.139 90.7303 121.532 91.0366 122.032C91.343 122.522 91.5575 123.1 91.68 123.763C91.8128 124.427 91.8792 125.142 91.8792 125.908C91.8792 126.725 91.8128 127.47 91.68 128.144C91.5473 128.808 91.3277 129.38 91.0213 129.86C90.715 130.34 90.3065 130.713 89.7958 130.978C89.2852 131.244 88.652 131.377 87.8963 131.377ZM87.8963 130.565C88.5601 130.565 89.081 130.417 89.4588 130.121C89.8367 129.824 90.1226 129.447 90.3167 128.987C90.5107 128.527 90.6282 128.027 90.669 127.486C90.7201 126.934 90.7456 126.408 90.7456 125.908C90.7456 125.602 90.7354 125.275 90.715 124.928C90.7047 124.57 90.669 124.223 90.6077 123.886C90.5464 123.539 90.4545 123.207 90.332 122.89C90.2197 122.563 90.0563 122.283 89.8418 122.048C89.6375 121.803 89.372 121.608 89.0452 121.466C88.7286 121.312 88.3457 121.236 87.8963 121.236C87.447 121.236 87.064 121.307 86.7474 121.45C86.4308 121.583 86.1653 121.767 85.9508 122.002C85.7466 122.237 85.5781 122.507 85.4453 122.814C85.3228 123.12 85.2309 123.447 85.1696 123.794C85.1083 124.141 85.0675 124.499 85.047 124.866C85.0266 125.224 85.0164 125.571 85.0164 125.908C85.0164 126.214 85.0215 126.541 85.0317 126.888C85.0521 127.236 85.093 127.583 85.1543 127.93C85.2155 128.277 85.3023 128.609 85.4147 128.926C85.5372 129.242 85.7057 129.523 85.9202 129.768C86.1347 130.013 86.4002 130.207 86.7168 130.35C87.0436 130.493 87.4368 130.565 87.8963 130.565Z" fill="white"/>
<path d="M79.5335 131.377C79.0126 131.377 78.5531 131.336 78.1548 131.254C77.7667 131.183 77.3991 131.06 77.0519 130.887C76.9497 130.835 76.868 130.784 76.8068 130.733C76.7455 130.682 76.7148 130.601 76.7148 130.488V129.171C76.7148 129.089 76.7404 129.028 76.7914 128.987C76.8425 128.936 76.8987 128.91 76.9599 128.91C77.0314 128.9 77.0927 128.91 77.1438 128.941C77.205 128.972 77.2408 129.023 77.251 129.094C77.2918 129.37 77.3582 129.605 77.4501 129.799C77.5421 129.983 77.6748 130.136 77.8484 130.258C78.022 130.371 78.2416 130.453 78.5071 130.504C78.7829 130.544 79.125 130.565 79.5335 130.565C80.2381 130.565 80.81 130.376 81.2492 129.998C81.6883 129.62 81.9079 129.115 81.9079 128.481C81.9079 128.053 81.7802 127.695 81.5249 127.409C81.2696 127.123 80.953 126.868 80.5752 126.643C80.1973 126.419 79.7837 126.209 79.3343 126.015C78.885 125.811 78.4714 125.576 78.0935 125.311C77.7157 125.045 77.3991 124.734 77.1438 124.376C76.8885 124.008 76.7608 123.554 76.7608 123.013C76.7608 122.594 76.8425 122.226 77.0059 121.91C77.1693 121.583 77.394 121.312 77.6799 121.098C77.9659 120.873 78.2978 120.705 78.6756 120.592C79.0637 120.48 79.4722 120.424 79.9011 120.424C80.3301 120.424 80.7334 120.465 81.1113 120.546C81.4994 120.618 81.867 120.74 82.2143 120.914C82.3164 120.965 82.3981 121.016 82.4594 121.067C82.5206 121.118 82.5513 121.2 82.5513 121.312V122.63C82.5513 122.711 82.5257 122.778 82.4747 122.829C82.4236 122.87 82.3623 122.895 82.2909 122.905C82.2296 122.905 82.1683 122.89 82.107 122.86C82.056 122.829 82.0253 122.778 82.0151 122.706C81.9641 122.431 81.8977 122.196 81.816 122.002C81.7445 121.808 81.6321 121.654 81.479 121.542C81.3258 121.43 81.1215 121.348 80.8662 121.297C80.6211 121.246 80.2994 121.22 79.9011 121.22C79.6254 121.22 79.365 121.256 79.1199 121.328C78.8748 121.389 78.6603 121.491 78.4765 121.634C78.3029 121.767 78.1599 121.945 78.0476 122.17C77.9454 122.385 77.8944 122.645 77.8944 122.951C77.8944 123.36 78.022 123.702 78.2774 123.978C78.5327 124.243 78.8492 124.483 79.2271 124.698C79.605 124.912 80.0186 125.122 80.4679 125.326C80.9173 125.53 81.3309 125.77 81.7087 126.046C82.0866 126.311 82.4032 126.638 82.6585 127.026C82.9138 127.404 83.0415 127.884 83.0415 128.466C83.0415 128.977 82.9445 129.416 82.7504 129.784C82.5666 130.151 82.3164 130.453 81.9998 130.687C81.6832 130.922 81.3105 131.096 80.8815 131.208C80.4526 131.321 80.0033 131.377 79.5335 131.377Z" fill="white"/>
<path d="M68.9866 130.7C69.0683 130.71 69.1245 130.746 69.1551 130.807C69.196 130.859 69.2113 130.915 69.2011 130.976C69.2011 131.037 69.1806 131.093 69.1398 131.144C69.1092 131.185 69.0632 131.206 69.0019 131.206H66.3824C66.3212 131.206 66.2701 131.185 66.2292 131.144C66.1986 131.093 66.1782 131.037 66.168 130.976C66.168 130.915 66.1833 130.859 66.2139 130.807C66.2548 130.746 66.316 130.71 66.3977 130.7C66.6939 130.649 66.9186 130.573 67.0718 130.47C67.225 130.358 67.3475 130.174 67.4394 129.919L70.7789 120.866C70.8504 120.682 70.9831 120.59 71.1772 120.59H71.6061C71.8001 120.59 71.9329 120.682 72.0044 120.866L75.2826 129.919C75.3745 130.174 75.4971 130.358 75.6502 130.47C75.8034 130.573 76.0281 130.649 76.3243 130.7C76.406 130.71 76.4621 130.746 76.4928 130.807C76.5336 130.859 76.5489 130.915 76.5387 130.976C76.5387 131.037 76.5183 131.093 76.4775 131.144C76.4468 131.185 76.4009 131.206 76.3396 131.206H73.4597C73.3984 131.206 73.3473 131.185 73.3065 131.144C73.2758 131.093 73.2554 131.037 73.2452 130.976C73.2452 130.915 73.2605 130.859 73.2912 130.807C73.332 130.746 73.3933 130.71 73.475 130.7C73.7712 130.649 73.9754 130.583 74.0877 130.501C74.2001 130.409 74.2103 130.236 74.1184 129.98L73.2912 127.713H69.1551L68.3585 129.934C68.2666 130.19 68.2717 130.368 68.3739 130.47C68.4862 130.573 68.6904 130.649 68.9866 130.7ZM71.1925 122.014L69.4309 126.947H73.0001L71.1925 122.014Z" fill="white"/>
<path d="M57.8785 131.206C57.8172 131.206 57.7662 131.185 57.7253 131.144C57.6947 131.093 57.6743 131.037 57.6641 130.976C57.6641 130.915 57.6794 130.859 57.71 130.807C57.7509 130.746 57.8121 130.71 57.8938 130.7C58.19 130.649 58.4147 130.573 58.5679 130.47C58.7211 130.368 58.7976 130.184 58.7976 129.919V121.877C58.7976 121.611 58.7211 121.427 58.5679 121.325C58.4147 121.223 58.19 121.146 57.8938 121.095C57.8121 121.085 57.7509 121.055 57.71 121.003C57.6794 120.942 57.6641 120.881 57.6641 120.82C57.6743 120.758 57.6947 120.707 57.7253 120.666C57.7662 120.615 57.8172 120.59 57.8785 120.59H60.5133C61.3201 120.59 62.0605 120.661 62.7346 120.804C63.4086 120.947 63.9856 121.218 64.4656 121.616C64.9456 122.004 65.3183 122.546 65.5838 123.24C65.8494 123.924 65.9821 124.813 65.9821 125.905C65.9821 126.998 65.8443 127.892 65.5685 128.586C65.2928 129.27 64.9098 129.807 64.4196 130.195C63.9294 130.583 63.3422 130.848 62.658 130.991C61.9839 131.134 61.2486 131.206 60.4521 131.206H57.8785ZM59.8853 130.072C59.8853 130.307 59.9976 130.424 60.2223 130.424H60.7584C62.1882 130.424 63.2248 130.062 63.8681 129.337C64.5217 128.612 64.8485 127.468 64.8485 125.905C64.8485 125.262 64.7873 124.665 64.6647 124.113C64.5524 123.562 64.3481 123.082 64.052 122.673C63.7558 122.265 63.3575 121.948 62.8571 121.723C62.3669 121.489 61.7439 121.371 60.9882 121.371H60.2223C59.9976 121.371 59.8853 121.489 59.8853 121.723V130.072Z" fill="#6BB283"/>
</svg>
