<svg width="162" height="96" viewBox="0 0 162 96" fill="none" xmlns="http://www.w3.org/2000/svg">
<path d="M73.4317 4.58681L84.6634 5.75627L91.7785 14.5253L90.609 25.757L81.84 32.8721L70.6083 31.7026L63.4933 22.9337L64.6627 11.7019L73.4317 4.58681Z" fill="#5CA775" fill-opacity="0.95"/>
<path d="M88.1814 7.8576L97.8965 11.4693L102.212 20.8927L98.6006 30.6078L89.1771 34.9236L79.4621 31.3119L75.1463 21.8885L78.758 12.1734L88.1814 7.8576Z" fill="#F1D566" fill-opacity="0.7"/>
<path d="M87.1327 20.828L95.0911 22.0128L99.8807 28.4781L98.6959 36.4365L92.2306 41.2262L84.2722 40.0413L79.4826 33.5761L80.6674 25.6176L87.1327 20.828Z" fill="#804FD0" fill-opacity="0.8"/>
<path d="M79.0934 29.465L87.0398 28.2019L93.5518 32.9277L94.8149 40.8741L90.0891 47.3862L82.1427 48.6493L75.6307 43.9235L74.3676 35.9771L79.0934 29.465Z" fill="#EBAA70" fill-opacity="0.8"/>
<path d="M47.2214 62.1947C47.2214 61.951 47.197 61.7561 47.1482 61.6099C47.1156 61.4474 47.0424 61.3093 46.9284 61.1956C46.8145 61.0819 46.6599 60.9926 46.4646 60.9276C46.2693 60.8464 46.017 60.7651 45.7078 60.6839C45.5939 60.6514 45.5125 60.5864 45.4637 60.489C45.4312 60.3752 45.423 60.2696 45.4393 60.1722C45.4718 60.0585 45.5288 59.961 45.6102 59.8798C45.7078 59.7985 45.8299 59.766 45.9764 59.7823L48.5397 60.0503C48.7838 60.0828 48.914 60.1641 48.9303 60.294C48.9628 60.4077 48.9791 60.5052 48.9791 60.5864C48.9791 60.7001 48.9628 60.8464 48.9303 61.0251C48.914 61.2038 48.9058 61.4556 48.9058 61.7805V70.0899C48.9058 70.4636 49.0849 70.6504 49.4429 70.6504C51.5098 70.6504 53.5117 70.5204 55.4484 70.2605C57.4014 69.9843 59.4032 69.5863 61.4538 69.0665V59.3193C61.4538 58.7507 61.3155 58.3527 61.0388 58.1253C60.7784 57.8978 60.339 57.7029 59.7205 57.5404C59.6066 57.5079 59.5334 57.443 59.5008 57.3455C59.4683 57.2318 59.4683 57.1262 59.5008 57.0287C59.5334 56.915 59.5903 56.8175 59.6717 56.7363C59.7694 56.6551 59.8833 56.6226 60.0135 56.6388L62.7721 57.0287C63.0325 57.0612 63.1708 57.1424 63.1871 57.2724C63.2197 57.3861 63.2359 57.4836 63.2359 57.5648C63.2359 57.6623 63.2197 57.8166 63.1871 58.0278C63.1546 58.239 63.1383 58.5152 63.1383 58.8563V77.0591C63.1383 77.5303 63.0488 77.9526 62.8697 78.3263C62.707 78.7162 62.4385 78.9111 62.0641 78.9111C61.8851 78.9111 61.7386 78.8136 61.6247 78.6187C61.5108 78.4238 61.4538 78.107 61.4538 77.6683V70.0899C59.3544 70.7072 57.2793 71.1946 55.2287 71.552C53.1943 71.8931 51.0704 72.08 48.857 72.1125C48.32 72.1287 47.9131 71.9744 47.6364 71.6495C47.3597 71.3246 47.2214 70.9184 47.2214 70.4311V62.1947Z" fill="#333333"/>
<path d="M22.6792 74.4001C22.5815 74.3026 22.5327 74.197 22.5327 74.0833C22.5327 73.9696 22.5571 73.8721 22.606 73.7909C22.6548 73.6934 22.728 73.6284 22.8257 73.5959C22.9233 73.5634 23.0291 73.5715 23.143 73.6203C23.3546 73.7178 23.6964 73.7746 24.1683 73.7909C24.6403 73.8071 25.2018 73.8152 25.8528 73.8152H32.3465V70.9154C32.3465 70.6718 32.3221 70.4687 32.2733 70.3062C32.2407 70.1438 32.1675 70.0138 32.0535 69.9164C31.9559 69.8026 31.8094 69.7133 31.6141 69.6483C31.4351 69.5671 31.1991 69.4859 30.9062 69.4046C30.7922 69.3721 30.7109 69.3072 30.662 69.2097C30.6295 69.096 30.6214 68.9904 30.6376 68.8929C30.6702 68.7792 30.7271 68.6817 30.8085 68.6005C30.9062 68.5193 31.0282 68.4868 31.1747 68.503L33.6648 68.7711C33.9089 68.8036 34.0391 68.8848 34.0554 69.0147C34.0879 69.1285 34.1042 69.2259 34.1042 69.3072C34.1042 69.4209 34.0879 69.5671 34.0554 69.7458C34.0391 69.9245 34.031 70.1763 34.031 70.5012V73.8152H42.2091C42.437 73.8152 42.6078 73.799 42.7218 73.7665C42.8357 73.734 42.9496 73.7178 43.0635 73.7178C43.3402 73.7178 43.4785 73.8721 43.4785 74.1807C43.4785 74.4244 43.3565 74.6519 43.1124 74.863C42.8682 75.058 42.5672 75.1555 42.2091 75.1555H25.8528C25.4785 75.1555 25.153 75.1798 24.8763 75.2286C24.6159 75.2611 24.3881 75.2773 24.1928 75.2773C23.9812 75.2773 23.7452 75.2123 23.4848 75.0824C23.2244 74.9361 22.9559 74.7087 22.6792 74.4001ZM34.8854 59.4625C34.5436 60.5997 34.0554 61.6637 33.4206 62.6547C34.9017 63.5807 36.2362 64.4092 37.4243 65.1402C38.6286 65.8713 39.7028 66.4967 40.6467 67.0166C40.8583 67.179 41.0373 67.4227 41.1838 67.7476C41.3465 68.0725 41.4279 68.3487 41.4279 68.5761C41.4279 68.7548 41.3465 68.9091 41.1838 69.0391C41.021 69.1691 40.8339 69.1528 40.6223 68.9904C39.6946 68.2431 38.5635 67.4389 37.229 66.5779C35.9107 65.7169 34.3971 64.7585 32.6883 63.7025C31.8257 64.791 30.776 65.7819 29.5391 66.6754C28.3022 67.5689 26.8537 68.3568 25.1937 69.0391C25.0635 69.0878 24.9333 69.0878 24.8031 69.0391C24.6891 68.9904 24.5915 68.9254 24.5101 68.8442C24.445 68.7467 24.4125 68.6492 24.4125 68.5518C24.4125 68.438 24.4694 68.3487 24.5834 68.2837C26.5038 67.2603 28.1394 66.0825 29.4902 64.7504C30.8573 63.4182 31.9315 61.948 32.7127 60.3398C32.7127 60.0311 32.5988 59.7793 32.3709 59.5844C32.1431 59.3732 31.7606 59.1701 31.2235 58.9752C31.1096 58.9264 31.0364 58.8533 31.0038 58.7558C30.9713 58.6421 30.9713 58.5365 31.0038 58.4391C31.0364 58.3253 31.1015 58.236 31.1991 58.171C31.2968 58.0898 31.4188 58.0654 31.5653 58.0979L34.4948 58.7802C34.7389 58.8289 34.8691 58.9345 34.8854 59.097C34.9179 59.2594 34.9179 59.3813 34.8854 59.4625Z" fill="#333333"/>
<path d="M3.84621 70.2118C3.84621 70.5854 4.02523 70.7722 4.38328 70.7722C6.10842 70.8047 7.93935 70.691 9.87607 70.4311C11.8128 70.1711 13.9448 69.7569 16.2721 69.1883V59.3193C16.2721 58.7507 16.1338 58.3527 15.8571 58.1253C15.5967 57.8978 15.1573 57.7029 14.5388 57.5404C14.4249 57.5079 14.3517 57.443 14.3191 57.3455C14.2866 57.2318 14.2866 57.1262 14.3191 57.0287C14.3517 56.915 14.4086 56.8175 14.49 56.7363C14.5877 56.6551 14.7016 56.6226 14.8318 56.6388L17.5904 57.0287C17.8508 57.0612 17.9891 57.1424 18.0054 57.2724C18.0379 57.3861 18.0542 57.4836 18.0542 57.5648C18.0542 57.6623 18.0379 57.8166 18.0054 58.0278C17.9728 58.239 17.9566 58.5152 17.9566 58.8563V65.4844H20.5199C20.7477 65.4844 20.9186 65.4681 21.0325 65.4356C21.1465 65.4032 21.2604 65.3869 21.3743 65.3869C21.472 65.3869 21.5615 65.4356 21.6428 65.5331C21.7405 65.6306 21.7893 65.7362 21.7893 65.8499C21.7893 65.9474 21.7486 66.053 21.6673 66.1667C21.5859 66.2804 21.4801 66.386 21.3499 66.4835C21.236 66.5809 21.0976 66.6622 20.9349 66.7271C20.7884 66.7921 20.6501 66.8246 20.5199 66.8246H17.9566V77.0591C17.9566 77.5303 17.8671 77.9526 17.688 78.3263C17.5253 78.7162 17.2568 78.9111 16.8824 78.9111C16.7034 78.9111 16.5569 78.8136 16.443 78.6187C16.3291 78.4238 16.2721 78.107 16.2721 77.6683V70.2118C13.9611 70.8778 11.7721 71.3733 9.70518 71.6982C7.63827 72.0231 5.669 72.2018 3.79738 72.2343C3.26031 72.2505 2.85344 72.0962 2.57677 71.7713C2.30009 71.4464 2.16175 71.0403 2.16175 70.5529V62.2434C2.16175 61.8211 2.07224 61.5287 1.89322 61.3662C1.73047 61.2038 1.3887 61.0819 0.867898 61.0007C0.737698 60.9844 0.648186 60.9276 0.599361 60.8301C0.550537 60.7164 0.534262 60.6027 0.550537 60.489C0.566812 60.3752 0.607499 60.2778 0.672599 60.1965C0.753973 60.0991 0.843485 60.0503 0.941135 60.0503H10.9502C11.1781 60.0503 11.349 60.0341 11.4629 60.0016C11.5768 59.9691 11.6907 59.9529 11.8047 59.9529C11.9023 59.9529 11.9918 60.0016 12.0732 60.0991C12.1708 60.1965 12.2197 60.3021 12.2197 60.4159C12.2197 60.5133 12.179 60.6189 12.0976 60.7326C12.0162 60.8464 11.9104 60.9519 11.7802 61.0494C11.6663 61.1469 11.528 61.2281 11.3652 61.2931C11.2188 61.3581 11.0804 61.3906 10.9502 61.3906H3.84621V70.2118Z" fill="#333333"/>
<path d="M150.224 68.5843V72.1716C150.224 72.4596 150.362 72.6036 150.637 72.6036C151.825 72.6036 152.951 72.5597 154.014 72.4721C155.09 72.3719 156.115 72.2404 157.091 72.0777C157.266 72.0526 157.385 72.0276 157.447 72.0026C157.522 71.9775 157.603 71.9587 157.691 71.9462C157.766 71.9462 157.841 71.9838 157.916 72.0589C157.991 72.1215 158.029 72.1966 158.029 72.2843C158.041 72.447 157.954 72.5973 157.766 72.735C157.578 72.8728 157.378 72.9604 157.166 72.998C156.065 73.2108 154.933 73.3799 153.77 73.5051C152.619 73.6303 151.425 73.7054 150.187 73.7304C149.774 73.743 149.461 73.624 149.249 73.3736C149.036 73.1232 148.93 72.8102 148.93 72.4345V64.8281C148.93 64.5025 148.861 64.2772 148.724 64.1519C148.598 64.0267 148.336 63.9328 147.936 63.8702C147.836 63.8577 147.767 63.8139 147.729 63.7388C147.692 63.6511 147.679 63.5635 147.692 63.4758C147.704 63.3882 147.735 63.313 147.786 63.2504C147.848 63.1753 147.917 63.1378 147.992 63.1378H155.44C155.615 63.1378 155.746 63.1252 155.834 63.1002C155.921 63.0751 156.009 63.0626 156.096 63.0626C156.171 63.0626 156.24 63.1002 156.303 63.1753C156.378 63.2504 156.415 63.3318 156.415 63.4195C156.415 63.4946 156.384 63.576 156.322 63.6636C156.259 63.7513 156.178 63.8327 156.078 63.9078C155.99 63.9829 155.884 64.0455 155.759 64.0956C155.646 64.1457 155.54 64.1707 155.44 64.1707H150.224V67.5514H154.783C154.958 67.5514 155.09 67.5388 155.177 67.5138C155.265 67.4888 155.352 67.4762 155.44 67.4762C155.515 67.4762 155.584 67.5138 155.646 67.5889C155.721 67.6641 155.759 67.7454 155.759 67.8331C155.759 67.9082 155.727 67.9896 155.665 68.0772C155.602 68.1649 155.521 68.2463 155.421 68.3214C155.333 68.3965 155.227 68.4591 155.102 68.5092C154.99 68.5593 154.883 68.5843 154.783 68.5843H150.224ZM156.415 67.8143C156.34 67.7392 156.297 67.6641 156.284 67.5889C156.284 67.5013 156.303 67.4262 156.34 67.3636C156.39 67.2884 156.453 67.2383 156.528 67.2133C156.603 67.1883 156.684 67.1945 156.772 67.2321C156.934 67.3072 157.197 67.351 157.56 67.3636C157.922 67.3761 158.354 67.3823 158.854 67.3823H160.092V62.9499C160.092 62.5117 159.986 62.2049 159.773 62.0297C159.573 61.8544 159.236 61.7041 158.76 61.5789C158.673 61.5539 158.617 61.5038 158.592 61.4286C158.567 61.341 158.567 61.2596 158.592 61.1845C158.617 61.0968 158.66 61.0217 158.723 60.9591C158.798 60.8965 158.885 60.8715 158.986 60.884L161.105 61.1845C161.306 61.2095 161.412 61.2721 161.424 61.3723C161.449 61.46 161.462 61.5351 161.462 61.5977C161.462 61.6728 161.449 61.7918 161.424 61.9545C161.399 62.1173 161.387 62.3302 161.387 62.5931V76.6228C161.387 76.9859 161.318 77.3114 161.18 77.5994C161.055 77.8999 160.849 78.0501 160.561 78.0501C160.424 78.0501 160.311 77.975 160.224 77.8248C160.136 77.6745 160.092 77.4304 160.092 77.0923V68.3965H158.854C158.567 68.3965 158.335 68.4153 158.16 68.4529C157.985 68.4779 157.822 68.4904 157.672 68.4904C157.51 68.4904 157.31 68.4404 157.072 68.3402C156.847 68.2275 156.628 68.0522 156.415 67.8143Z" fill="#333333"/>
<path d="M138.039 65.9925C137.964 65.9174 137.927 65.836 137.927 65.7484C137.927 65.6607 137.945 65.5856 137.983 65.523C138.02 65.4604 138.077 65.4166 138.152 65.3915C138.227 65.3665 138.308 65.3727 138.396 65.4103C138.558 65.4854 138.821 65.5292 139.184 65.5418C139.546 65.5543 139.978 65.5605 140.478 65.5605H141.135V63.3256C141.135 62.8999 141.041 62.6056 140.853 62.4428C140.666 62.2675 140.34 62.1173 139.878 61.9921C139.79 61.967 139.734 61.917 139.709 61.8418C139.684 61.7667 139.684 61.6853 139.709 61.5977C139.734 61.51 139.778 61.4412 139.84 61.3911C139.915 61.3285 140.003 61.3034 140.103 61.316L142.091 61.5789C142.292 61.6039 142.398 61.6665 142.41 61.7667C142.435 61.8544 142.448 61.9295 142.448 61.9921C142.448 62.0672 142.435 62.1862 142.41 62.3489C142.385 62.5117 142.373 62.7246 142.373 62.9875V72.4533C142.373 72.8164 142.304 73.142 142.166 73.4299C142.041 73.7054 141.848 73.8431 141.585 73.8431C141.46 73.8431 141.354 73.768 141.266 73.6177C141.178 73.4675 141.135 73.2296 141.135 72.9041V66.5747H140.478C140.19 66.5747 139.959 66.5935 139.784 66.6311C139.609 66.6561 139.446 66.6686 139.296 66.6686C139.134 66.6686 138.933 66.6186 138.696 66.5184C138.471 66.4057 138.252 66.2304 138.039 65.9925ZM139.427 70.6691C139.402 70.8068 139.315 70.9132 139.165 70.9884C139.015 71.051 138.871 71.0009 138.733 70.8381C138.221 70.1995 137.689 69.5798 137.139 68.9788C136.601 68.3777 136.019 67.7767 135.394 67.1757C134.994 67.9145 134.506 68.6031 133.931 69.2417C133.355 69.8803 132.686 70.475 131.923 71.0259C131.848 71.0885 131.761 71.1136 131.661 71.101C131.573 71.076 131.492 71.0322 131.417 70.9696C131.354 70.907 131.31 70.8381 131.285 70.763C131.273 70.6753 131.304 70.6002 131.379 70.5376C133.393 68.672 134.7 66.4808 135.3 63.9641C135.3 63.6762 135.213 63.4508 135.037 63.288C134.875 63.1252 134.587 62.9687 134.175 62.8185C134.087 62.7809 134.031 62.7246 134.006 62.6494C133.981 62.5618 133.981 62.4804 134.006 62.4053C134.031 62.3176 134.081 62.2488 134.156 62.1987C134.231 62.1361 134.325 62.1173 134.437 62.1423L136.463 62.6307C136.651 62.6807 136.751 62.7684 136.763 62.8936C136.776 63.0063 136.776 63.0939 136.763 63.1565C136.663 63.7075 136.545 64.2333 136.407 64.7342C136.269 65.235 136.094 65.7233 135.882 66.1991C136.42 66.7626 136.957 67.3072 137.495 67.8331C138.045 68.3464 138.602 68.8473 139.165 69.3356C139.252 69.4733 139.327 69.6737 139.39 69.9366C139.452 70.1995 139.465 70.4437 139.427 70.6691ZM145.862 72.5848C145.862 72.9479 145.793 73.2734 145.656 73.5614C145.531 73.8369 145.331 73.9746 145.056 73.9746C144.931 73.9746 144.824 73.8995 144.737 73.7492C144.649 73.599 144.605 73.3611 144.605 73.0355V62.9499C144.605 62.5117 144.499 62.2049 144.286 62.0297C144.086 61.8544 143.749 61.7041 143.273 61.5789C143.186 61.5539 143.13 61.5038 143.105 61.4286C143.079 61.341 143.079 61.2596 143.105 61.1845C143.13 61.0968 143.173 61.0217 143.236 60.9591C143.311 60.8965 143.398 60.8715 143.498 60.884L145.581 61.1845C145.781 61.2095 145.887 61.2721 145.9 61.3723C145.925 61.46 145.937 61.5351 145.937 61.5977C145.937 61.6728 145.925 61.7918 145.9 61.9545C145.875 62.1173 145.862 62.3302 145.862 62.5931V72.5848ZM136.651 74.7258C136.651 74.5255 136.632 74.3627 136.595 74.2375C136.557 74.0998 136.488 73.9871 136.388 73.8995C136.301 73.8118 136.176 73.743 136.013 73.6929C135.863 73.6303 135.669 73.5677 135.431 73.5051C135.344 73.48 135.281 73.4299 135.244 73.3548C135.219 73.2672 135.213 73.1858 135.225 73.1107C135.25 73.023 135.294 72.9479 135.356 72.8853C135.431 72.8227 135.525 72.7976 135.638 72.8101L137.664 73.0355C137.852 73.0606 137.952 73.1232 137.964 73.2233C137.989 73.311 138.002 73.3861 138.002 73.4487C138.002 73.5364 137.989 73.649 137.964 73.7868C137.952 73.9245 137.945 74.1186 137.945 74.369V76.9984C137.945 77.2864 138.083 77.4304 138.358 77.4304H145.6C145.775 77.4304 145.919 77.4116 146.031 77.374C146.156 77.349 146.263 77.3365 146.35 77.3365C146.425 77.3365 146.494 77.374 146.556 77.4491C146.631 77.5243 146.669 77.6057 146.669 77.6933C146.669 77.7684 146.631 77.8498 146.556 77.9375C146.494 78.0376 146.406 78.1253 146.294 78.2004C146.194 78.2755 146.081 78.3381 145.956 78.3882C145.831 78.4383 145.712 78.4633 145.6 78.4633H137.908C137.495 78.4633 137.182 78.3381 136.97 78.0877C136.757 77.8498 136.651 77.543 136.651 77.1674V74.7258Z" fill="#333333"/>
<path d="M120.472 78.6511C120.059 78.6511 119.746 78.5259 119.534 78.2755C119.321 78.0376 119.215 77.7309 119.215 77.3552V74.0309C119.215 73.7054 119.171 73.48 119.083 73.3548C118.996 73.2296 118.771 73.1357 118.408 73.0731C118.308 73.0606 118.239 73.0167 118.202 72.9416C118.164 72.854 118.152 72.7663 118.164 72.6787C118.177 72.591 118.208 72.5159 118.258 72.4533C118.32 72.3782 118.389 72.3406 118.464 72.3406H126.419C126.819 72.3406 127.1 72.3218 127.263 72.2843C127.438 72.2467 127.594 72.2279 127.732 72.2279C127.895 72.2279 128.057 72.2968 128.22 72.4345C128.395 72.5597 128.482 72.6849 128.482 72.8101C128.482 72.8978 128.47 73.0105 128.445 73.1482C128.432 73.2859 128.426 73.48 128.426 73.7304V77.8999C128.426 78.0627 128.345 78.2254 128.182 78.3882C128.032 78.5635 127.851 78.6511 127.638 78.6511H120.472ZM128.539 65.9362H130.508C130.684 65.9362 130.815 65.9237 130.902 65.8986C130.99 65.8736 131.078 65.861 131.165 65.861C131.24 65.861 131.309 65.8986 131.371 65.9737C131.447 66.0489 131.484 66.1302 131.484 66.2179C131.484 66.293 131.453 66.3744 131.39 66.4621C131.328 66.5497 131.246 66.6311 131.146 66.7062C131.059 66.7813 130.952 66.8439 130.827 66.894C130.715 66.9441 130.609 66.9691 130.508 66.9691H128.539V69.9554C128.539 70.3185 128.47 70.6503 128.332 70.9508C128.207 71.2388 128.001 71.3828 127.713 71.3828C127.576 71.3828 127.463 71.3076 127.375 71.1574C127.288 71.0071 127.244 70.763 127.244 70.4249V68.5092C125.468 69.0226 123.786 69.4045 122.198 69.6549C120.609 69.9053 119.096 70.043 117.658 70.0681C117.245 70.0806 116.932 69.9616 116.72 69.7112C116.507 69.4608 116.401 69.1478 116.401 68.7722V64.5088C116.401 64.1832 116.332 63.9579 116.194 63.8327C116.069 63.7075 115.807 63.6135 115.406 63.5509C115.306 63.5384 115.237 63.4946 115.2 63.4195C115.162 63.3318 115.15 63.2442 115.162 63.1565C115.175 63.0689 115.206 62.9938 115.256 62.9312C115.319 62.856 115.388 62.8185 115.463 62.8185H123.154C123.329 62.8185 123.461 62.8059 123.548 62.7809C123.636 62.7559 123.723 62.7433 123.811 62.7433C123.886 62.7433 123.955 62.7809 124.017 62.856C124.092 62.9312 124.13 63.0125 124.13 63.1002C124.13 63.1753 124.099 63.2567 124.036 63.3443C123.974 63.432 123.892 63.5134 123.792 63.5885C123.705 63.6636 123.598 63.7262 123.473 63.7763C123.361 63.8264 123.254 63.8514 123.154 63.8514H117.695V68.5092C117.695 68.7972 117.833 68.9412 118.108 68.9412C119.434 68.9662 120.841 68.8786 122.329 68.6783C123.817 68.4779 125.456 68.1586 127.244 67.7204V62.9499C127.244 62.5117 127.138 62.2049 126.925 62.0297C126.725 61.8544 126.387 61.7041 125.912 61.5789C125.825 61.5539 125.768 61.5038 125.743 61.4286C125.718 61.341 125.718 61.2596 125.743 61.1845C125.768 61.0968 125.812 61.0217 125.875 60.9591C125.95 60.8965 126.037 60.8715 126.137 60.884L128.257 61.1845C128.457 61.2095 128.564 61.2721 128.576 61.3723C128.601 61.46 128.614 61.5351 128.614 61.5977C128.614 61.6728 128.601 61.7918 128.576 61.9545C128.551 62.1173 128.539 62.3302 128.539 62.5931V65.9362ZM120.509 77.1862C120.509 77.4742 120.647 77.6182 120.922 77.6182H127.132V73.3736H120.509V77.1862Z" fill="#333333"/>
<path d="M103.297 75.4395C103.297 74.801 103.415 74.2626 103.653 73.8243C103.903 73.3736 104.241 73.0105 104.666 72.735C105.091 72.4596 105.585 72.2592 106.148 72.134C106.724 72.0088 107.33 71.9462 107.968 71.9462C108.606 71.9462 109.206 72.0088 109.769 72.134C110.344 72.2592 110.838 72.4596 111.251 72.735C111.676 73.0105 112.014 73.3736 112.264 73.8243C112.514 74.2626 112.639 74.801 112.639 75.4395C112.639 76.0781 112.514 76.6165 112.264 77.0547C112.014 77.5055 111.676 77.8623 111.251 78.1253C110.838 78.4007 110.344 78.6011 109.769 78.7263C109.206 78.8515 108.606 78.9141 107.968 78.9141C107.33 78.9141 106.724 78.8515 106.148 78.7263C105.585 78.6011 105.091 78.4007 104.666 78.1253C104.241 77.8623 103.903 77.5055 103.653 77.0547C103.415 76.6165 103.297 76.0781 103.297 75.4395ZM104.647 75.4583C104.647 75.9091 104.735 76.2847 104.91 76.5852C105.085 76.8982 105.323 77.1486 105.623 77.3365C105.936 77.5368 106.292 77.6808 106.692 77.7684C107.092 77.8561 107.518 77.8999 107.968 77.8999C108.431 77.8999 108.862 77.8561 109.262 77.7684C109.675 77.6808 110.032 77.5368 110.332 77.3365C110.632 77.1486 110.87 76.8982 111.045 76.5852C111.22 76.2847 111.307 75.9091 111.307 75.4583C111.307 75.0076 111.22 74.6257 111.045 74.3127C110.87 73.9871 110.632 73.7242 110.332 73.5238C110.032 73.3235 109.675 73.1795 109.262 73.0919C108.862 73.0042 108.431 72.9604 107.968 72.9604C107.518 72.9604 107.092 73.0042 106.692 73.0919C106.292 73.1795 105.936 73.3235 105.623 73.5238C105.323 73.7242 105.085 73.9871 104.91 74.3127C104.735 74.6257 104.647 75.0076 104.647 75.4583ZM105.529 62.8373C105.279 63.9516 104.904 64.9846 104.403 65.9362C105.079 66.4495 105.735 66.9253 106.373 67.3636C107.011 67.8018 107.662 68.2087 108.324 68.5843C108.437 68.6845 108.543 68.8661 108.643 69.129C108.756 69.3794 108.812 69.6173 108.812 69.8427C108.812 69.9178 108.793 69.9867 108.756 70.0493C108.718 70.1119 108.662 70.162 108.587 70.1995C108.525 70.2371 108.456 70.2559 108.381 70.2559C108.306 70.2559 108.231 70.2183 108.156 70.1432C107.518 69.5672 106.842 69.0038 106.129 68.4529C105.417 67.8894 104.672 67.3448 103.897 66.8189C103.434 67.5326 102.878 68.2025 102.227 68.8285C101.589 69.442 100.839 70.0055 99.976 70.5188C99.8884 70.5689 99.7946 70.5877 99.6946 70.5752C99.607 70.5501 99.5257 70.5063 99.4507 70.4437C99.3882 70.3811 99.3506 70.3122 99.3381 70.2371C99.3256 70.162 99.3569 70.0931 99.4319 70.0305C100.57 69.129 101.521 68.1461 102.284 67.0818C103.059 66.005 103.628 64.8594 103.991 63.6448C103.991 63.3569 103.891 63.1315 103.691 62.9687C103.503 62.8059 103.203 62.6494 102.79 62.4992C102.703 62.4616 102.646 62.4053 102.621 62.3302C102.596 62.2425 102.596 62.1611 102.621 62.086C102.646 61.9983 102.696 61.9295 102.771 61.8794C102.846 61.8168 102.94 61.798 103.053 61.8231L105.229 62.3114C105.417 62.3489 105.517 62.4303 105.529 62.5555C105.542 62.6807 105.542 62.7746 105.529 62.8373ZM112.583 65.7484H114.553C114.728 65.7484 114.859 65.7358 114.947 65.7108C115.034 65.6858 115.122 65.6732 115.209 65.6732C115.285 65.6732 115.353 65.7108 115.416 65.7859C115.491 65.861 115.528 65.9424 115.528 66.0301C115.528 66.1052 115.497 66.1866 115.435 66.2742C115.372 66.3619 115.291 66.4433 115.191 66.5184C115.103 66.5935 114.997 66.6561 114.872 66.7062C114.759 66.7563 114.653 66.7813 114.553 66.7813H112.583V70.4437C112.583 70.8068 112.514 71.1386 112.377 71.4391C112.252 71.7271 112.045 71.8711 111.758 71.8711C111.62 71.8711 111.507 71.796 111.42 71.6457C111.332 71.4955 111.289 71.2513 111.289 70.9132V62.9499C111.289 62.5117 111.182 62.2049 110.97 62.0297C110.77 61.8544 110.432 61.7041 109.957 61.5789C109.869 61.5539 109.813 61.5038 109.788 61.4286C109.763 61.341 109.763 61.2596 109.788 61.1845C109.813 61.0968 109.857 61.0217 109.919 60.9591C109.994 60.8965 110.082 60.8715 110.182 60.884L112.302 61.1845C112.502 61.2095 112.608 61.2721 112.621 61.3723C112.646 61.46 112.658 61.5351 112.658 61.5977C112.658 61.6728 112.646 61.7918 112.621 61.9545C112.596 62.1173 112.583 62.3302 112.583 62.5931V65.7484Z" fill="#333333"/>
<path d="M86.5974 68.7722V72.1716C86.5974 72.4596 86.735 72.6036 87.0101 72.6036C88.5985 72.6036 90.1431 72.5222 91.644 72.3594C93.1573 72.1841 94.7019 71.8961 96.2778 71.4955V62.9499C96.2778 62.5117 96.1715 62.2049 95.9589 62.0297C95.7588 61.8544 95.4211 61.7041 94.9458 61.5789C94.8583 61.5539 94.802 61.5038 94.777 61.4286C94.752 61.341 94.752 61.2596 94.777 61.1845C94.802 61.0968 94.8458 61.0217 94.9083 60.9591C94.9834 60.8965 95.0709 60.8715 95.171 60.884L97.2909 61.1845C97.491 61.2095 97.5973 61.2721 97.6098 61.3723C97.6348 61.46 97.6473 61.5351 97.6473 61.5977C97.6473 61.6728 97.6348 61.7918 97.6098 61.9545C97.5848 62.1173 97.5723 62.3302 97.5723 62.5931V76.6228C97.5723 76.9859 97.5035 77.3114 97.3659 77.5994C97.2409 77.8999 97.0345 78.0501 96.7468 78.0501C96.6093 78.0501 96.4967 77.975 96.4091 77.8248C96.3216 77.6745 96.2778 77.4304 96.2778 77.0923V72.2843C94.6644 72.7601 93.0698 73.1169 91.4939 73.3548C89.918 73.5802 88.2734 73.7054 86.5599 73.7304C86.1472 73.743 85.8345 73.624 85.6219 73.3736C85.4092 73.1232 85.3029 72.8102 85.3029 72.4345V69.4295C85.3029 69.104 85.2342 68.8786 85.0966 68.7534C84.9715 68.6282 84.7089 68.5343 84.3086 68.4717C84.2086 68.4591 84.1398 68.4153 84.1023 68.3402C84.0647 68.2525 84.0522 68.1649 84.0647 68.0772C84.0773 67.9896 84.1085 67.9145 84.1586 67.8519C84.2211 67.7767 84.2899 67.7392 84.3649 67.7392H90.9123V64.1707H87.179C86.8913 64.1707 86.6412 64.1895 86.4286 64.2271C86.2285 64.2521 86.0534 64.2646 85.9033 64.2646C85.7407 64.2646 85.5593 64.2146 85.3592 64.1144C85.1591 64.0017 84.9527 63.8264 84.7401 63.5885C84.6651 63.5134 84.6276 63.432 84.6276 63.3443C84.6276 63.2567 84.6463 63.1816 84.6838 63.119C84.7214 63.0438 84.7776 62.9938 84.8527 62.9687C84.9277 62.9437 85.009 62.9499 85.0966 62.9875C85.2592 63.0626 85.5218 63.1064 85.8845 63.119C86.2472 63.1315 86.6787 63.1378 87.179 63.1378H90.1994C90.5997 63.1378 90.8811 63.119 91.0436 63.0814C91.2187 63.0438 91.3751 63.0251 91.5127 63.0251C91.6753 63.0251 91.8378 63.0939 92.0004 63.2317C92.1755 63.3569 92.2631 63.4821 92.2631 63.6073C92.2631 63.6949 92.2506 63.8076 92.2256 63.9454C92.2131 64.0831 92.2068 64.2772 92.2068 64.5276V68.0209C92.2068 68.1837 92.1255 68.3527 91.9629 68.528C91.8128 68.6908 91.6315 68.7722 91.4189 68.7722H86.5974Z" fill="#333333"/>
<path d="M73.3619 78.6511C72.9492 78.6511 72.6365 78.5259 72.4239 78.2755C72.2112 78.0376 72.1049 77.7309 72.1049 77.3552V74.0309C72.1049 73.7054 72.0612 73.48 71.9736 73.3548C71.8861 73.2296 71.6609 73.1357 71.2982 73.0731C71.1982 73.0606 71.1294 73.0167 71.0919 72.9416C71.0543 72.854 71.0418 72.7663 71.0543 72.6787C71.0669 72.591 71.0981 72.5159 71.1481 72.4533C71.2107 72.3782 71.2795 72.3406 71.3545 72.3406H79.7217C80.0344 72.3281 80.2595 72.3093 80.3971 72.2843C80.5472 72.2467 80.6847 72.2279 80.8098 72.2279C80.9724 72.2279 81.135 72.2968 81.2976 72.4345C81.4727 72.5597 81.5602 72.6849 81.5602 72.8101C81.5602 72.8978 81.5477 73.0105 81.5227 73.1482C81.5102 73.2859 81.5039 73.48 81.5039 73.7304V77.8999C81.5039 78.0627 81.4226 78.2254 81.26 78.3882C81.11 78.5635 80.9286 78.6511 80.716 78.6511H73.3619ZM73.3994 77.1862C73.3994 77.4742 73.537 77.6182 73.8121 77.6182H80.2095V73.3736H73.3994V77.1862ZM74.0935 62.8372C73.8559 63.9391 73.4807 64.9783 72.9679 65.955C73.6433 66.4808 74.3124 66.9754 74.9753 67.4387C75.6507 67.8894 76.3198 68.3026 76.9827 68.6783C77.0952 68.7784 77.2015 68.96 77.3016 69.2229C77.4141 69.4733 77.4704 69.7112 77.4704 69.9366C77.4704 70.0117 77.4517 70.0806 77.4142 70.1432C77.3766 70.2058 77.3203 70.2559 77.2453 70.2934C77.1828 70.331 77.114 70.3498 77.0389 70.3498C76.9639 70.3498 76.8889 70.3122 76.8138 70.2371C76.1885 69.6737 75.5006 69.0977 74.7502 68.5092C73.9997 67.9207 73.2368 67.3636 72.4614 66.8377C71.9861 67.5514 71.4233 68.215 70.7729 68.8285C70.1351 69.442 69.3909 70.0055 68.5404 70.5188C68.4529 70.5689 68.3591 70.5877 68.259 70.5752C68.1715 70.5501 68.0902 70.5063 68.0151 70.4437C67.9526 70.3811 67.9151 70.3122 67.9026 70.2371C67.8901 70.162 67.9213 70.0931 67.9964 70.0305C69.1345 69.129 70.0851 68.1461 70.848 67.0818C71.6234 66.005 72.1925 64.8594 72.5552 63.6448C72.5552 63.3569 72.4551 63.1315 72.255 62.9687C72.0674 62.8059 71.7672 62.6494 71.3545 62.4992C71.267 62.4616 71.2107 62.4053 71.1857 62.3302C71.1607 62.2425 71.1607 62.1611 71.1857 62.086C71.2107 61.9983 71.2607 61.9295 71.3358 61.8794C71.4108 61.8168 71.5046 61.798 71.6172 61.8231L73.7934 62.3114C73.981 62.3489 74.081 62.4303 74.0935 62.5555C74.1061 62.6807 74.1061 62.7746 74.0935 62.8372ZM81.6165 69.9554C81.6165 70.3185 81.5477 70.6503 81.4101 70.9508C81.2851 71.2388 81.0787 71.3828 80.791 71.3828C80.6535 71.3828 80.5409 71.3076 80.4533 71.1574C80.3658 71.0071 80.322 70.763 80.322 70.4249V62.9499C80.322 62.5117 80.2157 62.2049 80.0031 62.0297C79.803 61.8544 79.4653 61.7041 78.99 61.5789C78.9025 61.5539 78.8462 61.5038 78.8212 61.4286C78.7962 61.341 78.7962 61.2596 78.8212 61.1845C78.8462 61.0968 78.89 61.0217 78.9525 60.9591C79.0276 60.8965 79.1151 60.8715 79.2152 60.884L81.3351 61.1845C81.5352 61.2095 81.6415 61.2721 81.654 61.3723C81.679 61.46 81.6915 61.5351 81.6915 61.5977C81.6915 61.6728 81.679 61.7918 81.654 61.9545C81.629 62.1173 81.6165 62.3302 81.6165 62.5931V69.9554Z" fill="#333333"/>
<path d="M158.423 92.01V94.5261C158.423 94.7253 158.481 94.8632 158.595 94.9397C158.71 95.0163 158.879 95.0738 159.101 95.1121C159.162 95.1197 159.204 95.1465 159.227 95.1925C159.258 95.2308 159.269 95.2729 159.262 95.3189C159.262 95.3648 159.246 95.407 159.216 95.4453C159.193 95.4759 159.158 95.4912 159.112 95.4912H156.918C156.872 95.4912 156.834 95.4759 156.803 95.4453C156.78 95.407 156.765 95.3648 156.757 95.3189C156.757 95.2729 156.769 95.2308 156.792 95.1925C156.822 95.1465 156.868 95.1197 156.93 95.1121C157.152 95.0738 157.32 95.0163 157.435 94.9397C157.55 94.8632 157.607 94.7253 157.607 94.5261V91.9066L155.585 88.4944C155.478 88.3182 155.359 88.188 155.229 88.1038C155.099 88.0118 154.923 87.9467 154.701 87.9084C154.639 87.9008 154.593 87.8778 154.563 87.8395C154.54 87.7935 154.528 87.7476 154.528 87.7016C154.536 87.6557 154.551 87.6174 154.574 87.5867C154.605 87.5484 154.643 87.5293 154.689 87.5293H156.677C156.723 87.5293 156.757 87.5484 156.78 87.5867C156.811 87.6174 156.826 87.6557 156.826 87.7016C156.834 87.7476 156.822 87.7935 156.792 87.8395C156.769 87.8778 156.727 87.9008 156.665 87.9084C156.435 87.9391 156.321 87.9927 156.321 88.0693C156.321 88.1382 156.37 88.2493 156.47 88.4025L158.136 91.2403L159.871 88.4025C159.97 88.2493 160.02 88.1382 160.02 88.0693C160.02 87.9927 159.905 87.9391 159.675 87.9084C159.614 87.9008 159.568 87.8778 159.538 87.8395C159.515 87.7935 159.503 87.7476 159.503 87.7016C159.511 87.6557 159.526 87.6174 159.549 87.5867C159.58 87.5484 159.618 87.5293 159.664 87.5293H161.307C161.353 87.5293 161.387 87.5484 161.41 87.5867C161.441 87.6174 161.456 87.6557 161.456 87.7016C161.464 87.7476 161.452 87.7935 161.422 87.8395C161.399 87.8778 161.357 87.9008 161.295 87.9084C161.089 87.9391 160.943 88.0042 160.859 88.1038C160.775 88.1957 160.683 88.3259 160.583 88.4944L158.423 92.01Z" fill="#333333"/>
<path d="M150.968 91.2288C151.466 91.2288 151.891 91.1943 152.243 91.1254C152.596 91.0488 152.883 90.9415 153.105 90.8037C153.327 90.6658 153.488 90.4973 153.588 90.2982C153.687 90.099 153.737 89.8731 153.737 89.6203C153.737 89.4135 153.699 89.2182 153.622 89.0344C153.546 88.8505 153.408 88.6897 153.208 88.5518C153.017 88.414 152.753 88.3067 152.416 88.2301C152.079 88.1535 151.65 88.1152 151.129 88.1152H150.646C150.486 88.1152 150.405 88.2033 150.405 88.3795V91.2288H150.968ZM150.405 94.5261C150.405 94.7253 150.463 94.8632 150.578 94.9397C150.692 95.0163 150.861 95.0738 151.083 95.1121C151.144 95.1197 151.186 95.1465 151.209 95.1925C151.24 95.2308 151.252 95.2729 151.244 95.3189C151.244 95.3648 151.229 95.407 151.198 95.4453C151.175 95.4759 151.14 95.4912 151.095 95.4912H148.9C148.854 95.4912 148.816 95.4759 148.785 95.4453C148.762 95.407 148.747 95.3648 148.739 95.3189C148.739 95.2729 148.751 95.2308 148.774 95.1925C148.804 95.1465 148.85 95.1197 148.912 95.1121C149.134 95.0738 149.302 95.0163 149.417 94.9397C149.532 94.8632 149.589 94.7253 149.589 94.5261V88.4944C149.589 88.2952 149.532 88.1574 149.417 88.0808C149.302 88.0042 149.134 87.9467 148.912 87.9084C148.85 87.9008 148.804 87.8778 148.774 87.8395C148.751 87.7935 148.739 87.7476 148.739 87.7016C148.747 87.6557 148.762 87.6174 148.785 87.5867C148.816 87.5484 148.854 87.5293 148.9 87.5293H150.796C151.393 87.5293 151.926 87.5599 152.393 87.6212C152.868 87.6825 153.266 87.7935 153.588 87.9544C153.909 88.1076 154.154 88.3182 154.323 88.5863C154.499 88.8544 154.587 89.199 154.587 89.6203C154.587 90.0339 154.499 90.3824 154.323 90.6658C154.147 90.9416 153.902 91.1637 153.588 91.3322C153.274 91.5007 152.894 91.6232 152.45 91.6998C152.006 91.7688 151.516 91.8032 150.98 91.8032H150.405V94.5261Z" fill="#333333"/>
<path d="M142.943 95.1121C143.004 95.1197 143.046 95.1465 143.069 95.1925C143.1 95.2308 143.112 95.2729 143.104 95.3189C143.104 95.3648 143.089 95.407 143.058 95.4453C143.035 95.4759 143.001 95.4912 142.955 95.4912H140.99C140.944 95.4912 140.906 95.4759 140.875 95.4453C140.852 95.407 140.837 95.3648 140.829 95.3189C140.829 95.2729 140.841 95.2308 140.864 95.1925C140.894 95.1465 140.94 95.1197 141.001 95.1121C141.224 95.0738 141.392 95.0163 141.507 94.9397C141.622 94.8555 141.714 94.7176 141.783 94.5261L144.287 87.7361C144.341 87.5982 144.44 87.5293 144.586 87.5293H144.908C145.053 87.5293 145.153 87.5982 145.206 87.7361L147.665 94.5261C147.734 94.7176 147.826 94.8555 147.941 94.9397C148.056 95.0163 148.224 95.0738 148.446 95.1121C148.508 95.1197 148.55 95.1465 148.573 95.1925C148.603 95.2308 148.615 95.2729 148.607 95.3189C148.607 95.3648 148.592 95.407 148.561 95.4453C148.538 95.4759 148.504 95.4912 148.458 95.4912H146.298C146.252 95.4912 146.214 95.4759 146.183 95.4453C146.16 95.407 146.145 95.3648 146.137 95.3189C146.137 95.2729 146.149 95.2308 146.171 95.1925C146.202 95.1465 146.248 95.1197 146.309 95.1121C146.531 95.0738 146.685 95.024 146.769 94.9627C146.853 94.8938 146.861 94.7636 146.792 94.5721L146.171 92.8717H143.069L142.472 94.5376C142.403 94.7291 142.407 94.8632 142.484 94.9397C142.568 95.0163 142.721 95.0738 142.943 95.1121ZM144.598 88.5978L143.276 92.2973H145.953L144.598 88.5978Z" fill="#333333"/>
<path d="M136.995 91.2403C137.493 91.2403 137.911 91.2058 138.248 91.1369C138.585 91.0603 138.857 90.953 139.064 90.8152C139.27 90.6773 139.416 90.5088 139.5 90.3097C139.592 90.1105 139.638 89.8846 139.638 89.6318C139.638 89.425 139.607 89.2297 139.546 89.0459C139.485 88.862 139.362 88.7012 139.178 88.5633C139.002 88.4254 138.749 88.3182 138.42 88.2416C138.098 88.1574 137.677 88.1152 137.156 88.1152H136.674C136.513 88.1152 136.433 88.2033 136.433 88.3795V91.2403H136.995ZM137.754 91.7917C137.631 91.8071 137.509 91.8147 137.386 91.8147C137.264 91.8147 137.137 91.8147 137.007 91.8147H136.433V94.5261C136.433 94.7253 136.49 94.8632 136.605 94.9397C136.72 95.0163 136.888 95.0738 137.11 95.1121C137.172 95.1197 137.214 95.1465 137.237 95.1925C137.267 95.2308 137.279 95.2729 137.271 95.3189C137.271 95.3648 137.256 95.407 137.225 95.4453C137.202 95.4759 137.168 95.4912 137.122 95.4912H134.927C134.881 95.4912 134.843 95.4759 134.813 95.4453C134.79 95.407 134.774 95.3648 134.767 95.3189C134.767 95.2729 134.778 95.2308 134.801 95.1925C134.832 95.1465 134.878 95.1197 134.939 95.1121C135.161 95.0738 135.33 95.0163 135.444 94.9397C135.559 94.8632 135.617 94.7253 135.617 94.5261V88.4944C135.617 88.2952 135.559 88.1574 135.444 88.0808C135.33 88.0042 135.161 87.9467 134.939 87.9084C134.878 87.9008 134.832 87.8778 134.801 87.8395C134.778 87.7935 134.767 87.7476 134.767 87.7016C134.774 87.6557 134.79 87.6174 134.813 87.5867C134.843 87.5484 134.881 87.5293 134.927 87.5293H136.823C137.421 87.5293 137.945 87.5599 138.397 87.6212C138.857 87.6825 139.24 87.7935 139.546 87.9544C139.86 88.1076 140.094 88.322 140.247 88.5978C140.408 88.8659 140.488 89.2105 140.488 89.6318C140.488 90.2292 140.327 90.6888 140.006 91.0105C139.684 91.3245 139.228 91.5466 138.638 91.6769L140.35 94.5261C140.45 94.7023 140.546 94.8363 140.637 94.9283C140.737 95.0202 140.898 95.0814 141.12 95.1121C141.181 95.1197 141.223 95.1465 141.246 95.1925C141.277 95.2308 141.289 95.2729 141.281 95.3189C141.281 95.3648 141.266 95.407 141.235 95.4453C141.212 95.4759 141.177 95.4912 141.132 95.4912H138.937C138.891 95.4912 138.853 95.4759 138.822 95.4453C138.799 95.407 138.784 95.3648 138.776 95.3189C138.776 95.2729 138.788 95.2308 138.811 95.1925C138.841 95.1465 138.887 95.1197 138.949 95.1121C139.171 95.0738 139.332 95.0202 139.431 94.9512C139.538 94.8746 139.538 94.7483 139.431 94.5721L137.754 91.7917Z" fill="#333333"/>
<path d="M133.761 87.5293C133.929 87.5293 134.013 87.6097 134.013 87.7706V88.7701C134.013 88.8314 133.994 88.8812 133.956 88.9195C133.918 88.9501 133.876 88.9693 133.83 88.9769C133.784 88.9846 133.738 88.9769 133.692 88.9539C133.646 88.931 133.619 88.8927 133.611 88.8391C133.558 88.594 133.5 88.414 133.439 88.2991C133.378 88.1765 133.244 88.1152 133.037 88.1152H130.498C130.329 88.1152 130.245 88.2033 130.245 88.3795V91.0794H132.543C132.742 91.0794 132.88 91.0181 132.956 90.8956C133.033 90.7654 133.09 90.5892 133.129 90.3671C133.136 90.3058 133.163 90.2637 133.209 90.2407C133.255 90.2101 133.301 90.1986 133.347 90.2062C133.401 90.2062 133.447 90.2216 133.485 90.2522C133.523 90.2752 133.542 90.3097 133.542 90.3556V92.4007C133.542 92.4466 133.523 92.4849 133.485 92.5156C133.447 92.5385 133.401 92.5538 133.347 92.5615C133.301 92.5615 133.255 92.55 133.209 92.527C133.163 92.4964 133.136 92.4504 133.129 92.3892C133.09 92.1671 133.033 91.9909 132.956 91.8607C132.88 91.7228 132.742 91.6539 132.543 91.6539H130.245V94.641C130.245 94.8172 130.329 94.9053 130.498 94.9053H133.267C133.366 94.9053 133.447 94.8823 133.508 94.8363C133.577 94.7904 133.63 94.7291 133.669 94.6525C133.715 94.5683 133.749 94.4764 133.772 94.3768C133.795 94.2772 133.814 94.17 133.83 94.0551C133.837 93.9938 133.864 93.9517 133.91 93.9287C133.956 93.8981 134.002 93.8866 134.048 93.8942C134.101 93.8942 134.147 93.9096 134.186 93.9402C134.224 93.9632 134.243 93.9976 134.243 94.0436V95.25C134.243 95.4108 134.159 95.4912 133.99 95.4912H128.74C128.694 95.4912 128.656 95.4759 128.625 95.4453C128.602 95.407 128.587 95.3648 128.579 95.3189C128.579 95.2729 128.591 95.2308 128.614 95.1925C128.644 95.1465 128.69 95.1197 128.751 95.1121C128.974 95.0738 129.142 95.0163 129.257 94.9397C129.372 94.8632 129.429 94.7253 129.429 94.5261V88.4944C129.429 88.2952 129.372 88.1574 129.257 88.0808C129.142 88.0042 128.974 87.9467 128.751 87.9084C128.69 87.9008 128.644 87.8778 128.614 87.8395C128.591 87.7935 128.579 87.7476 128.579 87.7016C128.587 87.6557 128.602 87.6174 128.625 87.5867C128.656 87.5484 128.694 87.5293 128.74 87.5293H133.761Z" fill="#333333"/>
<path d="M126.338 91.0794V88.4944C126.338 88.2952 126.28 88.1574 126.165 88.0808C126.05 88.0042 125.882 87.9467 125.66 87.9084C125.599 87.9008 125.553 87.8778 125.522 87.8395C125.499 87.7935 125.487 87.7476 125.487 87.7016C125.495 87.6557 125.51 87.6174 125.533 87.5867C125.564 87.5484 125.602 87.5293 125.648 87.5293H127.843C127.889 87.5293 127.923 87.5484 127.946 87.5867C127.977 87.6174 127.992 87.6557 127.992 87.7016C128 87.7476 127.988 87.7935 127.958 87.8395C127.935 87.8778 127.892 87.9008 127.831 87.9084C127.609 87.9467 127.441 88.0042 127.326 88.0808C127.211 88.1574 127.153 88.2952 127.153 88.4944V94.5261C127.153 94.7253 127.211 94.8632 127.326 94.9397C127.441 95.0163 127.609 95.0738 127.831 95.1121C127.892 95.1197 127.935 95.1465 127.958 95.1925C127.988 95.2308 128 95.2729 127.992 95.3189C127.992 95.3648 127.977 95.407 127.946 95.4453C127.923 95.4759 127.889 95.4912 127.843 95.4912H125.648C125.602 95.4912 125.564 95.4759 125.533 95.4453C125.51 95.407 125.495 95.3648 125.487 95.3189C125.487 95.2729 125.499 95.2308 125.522 95.1925C125.553 95.1465 125.599 95.1197 125.66 95.1121C125.882 95.0738 126.05 95.0163 126.165 94.9397C126.28 94.8632 126.338 94.7253 126.338 94.5261V91.6539H122.374V94.5261C122.374 94.7253 122.431 94.8632 122.546 94.9397C122.661 95.0163 122.83 95.0738 123.052 95.1121C123.113 95.1197 123.155 95.1465 123.178 95.1925C123.209 95.2308 123.22 95.2729 123.213 95.3189C123.213 95.3648 123.197 95.407 123.167 95.4453C123.144 95.4759 123.109 95.4912 123.063 95.4912H120.869C120.823 95.4912 120.785 95.4759 120.754 95.4453C120.731 95.407 120.716 95.3648 120.708 95.3189C120.708 95.2729 120.72 95.2308 120.742 95.1925C120.773 95.1465 120.819 95.1197 120.88 95.1121C121.102 95.0738 121.271 95.0163 121.386 94.9397C121.501 94.8632 121.558 94.7253 121.558 94.5261V88.4944C121.558 88.2952 121.501 88.1574 121.386 88.0808C121.271 88.0042 121.102 87.9467 120.88 87.9084C120.819 87.9008 120.773 87.8778 120.742 87.8395C120.72 87.7935 120.708 87.7476 120.708 87.7016C120.716 87.6557 120.731 87.6174 120.754 87.5867C120.785 87.5484 120.823 87.5293 120.869 87.5293H123.063C123.109 87.5293 123.144 87.5484 123.167 87.5867C123.197 87.6174 123.213 87.6557 123.213 87.7016C123.22 87.7476 123.209 87.7935 123.178 87.8395C123.155 87.8778 123.113 87.9008 123.052 87.9084C122.83 87.9467 122.661 88.0042 122.546 88.0808C122.431 88.1574 122.374 88.2952 122.374 88.4944V91.0794H126.338Z" fill="#333333"/>
<path d="M116.821 88.1152H115.247C115.04 88.1152 114.906 88.1995 114.845 88.368C114.784 88.5288 114.726 88.7318 114.673 88.9769C114.657 89.0305 114.627 89.0688 114.581 89.0918C114.542 89.1148 114.5 89.1224 114.454 89.1148C114.408 89.1071 114.366 89.088 114.328 89.0573C114.29 89.019 114.271 88.9693 114.271 88.908V87.7706C114.271 87.6097 114.355 87.5293 114.523 87.5293H119.946C120.115 87.5293 120.199 87.6097 120.199 87.7706V88.908C120.199 88.9693 120.18 89.019 120.141 89.0573C120.103 89.088 120.061 89.1071 120.015 89.1148C119.969 89.1224 119.923 89.1148 119.877 89.0918C119.831 89.0688 119.804 89.0305 119.797 88.9769C119.743 88.7318 119.686 88.5288 119.624 88.368C119.563 88.1995 119.429 88.1152 119.222 88.1152H117.637V94.5261C117.637 94.7253 117.694 94.8632 117.809 94.9397C117.924 95.0163 118.093 95.0738 118.315 95.1121C118.376 95.1197 118.418 95.1465 118.441 95.1925C118.472 95.2308 118.483 95.2729 118.475 95.3189C118.475 95.3648 118.46 95.407 118.43 95.4453C118.407 95.4759 118.372 95.4912 118.326 95.4912H116.132C116.086 95.4912 116.047 95.4759 116.017 95.4453C115.994 95.407 115.979 95.3648 115.971 95.3189C115.971 95.2729 115.982 95.2308 116.005 95.1925C116.036 95.1465 116.082 95.1197 116.143 95.1121C116.365 95.0738 116.534 95.0163 116.649 94.9397C116.764 94.8632 116.821 94.7253 116.821 94.5261V88.1152Z" fill="#6BB283"/>
<path d="M105.767 92.01V94.5261C105.767 94.7253 105.824 94.8632 105.939 94.9397C106.054 95.0163 106.223 95.0738 106.445 95.1121C106.506 95.1197 106.548 95.1465 106.571 95.1925C106.602 95.2308 106.613 95.2729 106.606 95.3189C106.606 95.3648 106.59 95.407 106.56 95.4453C106.537 95.4759 106.502 95.4912 106.456 95.4912H104.262C104.216 95.4912 104.178 95.4759 104.147 95.4453C104.124 95.407 104.109 95.3648 104.101 95.3189C104.101 95.2729 104.112 95.2308 104.135 95.1925C104.166 95.1465 104.212 95.1197 104.273 95.1121C104.495 95.0738 104.664 95.0163 104.779 94.9397C104.894 94.8632 104.951 94.7253 104.951 94.5261V91.9066L102.929 88.4944C102.822 88.3182 102.703 88.188 102.573 88.1038C102.443 88.0118 102.267 87.9467 102.044 87.9084C101.983 87.9008 101.937 87.8778 101.907 87.8395C101.884 87.7935 101.872 87.7476 101.872 87.7016C101.88 87.6557 101.895 87.6174 101.918 87.5867C101.949 87.5484 101.987 87.5293 102.033 87.5293H104.021C104.066 87.5293 104.101 87.5484 104.124 87.5867C104.155 87.6174 104.17 87.6557 104.17 87.7016C104.178 87.7476 104.166 87.7935 104.135 87.8395C104.112 87.8778 104.07 87.9008 104.009 87.9084C103.779 87.9391 103.664 87.9927 103.664 88.0693C103.664 88.1382 103.714 88.2493 103.814 88.4025L105.48 91.2403L107.214 88.4025C107.314 88.2493 107.364 88.1382 107.364 88.0693C107.364 87.9927 107.249 87.9391 107.019 87.9084C106.958 87.9008 106.912 87.8778 106.881 87.8395C106.858 87.7935 106.847 87.7476 106.847 87.7016C106.854 87.6557 106.87 87.6174 106.893 87.5867C106.923 87.5484 106.962 87.5293 107.008 87.5293H108.651C108.697 87.5293 108.731 87.5484 108.754 87.5867C108.785 87.6174 108.8 87.6557 108.8 87.7016C108.808 87.7476 108.796 87.7935 108.765 87.8395C108.743 87.8778 108.7 87.9008 108.639 87.9084C108.432 87.9391 108.287 88.0042 108.203 88.1038C108.118 88.1957 108.026 88.3259 107.927 88.4944L105.767 92.01Z" fill="#333333"/>
<path d="M98.379 88.0132C97.8352 88.0132 97.4101 88.1243 97.1037 88.3464C96.7973 88.5685 96.5637 88.8519 96.4029 89.1966C96.2497 89.5413 96.1539 89.9204 96.1156 90.334C96.0773 90.7476 96.0582 91.1421 96.0582 91.5174C96.0582 91.8621 96.0773 92.2374 96.1156 92.6433C96.1616 93.0493 96.2612 93.4284 96.4144 93.7807C96.5752 94.1331 96.805 94.4279 97.1037 94.6654C97.4024 94.8952 97.8122 95.0101 98.333 95.0101C98.7696 95.0101 99.1411 94.9679 99.4475 94.8837C99.7538 94.7994 100.01 94.6769 100.217 94.516V92.1608C100.217 91.9846 100.171 91.8544 100.079 91.7701C99.9874 91.6782 99.8304 91.6131 99.6083 91.5748C99.547 91.5672 99.5011 91.5442 99.4704 91.5059C99.4475 91.4599 99.436 91.414 99.436 91.368C99.4436 91.3221 99.459 91.2838 99.4819 91.2531C99.5126 91.2148 99.5509 91.1957 99.5968 91.1957H101.653C101.699 91.1957 101.734 91.2148 101.757 91.2531C101.787 91.2838 101.803 91.3221 101.803 91.368C101.81 91.414 101.799 91.4599 101.768 91.5059C101.745 91.5442 101.703 91.5672 101.642 91.5748C101.42 91.6131 101.263 91.6782 101.171 91.7701C101.079 91.8544 101.033 91.9846 101.033 92.1608V94.4126C101.033 94.5811 100.96 94.7382 100.815 94.8837C100.677 95.0292 100.481 95.1594 100.229 95.2743C99.9836 95.3815 99.6964 95.4658 99.367 95.5271C99.0453 95.5883 98.7007 95.619 98.333 95.619C97.7433 95.619 97.2454 95.5117 96.8395 95.2973C96.4412 95.0828 96.1195 94.7918 95.8744 94.4241C95.6369 94.0565 95.4646 93.6237 95.3574 93.1259C95.2578 92.628 95.208 92.0918 95.208 91.5174C95.208 90.9046 95.2578 90.3455 95.3574 89.84C95.4646 89.3345 95.6408 88.9017 95.8859 88.5417C96.131 88.1817 96.4565 87.9022 96.8624 87.703C97.2684 87.5039 97.7739 87.4043 98.379 87.4043C98.9075 87.4043 99.3479 87.4464 99.7002 87.5307C100.06 87.6073 100.382 87.7145 100.665 87.8524C100.742 87.8907 100.803 87.929 100.849 87.9673C100.895 88.0056 100.918 88.0668 100.918 88.1511V89.4838C100.918 89.5451 100.899 89.5949 100.861 89.6332C100.822 89.6638 100.78 89.683 100.734 89.6906C100.688 89.6983 100.642 89.6906 100.596 89.6676C100.55 89.6447 100.524 89.6064 100.516 89.5528C100.462 89.277 100.401 89.0434 100.332 88.8519C100.271 88.6604 100.167 88.5034 100.022 88.3809C99.884 88.2507 99.6849 88.1587 99.4245 88.1051C99.1717 88.0439 98.8232 88.0132 98.379 88.0132Z" fill="#333333"/>
<path d="M91.4799 95.619C90.8901 95.619 90.3999 95.5117 90.0093 95.2973C89.6263 95.0828 89.3199 94.7918 89.0901 94.4241C88.8604 94.0565 88.6995 93.6237 88.6076 93.1259C88.5157 92.628 88.4697 92.0918 88.4697 91.5174C88.4697 90.9046 88.5195 90.3455 88.6191 89.84C88.7187 89.3345 88.8833 88.9017 89.1131 88.5417C89.3505 88.1817 89.6608 87.9022 90.0437 87.703C90.4267 87.5039 90.9054 87.4043 91.4799 87.4043C92.0543 87.4043 92.533 87.5115 92.916 87.726C93.2989 87.9405 93.6053 88.2353 93.8351 88.6106C94.0649 88.9783 94.2257 89.4111 94.3176 89.9089C94.4172 90.4068 94.467 90.9429 94.467 91.5174C94.467 92.1301 94.4172 92.6893 94.3176 93.1948C94.2181 93.6926 94.0534 94.1216 93.8236 94.4816C93.5938 94.8416 93.2875 95.1211 92.9045 95.3203C92.5215 95.5194 92.0466 95.619 91.4799 95.619ZM91.4799 95.0101C91.9777 95.0101 92.3683 94.899 92.6517 94.6769C92.9351 94.4548 93.1496 94.1714 93.2951 93.8267C93.4406 93.482 93.5287 93.1067 93.5594 92.7008C93.5977 92.2872 93.6168 91.8927 93.6168 91.5174C93.6168 91.2876 93.6091 91.0425 93.5938 90.7821C93.5862 90.514 93.5594 90.2536 93.5134 90.0008C93.4675 89.7404 93.3985 89.4915 93.3066 89.254C93.2224 89.0089 93.0998 88.7983 92.939 88.6221C92.7858 88.4383 92.5866 88.2928 92.3415 88.1856C92.1041 88.0707 91.8169 88.0132 91.4799 88.0132C91.1428 88.0132 90.8556 88.0668 90.6182 88.1741C90.3807 88.2736 90.1816 88.4115 90.0207 88.5877C89.8676 88.7638 89.7412 88.9668 89.6416 89.1966C89.5497 89.4264 89.4808 89.6715 89.4348 89.9319C89.3889 90.1923 89.3582 90.4604 89.3429 90.7361C89.3276 91.0042 89.3199 91.2646 89.3199 91.5174C89.3199 91.7472 89.3237 91.9923 89.3314 92.2527C89.3467 92.5131 89.3774 92.7735 89.4233 93.0339C89.4693 93.2944 89.5344 93.5433 89.6186 93.7807C89.7105 94.0182 89.8369 94.2288 89.9978 94.4126C90.1586 94.5965 90.3578 94.742 90.5952 94.8492C90.8403 94.9564 91.1352 95.0101 91.4799 95.0101Z" fill="#333333"/>
<path d="M86.9008 94.9053C87.0004 94.9053 87.0808 94.8785 87.1421 94.8249C87.211 94.7636 87.2646 94.6832 87.3029 94.5836C87.3412 94.484 87.3719 94.373 87.3948 94.2504C87.4255 94.1279 87.4523 94.0015 87.4753 93.8713C87.4829 93.8176 87.5097 93.7832 87.5557 93.7679C87.6016 93.7449 87.6514 93.7411 87.705 93.7564C87.7587 93.7717 87.8046 93.7985 87.8429 93.8368C87.8812 93.8751 87.9004 93.9249 87.9004 93.9862V95.25C87.9004 95.4108 87.8161 95.4912 87.6476 95.4912H82.6384C82.5924 95.4912 82.5541 95.4759 82.5235 95.4453C82.5005 95.407 82.4852 95.3648 82.4775 95.3189C82.4775 95.2729 82.489 95.2308 82.512 95.1925C82.5426 95.1465 82.5886 95.1197 82.6499 95.1121C82.872 95.0738 83.0405 95.0163 83.1554 94.9397C83.2703 94.8632 83.3277 94.7253 83.3277 94.5261V88.4944C83.3277 88.2952 83.2703 88.1574 83.1554 88.0808C83.0405 88.0042 82.872 87.9467 82.6499 87.9084C82.5886 87.9008 82.5426 87.8778 82.512 87.8395C82.489 87.7935 82.4775 87.7476 82.4775 87.7016C82.4852 87.6557 82.5005 87.6174 82.5235 87.5867C82.5541 87.5484 82.5924 87.5293 82.6384 87.5293H84.8328C84.8787 87.5293 84.9132 87.5484 84.9362 87.5867C84.9668 87.6174 84.9821 87.6557 84.9821 87.7016C84.9898 87.7476 84.9783 87.7935 84.9477 87.8395C84.9247 87.8778 84.8826 87.9008 84.8213 87.9084C84.5992 87.9467 84.4307 88.0042 84.3158 88.0808C84.2009 88.1574 84.1434 88.2952 84.1434 88.4944V94.641C84.1434 94.8172 84.2277 94.9053 84.3962 94.9053H86.9008Z" fill="#333333"/>
<path d="M78.8627 95.619C78.2729 95.619 77.7827 95.5117 77.3921 95.2973C77.0091 95.0828 76.7027 94.7918 76.4729 94.4241C76.2432 94.0565 76.0823 93.6237 75.9904 93.1259C75.8985 92.628 75.8525 92.0918 75.8525 91.5174C75.8525 90.9046 75.9023 90.3455 76.0019 89.84C76.1015 89.3345 76.2661 88.9017 76.4959 88.5417C76.7334 88.1817 77.0436 87.9022 77.4265 87.703C77.8095 87.5039 78.2882 87.4043 78.8627 87.4043C79.4371 87.4043 79.9158 87.5115 80.2988 87.726C80.6818 87.9405 80.9881 88.2353 81.2179 88.6106C81.4477 88.9783 81.6085 89.4111 81.7005 89.9089C81.8 90.4068 81.8498 90.9429 81.8498 91.5174C81.8498 92.1301 81.8 92.6893 81.7005 93.1948C81.6009 93.6926 81.4362 94.1216 81.2064 94.4816C80.9766 94.8416 80.6703 95.1211 80.2873 95.3203C79.9043 95.5194 79.4295 95.619 78.8627 95.619ZM78.8627 95.0101C79.3605 95.0101 79.7512 94.899 80.0345 94.6769C80.3179 94.4548 80.5324 94.1714 80.6779 93.8267C80.8235 93.482 80.9115 93.1067 80.9422 92.7008C80.9805 92.2872 80.9996 91.8927 80.9996 91.5174C80.9996 91.2876 80.992 91.0425 80.9766 90.7821C80.969 90.514 80.9422 90.2536 80.8962 90.0008C80.8503 89.7404 80.7813 89.4915 80.6894 89.254C80.6052 89.0089 80.4826 88.7983 80.3218 88.6221C80.1686 88.4383 79.9694 88.2928 79.7243 88.1856C79.4869 88.0707 79.1997 88.0132 78.8627 88.0132C78.5257 88.0132 78.2384 88.0668 78.001 88.1741C77.7635 88.2736 77.5644 88.4115 77.4036 88.5877C77.2504 88.7638 77.124 88.9668 77.0244 89.1966C76.9325 89.4264 76.8636 89.6715 76.8176 89.9319C76.7717 90.1923 76.741 90.4604 76.7257 90.7361C76.7104 91.0042 76.7027 91.2646 76.7027 91.5174C76.7027 91.7472 76.7066 91.9923 76.7142 92.2527C76.7295 92.5131 76.7602 92.7735 76.8061 93.0339C76.8521 93.2944 76.9172 93.5433 77.0014 93.7807C77.0934 94.0182 77.2197 94.2288 77.3806 94.4126C77.5414 94.5965 77.7406 94.742 77.978 94.8492C78.2231 94.9564 78.518 95.0101 78.8627 95.0101Z" fill="#333333"/>
<path d="M73.4353 91.0794V88.4944C73.4353 88.2952 73.3778 88.1574 73.263 88.0808C73.1481 88.0042 72.9796 87.9467 72.7574 87.9084C72.6962 87.9008 72.6502 87.8778 72.6196 87.8395C72.5966 87.7935 72.5851 87.7476 72.5851 87.7016C72.5928 87.6557 72.6081 87.6174 72.6311 87.5867C72.6617 87.5484 72.7 87.5293 72.7459 87.5293H74.9403C74.9863 87.5293 75.0208 87.5484 75.0438 87.5867C75.0744 87.6174 75.0897 87.6557 75.0897 87.7016C75.0974 87.7476 75.0859 87.7935 75.0552 87.8395C75.0323 87.8778 74.9901 87.9008 74.9289 87.9084C74.7067 87.9467 74.5382 88.0042 74.4233 88.0808C74.3085 88.1574 74.251 88.2952 74.251 88.4944V94.5261C74.251 94.7253 74.3085 94.8632 74.4233 94.9397C74.5382 95.0163 74.7067 95.0738 74.9289 95.1121C74.9901 95.1197 75.0323 95.1465 75.0552 95.1925C75.0859 95.2308 75.0974 95.2729 75.0897 95.3189C75.0897 95.3648 75.0744 95.407 75.0438 95.4453C75.0208 95.4759 74.9863 95.4912 74.9403 95.4912H72.7459C72.7 95.4912 72.6617 95.4759 72.6311 95.4453C72.6081 95.407 72.5928 95.3648 72.5851 95.3189C72.5851 95.2729 72.5966 95.2308 72.6196 95.1925C72.6502 95.1465 72.6962 95.1197 72.7574 95.1121C72.9796 95.0738 73.1481 95.0163 73.263 94.9397C73.3778 94.8632 73.4353 94.7253 73.4353 94.5261V91.6539H69.4716V94.5261C69.4716 94.7253 69.529 94.8632 69.6439 94.9397C69.7588 95.0163 69.9273 95.0738 70.1494 95.1121C70.2107 95.1197 70.2528 95.1465 70.2758 95.1925C70.3064 95.2308 70.3179 95.2729 70.3103 95.3189C70.3103 95.3648 70.295 95.407 70.2643 95.4453C70.2413 95.4759 70.2069 95.4912 70.1609 95.4912H67.9665C67.9206 95.4912 67.8823 95.4759 67.8516 95.4453C67.8286 95.407 67.8133 95.3648 67.8057 95.3189C67.8057 95.2729 67.8172 95.2308 67.8401 95.1925C67.8708 95.1465 67.9167 95.1197 67.978 95.1121C68.2001 95.0738 68.3686 95.0163 68.4835 94.9397C68.5984 94.8632 68.6559 94.7253 68.6559 94.5261V88.4944C68.6559 88.2952 68.5984 88.1574 68.4835 88.0808C68.3686 88.0042 68.2001 87.9467 67.978 87.9084C67.9167 87.9008 67.8708 87.8778 67.8401 87.8395C67.8172 87.7935 67.8057 87.7476 67.8057 87.7016C67.8133 87.6557 67.8286 87.6174 67.8516 87.5867C67.8823 87.5484 67.9206 87.5293 67.9665 87.5293H70.1609C70.2069 87.5293 70.2413 87.5484 70.2643 87.5867C70.295 87.6174 70.3103 87.6557 70.3103 87.7016C70.3179 87.7476 70.3064 87.7935 70.2758 87.8395C70.2528 87.8778 70.2107 87.9008 70.1494 87.9084C69.9273 87.9467 69.7588 88.0042 69.6439 88.0808C69.529 88.1574 69.4716 88.2952 69.4716 88.4944V91.0794H73.4353Z" fill="#333333"/>
<path d="M64.7728 87.4043C65.5924 87.4043 66.2932 87.546 66.8753 87.8294C66.9519 87.8677 67.0132 87.906 67.0591 87.9443C67.1051 87.9826 67.1281 88.0439 67.1281 88.1281V89.4608C67.1281 89.5221 67.1089 89.5719 67.0706 89.6102C67.0323 89.6408 66.9902 89.66 66.9442 89.6676C66.8983 89.6753 66.8523 89.6676 66.8064 89.6447C66.7604 89.6217 66.7336 89.5834 66.726 89.5298C66.68 89.277 66.6226 89.0549 66.5536 88.8634C66.4923 88.6719 66.3966 88.5149 66.2664 88.3924C66.1362 88.2621 65.9524 88.1664 65.7149 88.1051C65.4775 88.0439 65.1634 88.0132 64.7728 88.0132C64.4358 88.0132 64.1486 88.0668 63.9111 88.1741C63.6737 88.2736 63.4746 88.4115 63.3137 88.5877C63.1605 88.7638 63.0341 88.9668 62.9346 89.1966C62.8427 89.4264 62.7737 89.6715 62.7278 89.9319C62.6818 90.1923 62.6512 90.4604 62.6359 90.7361C62.6205 91.0042 62.6129 91.2646 62.6129 91.5174C62.6129 91.7472 62.6167 91.9923 62.6244 92.2527C62.6397 92.5131 62.6703 92.7735 62.7163 93.0339C62.7622 93.2944 62.8273 93.5433 62.9116 93.7807C63.0035 94.0182 63.1299 94.2288 63.2907 94.4126C63.4516 94.5965 63.6507 94.742 63.8882 94.8492C64.1333 94.9564 64.4282 95.0101 64.7728 95.0101C65.2477 95.0101 65.6575 94.9564 66.0021 94.8492C66.3545 94.742 66.6838 94.6003 66.9902 94.4241C67.0438 94.3935 67.0898 94.3935 67.1281 94.4241C67.174 94.4471 67.2047 94.4816 67.22 94.5275C67.243 94.5735 67.2506 94.6233 67.243 94.6769C67.243 94.7305 67.2238 94.7726 67.1855 94.8033C66.8791 95.0484 66.5268 95.2475 66.1285 95.4007C65.7379 95.5462 65.286 95.619 64.7728 95.619C64.1831 95.619 63.6928 95.5117 63.3022 95.2973C62.9193 95.0828 62.6129 94.7918 62.3831 94.4241C62.1533 94.0565 61.9925 93.6237 61.9006 93.1259C61.8087 92.628 61.7627 92.0918 61.7627 91.5174C61.7627 90.9046 61.8125 90.3455 61.9121 89.84C62.0116 89.3345 62.1763 88.9017 62.4061 88.5417C62.6435 88.1817 62.9537 87.9022 63.3367 87.703C63.7197 87.5039 64.1984 87.4043 64.7728 87.4043Z" fill="#333333"/>
<path d="M58.3528 92.01V94.5261C58.3528 94.7253 58.4102 94.8632 58.5251 94.9397C58.64 95.0163 58.8085 95.0738 59.0306 95.1121C59.0919 95.1197 59.134 95.1465 59.157 95.1925C59.1877 95.2308 59.1991 95.2729 59.1915 95.3189C59.1915 95.3648 59.1762 95.407 59.1455 95.4453C59.1226 95.4759 59.0881 95.4912 59.0421 95.4912H56.8477C56.8018 95.4912 56.7635 95.4759 56.7328 95.4453C56.7099 95.407 56.6945 95.3648 56.6869 95.3189C56.6869 95.2729 56.6984 95.2308 56.7213 95.1925C56.752 95.1465 56.7979 95.1197 56.8592 95.1121C57.0813 95.0738 57.2498 95.0163 57.3647 94.9397C57.4796 94.8632 57.5371 94.7253 57.5371 94.5261V91.9066L55.515 88.4944C55.4078 88.3182 55.289 88.188 55.1588 88.1038C55.0286 88.0118 54.8525 87.9467 54.6303 87.9084C54.5691 87.9008 54.5231 87.8778 54.4925 87.8395C54.4695 87.7935 54.458 87.7476 54.458 87.7016C54.4657 87.6557 54.481 87.6174 54.504 87.5867C54.5346 87.5484 54.5729 87.5293 54.6189 87.5293H56.6065C56.6524 87.5293 56.6869 87.5484 56.7099 87.5867C56.7405 87.6174 56.7558 87.6557 56.7558 87.7016C56.7635 87.7476 56.752 87.7935 56.7213 87.8395C56.6984 87.8778 56.6562 87.9008 56.595 87.9084C56.3652 87.9391 56.2503 87.9927 56.2503 88.0693C56.2503 88.1382 56.3001 88.2493 56.3997 88.4025L58.0656 91.2403L59.8004 88.4025C59.9 88.2493 59.9498 88.1382 59.9498 88.0693C59.9498 87.9927 59.8349 87.9391 59.6051 87.9084C59.5438 87.9008 59.4979 87.8778 59.4672 87.8395C59.4442 87.7935 59.4328 87.7476 59.4328 87.7016C59.4404 87.6557 59.4557 87.6174 59.4787 87.5867C59.5094 87.5484 59.5476 87.5293 59.5936 87.5293H61.2365C61.2825 87.5293 61.317 87.5484 61.3399 87.5867C61.3706 87.6174 61.3859 87.6557 61.3859 87.7016C61.3935 87.7476 61.3821 87.7935 61.3514 87.8395C61.3284 87.8778 61.2863 87.9008 61.225 87.9084C61.0182 87.9391 60.8727 88.0042 60.7885 88.1038C60.7042 88.1957 60.6123 88.3259 60.5127 88.4944L58.3528 92.01Z" fill="#333333"/>
<path d="M51.7185 95.619C51.3278 95.619 50.9832 95.5883 50.6845 95.5271C50.3934 95.4735 50.1177 95.3815 49.8573 95.2513C49.7807 95.213 49.7194 95.1747 49.6734 95.1364C49.6275 95.0981 49.6045 95.0369 49.6045 94.9526V93.9646C49.6045 93.9033 49.6236 93.8573 49.6619 93.8267C49.7002 93.7884 49.7424 93.7692 49.7883 93.7692C49.8419 93.7616 49.8879 93.7692 49.9262 93.7922C49.9721 93.8152 49.9989 93.8535 50.0066 93.9071C50.0372 94.1139 50.087 94.2901 50.156 94.4356C50.2249 94.5735 50.3245 94.6884 50.4547 94.7803C50.5849 94.8645 50.7496 94.9258 50.9487 94.9641C51.1555 94.9947 51.4121 95.0101 51.7185 95.0101C52.247 95.0101 52.6759 94.8684 53.0052 94.585C53.3346 94.3016 53.4993 93.9224 53.4993 93.4475C53.4993 93.1259 53.4035 92.8578 53.212 92.6433C53.0206 92.4288 52.7831 92.2374 52.4997 92.0689C52.2163 91.9004 51.9061 91.7433 51.5691 91.5978C51.2321 91.4446 50.9219 91.2685 50.6385 91.0693C50.3551 90.8702 50.1177 90.6366 49.9262 90.3685C49.7347 90.0927 49.639 89.7519 49.639 89.3459C49.639 89.0319 49.7002 88.7562 49.8228 88.5187C49.9453 88.2736 50.1138 88.0707 50.3283 87.9098C50.5428 87.7413 50.7917 87.6149 51.0751 87.5307C51.3661 87.4464 51.6725 87.4043 51.9942 87.4043C52.3159 87.4043 52.6184 87.4349 52.9018 87.4962C53.1929 87.5498 53.4686 87.6417 53.7291 87.7719C53.8056 87.8102 53.8669 87.8485 53.9129 87.8868C53.9588 87.9251 53.9818 87.9864 53.9818 88.0707V89.0587C53.9818 89.12 53.9627 89.1698 53.9244 89.2081C53.8861 89.2387 53.8401 89.2579 53.7865 89.2655C53.7405 89.2655 53.6946 89.254 53.6486 89.2311C53.6103 89.2081 53.5874 89.1698 53.5797 89.1162C53.5414 88.9094 53.4916 88.7332 53.4303 88.5877C53.3767 88.4421 53.2925 88.3273 53.1776 88.243C53.0627 88.1587 52.9095 88.0975 52.718 88.0592C52.5342 88.0209 52.2929 88.0017 51.9942 88.0017C51.7874 88.0017 51.5921 88.0285 51.4083 88.0822C51.2244 88.1281 51.0636 88.2047 50.9257 88.3119C50.7955 88.4115 50.6883 88.5455 50.604 88.7141C50.5274 88.8749 50.4891 89.0702 50.4891 89.3C50.4891 89.6064 50.5849 89.863 50.7764 90.0698C50.9679 90.2689 51.2053 90.4489 51.4887 90.6097C51.7721 90.7706 52.0823 90.9276 52.4193 91.0808C52.7563 91.234 53.0665 91.414 53.3499 91.6208C53.6333 91.8199 53.8707 92.065 54.0622 92.3561C54.2537 92.6395 54.3495 92.9995 54.3495 93.4361C54.3495 93.819 54.2767 94.1484 54.1312 94.4241C53.9933 94.6999 53.8056 94.9258 53.5682 95.102C53.3308 95.2781 53.0512 95.4083 52.7295 95.4926C52.4078 95.5769 52.0708 95.619 51.7185 95.619Z" fill="#333333"/>
<path d="M45.5873 91.2288C46.0851 91.2288 46.5102 91.1943 46.8626 91.1254C47.2149 91.0488 47.5021 90.9415 47.7242 90.8037C47.9464 90.6658 48.1072 90.4973 48.2068 90.2982C48.3063 90.099 48.3561 89.8731 48.3561 89.6203C48.3561 89.4135 48.3178 89.2182 48.2412 89.0344C48.1646 88.8505 48.0268 88.6897 47.8276 88.5518C47.6361 88.414 47.3719 88.3067 47.0349 88.2301C46.6979 88.1535 46.269 88.1152 45.7481 88.1152H45.2656C45.1047 88.1152 45.0243 88.2033 45.0243 88.3795V91.2288H45.5873ZM45.0243 94.5261C45.0243 94.7253 45.0818 94.8632 45.1966 94.9397C45.3115 95.0163 45.48 95.0738 45.7022 95.1121C45.7634 95.1197 45.8056 95.1465 45.8285 95.1925C45.8592 95.2308 45.8707 95.2729 45.863 95.3189C45.863 95.3648 45.8477 95.407 45.817 95.4453C45.7941 95.4759 45.7596 95.4912 45.7136 95.4912H43.5192C43.4733 95.4912 43.435 95.4759 43.4044 95.4453C43.3814 95.407 43.3661 95.3648 43.3584 95.3189C43.3584 95.2729 43.3699 95.2308 43.3929 95.1925C43.4235 95.1465 43.4695 95.1197 43.5307 95.1121C43.7529 95.0738 43.9214 95.0163 44.0363 94.9397C44.1511 94.8632 44.2086 94.7253 44.2086 94.5261V88.4944C44.2086 88.2952 44.1511 88.1574 44.0363 88.0808C43.9214 88.0042 43.7529 87.9467 43.5307 87.9084C43.4695 87.9008 43.4235 87.8778 43.3929 87.8395C43.3699 87.7935 43.3584 87.7476 43.3584 87.7016C43.3661 87.6557 43.3814 87.6174 43.4044 87.5867C43.435 87.5484 43.4733 87.5293 43.5192 87.5293H45.4149C46.0124 87.5293 46.5447 87.5599 47.0119 87.6212C47.4868 87.6825 47.8851 87.7935 48.2068 87.9544C48.5285 88.1076 48.7736 88.3182 48.9421 88.5863C49.1182 88.8544 49.2063 89.199 49.2063 89.6203C49.2063 90.0339 49.1182 90.3824 48.9421 90.6658C48.7659 90.9416 48.5208 91.1637 48.2068 91.3322C47.8927 91.5007 47.5136 91.6232 47.0694 91.6998C46.6251 91.7688 46.1349 91.8032 45.5988 91.8032H45.0243V94.5261Z" fill="#6BB283"/>
<path d="M36.5263 94.5261C36.5263 94.7253 36.5837 94.8632 36.6986 94.9397C36.8135 95.0163 36.982 95.0738 37.2041 95.1121C37.2654 95.1197 37.3075 95.1465 37.3305 95.1925C37.3611 95.2308 37.3726 95.2729 37.365 95.3189C37.365 95.3648 37.3496 95.407 37.319 95.4453C37.296 95.4759 37.2616 95.4912 37.2156 95.4912H35.0212C34.9752 95.4912 34.9369 95.4759 34.9063 95.4453C34.8833 95.407 34.868 95.3648 34.8604 95.3189C34.8604 95.2729 34.8718 95.2308 34.8948 95.1925C34.9255 95.1465 34.9714 95.1197 35.0327 95.1121C35.2548 95.0738 35.4233 95.0163 35.5382 94.9397C35.6531 94.8632 35.7105 94.7253 35.7105 94.5261V88.4944C35.7105 88.2952 35.6531 88.1574 35.5382 88.0808C35.4233 88.0042 35.2548 87.9467 35.0327 87.9084C34.9714 87.9008 34.9255 87.8778 34.8948 87.8395C34.8718 87.7935 34.8604 87.7476 34.8604 87.7016C34.868 87.6557 34.8833 87.6174 34.9063 87.5867C34.9369 87.5484 34.9752 87.5293 35.0212 87.5293H37.2156C37.2616 87.5293 37.296 87.5484 37.319 87.5867C37.3496 87.6174 37.365 87.6557 37.365 87.7016C37.3726 87.7476 37.3611 87.7935 37.3305 87.8395C37.3075 87.8778 37.2654 87.9008 37.2041 87.9084C36.982 87.9467 36.8135 88.0042 36.6986 88.0808C36.5837 88.1574 36.5263 88.2952 36.5263 88.4944V94.5261Z" fill="#333333"/>
<path d="M28.4157 94.5261C28.4157 94.7253 28.4732 94.8632 28.5881 94.9397C28.703 95.0163 28.8715 95.0738 29.0936 95.1121C29.1549 95.1197 29.197 95.1465 29.22 95.1925C29.2506 95.2308 29.2621 95.2729 29.2544 95.3189C29.2544 95.3648 29.2391 95.407 29.2085 95.4453C29.1855 95.4759 29.151 95.4912 29.1051 95.4912H27.0485C27.0026 95.4912 26.9643 95.4759 26.9337 95.4453C26.9107 95.407 26.8954 95.3648 26.8877 95.3189C26.8877 95.2729 26.8992 95.2308 26.9222 95.1925C26.9528 95.1465 26.9988 95.1197 27.06 95.1121C27.2822 95.0738 27.4507 95.0163 27.5655 94.9397C27.6804 94.8632 27.7379 94.7253 27.7379 94.5261V88.4944C27.7379 88.2952 27.6804 88.1574 27.5655 88.0808C27.4507 88.0042 27.2822 87.9467 27.06 87.9084C26.9988 87.9008 26.9528 87.8778 26.9222 87.8395C26.8992 87.7935 26.8877 87.7476 26.8877 87.7016C26.8954 87.6557 26.9107 87.6174 26.9337 87.5867C26.9643 87.5484 27.0026 87.5293 27.0485 87.5293H28.5996C28.7068 87.5293 28.791 87.5829 28.8523 87.6901L32.6437 94.2964V88.4944C32.6437 88.2952 32.5863 88.1574 32.4714 88.0808C32.3565 88.0042 32.188 87.9467 31.9658 87.9084C31.9046 87.9008 31.8586 87.8778 31.828 87.8395C31.805 87.7935 31.7935 87.7476 31.7935 87.7016C31.8012 87.6557 31.8165 87.6174 31.8395 87.5867C31.8701 87.5484 31.9084 87.5293 31.9544 87.5293H34.0109C34.0568 87.5293 34.0913 87.5484 34.1143 87.5867C34.1449 87.6174 34.1602 87.6557 34.1602 87.7016C34.1679 87.7476 34.1564 87.7935 34.1258 87.8395C34.1028 87.8778 34.0607 87.9008 33.9994 87.9084C33.7773 87.9467 33.6088 88.0042 33.4939 88.0808C33.379 88.1574 33.3216 88.2952 33.3216 88.4944V95.25C33.3216 95.4108 33.2411 95.4912 33.0803 95.4912H32.6092C32.502 95.4912 32.4177 95.4376 32.3565 95.3304L28.4157 88.4714V94.5261Z" fill="#333333"/>
<path d="M23.2123 95.619C22.6225 95.619 22.1323 95.5117 21.7417 95.2973C21.3587 95.0828 21.0523 94.7918 20.8226 94.4241C20.5928 94.0565 20.4319 93.6237 20.34 93.1259C20.2481 92.628 20.2021 92.0918 20.2021 91.5174C20.2021 90.9046 20.2519 90.3455 20.3515 89.84C20.4511 89.3345 20.6158 88.9017 20.8455 88.5417C21.083 88.1817 21.3932 87.9022 21.7761 87.703C22.1591 87.5039 22.6378 87.4043 23.2123 87.4043C23.7867 87.4043 24.2654 87.5115 24.6484 87.726C25.0314 87.9405 25.3377 88.2353 25.5675 88.6106C25.7973 88.9783 25.9582 89.4111 26.0501 89.9089C26.1496 90.4068 26.1994 90.9429 26.1994 91.5174C26.1994 92.1301 26.1496 92.6893 26.0501 93.1948C25.9505 93.6926 25.7858 94.1216 25.556 94.4816C25.3263 94.8416 25.0199 95.1211 24.6369 95.3203C24.2539 95.5194 23.7791 95.619 23.2123 95.619ZM23.2123 95.0101C23.7101 95.0101 24.1008 94.899 24.3842 94.6769C24.6676 94.4548 24.882 94.1714 25.0275 93.8267C25.1731 93.482 25.2612 93.1067 25.2918 92.7008C25.3301 92.2872 25.3492 91.8927 25.3492 91.5174C25.3492 91.2876 25.3416 91.0425 25.3263 90.7821C25.3186 90.514 25.2918 90.2536 25.2458 90.0008C25.1999 89.7404 25.1309 89.4915 25.039 89.254C24.9548 89.0089 24.8322 88.7983 24.6714 88.6221C24.5182 88.4383 24.3191 88.2928 24.074 88.1856C23.8365 88.0707 23.5493 88.0132 23.2123 88.0132C22.8753 88.0132 22.588 88.0668 22.3506 88.1741C22.1132 88.2736 21.914 88.4115 21.7532 88.5877C21.6 88.7638 21.4736 88.9668 21.374 89.1966C21.2821 89.4264 21.2132 89.6715 21.1672 89.9319C21.1213 90.1923 21.0906 90.4604 21.0753 90.7361C21.06 91.0042 21.0523 91.2646 21.0523 91.5174C21.0523 91.7472 21.0562 91.9923 21.0638 92.2527C21.0791 92.5131 21.1098 92.7735 21.1557 93.0339C21.2017 93.2944 21.2668 93.5433 21.3511 93.7807C21.443 94.0182 21.5693 94.2288 21.7302 94.4126C21.891 94.5965 22.0902 94.742 22.3276 94.8492C22.5727 94.9564 22.8676 95.0101 23.2123 95.0101Z" fill="#333333"/>
<path d="M16.9392 95.619C16.5485 95.619 16.2039 95.5883 15.9052 95.5271C15.6141 95.4735 15.3384 95.3815 15.078 95.2513C15.0014 95.213 14.9401 95.1747 14.8941 95.1364C14.8482 95.0981 14.8252 95.0369 14.8252 94.9526V93.9646C14.8252 93.9033 14.8443 93.8573 14.8826 93.8267C14.9209 93.7884 14.9631 93.7692 15.009 93.7692C15.0626 93.7616 15.1086 93.7692 15.1469 93.7922C15.1928 93.8152 15.2197 93.8535 15.2273 93.9071C15.2579 94.1139 15.3077 94.2901 15.3767 94.4356C15.4456 94.5735 15.5452 94.6884 15.6754 94.7803C15.8056 94.8645 15.9703 94.9258 16.1694 94.9641C16.3762 94.9947 16.6328 95.0101 16.9392 95.0101C17.4677 95.0101 17.8966 94.8684 18.2259 94.585C18.5553 94.3016 18.72 93.9224 18.72 93.4475C18.72 93.1259 18.6242 92.8578 18.4328 92.6433C18.2413 92.4288 18.0038 92.2374 17.7204 92.0689C17.437 91.9004 17.1268 91.7433 16.7898 91.5978C16.4528 91.4446 16.1426 91.2685 15.8592 91.0693C15.5758 90.8702 15.3384 90.6366 15.1469 90.3685C14.9554 90.0927 14.8597 89.7519 14.8597 89.3459C14.8597 89.0319 14.9209 88.7562 15.0435 88.5187C15.166 88.2736 15.3345 88.0707 15.549 87.9098C15.7635 87.7413 16.0124 87.6149 16.2958 87.5307C16.5868 87.4464 16.8932 87.4043 17.2149 87.4043C17.5366 87.4043 17.8391 87.4349 18.1225 87.4962C18.4136 87.5498 18.6893 87.6417 18.9498 87.7719C19.0264 87.8102 19.0876 87.8485 19.1336 87.8868C19.1795 87.9251 19.2025 87.9864 19.2025 88.0707V89.0587C19.2025 89.12 19.1834 89.1698 19.1451 89.2081C19.1068 89.2387 19.0608 89.2579 19.0072 89.2655C18.9612 89.2655 18.9153 89.254 18.8693 89.2311C18.831 89.2081 18.8081 89.1698 18.8004 89.1162C18.7621 88.9094 18.7123 88.7332 18.651 88.5877C18.5974 88.4421 18.5132 88.3273 18.3983 88.243C18.2834 88.1587 18.1302 88.0975 17.9387 88.0592C17.7549 88.0209 17.5136 88.0017 17.2149 88.0017C17.0081 88.0017 16.8128 88.0285 16.629 88.0822C16.4451 88.1281 16.2843 88.2047 16.1464 88.3119C16.0162 88.4115 15.909 88.5455 15.8247 88.7141C15.7481 88.8749 15.7099 89.0702 15.7099 89.3C15.7099 89.6064 15.8056 89.863 15.9971 90.0698C16.1886 90.2689 16.426 90.4489 16.7094 90.6097C16.9928 90.7706 17.303 90.9276 17.64 91.0808C17.977 91.234 18.2872 91.414 18.5706 91.6208C18.854 91.8199 19.0915 92.065 19.2829 92.3561C19.4744 92.6395 19.5702 92.9995 19.5702 93.4361C19.5702 93.819 19.4974 94.1484 19.3519 94.4241C19.214 94.6999 19.0264 94.9258 18.7889 95.102C18.5515 95.2781 18.2719 95.4083 17.9502 95.4926C17.6285 95.5769 17.2915 95.619 16.9392 95.619Z" fill="#333333"/>
<path d="M9.02902 95.1121C9.0903 95.1197 9.13242 95.1465 9.1554 95.1925C9.18604 95.2308 9.19753 95.2729 9.18987 95.3189C9.18987 95.3648 9.17455 95.407 9.14391 95.4453C9.12093 95.4759 9.08647 95.4912 9.04051 95.4912H7.07589C7.02993 95.4912 6.99163 95.4759 6.961 95.4453C6.93802 95.407 6.9227 95.3648 6.91504 95.3189C6.91504 95.2729 6.92653 95.2308 6.94951 95.1925C6.98014 95.1465 7.0261 95.1197 7.08737 95.1121C7.3095 95.0738 7.478 95.0163 7.59289 94.9397C7.70778 94.8555 7.79969 94.7176 7.86863 94.5261L10.3732 87.7361C10.4269 87.5982 10.5264 87.5293 10.672 87.5293H10.9936C11.1392 87.5293 11.2387 87.5982 11.2924 87.7361L13.751 94.5261C13.8199 94.7176 13.9119 94.8555 14.0267 94.9397C14.1416 95.0163 14.3101 95.0738 14.5323 95.1121C14.5935 95.1197 14.6357 95.1465 14.6586 95.1925C14.6893 95.2308 14.7008 95.2729 14.6931 95.3189C14.6931 95.3648 14.6778 95.407 14.6472 95.4453C14.6242 95.4759 14.5897 95.4912 14.5438 95.4912H12.3838C12.3379 95.4912 12.2996 95.4759 12.2689 95.4453C12.2459 95.407 12.2306 95.3648 12.223 95.3189C12.223 95.2729 12.2345 95.2308 12.2574 95.1925C12.2881 95.1465 12.334 95.1197 12.3953 95.1121C12.6174 95.0738 12.7706 95.024 12.8549 94.9627C12.9391 94.8938 12.9468 94.7636 12.8778 94.5721L12.2574 92.8717H9.1554L8.55797 94.5376C8.48904 94.7291 8.49287 94.8632 8.56946 94.9397C8.65371 95.0163 8.8069 95.0738 9.02902 95.1121ZM10.6834 88.5978L9.3622 92.2973H12.0391L10.6834 88.5978Z" fill="#333333"/>
<path d="M0.698932 95.4912C0.652976 95.4912 0.614679 95.4759 0.584042 95.4453C0.561064 95.407 0.545745 95.3648 0.538086 95.3189C0.538086 95.2729 0.549575 95.2308 0.572553 95.1925C0.60319 95.1465 0.649147 95.1197 0.710421 95.1121C0.932543 95.0738 1.10105 95.0163 1.21594 94.9397C1.33083 94.8632 1.38827 94.7253 1.38827 94.5261V88.4944C1.38827 88.2952 1.33083 88.1574 1.21594 88.0808C1.10105 88.0042 0.932543 87.9467 0.710421 87.9084C0.649147 87.9008 0.60319 87.8778 0.572553 87.8395C0.549575 87.7935 0.538086 87.7476 0.538086 87.7016C0.545745 87.6557 0.561064 87.6174 0.584042 87.5867C0.614679 87.5484 0.652976 87.5293 0.698932 87.5293H2.67505C3.28013 87.5293 3.83544 87.5829 4.34096 87.6901C4.84647 87.7974 5.27923 88.0003 5.63922 88.2991C5.99921 88.5901 6.27877 88.9961 6.47792 89.5169C6.67706 90.0301 6.77663 90.6965 6.77663 91.516C6.77663 92.3356 6.67323 93.0058 6.46643 93.5266C6.25962 94.0398 5.9724 94.4419 5.60475 94.7329C5.2371 95.024 4.79669 95.2231 4.28351 95.3304C3.77799 95.4376 3.22652 95.4912 2.62909 95.4912H0.698932ZM2.204 94.641C2.204 94.8172 2.28825 94.9053 2.45675 94.9053H2.85887C3.93118 94.9053 4.7086 94.6334 5.19114 94.0896C5.68134 93.5457 5.92644 92.6879 5.92644 91.516C5.92644 91.0335 5.88049 90.5854 5.78857 90.1718C5.70432 89.7582 5.55113 89.3982 5.32901 89.0918C5.10689 88.7854 4.80818 88.548 4.43287 88.3795C4.06522 88.2033 3.598 88.1152 3.03121 88.1152H2.45675C2.28825 88.1152 2.204 88.2033 2.204 88.3795V94.641Z" fill="#6BB283"/>
</svg>
