<svg width="873" height="873" viewBox="0 0 873 873" fill="none" xmlns="http://www.w3.org/2000/svg">
<g opacity="0.1" filter="url(#filter0_f_1516_426)">
<path d="M436.04 842.214C498.717 842.214 558.842 817.389 603.262 773.171L773.171 603.262C817.389 558.842 842.214 498.717 842.214 436.04C842.214 373.364 817.389 313.238 773.171 268.819L603.262 98.9093C558.8 54.7702 498.691 30 436.04 30C373.39 30 313.28 54.7702 268.819 98.9093L98.9093 268.819C54.7702 313.28 30 373.39 30 436.04C30 498.691 54.7702 558.8 98.9093 603.262L268.819 773.171C313.238 817.389 373.364 842.214 436.04 842.214Z" fill="#AF9B73"/>
<path d="M335.281 685.696C328.793 685.7 322.556 683.192 317.879 678.697C313.201 674.201 310.447 668.068 310.194 661.586C309.972 654.926 312.374 648.445 316.884 643.54C321.393 638.634 327.649 635.696 334.304 635.358C337.744 634.976 341.226 635.306 344.534 636.326C347.841 637.347 350.904 639.037 353.531 641.291C356.158 643.545 358.293 646.315 359.805 649.429C361.316 652.543 362.171 655.934 362.317 659.393C362.462 662.851 361.895 666.303 360.651 669.533C359.406 672.763 357.511 675.702 355.082 678.169C352.654 680.636 349.744 682.576 346.534 683.871C343.324 685.166 339.882 685.787 336.421 685.696H335.281ZM426.671 221.906C420.444 221.668 414.236 222.717 408.434 224.987C402.631 227.257 397.36 230.701 392.949 235.102C373.727 254.161 363.627 293.747 364.441 346.365C365.581 411.527 380.731 538.43 432.046 603.917C439.406 613.719 448.32 622.248 458.437 629.168C468.482 636.746 480.715 640.862 493.298 640.897C497.892 640.917 502.476 640.481 506.982 639.593C536.142 632.589 572.144 600.008 600.001 556.675C602.075 553.466 604.922 550.83 608.281 549.008C611.64 547.186 615.403 546.238 619.224 546.249C623.433 546.228 627.561 547.415 631.116 549.67C636.145 552.887 639.713 557.947 641.053 563.764C642.393 569.581 641.399 575.692 638.283 580.785C603.748 635.521 558.297 673.966 516.431 683.741H515.453C508.098 685.149 500.625 685.858 493.136 685.858C471.813 685.702 451.054 678.991 433.675 666.636C419.493 657.033 406.951 645.207 396.533 631.611C324.692 539.244 319.805 366.403 319.479 347.017C318.665 300.915 325.344 238.523 361.183 203.009C369.718 194.474 379.889 187.751 391.086 183.244C402.284 178.737 414.277 176.539 426.345 176.782H430.58C442.647 176.548 454.637 178.75 465.833 183.257C477.029 187.763 487.202 194.481 495.742 203.009C531.581 238.523 538.26 300.752 537.446 347.017C536.886 425.488 516.488 502.542 478.148 571.011C476.763 573.81 474.814 576.293 472.424 578.303C470.033 580.313 467.252 581.806 464.256 582.69C461.26 583.573 458.114 583.827 455.016 583.436C451.917 583.045 448.932 582.017 446.25 580.416C443.568 578.816 441.246 576.678 439.43 574.137C437.614 571.596 436.343 568.706 435.697 565.65C435.052 562.594 435.046 559.438 435.679 556.38C436.312 553.321 437.571 550.427 439.377 547.878C475.025 486.714 493.329 416.99 492.321 346.203C493.298 293.584 483.198 253.999 463.813 234.939C459.444 230.526 454.204 227.074 448.425 224.802C442.647 222.529 436.458 221.488 430.254 221.743L426.671 221.906Z" fill="white"/>
</g>
<defs>
<filter id="filter0_f_1516_426" x="0" y="0" width="872.215" height="872.215" filterUnits="userSpaceOnUse" color-interpolation-filters="sRGB">
<feFlood flood-opacity="0" result="BackgroundImageFix"/>
<feBlend mode="normal" in="SourceGraphic" in2="BackgroundImageFix" result="shape"/>
<feGaussianBlur stdDeviation="15" result="effect1_foregroundBlur_1516_426"/>
</filter>
</defs>
</svg>
