<svg width="138" height="96" viewBox="0 0 138 96" fill="none" xmlns="http://www.w3.org/2000/svg">
<path d="M68.9951 59.6786C73.5617 59.6786 77.9425 57.8699 81.179 54.6481L93.5587 42.2683C96.7805 39.0319 98.5892 34.6511 98.5892 30.0844C98.5892 25.5178 96.7805 21.137 93.5587 17.9005L81.179 5.52079C77.9395 2.30478 73.5598 0.5 68.9951 0.5C64.4303 0.5 60.0507 2.30478 56.8112 5.52079L44.4314 17.9005C41.2154 21.14 39.4106 25.5197 39.4106 30.0844C39.4106 34.6492 41.2154 39.0288 44.4314 42.2683L56.8112 54.6481C60.0476 57.8699 64.4284 59.6786 68.9951 59.6786Z" fill="#AF9B73"/>
<path d="M61.6531 48.2746C61.1804 48.2749 60.726 48.0922 60.3852 47.7646C60.0443 47.4371 59.8437 46.9902 59.8252 46.5179C59.8091 46.0327 59.9841 45.5605 60.3127 45.2031C60.6412 44.8456 61.097 44.6316 61.5819 44.6069C61.8326 44.5791 62.0863 44.6031 62.3273 44.6775C62.5683 44.7518 62.7914 44.875 62.9828 45.0392C63.1742 45.2034 63.3298 45.4052 63.4399 45.6321C63.5501 45.859 63.6124 46.1061 63.623 46.3581C63.6336 46.6101 63.5923 46.8616 63.5016 47.0969C63.4109 47.3323 63.2728 47.5464 63.0959 47.7262C62.9189 47.9059 62.7069 48.0473 62.473 48.1416C62.2391 48.236 61.9883 48.2812 61.7362 48.2746H61.6531ZM68.3118 14.4825C67.8582 14.4651 67.4059 14.5415 66.9831 14.707C66.5603 14.8724 66.1763 15.1233 65.8549 15.4439C64.4543 16.8326 63.7184 19.7169 63.7777 23.5507C63.8608 28.2984 64.9647 37.5447 68.7035 42.3161C69.2397 43.0303 69.8893 43.6517 70.6264 44.1559C71.3583 44.7081 72.2496 45.0079 73.1664 45.0105C73.5011 45.012 73.8351 44.9802 74.1634 44.9155C76.2881 44.4051 78.9112 42.0313 80.9408 38.874C81.092 38.6402 81.2994 38.4481 81.5441 38.3154C81.7889 38.1827 82.063 38.1135 82.3414 38.1144C82.6481 38.1128 82.9489 38.1993 83.2079 38.3636C83.5743 38.598 83.8343 38.9667 83.9319 39.3905C84.0296 39.8144 83.9571 40.2596 83.7301 40.6307C81.2138 44.6188 77.9023 47.42 74.8519 48.1321H74.7806C74.2447 48.2347 73.7002 48.2864 73.1545 48.2864C71.601 48.275 70.0885 47.7861 68.8222 46.8858C67.7888 46.1862 66.875 45.3245 66.116 44.3339C60.8816 37.604 60.5255 25.0106 60.5018 23.5982C60.4425 20.2391 60.9291 15.6932 63.5404 13.1056C64.1622 12.4837 64.9033 11.9939 65.7192 11.6655C66.535 11.3371 67.4088 11.177 68.2881 11.1947H68.5967C69.4759 11.1777 70.3495 11.3381 71.1653 11.6665C71.981 11.9948 72.7222 12.4843 73.3444 13.1056C75.9557 15.6932 76.4424 20.2273 76.383 23.5982C76.3422 29.3156 74.856 34.9298 72.0626 39.9185C71.9617 40.1225 71.8196 40.3034 71.6455 40.4499C71.4713 40.5963 71.2687 40.7051 71.0504 40.7695C70.8321 40.8338 70.6029 40.8524 70.3771 40.8238C70.1513 40.7953 69.9339 40.7204 69.7384 40.6038C69.543 40.4872 69.3738 40.3315 69.2415 40.1463C69.1092 39.9612 69.0166 39.7506 68.9695 39.528C68.9225 39.3053 68.922 39.0753 68.9682 38.8525C69.0143 38.6296 69.1061 38.4188 69.2376 38.2331C71.835 33.7766 73.1686 28.6965 73.0952 23.5388C73.1664 19.705 72.4305 16.8208 71.0181 15.432C70.6998 15.1105 70.3179 14.859 69.8969 14.6934C69.4759 14.5279 69.025 14.452 68.573 14.4706L68.3118 14.4825Z" fill="white"/>
<path d="M133.854 93.5535H122.59C122.471 93.5551 122.352 93.5329 122.241 93.4883C122.131 93.4436 122.03 93.3774 121.945 93.2935C121.86 93.2096 121.792 93.1096 121.746 92.9994C121.7 92.8892 121.676 92.7709 121.676 92.6514V88.0936H133.854V93.5535ZM137.783 86.3013H117.748V93.1143C117.748 93.6936 117.978 94.2491 118.387 94.6586C118.797 95.0682 119.352 95.2983 119.931 95.2983H137.736L137.783 86.3013ZM1.28534 93.8858L2.37732 95.5001C6.20414 94.7865 9.72077 92.9184 12.4544 90.147C15.1821 92.92 18.6955 94.7886 22.5196 95.5001L23.6235 93.8858C21.5226 93.5772 15.8134 91.144 14.6502 86.3251H10.2348C9.0479 91.144 3.36248 93.5772 1.27347 93.8858M0.193359 85.2449H24.9885V83.3696H14.5197V80.8651H22.8282V79.0491H7.14881C7.02779 79.0507 6.90767 79.0282 6.79541 78.983C6.68315 78.9378 6.58099 78.8707 6.49486 78.7857C6.40874 78.7007 6.34036 78.5994 6.29368 78.4877C6.24701 78.376 6.22299 78.2562 6.223 78.1352V76.5447H22.5315V70.3964H2.35358V72.1886H18.6027V74.6693H2.31798V79.0135C2.3164 79.2524 2.3623 79.4893 2.453 79.7103C2.5437 79.9314 2.67741 80.1322 2.84636 80.3012C3.0153 80.4701 3.21613 80.6038 3.43717 80.6945C3.65821 80.7852 3.89506 80.8311 4.13399 80.8295H10.5909V83.334H0.193359V85.2449ZM42.9231 95.3814H46.7213V69.9691H42.9231V79.1204H38.1753V81.3874H42.9231V86.7167C41.9761 87.1111 40.9576 87.3051 39.932 87.2865H34.5552C34.3128 87.2865 34.0803 87.1902 33.9089 87.0188C33.7375 86.8474 33.6412 86.6149 33.6412 86.3725V73.7435H40.5729V71.9157H29.7125V87.3458C29.7248 87.8171 29.9199 88.2652 30.2566 88.5952C30.5933 88.9253 31.0451 89.1114 31.5166 89.1144H39.9438C40.9816 89.1719 42.0155 88.9463 42.9349 88.4615L42.9231 95.3814ZM49.0002 95.3814H52.7984V69.9691H49.0002V95.3814ZM61.6648 77.1738H65.7122V82.0402H62.3769C62.2809 82.0402 62.1857 82.0211 62.0971 81.984C62.0085 81.9469 61.9281 81.8925 61.8607 81.824C61.7933 81.7555 61.7403 81.6743 61.7046 81.585C61.6689 81.4958 61.6513 81.4004 61.6529 81.3043L61.6648 77.1738ZM60.2167 83.8444H69.3561V70.61H65.7122V75.3578H61.6648V70.61H58.0209V81.601C58.0209 81.8894 58.0777 82.1749 58.188 82.4414C58.2984 82.7078 58.4601 82.9498 58.664 83.1537C58.8679 83.3576 59.11 83.5194 59.3764 83.6297C59.6428 83.7401 59.9284 83.7969 60.2167 83.7969M77.273 84.3429H80.9169V69.9691H77.273V75.8207H75.3383V69.9691H71.7063V84.3429H75.3383V77.6011H77.273V84.3429ZM77.273 95.3458H80.9169V86.3369H60.9289V88.1648H77.2849L77.273 95.3458ZM94.258 82.8711C92.3471 82.8711 90.8041 80.9838 90.8041 78.6574C90.8041 76.3311 92.3471 74.432 94.258 74.432C96.169 74.432 97.7002 76.3192 97.7002 78.6574C97.7002 80.9957 96.1571 82.8711 94.258 82.8711ZM108.667 81.4586H112.798V79.6189H108.667V69.9691H104.715V86.9304C103.55 87.2173 102.354 87.3569 101.154 87.3458H96.4064V84.3547C99.4093 83.6426 101.593 81.3637 101.593 78.6812C101.547 77.5755 101.187 76.5057 100.557 75.596C99.9266 74.6863 99.0513 73.974 98.0325 73.5418H102.353V71.7257H96.4183V69.1738H92.4658V71.7257H86.5904V73.5418H90.8041C89.7853 73.974 88.91 74.6863 88.2797 75.596C87.6494 76.5057 87.29 77.5755 87.2432 78.6812C87.2432 81.3993 89.4747 83.6782 92.5133 84.3785V87.3458H86.1157V89.0906H101.071C102.273 89.1166 103.472 88.9686 104.632 88.6514V95.3458H108.667V81.4586ZM125 72.5922H130.412V70.7762H115.314V72.5922H120.798C120.769 74.5808 120.17 76.5193 119.072 78.1773C117.973 79.8353 116.422 81.1431 114.602 81.9453L115.789 83.4527C118.659 82.4588 121.148 80.5962 122.911 78.1233C124.667 80.6154 127.156 82.4988 130.032 83.512L131.219 81.9453C129.389 81.1526 127.826 79.8484 126.718 78.1893C125.611 76.5302 125.006 74.5867 124.976 72.5922M137.807 84.3429V69.9691H133.83V75.8444H129.237V77.6248H133.83V84.3429H137.807Z" fill="#AF9B73"/>
</svg>
