<svg width="200" height="201" viewBox="0 0 200 201" fill="none" xmlns="http://www.w3.org/2000/svg">
<g clip-path="url(#clip0_1366_2056)">
<path d="M17.0024 81.7619H27.3444L31.0595 109.214L32.2548 109.134L36.5907 81.7619H44.8909L49.0509 108.019L50.2528 107.94L54.187 71.4766H64.4792L55.8703 119.27L45.1399 119.984L41.2621 95.531H40.2196L36.2488 120.574L26.1326 121.244L17.0024 81.7619Z" fill="#FF0558"/>
<path d="M67.8521 81.7617L61.1821 119.253H69.2167L70.123 113.195H77.7259L78.6124 119.253H86.7233L79.9769 81.7617H67.8521ZM71.1356 106.377L73.4597 90.783H74.4557L76.7399 106.377H71.1356Z" fill="#FF0558"/>
<path d="M176.254 81.7617H164.129L157.459 119.253H165.494L166.4 113.195H174.003L174.89 119.253H183.001L176.254 81.7617ZM167.413 106.377L169.737 90.783H170.733L173.017 106.377H167.413Z" fill="#FF0558"/>
<path d="M118.267 81.3848C110.873 81.3848 107.331 85.3994 107.331 91.6104V109.407C107.331 115.618 110.873 119.633 118.267 119.633C125.661 119.633 129.203 115.618 129.203 109.407V102.971H120.983V110.167C120.983 112.135 120.229 112.821 118.267 112.821C116.305 112.821 115.551 112.138 115.551 110.167V90.8506C115.551 88.8831 116.305 88.1963 118.267 88.1963C120.229 88.1963 120.983 88.8798 120.983 90.8506V95.0941H129.203V91.6104C129.203 85.4126 125.661 81.3848 118.267 81.3848Z" fill="#FF0558"/>
<path d="M84.5024 89.562H91.2753V119.253H99.4427V89.562H105.419V81.7617H84.5024V89.562Z" fill="#FF0558"/>
<path d="M146.893 96.5992H141.043V81.7617H132.823V119.253H141.043V104.23H146.893V119.253H155.114V81.7617H146.893V96.5992Z" fill="#FF0558"/>
</g>
<defs>
<clipPath id="clip0_1366_2056">
<rect width="166.003" height="58.0625" fill="white" transform="translate(16.9985 71.4688)"/>
</clipPath>
</defs>
</svg>
