<svg width="2727" height="1104" viewBox="0 0 2727 1104" fill="none" xmlns="http://www.w3.org/2000/svg">
<g opacity="0.1" filter="url(#filter0_f_1513_414)">
<path d="M2696.67 30L745.763 958.819C583.984 1035.35 448.094 1073.74 338.204 1073.74C213.759 1073.74 123.424 1025.04 67.424 927.51C32.2016 864.893 21.8681 785.504 36.3127 689.218C50.7573 592.932 89.202 490.434 151.425 381.351C203.314 293.14 288.315 177.224 406.649 33.4787C366.511 104.13 337.078 181.704 319.537 263.074C288.426 411.541 316.426 520.5 403.538 590.074C444.983 622.501 501.983 638.776 574.65 638.776C632.651 638.776 697.985 628.34 770.652 607.468L2696.67 30Z" fill="black"/>
</g>
<defs>
<filter id="filter0_f_1513_414" x="0" y="0" width="2726.67" height="1103.74" filterUnits="userSpaceOnUse" color-interpolation-filters="sRGB">
<feFlood flood-opacity="0" result="BackgroundImageFix"/>
<feBlend mode="normal" in="SourceGraphic" in2="BackgroundImageFix" result="shape"/>
<feGaussianBlur stdDeviation="15" result="effect1_foregroundBlur_1513_414"/>
</filter>
</defs>
</svg>
