<svg width="1760" height="625" viewBox="0 0 1760 625" fill="none" xmlns="http://www.w3.org/2000/svg">
<g opacity="0.1" filter="url(#filter0_f_1516_416)">
<path d="M30 135.278H135.858L173.885 416.269L186.119 415.454L230.501 135.278H315.459L358.04 404.043L370.342 403.228L410.612 30H515.96L427.841 519.204L318.008 526.505L278.315 276.215H267.644L227.001 532.55L123.454 539.411L30 135.278Z" fill="#FF0558"/>
<path d="M550.483 135.275L482.211 519.031H564.45L573.728 457.019H651.549L660.623 519.031H743.644L674.59 135.275H550.483ZM584.093 387.23L607.881 227.615H618.076L641.456 387.23H584.093Z" fill="#FF0558"/>
<path d="M1660.06 135.275H1535.95L1467.68 519.031H1549.92L1559.2 457.019H1637.02L1646.09 519.031H1729.11L1660.06 135.275ZM1569.56 387.23L1593.35 227.615H1603.55L1626.93 387.23H1569.56Z" fill="#FF0558"/>
<path d="M1066.51 131.418C990.834 131.418 954.574 172.51 954.574 236.085V418.25C954.574 481.824 990.834 522.917 1066.51 522.917C1142.2 522.917 1178.46 481.824 1178.46 418.25V352.366H1094.31V426.027C1094.31 446.166 1086.6 453.196 1066.51 453.196C1046.43 453.196 1038.72 446.2 1038.72 426.027V228.308C1038.72 208.169 1046.43 201.139 1066.51 201.139C1086.6 201.139 1094.31 208.135 1094.31 228.308V271.744H1178.46V236.085C1178.46 172.646 1142.2 131.418 1066.51 131.418Z" fill="#FF0558"/>
<path d="M720.912 215.117H790.238V519.031H873.837V215.117H935.006V135.275H720.912V215.117Z" fill="#FF0558"/>
<path d="M1359.53 287.148H1299.65V135.275H1215.51V519.031H1299.65V365.257H1359.53V519.031H1443.67V135.275H1359.53V287.148Z" fill="#FF0558"/>
</g>
<defs>
<filter id="filter0_f_1516_416" x="0" y="0" width="1759.12" height="569.41" filterUnits="userSpaceOnUse" color-interpolation-filters="sRGB">
<feFlood flood-opacity="0" result="BackgroundImageFix"/>
<feBlend mode="normal" in="SourceGraphic" in2="BackgroundImageFix" result="shape"/>
<feGaussianBlur stdDeviation="15" result="effect1_foregroundBlur_1516_416"/>
</filter>
</defs>
</svg>
