<svg width="108" height="68" viewBox="0 0 108 68" fill="none" xmlns="http://www.w3.org/2000/svg">
<path d="M92.6962 28.3456C84.3178 28.3456 78.125 22.3515 78.125 14.1718C78.125 5.99209 84.3178 -0.00195312 92.6962 -0.00195312C101.075 -0.00195312 107.267 5.99209 107.267 14.1718C107.267 22.3515 101.075 28.3456 92.6962 28.3456ZM92.6962 22.9145C97.5975 22.9145 101.24 19.2386 101.24 14.1718C101.24 9.0719 97.5975 5.42911 92.6962 5.42911C87.795 5.42911 84.1522 9.0719 84.1522 14.1718C84.1522 19.2386 87.795 22.9145 92.6962 22.9145Z" fill="#0A0A0A"/>
<path d="M57.3281 3.705C57.3281 2.04064 58.6774 0.691406 60.3417 0.691406C62.0061 0.691406 63.3553 2.04064 63.3553 3.705V15.6102C63.3553 19.3322 66.3726 22.3494 70.0945 22.3494H74.1678C75.6402 22.3494 76.8337 23.543 76.8337 25.0153C76.8337 26.4876 75.6402 27.6811 74.1678 27.6811H67.0809C61.6946 27.6811 57.3281 23.3147 57.3281 17.9284V3.705Z" fill="#0A0A0A"/>
<path d="M50.0789 27.6811C48.7688 27.6811 47.5993 26.8598 47.1547 25.6275L46.008 22.4488H35.5432L34.3417 25.7792C33.93 26.9205 32.8469 27.6811 31.6337 27.6811C29.61 27.6811 28.2179 25.6483 28.9495 23.7615L36.7631 3.60925C37.4451 1.85046 39.1376 0.691406 41.024 0.691406C42.9104 0.691406 44.6029 1.85046 45.2848 3.60926L52.9772 23.4488C53.7672 25.4861 52.264 27.6811 50.0789 27.6811ZM37.3977 17.2164H44.1535L41.4016 9.55429C41.1907 8.96722 40.3605 8.96723 40.1496 9.55429L37.3977 17.2164Z" fill="#0A0A0A"/>
<path d="M18.6815 3.70501C18.6815 2.04064 20.0308 0.691406 21.6951 0.691406C23.3595 0.691406 24.7087 2.04064 24.7087 3.705V24.6676C24.7087 26.3319 23.3595 27.6811 21.6951 27.6811C20.0308 27.6811 18.6815 26.3319 18.6815 24.6676V16.7197H6.75961V24.6676C6.75961 26.3319 5.41038 27.6811 3.74602 27.6811C2.08165 27.6811 0.732422 26.3319 0.732422 24.6676V3.705C0.732422 2.04064 2.08165 0.691406 3.74602 0.691406C5.41038 0.691406 6.75961 2.04064 6.75961 3.705V11.388H18.6815V3.70501Z" fill="#0A0A0A"/>
<path d="M89.5214 67.97C87.857 67.97 86.5078 66.6208 86.5078 64.9564V50.0549C86.5078 44.3302 91.1486 39.6895 96.8732 39.6895C103.894 39.6895 108 43.5972 108 49.5581C108 55.5853 103.894 59.493 96.8732 59.493H92.535V64.9564C92.535 66.6208 91.1858 67.97 89.5214 67.97ZM92.535 54.1613H96.6083C99.9531 54.1613 101.973 52.5717 101.973 49.5581C101.973 46.5776 99.9531 45.0212 96.6083 45.0212C94.3587 45.0212 92.535 46.8449 92.535 49.0945V54.1613Z" fill="#0A0A0A"/>
<path d="M68.3544 67.9999C59.976 67.9999 53.7832 62.0058 53.7832 53.8261C53.7832 45.6464 59.976 39.6523 68.3544 39.6523C76.7329 39.6523 82.9257 45.6464 82.9257 53.8261C82.9257 62.0058 76.7329 67.9999 68.3544 67.9999ZM68.3544 62.5688C73.2557 62.5688 76.8985 58.8929 76.8985 53.8261C76.8985 48.7262 73.2557 45.0834 68.3544 45.0834C63.4532 45.0834 59.8104 48.7262 59.8104 53.8261C59.8104 58.8929 63.4532 62.5688 68.3544 62.5688Z" fill="#0A0A0A"/>
<path d="M44.1737 43.3593C44.1737 41.6949 45.5229 40.3457 47.1873 40.3457C48.8517 40.3457 50.2009 41.6949 50.2009 43.3593V64.3218C50.2009 65.9862 48.8517 67.3354 47.1873 67.3354C45.5229 67.3354 44.1737 65.9862 44.1737 64.3218V56.374H32.2518V64.3219C32.2518 65.9862 30.9026 67.3354 29.2382 67.3354C27.5738 67.3354 26.2246 65.9862 26.2246 64.3219V43.3593C26.2246 41.6949 27.5738 40.3457 29.2382 40.3457C30.9026 40.3457 32.2518 41.6949 32.2518 43.3593V51.0423H44.1737V43.3593Z" fill="#0A0A0A"/>
<path d="M11.7563 39.6816C16.3841 39.6816 20.1138 41.8487 21.7312 45.1786C22.5473 46.8588 21.0111 48.4906 19.1432 48.4906C17.5413 48.4906 16.3033 47.1545 15.1604 46.032C14.2987 45.1856 13.0148 44.7153 11.3589 44.7153C8.54405 44.7153 6.98757 45.8413 6.98757 47.464C6.98757 49.4841 9.07391 50.1795 14.3394 51.2723C20.5653 52.5639 22.6848 55.6437 22.6848 59.6839C22.6848 64.85 17.8166 67.996 11.7895 67.996C6.50185 67.996 2.34268 65.7183 0.722917 61.8932C0.00824619 60.2054 1.53202 58.6241 3.36482 58.6241C4.98168 58.6241 6.25828 59.9664 7.36189 61.1481C8.40701 62.2671 10.0843 62.9293 12.22 62.9293C14.6706 62.9293 16.492 61.7039 16.492 59.9488C16.492 57.7962 14.6706 56.9352 9.8687 56.0411C4.00709 54.9482 0.827912 52.5307 0.827912 47.464C0.827912 42.5959 5.66292 39.6816 11.7563 39.6816Z" fill="#0A0A0A"/>
</svg>
