<svg width="400" height="400" viewBox="0 0 400 400" fill="none" xmlns="http://www.w3.org/2000/svg">
<path d="M333.331 167L138.24 259.882C122.062 267.535 108.473 271.374 97.4845 271.374C85.0399 271.374 76.0065 266.504 70.4065 256.751C66.8842 250.489 65.8509 242.55 67.2953 232.922C68.7398 223.293 72.5843 213.043 78.8065 202.135C83.9955 193.314 92.4955 181.722 104.329 167.348C100.315 174.413 97.3719 182.17 95.6178 190.307C92.5066 205.154 95.3067 216.05 104.018 223.007C108.162 226.25 113.862 227.878 121.129 227.878C126.929 227.878 133.463 226.834 140.729 224.747L333.331 167Z" fill="white"/>
</svg>
