<svg width="166" height="60" viewBox="0 0 166 60" fill="none" xmlns="http://www.w3.org/2000/svg">
<path d="M0.00292969 11.2619H10.3449L14.06 38.7138L15.2552 38.6342L19.5912 11.2619H27.8914L32.0514 37.5194L33.2533 37.4398L37.1875 0.976562H47.4797L38.8708 48.7703L28.1404 49.4836L24.2626 25.031H23.2201L19.2493 50.0742L9.13307 50.7444L0.00292969 11.2619Z" fill="#FF0558"/>
<path d="M50.8526 11.2617L44.1826 48.7535H52.2171L53.1235 42.6951H60.7264L61.6129 48.7535H69.7238L62.9774 11.2617H50.8526ZM54.1361 35.8769L56.4602 20.283H57.4562L59.7404 35.8769H54.1361Z" fill="#FF0558"/>
<path d="M159.255 11.2617H147.13L140.46 48.7535H148.494L149.401 42.6951H157.004L157.89 48.7535H166.001L159.255 11.2617ZM150.413 35.8769L152.738 20.283H153.734L156.018 35.8769H150.413Z" fill="#FF0558"/>
<path d="M101.267 10.8848C93.8736 10.8848 90.3311 14.8994 90.3311 21.1104V38.9074C90.3311 45.1184 93.8736 49.133 101.267 49.133C108.661 49.133 112.204 45.1184 112.204 38.9074V32.4707H103.983V39.6672C103.983 41.6346 103.229 42.3214 101.267 42.3214C99.3052 42.3214 98.5515 41.638 98.5515 39.6672V20.3506C98.5515 18.3831 99.3052 17.6963 101.267 17.6963C103.229 17.6963 103.983 18.3798 103.983 20.3506V24.5941H112.204V21.1104C112.204 14.9126 108.661 10.8848 101.267 10.8848Z" fill="#FF0558"/>
<path d="M67.5029 19.062H74.2758V48.7535H82.4432V19.062H88.4193V11.2617H67.5029V19.062Z" fill="#FF0558"/>
<path d="M129.894 26.0992H124.044V11.2617H115.823V48.7535H124.044V33.7302H129.894V48.7535H138.114V11.2617H129.894V26.0992Z" fill="#FF0558"/>
</svg>
