<svg width="124" height="136" viewBox="0 0 124 136" fill="none" xmlns="http://www.w3.org/2000/svg">
<path fill-rule="evenodd" clip-rule="evenodd" d="M48.0372 65.3968C38.4849 60.6863 31.6418 51.3173 30.4739 40.2559C19.9638 45.4387 12.7334 56.2611 12.7334 68.7722C12.7334 86.3217 26.9599 100.548 44.5092 100.548C51.0027 100.548 57.0412 98.6006 62.0725 95.2574C53.5063 89.5653 47.8601 79.8281 47.8601 68.7722C47.8601 67.6321 47.9201 66.5059 48.0372 65.3968Z" fill="#C21920" fill-opacity="0.8"/>
<path fill-rule="evenodd" clip-rule="evenodd" d="M52.9709 62.6756L52.6325 65.8808C52.5324 66.829 52.4809 67.7931 52.4809 68.7709C52.4809 78.2142 57.2974 86.5345 64.6293 91.4064L70.4227 95.256L64.6293 99.1056C58.8636 102.937 51.9394 105.169 44.5081 105.169C24.4062 105.169 8.11035 88.873 8.11035 68.7709C8.11035 54.4332 16.4009 42.0405 28.4286 36.1092L34.3732 33.1777L35.0692 39.7693C36.0657 49.2074 41.9081 57.2202 50.0803 61.2502L52.9709 62.6756ZM30.4728 40.2546C28.9628 40.9992 27.5206 41.8602 26.1577 42.8259C18.0344 48.5819 12.7323 58.0572 12.7323 68.7709C12.7323 86.3204 26.9588 100.547 44.5081 100.547C49.1722 100.547 53.6017 99.5421 57.5917 97.737C59.1567 97.029 60.654 96.1979 62.0714 95.256C60.702 94.3461 59.4073 93.3328 58.1983 92.2273C51.8443 86.4171 47.859 78.0594 47.859 68.7709C47.859 67.6307 47.919 66.5046 48.0361 65.3955C39.8879 61.3774 33.711 53.9696 31.3462 45.0132C30.9387 43.4698 30.6444 41.8805 30.4728 40.2546Z" fill="#F3F4F3"/>
<path fill-rule="evenodd" clip-rule="evenodd" d="M93.8494 36.905C93.8494 38.0452 93.7894 39.1713 93.6723 40.2804C89.4397 38.1932 84.6753 37.0206 79.637 37.0206C73.1435 37.0206 67.1049 38.9684 62.0736 42.3116C57.0424 38.9684 51.0038 37.0206 44.5103 37.0206C39.472 37.0206 34.7075 38.1932 30.475 40.2804C30.3579 39.1713 30.2979 38.0452 30.2979 36.905C30.2979 19.3556 44.5244 5.12891 62.0736 5.12891C79.6229 5.12891 93.8494 19.3556 93.8494 36.905Z" fill="#DAD0C7" fill-opacity="0.8"/>
<path fill-rule="evenodd" clip-rule="evenodd" d="M97.5716 47.3581L91.627 44.4267C88.0161 42.646 83.9497 41.6435 79.6358 41.6435C74.0802 41.6435 68.9272 43.307 64.6305 46.1621L62.0725 47.8618L59.5146 46.1621C55.2178 43.307 50.0648 41.6435 44.5092 41.6435C40.1954 41.6435 36.1289 42.646 32.5181 44.4267L26.5735 47.3581L25.8775 40.7666C25.7434 39.4966 25.6748 38.2085 25.6748 36.9059C25.6748 16.8038 41.9706 0.507812 62.0725 0.507812C82.1744 0.507812 98.4702 16.8038 98.4702 36.9059C98.4702 38.2085 98.4016 39.4966 98.2675 40.7666L97.5716 47.3581ZM93.6711 40.2813C93.7882 39.1722 93.8483 38.0461 93.8483 36.9059C93.8483 36.3547 93.8343 35.8068 93.8065 35.2624C92.9513 18.4768 79.0706 5.1298 62.0725 5.1298C45.0744 5.1298 31.1937 18.4768 30.3385 35.2624C30.3108 35.8068 30.2967 36.3547 30.2967 36.9059C30.2967 38.0461 30.3568 39.1722 30.4739 40.2813C31.9123 39.5719 33.4122 38.9682 34.9634 38.4803C37.9765 37.5325 41.1832 37.0215 44.5092 37.0215C51.0027 37.0215 57.0412 38.9693 62.0725 42.3125C67.1038 38.9693 73.1423 37.0215 79.6358 37.0215C82.9619 37.0215 86.1685 37.5325 89.1816 38.4803C90.7328 38.9682 92.2327 39.5719 93.6711 40.2813Z" fill="#F3F4F3"/>
<path fill-rule="evenodd" clip-rule="evenodd" d="M93.5547 40.2559C92.3868 51.3173 85.5437 60.6863 75.9913 65.3968C76.1084 66.5059 76.1685 67.632 76.1685 68.7722C76.1685 79.8281 70.5223 89.5652 61.9561 95.2573C66.9873 98.6005 73.0259 100.548 79.5194 100.548C97.0687 100.548 111.295 86.3216 111.295 68.7722C111.295 56.2611 104.065 45.4387 93.5547 40.2559Z" fill="#F4B01B"/>
<path fill-rule="evenodd" clip-rule="evenodd" d="M89.6521 33.1777L95.5967 36.1092C107.624 42.0405 115.915 54.4332 115.915 68.7709C115.915 88.873 99.6191 105.169 79.5172 105.169C72.0858 105.169 65.1617 102.937 59.3959 99.1056L53.6025 95.256L59.3959 91.4064C66.7278 86.5345 71.5444 78.2142 71.5444 68.7709C71.5444 67.7931 71.4929 66.829 71.3928 65.8808L71.0544 62.6756L73.945 61.2502C82.1172 57.2202 87.9596 49.2074 88.9561 39.7693L89.6521 33.1777ZM65.827 92.2273C72.181 86.4171 76.1663 78.0594 76.1663 68.7709C76.1663 67.6307 76.1063 66.5046 75.9892 65.3955C84.1374 61.3774 90.3143 53.9696 92.6791 45.0132C93.0865 43.4698 93.3808 41.8805 93.5525 40.2546C95.0625 40.9992 96.5047 41.8602 97.8676 42.8259C105.991 48.5819 111.293 58.0572 111.293 68.7709C111.293 86.3204 97.0665 100.547 79.5172 100.547C74.8531 100.547 70.4236 99.5421 66.4336 97.737C64.8686 97.029 63.3713 96.1979 61.9539 95.256C63.3233 94.3461 64.618 93.3328 65.827 92.2273Z" fill="#F3F4F3"/>
<path fill-rule="evenodd" clip-rule="evenodd" d="M44.5617 37.0215C39.5233 37.0215 34.7589 38.1941 30.5264 40.2813C31.6943 51.3427 38.5374 60.7117 48.0897 65.4223C49.1082 55.7765 54.4422 47.4176 62.125 42.3125C57.0937 38.9693 51.0552 37.0215 44.5617 37.0215Z" fill="#EF897F"/>
<path fill-rule="evenodd" clip-rule="evenodd" d="M48.0372 65.3968C38.4849 60.6863 31.6418 51.3173 30.4739 40.2559C19.9638 45.4387 12.7334 56.2611 12.7334 68.7722C12.7334 86.3217 26.9599 100.548 44.5092 100.548C51.0027 100.548 57.0412 98.6006 62.0725 95.2574C53.5063 89.5653 47.8601 79.8281 47.8601 68.7722C47.8601 67.6321 47.9201 66.5059 48.0372 65.3968Z" fill="#C21920"/>
<path fill-rule="evenodd" clip-rule="evenodd" d="M62.1281 42.3379C69.8109 47.443 75.1449 55.8019 76.1633 65.4477C71.9308 67.5349 67.1664 68.7075 62.1281 68.7075C57.0897 68.7075 52.3253 67.5349 48.0928 65.4477C49.1112 55.8019 54.4452 47.443 62.1281 42.3379Z" fill="#542623"/>
<path fill-rule="evenodd" clip-rule="evenodd" d="M75.9914 65.4223C85.5437 60.7117 92.3868 51.3427 93.5547 40.2813C89.3222 38.1941 84.5577 37.0215 79.5194 37.0215C73.0259 37.0215 66.9873 38.9693 61.9561 42.3125C69.6389 47.4176 74.9729 55.7765 75.9914 65.4223Z" fill="#F6DD73"/>
<path fill-rule="evenodd" clip-rule="evenodd" d="M93.8494 36.905C93.8494 38.0452 93.7894 39.1713 93.6723 40.2804C89.4397 38.1932 84.6753 37.0206 79.637 37.0206C73.1435 37.0206 67.1049 38.9684 62.0736 42.3116C57.0424 38.9684 51.0038 37.0206 44.5103 37.0206C39.472 37.0206 34.7075 38.1932 30.475 40.2804C30.3579 39.1713 30.2979 38.0452 30.2979 36.905C30.2979 19.3556 44.5244 5.12891 62.0736 5.12891C79.6229 5.12891 93.8494 19.3556 93.8494 36.905Z" fill="#DAD0C7"/>
<path fill-rule="evenodd" clip-rule="evenodd" d="M93.5547 40.2559C92.3868 51.3173 85.5437 60.6863 75.9913 65.3968C76.1084 66.5059 76.1685 67.632 76.1685 68.7722C76.1685 79.8281 70.5223 89.5652 61.9561 95.2573C66.9873 98.6005 73.0259 100.548 79.5194 100.548C97.0687 100.548 111.295 86.3216 111.295 68.7722C111.295 56.2611 104.065 45.4387 93.5547 40.2559Z" fill="#F4B01B"/>
<path fill-rule="evenodd" clip-rule="evenodd" d="M76.1061 65.4453C71.8736 67.5325 67.1091 68.7051 62.0708 68.7051C57.0325 68.7051 52.2681 67.5325 48.0355 65.4453C47.9184 66.5544 47.8584 67.6805 47.8584 68.8206C47.8584 79.8765 53.5046 89.6137 62.0708 95.3058C70.637 89.6137 76.2833 79.8765 76.2833 68.8206C76.2833 67.6805 76.2232 66.5544 76.1061 65.4453Z" fill="#EB5E3C"/>
<path d="M123.198 111.352V125.768H120.4V111.352H123.198ZM109.149 119.634C108.226 121.123 107.067 122.348 105.672 123.309C104.278 124.251 102.732 124.836 101.036 125.062V122.461C102.525 122.197 103.835 121.547 104.965 120.51C106.096 119.474 106.963 118.183 107.566 116.638C108.188 115.074 108.508 113.387 108.527 111.578L111.326 111.747C111.326 113.726 110.977 115.601 110.28 117.373L117.94 122.687L116.357 124.722L109.149 119.634ZM102.506 127.097H123.198V135.493H120.371V129.528H102.506V127.097Z" fill="#E04B33"/>
<path d="M89.7203 121.786H69.0847V111.496H71.855V114.408H86.9783V111.496H89.7203V121.786ZM86.9783 119.553V116.556H71.855V119.553H86.9783ZM91.4729 124.16V126.535H80.8159V130.294H77.9891V126.535H67.3604V124.16H91.4729ZM71.8832 132.839H90.2291V135.213H69.0282V128.711H71.8832V132.839Z" fill="#E04B33"/>
<path d="M42.2231 120.343C41.375 121.568 40.2914 122.576 38.9722 123.368C37.6531 124.14 36.1737 124.621 34.5342 124.809V122.378C36.3245 122.114 37.7944 121.408 38.944 120.258C40.0935 119.09 40.8191 117.648 41.1206 115.933H34.7886V113.587H41.1771V110.93H44.0039V113.587H50.3077V115.933H43.9757C43.8626 116.687 43.6647 117.441 43.382 118.195L50.6752 122.463L49.4031 124.583L42.2231 120.343ZM56.781 111.354V124.809H53.9825V119.523H49.3466V117.036H53.9825V111.354H56.781ZM53.9825 126.138H56.781V135.184H36.2303V126.138H39.0288V128.343H53.9825V126.138ZM53.9825 132.951V130.548H39.0288V132.951H53.9825Z" fill="#E04B33"/>
<path d="M25.9885 118.618H22.5963V124.47H19.7978V111.354H22.5963V115.961H25.9885V118.618ZM8.88638 118.873C7.98181 120.249 6.84167 121.379 5.46597 122.265C4.09026 123.151 2.53552 123.707 0.801758 123.933V121.389C2.29053 121.125 3.58144 120.531 4.67446 119.608C5.78633 118.684 6.63437 117.525 7.21858 116.131C7.80278 114.736 8.1043 113.219 8.12315 111.58L10.9217 111.749C10.9217 113.502 10.6201 115.141 10.0171 116.668L17.5646 121.558L16.123 123.622L8.88638 118.873ZM2.41303 125.799H22.5963V135.184H2.41303V125.799ZM5.21155 132.837H19.7978V128.173H5.21155V132.837Z" fill="#E04B33"/>
</svg>
