<svg width="200" height="201" viewBox="0 0 200 201" fill="none" xmlns="http://www.w3.org/2000/svg">
<path d="M142.996 94.2179C133.686 94.2179 126.806 87.5579 126.806 78.4693C126.806 69.3808 133.686 62.7207 142.996 62.7207C152.305 62.7207 159.186 69.3808 159.186 78.4693C159.186 87.5579 152.305 94.2179 142.996 94.2179ZM142.996 88.1834C148.442 88.1834 152.489 84.0991 152.489 78.4693C152.489 72.8028 148.442 68.7552 142.996 68.7552C137.55 68.7552 133.503 72.8028 133.503 78.4693C133.503 84.0991 137.55 88.1834 142.996 88.1834Z" fill="white"/>
<path d="M103.696 66.8387C103.696 64.9894 105.195 63.4902 107.045 63.4902C108.894 63.4902 110.393 64.9894 110.393 66.8387V80.0668C110.393 84.2022 113.746 87.5547 117.881 87.5547H122.407C124.043 87.5547 125.369 88.8809 125.369 90.5168C125.369 92.1527 124.043 93.4788 122.407 93.4788H114.533C108.548 93.4788 103.696 88.6272 103.696 82.6425V66.8387Z" fill="white"/>
<path d="M95.6432 93.4788C94.1875 93.4788 92.8881 92.5662 92.3942 91.197L91.12 87.6651H79.4925L78.1575 91.3656C77.7001 92.6337 76.4967 93.4788 75.1486 93.4788C72.9001 93.4788 71.3533 91.2201 72.1662 89.1237L80.848 66.7323C81.6057 64.7781 83.4863 63.4902 85.5822 63.4902C87.6782 63.4902 89.5588 64.7781 90.3165 66.7323L98.8636 88.7762C99.7413 91.0399 98.0711 93.4788 95.6432 93.4788ZM81.5531 81.8514H89.0594L86.0018 73.3379C85.7675 72.6856 84.845 72.6856 84.6107 73.3379L81.5531 81.8514Z" fill="white"/>
<path d="M60.7568 66.8387C60.7568 64.9894 62.256 63.4902 64.1052 63.4902C65.9545 63.4902 67.4537 64.9894 67.4537 66.8387V90.1304C67.4537 91.9797 65.9545 93.4788 64.1052 93.4788C62.256 93.4788 60.7568 91.9797 60.7568 90.1304V81.2994H47.5103V90.1304C47.5103 91.9797 46.0112 93.4788 44.1619 93.4788C42.3126 93.4788 40.8135 91.9797 40.8135 90.1304V66.8387C40.8135 64.9894 42.3126 63.4902 44.1619 63.4902C46.0112 63.4902 47.5103 64.9894 47.5103 66.8387V75.3753H60.7568V66.8387Z" fill="white"/>
<path d="M139.469 138.245C137.619 138.245 136.12 136.746 136.12 134.897V118.339C136.12 111.979 141.276 106.822 147.637 106.822C155.438 106.822 160.001 111.164 160.001 117.787C160.001 124.484 155.438 128.826 147.637 128.826H142.817V134.897C142.817 136.746 141.318 138.245 139.469 138.245ZM142.817 122.902H147.343C151.059 122.902 153.304 121.136 153.304 117.787C153.304 114.476 151.059 112.746 147.343 112.746C144.843 112.746 142.817 114.773 142.817 117.272V122.902Z" fill="white"/>
<path d="M115.951 138.278C106.642 138.278 99.7607 131.618 99.7607 122.53C99.7607 113.441 106.642 106.781 115.951 106.781C125.26 106.781 132.141 113.441 132.141 122.53C132.141 131.618 125.26 138.278 115.951 138.278ZM115.951 132.244C121.397 132.244 125.444 128.16 125.444 122.53C125.444 116.863 121.397 112.816 115.951 112.816C110.505 112.816 106.458 116.863 106.458 122.53C106.458 128.16 110.505 132.244 115.951 132.244Z" fill="white"/>
<path d="M89.081 110.899C89.081 109.05 90.5802 107.551 92.4294 107.551C94.2787 107.551 95.7779 109.05 95.7779 110.899V134.191C95.7779 136.04 94.2787 137.539 92.4294 137.539C90.5802 137.539 89.081 136.04 89.081 134.191V125.36H75.8345V134.191C75.8345 136.04 74.3354 137.539 72.4861 137.539C70.6368 137.539 69.1377 136.04 69.1377 134.191V110.899C69.1377 109.05 70.6368 107.551 72.4861 107.551C74.3354 107.551 75.8345 109.05 75.8345 110.899V119.436H89.081V110.899Z" fill="white"/>
<path d="M53.0625 106.814C58.2045 106.814 62.3486 109.222 64.1456 112.922C65.0524 114.789 63.3456 116.602 61.2701 116.602C59.4902 116.602 58.1146 115.118 56.8448 113.87C55.8874 112.93 54.4608 112.407 52.621 112.407C49.4933 112.407 47.7639 113.658 47.7639 115.461C47.7639 117.706 50.0821 118.479 55.9326 119.693C62.8502 121.128 65.2052 124.55 65.2052 129.039C65.2052 134.779 59.7962 138.275 53.0993 138.275C47.2242 138.275 42.6029 135.744 40.8032 131.494C40.0092 129.619 41.7022 127.862 43.7387 127.862C45.5352 127.862 46.9536 129.353 48.1798 130.666C49.3411 131.909 51.2047 132.645 53.5777 132.645C56.3006 132.645 58.3243 131.284 58.3243 129.334C58.3243 126.942 56.3006 125.985 50.9652 124.992C44.4523 123.777 40.9199 121.091 40.9199 115.461C40.9199 110.052 46.2921 106.814 53.0625 106.814Z" fill="white"/>
</svg>
