<svg width="108" height="68" viewBox="0 0 108 68" fill="none" xmlns="http://www.w3.org/2000/svg">
<path d="M92.6962 28.3475C84.3178 28.3475 78.125 22.3535 78.125 14.1738C78.125 5.99404 84.3178 0 92.6962 0C101.075 0 107.267 5.99404 107.267 14.1738C107.267 22.3535 101.075 28.3475 92.6962 28.3475ZM92.6962 22.9164C97.5975 22.9164 101.24 19.2405 101.24 14.1738C101.24 9.07385 97.5975 5.43107 92.6962 5.43107C87.795 5.43107 84.1522 9.07385 84.1522 14.1738C84.1522 19.2405 87.795 22.9164 92.6962 22.9164Z" fill="white"/>
<path d="M57.3281 3.70696C57.3281 2.04259 58.6774 0.693359 60.3417 0.693359V0.693359C62.0061 0.693359 63.3553 2.04259 63.3553 3.70695V15.6122C63.3553 19.3341 66.3726 22.3514 70.0945 22.3514H74.1678C75.6402 22.3514 76.8337 23.5449 76.8337 25.0172V25.0172C76.8337 26.4896 75.6402 27.6831 74.1678 27.6831H67.0809C61.6946 27.6831 57.3281 23.3166 57.3281 17.9303V3.70696Z" fill="white"/>
<path d="M50.0789 27.6831C48.7688 27.6831 47.5993 26.8618 47.1547 25.6294L46.008 22.4507H35.5432L34.3417 25.7812C33.93 26.9224 32.8469 27.6831 31.6337 27.6831V27.6831C29.61 27.6831 28.2179 25.6503 28.9495 23.7635L36.7631 3.61121C37.4451 1.85241 39.1376 0.693359 41.024 0.693359V0.693359C42.9104 0.693359 44.6029 1.85241 45.2848 3.61121L52.9772 23.4507C53.7672 25.4881 52.264 27.6831 50.0789 27.6831V27.6831ZM37.3977 17.2184H44.1535L41.4016 9.55624C41.1907 8.96918 40.3605 8.96918 40.1496 9.55624L37.3977 17.2184Z" fill="white"/>
<path d="M18.6815 3.70696C18.6815 2.0426 20.0308 0.693359 21.6951 0.693359V0.693359C23.3595 0.693359 24.7087 2.04259 24.7087 3.70695V24.6695C24.7087 26.3339 23.3595 27.6831 21.6951 27.6831V27.6831C20.0308 27.6831 18.6815 26.3339 18.6815 24.6695V16.7216H6.75961V24.6695C6.75961 26.3339 5.41038 27.6831 3.74602 27.6831V27.6831C2.08165 27.6831 0.732422 26.3339 0.732422 24.6695V3.70696C0.732422 2.04259 2.08165 0.693359 3.74602 0.693359V0.693359C5.41038 0.693359 6.75961 2.04259 6.75961 3.70695V11.3899H18.6815V3.70696Z" fill="white"/>
<path d="M89.5214 67.9719C87.857 67.9719 86.5078 66.6227 86.5078 64.9584V50.0569C86.5078 44.3322 91.1486 39.6914 96.8732 39.6914V39.6914C103.894 39.6914 108 43.5991 108 49.56C108 55.5872 103.894 59.4949 96.8732 59.4949H92.535V64.9584C92.535 66.6227 91.1858 67.9719 89.5214 67.9719V67.9719ZM92.535 54.1632H96.6083C99.9531 54.1632 101.973 52.5736 101.973 49.56C101.973 46.5796 99.9531 45.0231 96.6083 45.0231V45.0231C94.3587 45.0231 92.535 46.8468 92.535 49.0965V54.1632Z" fill="white"/>
<path d="M68.3544 68.0018C59.976 68.0018 53.7832 62.0078 53.7832 53.8281C53.7832 45.6483 59.976 39.6543 68.3544 39.6543C76.7329 39.6543 82.9257 45.6483 82.9257 53.8281C82.9257 62.0078 76.7329 68.0018 68.3544 68.0018ZM68.3544 62.5707C73.2557 62.5707 76.8985 58.8948 76.8985 53.8281C76.8985 48.7282 73.2557 45.0854 68.3544 45.0854C63.4532 45.0854 59.8104 48.7282 59.8104 53.8281C59.8104 58.8948 63.4532 62.5707 68.3544 62.5707Z" fill="white"/>
<path d="M44.1737 43.3613C44.1737 41.6969 45.5229 40.3477 47.1873 40.3477V40.3477C48.8517 40.3477 50.2009 41.6969 50.2009 43.3613V64.3238C50.2009 65.9882 48.8517 67.3374 47.1873 67.3374V67.3374C45.5229 67.3374 44.1737 65.9882 44.1737 64.3238V56.3759H32.2518V64.3238C32.2518 65.9882 30.9026 67.3374 29.2382 67.3374V67.3374C27.5738 67.3374 26.2246 65.9882 26.2246 64.3238V43.3612C26.2246 41.6969 27.5738 40.3477 29.2382 40.3477V40.3477C30.9026 40.3477 32.2518 41.6969 32.2518 43.3612V51.0442H44.1737V43.3613Z" fill="white"/>
<path d="M11.7563 39.6836C16.3841 39.6836 20.1138 41.8507 21.7312 45.1805C22.5473 46.8607 21.0111 48.4925 19.1432 48.4925V48.4925C17.5413 48.4925 16.3033 47.1565 15.1604 46.034C14.2987 45.1876 13.0148 44.7173 11.3589 44.7173C8.54405 44.7173 6.98757 45.8432 6.98757 47.4659C6.98757 49.486 9.07391 50.1814 14.3394 51.2743C20.5653 52.5658 22.6848 55.6456 22.6848 59.6858C22.6848 64.8519 17.8166 67.998 11.7895 67.998C6.50185 67.998 2.34268 65.7202 0.722917 61.8951C0.00824619 60.2074 1.53202 58.6261 3.36482 58.6261V58.6261C4.98168 58.6261 6.25828 59.9684 7.36189 61.15C8.40701 62.269 10.0843 62.9312 12.22 62.9312C14.6706 62.9312 16.492 61.7059 16.492 59.9507C16.492 57.7982 14.6706 56.9372 9.8687 56.043C4.00709 54.9502 0.827912 52.5327 0.827912 47.4659C0.827912 42.5978 5.66292 39.6836 11.7563 39.6836Z" fill="white"/>
</svg>
