<svg width="400" height="400" viewBox="0 0 400 400" fill="none" xmlns="http://www.w3.org/2000/svg">
<path fill-rule="evenodd" clip-rule="evenodd" d="M168.969 177.212C147.741 166.744 132.534 145.925 129.939 121.344C106.583 132.861 90.5156 156.911 90.5156 184.713C90.5156 223.712 122.13 255.326 161.128 255.326C175.558 255.326 188.977 250.998 200.158 243.569C181.122 230.92 168.575 209.282 168.575 184.713C168.575 182.179 168.708 179.677 168.969 177.212Z" fill="#C21920" fill-opacity="0.8"/>
<path fill-rule="evenodd" clip-rule="evenodd" d="M179.932 171.168L179.18 178.29C178.958 180.397 178.843 182.54 178.843 184.713C178.843 205.698 189.547 224.187 205.84 235.014L218.714 243.568L205.84 252.123C193.027 260.637 177.64 265.597 161.126 265.597C116.455 265.597 80.2422 229.384 80.2422 184.713C80.2422 152.851 98.6656 125.312 125.394 112.132L138.604 105.617L140.151 120.265C142.365 141.238 155.348 159.045 173.509 168L179.932 171.168ZM129.936 121.343C126.581 122.998 123.376 124.911 120.347 127.057C102.296 139.849 90.5131 160.905 90.5131 184.713C90.5131 223.711 122.128 255.326 161.126 255.326C171.491 255.326 181.334 253.093 190.201 249.081C193.678 247.508 197.006 245.661 200.156 243.568C197.113 241.546 194.235 239.294 191.549 236.838C177.429 223.926 168.572 205.354 168.572 184.713C168.572 182.179 168.706 179.676 168.966 177.212C150.859 168.283 137.132 151.821 131.877 131.918C130.972 128.488 130.318 124.957 129.936 121.343Z" fill="#F3F4F3"/>
<path fill-rule="evenodd" clip-rule="evenodd" d="M270.773 113.898C270.773 116.432 270.639 118.934 270.379 121.399C260.973 116.761 250.386 114.155 239.189 114.155C224.759 114.155 211.34 118.484 200.16 125.913C188.979 118.484 175.56 114.155 161.13 114.155C149.934 114.155 139.346 116.761 129.941 121.399C129.68 118.934 129.547 116.432 129.547 113.898C129.547 74.8998 161.161 43.2852 200.16 43.2852C239.158 43.2852 270.773 74.8998 270.773 113.898Z" fill="#DAD0C7" fill-opacity="0.8"/>
<path fill-rule="evenodd" clip-rule="evenodd" d="M279.044 137.127L265.834 130.612C257.81 126.656 248.773 124.428 239.187 124.428C226.841 124.428 215.39 128.124 205.842 134.469L200.157 138.246L194.473 134.469C184.925 128.124 173.473 124.428 161.128 124.428C151.541 124.428 142.505 126.656 134.481 130.612L121.27 137.127L119.724 122.479C119.426 119.657 119.273 116.794 119.273 113.9C119.273 69.2287 155.486 33.0156 200.157 33.0156C244.828 33.0156 281.041 69.2287 281.041 113.9C281.041 116.794 280.889 119.657 280.591 122.479L279.044 137.127ZM270.376 121.401C270.637 118.936 270.77 116.433 270.77 113.9C270.77 112.675 270.739 111.457 270.677 110.248C268.777 72.9464 237.931 43.2866 200.157 43.2866C162.384 43.2866 131.538 72.9464 129.637 110.248C129.576 111.457 129.544 112.675 129.544 113.9C129.544 116.433 129.678 118.936 129.938 121.401C133.135 119.824 136.468 118.483 139.915 117.398C146.611 115.292 153.736 114.157 161.128 114.157C175.558 114.157 188.977 118.485 200.157 125.914C211.338 118.485 224.757 114.157 239.187 114.157C246.578 114.157 253.704 115.292 260.4 117.398C263.847 118.483 267.18 119.824 270.376 121.401Z" fill="#F3F4F3"/>
<path fill-rule="evenodd" clip-rule="evenodd" d="M270.118 121.344C267.522 145.924 252.315 166.744 231.088 177.212C231.348 179.677 231.482 182.179 231.482 184.713C231.482 209.282 218.934 230.919 199.898 243.569C211.079 250.998 224.498 255.326 238.928 255.326C277.926 255.326 309.541 223.712 309.541 184.713C309.541 156.911 293.473 132.861 270.118 121.344Z" fill="#F4B01B"/>
<path fill-rule="evenodd" clip-rule="evenodd" d="M261.446 105.617L274.656 112.132C301.384 125.312 319.808 152.851 319.808 184.713C319.808 229.384 283.595 265.597 238.924 265.597C222.41 265.597 207.023 260.637 194.21 252.123L181.336 243.568L194.21 235.014C210.503 224.187 221.207 205.698 221.207 184.713C221.207 182.54 221.092 180.397 220.87 178.29L220.118 171.168L226.541 168C244.702 159.045 257.685 141.238 259.899 120.265L261.446 105.617ZM208.501 236.838C222.621 223.926 231.478 205.354 231.478 184.713C231.478 182.179 231.344 179.676 231.084 177.212C249.191 168.283 262.918 151.821 268.173 131.918C269.078 128.488 269.732 124.957 270.114 121.343C273.469 122.998 276.674 124.911 279.703 127.057C297.755 139.849 309.537 160.905 309.537 184.713C309.537 223.711 277.923 255.326 238.924 255.326C228.559 255.326 218.716 253.093 209.849 249.081C206.372 247.508 203.044 245.661 199.894 243.568C202.938 241.546 205.815 239.294 208.501 236.838Z" fill="#F3F4F3"/>
<path fill-rule="evenodd" clip-rule="evenodd" d="M161.244 114.156C150.048 114.156 139.46 116.762 130.055 121.4C132.65 145.981 147.857 166.801 169.084 177.269C171.348 155.834 183.201 137.259 200.274 125.914C189.093 118.485 175.674 114.156 161.244 114.156Z" fill="#EF897F"/>
<path fill-rule="evenodd" clip-rule="evenodd" d="M168.969 177.212C147.741 166.744 132.534 145.925 129.939 121.344C106.583 132.861 90.5156 156.911 90.5156 184.713C90.5156 223.712 122.13 255.326 161.128 255.326C175.558 255.326 188.977 250.998 200.158 243.569C181.122 230.92 168.575 209.282 168.575 184.713C168.575 182.179 168.708 179.677 168.969 177.212Z" fill="#C21920"/>
<path fill-rule="evenodd" clip-rule="evenodd" d="M200.283 125.973C217.356 137.317 229.21 155.892 231.473 177.327C222.067 181.966 211.48 184.571 200.283 184.571C189.087 184.571 178.499 181.966 169.094 177.327C171.357 155.892 183.21 137.317 200.283 125.973Z" fill="#542623"/>
<path fill-rule="evenodd" clip-rule="evenodd" d="M231.088 177.269C252.315 166.801 267.522 145.981 270.118 121.4C260.712 116.762 250.124 114.156 238.928 114.156C224.498 114.156 211.079 118.485 199.898 125.914C216.971 137.259 228.825 155.834 231.088 177.269Z" fill="#F6DD73"/>
<path fill-rule="evenodd" clip-rule="evenodd" d="M270.773 113.898C270.773 116.432 270.639 118.934 270.379 121.399C260.973 116.761 250.386 114.155 239.189 114.155C224.759 114.155 211.34 118.484 200.16 125.913C188.979 118.484 175.56 114.155 161.13 114.155C149.934 114.155 139.346 116.761 129.941 121.399C129.68 118.934 129.547 116.432 129.547 113.898C129.547 74.8998 161.161 43.2852 200.16 43.2852C239.158 43.2852 270.773 74.8998 270.773 113.898Z" fill="#DAD0C7"/>
<path fill-rule="evenodd" clip-rule="evenodd" d="M270.118 121.344C267.522 145.924 252.315 166.744 231.088 177.212C231.348 179.677 231.482 182.179 231.482 184.713C231.482 209.282 218.934 230.919 199.898 243.569C211.079 250.998 224.498 255.326 238.928 255.326C277.926 255.326 309.541 223.712 309.541 184.713C309.541 156.911 293.473 132.861 270.118 121.344Z" fill="#F4B01B"/>
<path fill-rule="evenodd" clip-rule="evenodd" d="M231.343 177.32C221.937 181.959 211.35 184.564 200.154 184.564C188.957 184.564 178.37 181.959 168.964 177.32C168.704 179.785 168.57 182.287 168.57 184.821C168.57 209.389 181.117 231.027 200.154 243.676C219.19 231.027 231.737 209.389 231.737 184.821C231.737 182.287 231.603 179.785 231.343 177.32Z" fill="#EB5E3C"/>
<path d="M335.999 279.336V311.373H329.78V279.336H335.999ZM304.779 297.742C302.727 301.05 300.151 303.772 297.052 305.908C293.953 308.002 290.519 309.3 286.75 309.803V304.023C290.058 303.437 292.969 301.992 295.482 299.689C297.994 297.386 299.921 294.517 301.261 291.083C302.643 287.607 303.355 283.859 303.397 279.838L309.616 280.215C309.616 284.613 308.841 288.78 307.291 292.716L324.315 304.526L320.797 309.049L304.779 297.742ZM290.017 314.326H335.999V332.982H329.717V319.728H290.017V314.326Z" fill="#E04B33"/>
<path d="M261.603 302.522H215.746V279.656H221.902V286.126H255.509V279.656H261.603V302.522ZM255.509 297.559V290.901H221.902V297.559H255.509ZM265.497 307.799V313.075H241.815V321.43H235.533V313.075H211.914V307.799H265.497ZM221.965 327.084H262.733V332.36H215.62V317.912H221.965V327.084Z" fill="#E04B33"/>
<path d="M156.055 299.317C154.171 302.039 151.763 304.279 148.831 306.038C145.9 307.755 142.612 308.823 138.969 309.242V303.84C142.947 303.253 146.214 301.683 148.768 299.128C151.323 296.532 152.935 293.328 153.605 289.517H139.534V284.303H153.731V278.398H160.013V284.303H174.021V289.517H159.95C159.699 291.192 159.259 292.868 158.631 294.543L174.838 304.028L172.011 308.739L156.055 299.317ZM188.406 279.341V309.242H182.187V297.495H171.885V291.967H182.187V279.341H188.406ZM182.187 312.194H188.406V332.296H142.738V312.194H148.957V317.094H182.187V312.194ZM182.187 327.334V321.994H148.957V327.334H182.187Z" fill="#E04B33"/>
<path d="M119.978 295.484H112.44V308.487H106.221V279.34H112.44V289.579H119.978V295.484ZM81.9736 296.049C79.9635 299.107 77.4298 301.619 74.3727 303.588C71.3156 305.556 67.8606 306.791 64.0078 307.294V301.64C67.3162 301.054 70.1849 299.735 72.6138 297.683C75.0846 295.631 76.9692 293.055 78.2674 289.956C79.5656 286.857 80.2357 283.486 80.2776 279.842L86.4965 280.219C86.4965 284.114 85.8265 287.757 84.4864 291.15L101.259 302.017L98.055 306.603L81.9736 296.049ZM67.5884 311.44H112.44V332.295H67.5884V311.44ZM73.8074 327.081H106.221V316.717H73.8074V327.081Z" fill="#E04B33"/>
</svg>
