<svg width="200" height="201" viewBox="0 0 200 201" fill="none" xmlns="http://www.w3.org/2000/svg">
<path d="M99.9951 112.179C104.562 112.179 108.943 110.37 112.179 107.148L124.559 94.7683C127.78 91.5319 129.589 87.1511 129.589 82.5844C129.589 78.0178 127.78 73.637 124.559 70.4005L112.179 58.0208C108.939 54.8048 104.56 53 99.9951 53C95.4303 53 91.0507 54.8048 87.8112 58.0208L75.4314 70.4005C72.2154 73.64 70.4106 78.0197 70.4106 82.5844C70.4106 87.1492 72.2154 91.5288 75.4314 94.7683L87.8112 107.148C91.0476 110.37 95.4284 112.179 99.9951 112.179Z" fill="#AF9B73"/>
<path d="M92.6531 100.775C92.1804 100.775 91.726 100.592 91.3852 100.265C91.0443 99.9371 90.8437 99.4902 90.8252 99.0179C90.8091 98.5327 90.9841 98.0605 91.3127 97.7031C91.6412 97.3456 92.097 97.1316 92.5819 97.1069C92.8326 97.0791 93.0863 97.1031 93.3273 97.1775C93.5683 97.2518 93.7914 97.375 93.9828 97.5392C94.1742 97.7034 94.3298 97.9052 94.4399 98.1321C94.5501 98.359 94.6124 98.6061 94.623 98.8581C94.6336 99.1101 94.5923 99.3616 94.5016 99.5969C94.4109 99.8323 94.2728 100.046 94.0959 100.226C93.9189 100.406 93.7069 100.547 93.473 100.642C93.2391 100.736 92.9883 100.781 92.7362 100.775H92.6531ZM99.3118 66.9825C98.8582 66.9651 98.4059 67.0415 97.9831 67.207C97.5603 67.3724 97.1763 67.6233 96.8549 67.9439C95.4543 69.3326 94.7184 72.2169 94.7777 76.0507C94.8608 80.7984 95.9647 90.0447 99.7035 94.8161C100.24 95.5303 100.889 96.1517 101.626 96.6559C102.358 97.2081 103.25 97.5079 104.166 97.5105C104.501 97.512 104.835 97.4802 105.163 97.4155C107.288 96.9051 109.911 94.5313 111.941 91.374C112.092 91.1402 112.299 90.9481 112.544 90.8154C112.789 90.6827 113.063 90.6135 113.341 90.6144C113.648 90.6128 113.949 90.6993 114.208 90.8636C114.574 91.098 114.834 91.4667 114.932 91.8905C115.03 92.3144 114.957 92.7596 114.73 93.1307C112.214 97.1188 108.902 99.92 105.852 100.632H105.781C105.245 100.735 104.7 100.786 104.155 100.786C102.601 100.775 101.088 100.286 99.8222 99.3858C98.7888 98.6862 97.875 97.8245 97.116 96.8339C91.8816 90.104 91.5255 77.5106 91.5018 76.0982C91.4425 72.7391 91.9291 68.1932 94.5404 65.6056C95.1622 64.9837 95.9033 64.4939 96.7192 64.1655C97.535 63.8371 98.4088 63.677 99.2881 63.6947H99.5967C100.476 63.6777 101.35 63.8381 102.165 64.1665C102.981 64.4948 103.722 64.9843 104.344 65.6056C106.956 68.1932 107.442 72.7273 107.383 76.0982C107.342 81.8156 105.856 87.4298 103.063 92.4185C102.962 92.6225 102.82 92.8034 102.645 92.9499C102.471 93.0963 102.269 93.2051 102.05 93.2695C101.832 93.3338 101.603 93.3524 101.377 93.3238C101.151 93.2953 100.934 93.2204 100.738 93.1038C100.543 92.9872 100.374 92.8315 100.241 92.6463C100.109 92.4612 100.017 92.2506 99.9695 92.028C99.9225 91.8053 99.922 91.5753 99.9682 91.3525C100.014 91.1296 100.106 90.9188 100.238 90.7331C102.835 86.2766 104.169 81.1965 104.095 76.0388C104.166 72.205 103.431 69.3208 102.018 67.932C101.7 67.6105 101.318 67.359 100.897 67.1934C100.476 67.0279 100.025 66.952 99.573 66.9706L99.3118 66.9825Z" fill="white"/>
<path d="M164.854 146.053H153.59C153.471 146.055 153.352 146.033 153.241 145.988C153.131 145.944 153.03 145.877 152.945 145.794C152.86 145.71 152.792 145.61 152.746 145.499C152.7 145.389 152.676 145.271 152.676 145.151V140.594H164.854V146.053ZM168.783 138.801H148.748V145.614C148.748 146.194 148.978 146.749 149.387 147.159C149.797 147.568 150.352 147.798 150.931 147.798H168.736L168.783 138.801ZM32.2853 146.386L33.3773 148C37.2041 147.287 40.7208 145.418 43.4544 142.647C46.1821 145.42 49.6955 147.289 53.5196 148L54.6235 146.386C52.5226 146.077 46.8134 143.644 45.6502 138.825H41.2348C40.0479 143.644 34.3625 146.077 32.2735 146.386M31.1934 137.745H55.9885V135.87H45.5197V133.365H53.8282V131.549H38.1488C38.0278 131.551 37.9077 131.528 37.7954 131.483C37.6832 131.438 37.581 131.371 37.4949 131.286C37.4087 131.201 37.3404 131.099 37.2937 130.988C37.247 130.876 37.223 130.756 37.223 130.635V129.045H53.5315V122.896H33.3536V124.689H49.6027V127.169H33.318V131.514C33.3164 131.752 33.3623 131.989 33.453 132.21C33.5437 132.431 33.6774 132.632 33.8464 132.801C34.0153 132.97 34.2161 133.104 34.4372 133.195C34.6582 133.285 34.8951 133.331 35.134 133.33H41.5909V135.834H31.1934V137.745ZM73.9231 147.881H77.7213V122.469H73.9231V131.62H69.1753V133.887H73.9231V139.217C72.9761 139.611 71.9576 139.805 70.932 139.786H65.5552C65.3128 139.786 65.0803 139.69 64.9089 139.519C64.7375 139.347 64.6412 139.115 64.6412 138.873V126.244H71.5729V124.416H60.7125V139.846C60.7248 140.317 60.9199 140.765 61.2566 141.095C61.5933 141.425 62.0451 141.611 62.5166 141.614H70.9438C71.9816 141.672 73.0155 141.446 73.9349 140.962L73.9231 147.881ZM80.0002 147.881H83.7984V122.469H80.0002V147.881ZM92.6648 129.674H96.7122V134.54H93.3769C93.2809 134.54 93.1857 134.521 93.0971 134.484C93.0085 134.447 92.9281 134.392 92.8607 134.324C92.7933 134.255 92.7403 134.174 92.7046 134.085C92.6689 133.996 92.6513 133.9 92.6529 133.804L92.6648 129.674ZM91.2167 136.344H100.356V123.11H96.7122V127.858H92.6648V123.11H89.0209V134.101C89.0209 134.389 89.0777 134.675 89.188 134.941C89.2984 135.208 89.4601 135.45 89.664 135.654C89.8679 135.858 90.11 136.019 90.3764 136.13C90.6428 136.24 90.9284 136.297 91.2167 136.297M108.273 136.843H111.917V122.469H108.273V128.321H106.338V122.469H102.706V136.843H106.338V130.101H108.273V136.843ZM108.273 147.846H111.917V138.837H91.9289V140.665H108.285L108.273 147.846ZM125.258 135.371C123.347 135.371 121.804 133.484 121.804 131.157C121.804 128.831 123.347 126.932 125.258 126.932C127.169 126.932 128.7 128.819 128.7 131.157C128.7 133.496 127.157 135.371 125.258 135.371ZM139.667 133.959H143.798V132.119H139.667V122.469H135.715V139.43C134.55 139.717 133.354 139.857 132.154 139.846H127.406V136.855C130.409 136.143 132.593 133.864 132.593 131.181C132.547 130.075 132.187 129.006 131.557 128.096C130.927 127.186 130.051 126.474 129.032 126.042H133.353V124.226H127.418V121.674H123.466V124.226H117.59V126.042H121.804C120.785 126.474 119.91 127.186 119.28 128.096C118.649 129.006 118.29 130.075 118.243 131.181C118.243 133.899 120.475 136.178 123.513 136.878V139.846H117.116V141.591H132.071C133.273 141.617 134.472 141.469 135.632 141.151V147.846H139.667V133.959ZM156 125.092H161.412V123.276H146.314V125.092H151.798C151.769 127.081 151.17 129.019 150.072 130.677C148.973 132.335 147.422 133.643 145.602 134.445L146.789 135.953C149.659 134.959 152.148 133.096 153.911 130.623C155.667 133.115 158.156 134.999 161.032 136.012L162.219 134.445C160.389 133.653 158.826 132.348 157.718 130.689C156.611 129.03 156.006 127.087 155.976 125.092M168.807 136.843V122.469H164.83V128.344H160.237V130.125H164.83V136.843H168.807Z" fill="#AF9B73"/>
</svg>
