<svg width="354" height="354" viewBox="0 0 354 354" fill="none" xmlns="http://www.w3.org/2000/svg">
<path d="M147.83 343.101L144.249 342.534L146.894 325.834C147.629 321.295 150.882 319.091 155.227 319.779C159.232 320.413 161.871 323.134 161.237 327.138L157.688 326.576C157.968 324.601 156.712 323.151 154.645 322.824C152.399 322.468 150.921 323.686 150.475 326.401L147.83 343.101Z" fill="white"/>
<path d="M138.74 316.827L131.266 339.488L117.055 334.802L118.036 331.828L128.803 335.379L131.064 328.524L121.048 325.221L122.018 322.279L132.035 325.582L134.316 318.665L123.424 315.072L124.404 312.099L138.74 316.827Z" fill="white"/>
<path d="M91.9607 309.081C95.6431 302.398 101.89 300.553 107.288 303.528C112.73 306.526 114.485 312.799 110.811 319.468C107.128 326.15 100.895 328.003 95.454 325.004C90.056 322.03 88.2784 315.763 91.9607 309.081ZM107.664 317.734C110.449 312.645 109.298 308.417 105.682 306.443C102.11 304.456 97.9212 305.742 95.1072 310.814C92.3221 315.903 93.4731 320.131 97.0606 322.089C100.661 324.092 104.85 322.806 107.664 317.734Z" fill="white"/>
<path d="M60.6186 299.424L76.0917 281.258L78.6258 283.417L76.5285 304.533L76.6791 304.662L87.9847 291.389L90.7447 293.739L75.2716 311.905L72.7123 309.725L74.831 288.584L74.6554 288.434L63.3284 301.732L60.6186 299.424Z" fill="white"/>
<path d="M46.3344 271.453C44.6621 273.89 44.6151 276.666 46.5663 279.136C49.0294 282.314 53.4201 282.794 57.9877 279.245C62.5221 275.68 63.1507 271.32 60.5399 268.006C58.2087 264.996 54.7474 264.502 51.6944 266.804L55.3071 271.426L52.9439 273.273L47.1596 265.872L49.289 264.208C54.0543 260.484 59.6109 261.412 63.183 265.982C67.161 271.072 66.1598 277.418 60.2 282.076C54.2012 286.764 47.7591 286.068 43.9638 281.212C40.7875 277.148 40.8636 272.027 44.041 268.519L46.3344 271.453Z" fill="white"/>
<path d="M45.8923 237.367L44.9158 240.161L35.1746 236.671L42.9878 253.21L40.2461 254.506L32.4329 237.966L28.9721 247.693L26.1937 246.673L31.3683 232.163L45.8923 237.367Z" fill="white"/>
<path d="M36.2178 210.83L37.9278 218.385L14.6543 223.653L12.8934 215.873C11.3399 209.01 14.7715 203.942 22.0167 202.285C29.2853 200.657 34.6133 203.742 36.2178 210.83ZM34.0414 215.547L33.1755 211.722C31.9661 206.453 28.3068 204.545 22.8098 205.789C17.329 207.03 14.8806 210.321 16.0303 215.4L16.9399 219.418L34.0414 215.547Z" fill="white"/>
<path d="M20.1065 170.238C27.7343 170.054 32.474 174.523 32.6225 180.684C32.7721 186.895 28.2362 191.571 20.6249 191.754C12.9971 191.938 8.25777 187.486 8.10812 181.275C7.95966 175.113 12.4787 170.422 20.1065 170.238ZM20.5384 188.162C26.3371 188.006 29.4103 184.883 29.2946 180.764C29.2126 176.678 25.9925 173.706 20.193 173.829C14.3943 173.986 11.3211 177.109 11.436 181.195C11.5188 185.314 14.7389 188.286 20.5384 188.162Z" fill="white"/>
<path d="M12.6672 138.299L36.1534 142.519L35.5646 145.796L16.2649 154.618L16.2299 154.812L33.3904 157.896L32.7492 161.464L9.26304 157.244L9.85761 153.935L29.1898 145.119L29.2306 144.892L12.0377 141.803L12.6672 138.299Z" fill="white"/>
<path d="M29.6389 111.872C26.6917 111.654 24.2692 113.012 23.1179 115.941C21.6124 119.67 23.409 123.705 28.7752 125.864C34.1384 127.986 38.2223 126.333 39.7706 122.409C41.1968 118.879 39.8813 115.64 36.3547 114.161L34.1804 119.61L31.3947 118.499L34.8761 109.774L37.3863 110.776C43.0035 113.018 45.0001 118.286 42.8502 123.673C40.456 129.673 34.4691 132.004 27.4437 129.2C20.3724 126.379 17.7297 120.462 20.0139 114.738C21.9256 109.947 26.3883 107.434 31.0192 108.413L29.6389 111.872Z" fill="white"/>
<path d="M58.8642 94.3251L55.9584 94.8885L54.0688 84.7149L43.7138 99.794L41.2142 98.0775L51.5692 82.9984L41.4227 84.9067L40.9051 81.9924L56.0468 79.1563L58.8642 94.3251Z" fill="white"/>
<path d="M55.1297 59.9951L58.4203 57.0493L76.3763 65.7917L76.5973 65.5938L69.8884 46.7833L73.179 43.8376L89.0947 61.6168L86.5162 63.925L75.0191 51.0817L74.8472 51.2356L81.1163 68.7147L78.9798 70.6272L62.2521 62.4663L62.1047 62.5982L73.6238 75.4661L71.0453 77.7743L55.1297 59.9951Z" fill="white"/>
<path d="M87.9331 34.0394L100.715 54.1897L97.6534 56.1317L84.8716 35.9814L87.9331 34.0394Z" fill="white"/>
<path d="M116.984 19.4015L126.653 41.2167L123.61 42.5657L105.486 31.5277L105.306 31.6078L112.371 47.5474L109.056 49.0166L99.3867 27.2013L102.46 25.839L120.597 36.9071L120.808 36.8136L113.729 20.8439L116.984 19.4015Z" fill="white"/>
<path d="M150.345 35.4463L147.873 33.8183L153.632 25.2214L135.687 28.7686L135.099 25.794L153.044 22.2468L144.454 16.52L146.12 14.0739L158.932 22.6284L150.345 35.4463Z" fill="white"/>
<path d="M185.11 33.2247L183.101 31.0513L190.754 24.087L172.482 23.2257L172.625 20.1968L190.897 21.0582L183.931 13.4378L186.136 11.463L196.521 22.8411L185.11 33.2247Z" fill="white"/>
<path d="M210.106 36.1323L210.649 11.3734L214.309 12.4767L213.433 31.4895L213.622 31.5466L223.587 15.2729L227.185 16.3571L226.497 35.4271L226.687 35.4841L236.462 19.1533L240.123 20.2566L226.894 41.1921L223.391 40.1364L223.74 21.6184L223.551 21.5614L213.609 37.188L210.106 36.1323Z" fill="white"/>
<path d="M239.714 46.6951L251.183 25.7694L264.305 32.9609L262.8 35.7066L252.857 30.2576L249.388 36.5873L258.637 41.6562L257.148 44.3731L247.899 39.3042L244.399 45.6917L254.457 51.2042L252.952 53.9499L239.714 46.6951Z" fill="white"/>
<path d="M290.722 52.6466L275.599 71.1047L273.024 68.995L274.717 47.8424L274.564 47.7171L263.514 61.2037L260.71 58.9061L275.833 40.4479L278.433 42.5785L276.719 63.7566L276.898 63.9028L287.968 50.3906L290.722 52.6466Z" fill="white"/>
<path d="M291.42 89.6596L291.76 86.7193L302.03 87.9897L290.781 73.565L293.172 71.7004L304.421 86.1251L305.665 75.876L308.6 76.2625L306.732 91.5537L291.42 89.6596Z" fill="white"/>
<path d="M303.287 106.511L324.735 96.0519L328.462 103.695C330.896 108.687 329.096 112.59 325.126 114.526C321.171 116.454 316.965 115.461 314.539 110.485L312.401 106.1L304.876 109.769L303.287 106.511ZM315.185 104.742L317.164 108.801C318.688 111.963 321.108 112.415 323.523 111.237C325.952 110.053 327.042 107.889 325.518 104.727L323.539 100.669L315.185 104.742Z" fill="white"/>
<path d="M330.702 146.393C323.339 148.393 317.669 145.186 316.053 139.238C314.424 133.243 317.712 127.619 325.059 125.623C332.422 123.623 338.088 126.814 339.717 132.809C341.333 138.757 338.065 144.392 330.702 146.393ZM326.001 129.09C320.408 130.627 318.17 134.394 319.266 138.366C320.321 142.314 324.158 144.431 329.76 142.926C335.354 141.389 337.592 137.622 336.504 133.682C335.44 129.702 331.603 127.585 326.001 129.09Z" fill="white"/>
<path d="M320.405 157.996L344.197 156.164L344.849 164.642C345.276 170.179 342.412 173.127 338.025 173.465C334.821 173.712 332.294 172.452 330.971 169.645L321.764 175.643L321.447 171.535L330.047 166.014L330.029 165.784L329.654 160.92L320.683 161.611L320.405 157.996ZM332.776 160.68L333.123 165.182C333.409 168.68 335.066 170.024 337.744 169.817C340.422 169.611 341.986 168.02 341.733 164.519L341.386 160.017L332.776 160.68Z" fill="white"/>
<path d="M342.292 184.127L345.408 184.434L343.596 202.835L340.48 202.528L341.207 195.148L320.575 193.117L320.93 189.509L341.562 191.54L342.292 184.127Z" fill="white"/>
<path d="M318.209 208.383L341.23 214.664L337.335 228.941L334.314 228.117L337.255 217.338L330.291 215.438L327.628 225.199L324.639 224.384L327.303 214.622L317.255 211.881L318.209 208.383Z" fill="white"/>
<path d="M313.308 254.562C306.431 251.257 304.242 245.122 306.912 239.567C309.604 233.967 315.77 231.866 322.632 235.164C329.509 238.47 331.705 244.59 329.013 250.19C326.343 255.745 320.185 257.868 313.308 254.562ZM321.075 238.402C315.84 235.904 311.682 237.288 309.913 241.009C308.127 244.685 309.643 248.797 314.864 251.324C320.1 253.822 324.257 252.438 326.013 248.748C327.813 245.041 326.297 240.93 321.075 238.402Z" fill="white"/>
<path d="M297.872 256.588L317.157 270.641L315.022 273.571L298.267 261.362L291.92 270.072L289.389 268.228L297.872 256.588Z" fill="white"/>
<path d="M298.161 294.036L280.825 277.639L283.317 275.005L300.652 291.402L298.161 294.036Z" fill="white"/>
<path d="M265.061 306.882C260.352 300.879 261.099 294.408 265.948 290.604C270.836 286.77 277.296 287.609 281.995 293.599C286.704 299.603 285.97 306.064 281.082 309.898C276.233 313.702 269.77 312.886 265.061 306.882ZM279.168 295.817C275.575 291.263 271.234 290.668 268.002 293.223C264.777 295.733 264.32 300.091 267.888 304.665C271.481 309.219 275.822 309.814 279.028 307.279C282.279 304.749 282.736 300.391 279.168 295.817Z" fill="white"/>
<path d="M237.313 307.987L240.109 308.959L236.635 318.706L253.161 310.864L254.461 313.603L237.935 321.445L247.668 324.889L246.653 327.669L232.134 322.52L237.313 307.987Z" fill="white"/>
<path d="M204.156 318.67L206.637 320.284L200.927 328.914L218.851 325.265L219.456 328.236L201.532 331.885L210.154 337.563L208.501 340.018L195.642 331.537L204.156 318.67Z" fill="white"/>
</svg>
