<svg width="428" height="428" viewBox="0 0 428 428" fill="none" xmlns="http://www.w3.org/2000/svg">
<path d="M277.312 78.4196L276.553 80.4057L267.095 84.9202L265.992 82.0414L272.16 79.2323L255.861 73.0025L256.934 70.1967L273.201 76.4145L270.486 70.2824L273.241 68.8422L277.312 78.4196Z" fill="#0D0D0D"/>
<path d="M306.558 96.4182L305.366 98.179L295.128 100.42L294.71 97.3652L301.356 96.0355L286.905 86.2557L288.589 83.7681L303.011 93.529L301.765 86.9397L304.776 86.165L306.558 96.4182Z" fill="#0D0D0D"/>
<path d="M311.245 107.716C311.277 108.79 311.867 111.029 313.237 112.379C314.969 114.084 316.988 112.899 317.675 112.202L326.651 103.089L329.056 105.458L320.079 114.571C318.943 115.725 315.217 118.593 311.106 114.543C309.158 112.624 308.42 109.718 308.146 108.217L311.245 107.716Z" fill="#0D0D0D"/>
<path d="M336.047 113.049L338.031 115.779L330.549 121.215C327.137 123.695 326.019 126.635 328.776 130.43C331.514 134.198 334.636 134.015 338.049 131.536L345.53 126.1L347.514 128.83L340.033 134.266L339.978 134.306C335.562 137.472 330.168 137.512 326.319 132.216C322.45 126.891 324.135 121.746 328.511 118.524L336.047 113.049Z" fill="#0D0D0D"/>
<path d="M353.144 138.356L354.574 141.413L346.907 158.155L359.624 152.204L361.054 155.261L344.027 163.229L342.597 160.172L350.233 143.445L337.547 149.381L336.117 146.324L353.144 138.356Z" fill="#0D0D0D"/>
<path d="M358.7 177.395L361.151 187.114L358.173 187.865C352.885 188.154 349.891 184.558 348.636 179.584C347.052 173.301 350.383 168.702 355.619 167.382C361.15 165.987 366.262 168.457 367.846 174.741C369.216 180.173 367.742 184.13 363.653 185.996L362.828 182.723C365.429 181.441 365.834 179.181 364.909 175.516C363.729 170.836 360.796 169.557 356.444 170.654C352.386 171.677 350.41 174.194 351.59 178.874C352.407 182.114 353.746 184.665 357.323 184.494L355.722 178.145L358.7 177.395Z" fill="#0D0D0D"/>
<path d="M363.595 219.506L361.47 219.581L353.625 212.632L355.846 210.493L360.838 215.078L360.22 197.641L363.222 197.534L363.838 214.939L368.427 210.048L370.827 212.023L363.595 219.506Z" fill="#0D0D0D"/>
<path d="M369.027 245.399C368.453 248.622 364.521 251.453 358.44 250.37C352.692 249.347 349.945 245.327 350.519 242.104L352.91 228.68L371.417 231.975L369.027 245.399ZM355.33 232.607L353.774 241.346C353.395 243.473 355.211 246.367 359.032 247.048C363.218 247.793 365.855 245.692 366.234 243.565L367.79 234.826L355.33 232.607Z" fill="#0D0D0D"/>
<path d="M346.678 264.728C344.971 269.17 346.729 272.124 350.604 273.613C354.479 275.102 357.762 274.086 359.469 269.644C361.188 265.171 359.431 262.217 355.556 260.728C351.681 259.239 348.398 260.255 346.678 264.728ZM356.767 257.578C361.839 259.527 364.677 264.559 362.304 270.734C359.943 276.877 354.465 278.713 349.393 276.763C344.321 274.814 341.482 269.782 343.843 263.639C346.216 257.464 351.694 255.628 356.767 257.578Z" fill="#0D0D0D"/>
<path d="M353.441 289.241L351.662 292.11L333.452 294.837L345.384 302.235L343.606 305.103L327.629 295.197L329.407 292.329L347.589 289.584L335.685 282.204L337.464 279.335L353.441 289.241Z" fill="#0D0D0D"/>
<path d="M323.78 315.227L316.979 322.591L314.722 320.507C311.591 316.237 312.966 311.764 316.447 307.995C320.843 303.235 326.515 303.511 330.482 307.175C334.672 311.045 335.397 316.677 331 321.437C327.199 325.553 323.08 326.481 319.283 324.076L321.573 321.597C324.067 323.074 326.181 322.178 328.746 319.401C332.021 315.856 331.489 312.7 328.192 309.655C325.117 306.815 321.93 306.536 318.655 310.081C316.388 312.536 314.983 315.051 317.081 317.953L321.524 313.144L323.78 315.227Z" fill="#0D0D0D"/>
<path d="M291.186 342.338L289.962 340.599L291.496 330.232L294.5 330.923L293.388 337.609L307.655 327.564L309.384 330.02L295.145 340.046L301.748 341.217L301.405 344.306L291.186 342.338Z" fill="#0D0D0D"/>
<path d="M281.587 357.243L270.465 349.492L270.153 349.621L267.735 362.96L264.397 364.338L264.402 364.262L257.256 346.948L260.376 345.66L265.513 358.108L267.452 347.413L270.822 346.022L279.695 352.218L274.571 339.801L277.69 338.514L284.862 355.891L281.587 357.243Z" fill="#0D0D0D"/>
<path d="M253.311 367.248L250.032 368.05L245.565 349.789L248.843 348.987L253.311 367.248Z" fill="#0D0D0D"/>
<path d="M239.555 370.419L236.198 370.761L222.923 358L224.345 371.967L220.988 372.309L219.083 353.607L222.441 353.265L235.712 365.993L234.293 352.058L237.651 351.717L239.555 370.419Z" fill="#0D0D0D"/>
<path d="M187.304 361.382L187.532 359.268L195.527 352.493L197.328 354.996L192.079 359.283L209.427 361.156L209.105 364.142L191.79 362.274L195.977 367.512L193.68 369.606L187.304 361.382Z" fill="#0D0D0D"/>
<path d="M154.436 351.426L155.14 349.42L164.469 344.645L165.652 347.492L159.564 350.471L176.029 356.247L175.034 359.082L158.601 353.317L161.484 359.371L158.771 360.887L154.436 351.426Z" fill="#0D0D0D"/>
<path d="M140.554 332.505L145.47 335.655L140.726 354.943L137.685 352.994L141.653 336.857L141.028 336.457L134.473 341.556L132.485 349.662L129.445 347.714L133.412 331.576L132.816 331.194L119.812 341.541L116.771 339.592L132.313 327.224L137.229 330.374L135.798 336.111L140.554 332.505Z" fill="#0D0D0D"/>
<path d="M109.512 333.107L96.6769 320.503L98.8287 318.312L109.256 328.55L112.779 324.962L102.593 314.96L104.745 312.769L114.931 322.771L118.123 319.52L107.214 308.808L109.366 306.617L122.683 319.693L109.512 333.107Z" fill="#0D0D0D"/>
<path d="M83.2057 303.026C81.3118 300.356 81.9263 297.314 84.4589 295.517C85.8629 294.522 87.1629 294.137 88.3277 294.263C88.3211 292.737 88.9341 291.268 90.3381 290.272C93.2837 288.183 96.5285 289.316 98.4224 291.986L105.451 301.897L90.1173 312.772L83.2057 303.026ZM100.954 300.865L96.2101 294.176C94.9605 292.414 93.5063 291.997 92.1299 292.973C91.0012 293.774 90.9137 295.284 92.9442 298.147L96.9077 303.735L100.954 300.865ZM94.5952 305.375L90.4365 299.512C89.187 297.75 87.8679 296.823 86.3263 297.917C85.3077 298.639 85.1952 300.581 86.4448 302.343L90.6035 308.207L94.5952 305.375Z" fill="#0D0D0D"/>
<path d="M72.9206 264.204L74.868 263.35L84.7225 266.916L83.4471 269.723L77.1164 267.302L84.1216 283.283L81.3706 284.489L74.3789 268.539L71.9174 274.777L68.9581 273.827L72.9206 264.204Z" fill="#0D0D0D"/>
<path d="M58.3833 242.589C57.7029 239.387 59.3119 237.216 62.8773 236.459C66.4757 235.694 68.8613 237.016 69.5417 240.218L71.597 249.891L78.8268 248.355L79.5283 251.656L72.2984 253.192L72.3054 253.225L61.147 255.596L58.3833 242.589ZM68.6188 250.489L66.9142 242.467C66.4653 240.354 65.2954 239.395 63.6118 239.753C61.9281 240.111 61.2493 241.463 61.6982 243.576L63.4027 251.598L68.6188 250.489Z" fill="#0D0D0D"/>
<path d="M72.0117 218.155C71.8856 213.398 69.1302 211.344 64.9805 211.454C60.8307 211.564 58.188 213.761 58.3141 218.518C58.441 223.309 61.1964 225.363 65.3462 225.253C69.496 225.143 72.1387 222.946 72.0117 218.155ZM65.4357 228.627C60.0038 228.771 55.4529 225.212 55.2776 218.599C55.1032 212.02 59.4592 208.225 64.891 208.081C70.3229 207.937 74.8738 211.496 75.0482 218.075C75.2235 224.688 70.8675 228.483 65.4357 228.627Z" fill="#0D0D0D"/>
<path d="M58.5086 184.983C59.0353 181.752 61.3217 180.312 64.9192 180.898C67.0177 181.24 68.4523 182.09 69.2391 183.347C71.1606 182.258 74.0672 182.048 77.9645 182.683L77.4215 186.014C71.992 185.129 69.942 185.957 69.3718 189.455L68.2153 196.55L75.5102 197.739L74.9564 201.137L56.3692 198.107L58.5086 184.983ZM65.184 196.056L66.5035 187.962C66.851 185.83 66.1083 184.512 64.4095 184.235C62.7107 183.958 61.588 184.972 61.2405 187.104L59.921 195.198L65.184 196.056Z" fill="#0D0D0D"/>
<path d="M67.8301 153.053L70.7263 154.075L68.2893 160.981L83.1206 166.215L81.9975 169.398L67.1663 164.164L64.7292 171.07L61.833 170.049L67.8301 153.053Z" fill="#0D0D0D"/>
<path d="M71.7706 144.368L80.578 128.683L83.256 130.187L76.101 142.929L80.4858 145.391L87.4755 132.943L90.1535 134.447L83.1637 146.895L89.8145 150.63L88.1621 153.572L71.7706 144.368Z" fill="#0D0D0D"/>
<path d="M104.645 123.417C107.691 119.761 106.977 116.399 103.787 113.742C100.597 111.086 97.1619 110.991 94.1163 114.648C91.0491 118.33 91.7629 121.692 94.9526 124.349C98.1423 127.006 101.578 127.1 104.645 123.417ZM92.7926 126.942C88.6174 123.464 87.5488 117.787 91.7824 112.704C95.9944 107.647 101.772 107.671 105.947 111.149C110.122 114.627 111.191 120.305 106.979 125.361C102.745 130.444 96.9677 130.42 92.7926 126.942Z" fill="#0D0D0D"/>
<path d="M106.092 98.161L108.682 95.997L118.766 108.066L129.981 98.6959L131.95 101.053L118.146 112.587L106.092 98.161Z" fill="#0D0D0D"/>
<path d="M127.744 81.5176L130.594 79.7094L140.666 95.5823L137.816 97.3905L127.744 81.5176Z" fill="#0D0D0D"/>
<path d="M154.876 84.9226C159.208 82.952 160.025 79.6138 158.306 75.8353C156.587 72.0567 153.533 70.4796 149.202 72.4503C144.84 74.435 144.022 77.7731 145.741 81.5517C147.461 85.3302 150.514 86.9073 154.876 84.9226ZM142.669 82.9493C140.419 78.0034 141.923 72.4249 147.944 69.6855C153.934 66.9601 159.128 69.4917 161.378 74.4376C163.628 79.3836 162.125 84.962 156.134 87.6874C150.113 90.4268 144.92 87.8952 142.669 82.9493Z" fill="#0D0D0D"/>
<path d="M192.163 65.9656L192.622 68.0415L187.213 77.0175L184.707 75.222L188.309 69.4809L171.273 73.2544L170.624 70.3217L187.627 66.5555L181.984 62.9312L183.491 60.2123L192.163 65.9656Z" fill="#0D0D0D"/>
<path d="M226.483 64.8884L226.458 67.0145L219.146 74.5218L217.114 72.2025L221.93 67.4332L204.483 67.2256L204.518 64.2221L221.932 64.4293L217.264 59.6146L219.35 57.3105L226.483 64.8884Z" fill="#0D0D0D"/>
</svg>
