<svg width="428" height="428" viewBox="0 0 428 428" fill="none" xmlns="http://www.w3.org/2000/svg">
<path d="M277.014 77.4767L276.255 79.4628L266.797 83.9774L265.694 81.0986L271.862 78.2895L255.563 72.0596L256.636 69.2539L272.903 75.4716L270.188 69.3395L272.943 67.8993L277.014 77.4767Z" fill="white"/>
<path d="M306.26 95.4763L305.068 97.2372L294.83 99.4778L294.412 96.4233L301.058 95.0936L286.607 85.3138L288.291 82.8262L302.713 92.5871L301.468 85.9978L304.478 85.2231L306.26 95.4763Z" fill="white"/>
<path d="M310.947 106.773C310.979 107.847 311.569 110.086 312.939 111.436C314.671 113.141 316.69 111.956 317.377 111.259L326.353 102.146L328.758 104.514L319.782 113.627C318.645 114.781 314.92 117.649 310.808 113.6C308.86 111.681 308.122 108.775 307.849 107.274L310.947 106.773Z" fill="white"/>
<path d="M335.749 112.106L337.733 114.837L330.252 120.273C326.839 122.753 325.721 125.692 328.479 129.488C331.216 133.255 334.338 133.073 337.751 130.593L345.232 125.157L347.216 127.888L339.735 133.324L339.68 133.363C335.265 136.53 329.87 136.57 326.021 131.273C322.153 125.949 323.837 120.803 328.213 117.582L335.749 112.106Z" fill="white"/>
<path d="M352.846 137.414L354.276 140.47L346.609 157.212L359.326 151.261L360.756 154.318L343.73 162.286L342.299 159.229L349.936 142.502L337.25 148.438L335.819 145.381L352.846 137.414Z" fill="white"/>
<path d="M358.402 176.452L360.853 186.171L357.875 186.922C352.588 187.211 349.593 183.615 348.339 178.641C346.754 172.358 350.085 167.759 355.321 166.439C360.852 165.044 365.964 167.514 367.549 173.798C368.918 179.23 367.445 183.187 363.356 185.053L362.53 181.78C365.131 180.498 365.536 178.238 364.612 174.573C363.432 169.893 360.499 168.614 356.146 169.711C352.088 170.734 350.112 173.251 351.292 177.931C352.109 181.171 353.448 183.722 357.025 183.551L355.424 177.203L358.402 176.452Z" fill="white"/>
<path d="M363.297 218.563L361.172 218.639L353.327 211.689L355.548 209.551L360.54 214.136L359.922 196.698L362.924 196.592L363.54 213.996L368.129 209.105L370.529 211.08L363.297 218.563Z" fill="white"/>
<path d="M368.729 244.455C368.155 247.678 364.223 250.509 358.142 249.426C352.394 248.403 349.647 244.383 350.221 241.16L352.612 227.736L371.119 231.032L368.729 244.455ZM355.032 231.664L353.476 240.402C353.097 242.529 354.913 245.423 358.734 246.104C362.921 246.849 365.557 244.748 365.936 242.621L367.492 233.882L355.032 231.664Z" fill="white"/>
<path d="M346.381 263.786C344.673 268.228 346.431 271.181 350.306 272.671C354.181 274.16 357.464 273.144 359.171 268.702C360.89 264.228 359.133 261.275 355.258 259.786C351.383 258.296 348.1 259.313 346.381 263.786ZM356.469 256.635C361.541 258.585 364.379 263.617 362.006 269.791C359.645 275.935 354.167 277.77 349.095 275.821C344.023 273.872 341.184 268.84 343.545 262.696C345.918 256.522 351.397 254.686 356.469 256.635Z" fill="white"/>
<path d="M353.143 288.298L351.364 291.167L333.154 293.894L345.087 301.292L343.308 304.161L327.331 294.255L329.11 291.386L347.291 288.641L335.387 281.261L337.166 278.392L353.143 288.298Z" fill="white"/>
<path d="M323.482 314.284L316.681 321.648L314.425 319.564C311.293 315.294 312.668 310.82 316.149 307.052C320.546 302.292 326.217 302.568 330.184 306.232C334.374 310.102 335.099 315.733 330.702 320.494C326.901 324.609 322.782 325.537 318.985 323.132L321.275 320.653C323.77 322.13 325.883 321.234 328.448 318.458C331.723 314.912 331.191 311.757 327.894 308.711C324.82 305.872 321.632 305.592 318.357 309.138C316.09 311.592 314.686 314.108 316.783 317.01L321.226 312.2L323.482 314.284Z" fill="white"/>
<path d="M290.889 341.396L289.664 339.657L291.198 329.29L294.203 329.982L293.09 336.667L307.357 326.622L309.086 329.078L294.847 339.104L301.45 340.275L301.108 343.364L290.889 341.396Z" fill="white"/>
<path d="M281.289 356.3L270.167 348.55L269.855 348.679L267.437 362.017L264.099 363.395L264.105 363.32L256.958 346.005L260.078 344.718L265.216 357.165L267.154 346.471L270.524 345.08L279.397 351.276L274.273 338.859L277.392 337.571L284.565 354.948L281.289 356.3Z" fill="white"/>
<path d="M253.013 366.304L249.734 367.106L245.267 348.846L248.545 348.044L253.013 366.304Z" fill="white"/>
<path d="M239.257 369.476L235.9 369.818L222.625 357.057L224.047 371.024L220.69 371.366L218.785 352.664L222.143 352.322L235.414 365.05L233.996 351.116L237.353 350.774L239.257 369.476Z" fill="white"/>
<path d="M187.006 360.44L187.234 358.326L195.23 351.551L197.03 354.054L191.781 358.342L209.129 360.214L208.807 363.2L191.492 361.332L195.679 366.57L193.383 368.664L187.006 360.44Z" fill="white"/>
<path d="M154.138 350.484L154.842 348.478L164.171 343.703L165.354 346.55L159.266 349.529L175.731 355.305L174.736 358.14L158.303 352.375L161.187 358.429L158.473 359.945L154.138 350.484Z" fill="white"/>
<path d="M140.256 331.561L145.172 334.711L140.428 353.999L137.388 352.051L141.355 335.913L140.73 335.513L134.175 340.612L132.187 348.718L129.147 346.77L133.114 330.633L132.518 330.25L119.514 340.597L116.473 338.648L132.015 326.28L136.931 329.431L135.5 335.167L140.256 331.561Z" fill="white"/>
<path d="M109.215 332.163L96.3791 319.559L98.5308 317.368L108.958 327.607L112.481 324.018L102.295 314.016L104.447 311.825L114.633 321.827L117.825 318.576L106.916 307.864L109.068 305.673L122.385 318.749L109.215 332.163Z" fill="white"/>
<path d="M82.9078 302.082C81.014 299.412 81.6284 296.37 84.1611 294.573C85.5651 293.578 86.865 293.194 88.0298 293.319C88.0232 291.793 88.6363 290.324 90.0403 289.328C92.9859 287.239 96.2306 288.372 98.1245 291.042L105.153 300.953L89.8195 311.828L82.9078 302.082ZM100.657 299.921L95.9122 293.232C94.6626 291.47 93.2085 291.053 91.832 292.029C90.7033 292.83 90.6158 294.34 92.6464 297.203L96.6098 302.792L100.657 299.921ZM94.2974 304.432L90.1387 298.568C88.8891 296.806 87.57 295.88 86.0284 296.973C85.0098 297.695 84.8974 299.637 86.1469 301.399L90.3056 307.263L94.2974 304.432Z" fill="white"/>
<path d="M72.6227 263.261L74.5701 262.407L84.4246 265.973L83.1493 268.78L76.8185 266.359L83.8238 282.34L81.0727 283.546L74.081 267.596L71.6196 273.834L68.6602 272.884L72.6227 263.261Z" fill="white"/>
<path d="M58.0855 241.646C57.405 238.444 59.014 236.273 62.5795 235.515C66.1779 234.751 68.5634 236.073 69.2438 239.275L71.2991 248.948L78.529 247.412L79.2304 250.713L72.0006 252.249L72.0076 252.282L60.8492 254.653L58.0855 241.646ZM68.3209 249.546L66.6164 241.524C66.1675 239.411 64.9976 238.452 63.3139 238.81C61.6303 239.168 60.9514 240.519 61.4003 242.632L63.1049 250.654L68.3209 249.546Z" fill="white"/>
<path d="M71.7139 217.213C71.5878 212.455 68.8324 210.401 64.6826 210.512C60.5328 210.622 57.8901 212.819 58.0162 217.576C58.1432 222.366 60.8986 224.42 65.0484 224.31C69.1982 224.2 71.8409 222.003 71.7139 217.213ZM65.1378 227.684C59.706 227.828 55.1551 224.269 54.9798 217.656C54.8054 211.077 59.1613 207.282 64.5932 207.138C70.025 206.994 74.5759 210.553 74.7503 217.132C74.9256 223.745 70.5697 227.54 65.1378 227.684Z" fill="white"/>
<path d="M58.2107 184.04C58.7374 180.809 61.0238 179.37 64.6213 179.956C66.7199 180.298 68.1544 181.147 68.9412 182.404C70.8627 181.315 73.7694 181.105 77.6667 181.741L77.1237 185.072C71.6941 184.187 69.6441 185.015 69.074 188.513L67.9174 195.608L75.2124 196.797L74.6585 200.194L56.0714 197.165L58.2107 184.04ZM64.8862 195.114L66.2056 187.019C66.5531 184.887 65.8105 183.569 64.1117 183.292C62.4128 183.016 61.2901 184.029 60.9426 186.161L59.6231 194.256L64.8862 195.114Z" fill="white"/>
<path d="M67.5323 152.109L70.4285 153.131L67.9915 160.038L82.8227 165.271L81.6996 168.454L66.8684 163.22L64.4314 170.127L61.5352 169.105L67.5323 152.109Z" fill="white"/>
<path d="M71.4728 143.425L80.2802 127.739L82.9581 129.243L75.8031 141.985L80.1879 144.448L87.1777 131.999L89.8556 133.503L82.8659 145.951L89.5166 149.686L87.8642 152.629L71.4728 143.425Z" fill="white"/>
<path d="M104.347 122.474C107.393 118.817 106.679 115.455 103.489 112.799C100.299 110.142 96.8641 110.047 93.8185 113.704C90.7512 117.386 91.465 120.748 94.6547 123.405C97.8445 126.062 101.28 126.156 104.347 122.474ZM92.4947 125.998C88.3196 122.521 87.2509 116.843 91.4845 111.76C95.6965 106.703 101.474 106.728 105.649 110.205C109.824 113.683 110.893 119.361 106.681 124.418C102.447 129.5 96.6699 129.476 92.4947 125.998Z" fill="white"/>
<path d="M105.794 97.2172L108.384 95.0532L118.469 107.122L129.683 97.7521L131.652 100.109L117.848 111.643L105.794 97.2172Z" fill="white"/>
<path d="M127.446 80.5747L130.296 78.7665L140.368 94.6394L137.518 96.4476L127.446 80.5747Z" fill="white"/>
<path d="M154.578 83.9807C158.91 82.0101 159.727 78.6719 158.008 74.8934C156.289 71.1148 153.236 69.5377 148.904 71.5084C144.542 73.4931 143.725 76.8312 145.444 80.6098C147.163 84.3883 150.216 85.9654 154.578 83.9807ZM142.372 82.0074C140.121 77.0615 141.625 71.483 147.646 68.7436C153.637 66.0182 158.83 68.5498 161.08 73.4957C163.33 78.4417 161.827 84.0201 155.836 86.7455C149.815 89.4849 144.622 86.9533 142.372 82.0074Z" fill="white"/>
<path d="M191.865 65.0227L192.325 67.0986L186.915 76.0746L184.409 74.2792L188.011 68.538L170.976 72.3115L170.326 69.3789L187.329 65.6126L181.686 61.9883L183.193 59.2695L191.865 65.0227Z" fill="white"/>
<path d="M226.185 63.9456L226.16 66.0717L218.848 73.579L216.816 71.2596L221.632 66.4903L204.185 66.2827L204.22 63.2792L221.634 63.4864L216.966 58.6718L219.052 56.3677L226.185 63.9456Z" fill="white"/>
</svg>
