<svg width="353" height="353" viewBox="0 0 353 353" fill="none" xmlns="http://www.w3.org/2000/svg">
<path d="M147.619 342.029L144.037 341.469L146.649 324.764C147.376 320.224 150.624 318.013 154.971 318.693C158.976 319.319 161.621 322.035 160.994 326.04L157.445 325.485C157.72 323.51 156.462 322.062 154.395 321.739C152.148 321.387 150.673 322.608 150.231 325.324L147.619 342.029Z" fill="white"/>
<path d="M138.478 315.772L131.034 338.443L116.817 333.775L117.794 330.8L128.566 334.337L130.818 327.479L120.798 324.189L121.764 321.246L131.785 324.536L134.057 317.616L123.16 314.037L124.137 311.062L138.478 315.772Z" fill="white"/>
<path d="M91.6927 308.067C95.3713 301.382 101.618 299.534 107.017 302.506C112.46 305.501 114.219 311.773 110.548 318.443C106.87 325.128 100.638 326.984 95.1949 323.989C89.7952 321.017 88.0141 314.752 91.6927 308.067ZM107.401 316.711C110.183 311.621 109.03 307.394 105.412 305.422C101.84 303.437 97.6512 304.725 94.8401 309.799C92.0578 314.889 93.2113 319.117 96.7998 321.073C100.401 323.073 104.59 321.786 107.401 316.711Z" fill="white"/>
<path d="M60.3465 298.402L75.8243 280.24L78.3579 282.399L76.2551 303.515L76.4056 303.643L87.7147 290.373L90.474 292.725L74.9963 310.886L72.4376 308.706L74.5617 287.565L74.3861 287.415L63.0557 300.71L60.3465 298.402Z" fill="white"/>
<path d="M46.0754 270.407C44.4004 272.842 44.3505 275.619 46.2991 278.091C48.7587 281.271 53.1489 281.756 57.7204 278.212C62.2586 274.652 62.8919 270.292 60.2846 266.975C57.9567 263.963 54.4959 263.465 51.4404 265.764L55.0481 270.39L52.683 272.235L46.9066 264.827L49.0379 263.165C53.8071 259.446 59.3628 260.38 62.9299 264.954C66.9024 270.048 65.8944 276.393 59.9295 281.045C53.9257 285.727 47.4844 285.024 43.6943 280.164C40.5224 276.096 40.604 270.975 43.7851 267.47L46.0754 270.407Z" fill="white"/>
<path d="M45.6844 236.319L44.7023 239.111L34.9681 235.602L42.7486 252.157L40.0043 253.446L32.2239 236.891L28.7439 246.611L25.9674 245.586L31.1708 231.086L45.6844 236.319Z" fill="white"/>
<path d="M36.0769 209.761L37.7653 217.32L14.4768 222.522L12.7382 214.737C11.2043 207.87 14.6504 202.811 21.9004 201.175C29.1736 199.567 34.4928 202.668 36.0769 209.761ZM33.887 214.472L33.0321 210.644C31.8377 205.372 28.1839 203.453 22.6835 204.681C17.1991 205.906 14.7413 209.191 15.8764 214.273L16.7745 218.294L33.887 214.472Z" fill="white"/>
<path d="M20.1013 169.116C27.7297 168.961 32.4531 173.446 32.5789 179.608C32.7058 185.82 28.1527 190.479 20.5408 190.634C12.9124 190.79 8.1894 186.321 8.06254 180.109C7.9367 173.947 12.4729 169.272 20.1013 169.116ZM20.4674 187.042C26.2667 186.907 29.3513 183.795 29.2507 179.676C29.1838 175.59 25.9746 172.606 20.1747 172.708C14.3755 172.843 11.2908 175.955 11.3907 180.041C11.4584 184.16 14.6675 187.144 20.4674 187.042Z" fill="white"/>
<path d="M12.8033 137.136L36.2703 141.461L35.6669 144.735L16.3277 153.47L16.2919 153.665L33.4383 156.825L32.7811 160.391L9.31415 156.065L9.92356 152.759L29.2951 144.03L29.3369 143.803L12.1581 140.636L12.8033 137.136Z" fill="white"/>
<path d="M29.912 110.781C26.9661 110.547 24.5364 111.892 23.3696 114.815C21.8443 118.536 23.6195 122.58 28.9742 124.768C34.326 126.919 38.4187 125.287 39.9877 121.371C41.4326 117.849 40.1343 114.603 36.6157 113.106L34.4125 118.543L31.6328 117.417L35.1604 108.711L37.6652 109.726C43.2705 111.997 45.239 117.276 43.0605 122.652C40.6345 128.639 34.6354 130.938 27.625 128.097C20.5688 125.238 17.9575 119.308 20.2721 113.596C22.2092 108.815 26.6851 106.326 31.3107 107.329L29.912 110.781Z" fill="white"/>
<path d="M59.2426 93.4023L56.3333 93.9477L54.5069 83.7625L44.0585 98.777L41.5696 97.045L52.018 82.0305L41.8599 83.8758L41.3604 80.9583L56.5193 78.2163L59.2426 93.4023Z" fill="white"/>
<path d="M55.7402 59.0391L59.0519 56.1171L76.9447 64.988L77.1671 64.7918L70.5934 45.9336L73.905 43.0116L89.6927 60.9045L87.0978 63.1942L75.6931 50.2687L75.5201 50.4214L81.6636 67.945L79.5135 69.8421L62.8447 61.5614L62.6964 61.6923L74.1229 74.6424L71.5279 76.9321L55.7402 59.0391Z" fill="white"/>
<path d="M88.7462 33.3207L101.37 53.5706L98.293 55.4885L85.6696 35.2386L88.7462 33.3207Z" fill="white"/>
<path d="M117.924 18.9171L127.409 40.8132L124.354 42.1364L106.325 30.9458L106.143 31.0244L113.074 47.0231L109.747 48.4642L100.262 26.568L103.347 25.2317L121.389 36.4526L121.601 36.3609L114.658 20.332L117.924 18.9171Z" fill="white"/>
<path d="M151.149 35.259L148.693 33.6081L154.532 25.0654L136.555 28.4447L135.994 25.4647L153.972 22.0853L145.435 16.2785L147.125 13.8482L159.856 22.522L151.149 35.259Z" fill="white"/>
<path d="M185.93 33.3822L183.944 31.1881L191.668 24.3033L173.406 23.2533L173.58 20.2261L191.842 21.2761L184.956 13.5842L187.181 11.6323L197.448 23.117L185.93 33.3822Z" fill="white"/>
<path d="M210.888 36.5563L211.711 11.8051L215.359 12.9498L214.267 31.9515L214.456 32.0107L224.605 15.8508L228.19 16.9758L227.287 36.0367L227.475 36.0959L237.435 19.8768L241.083 21.0215L227.618 41.8058L224.127 40.7105L224.686 22.1977L224.497 22.1385L214.379 37.6516L210.888 36.5563Z" fill="white"/>
<path d="M240.371 47.4576L252.094 26.673L265.127 34.0236L263.589 36.7509L253.713 31.1812L250.168 37.4683L259.354 42.6493L257.832 45.3479L248.646 40.1668L245.068 46.5113L255.058 52.1457L253.52 54.873L240.371 47.4576Z" fill="white"/>
<path d="M261.184 60.0227L276.358 41.6067L283.098 47.1609C287.028 50.399 287.194 54.059 284.941 56.7934C283.044 59.0954 280.679 59.0895 278.631 58.1282L278.485 58.3062C280.232 59.917 280.896 63.1543 278.548 66.0032C276.222 68.8267 272.528 69.3704 268.229 65.8284L261.184 60.0227ZM265.952 59.9372L269.945 63.2278C272.601 65.3948 274.623 65.1177 275.881 63.5915C277.337 61.8237 277.101 59.2592 274.888 57.4358L270.793 54.0614L265.952 59.9372ZM272.596 51.8738L276.309 54.9338C278.177 56.4511 280.549 56.5266 282.005 54.7588C283.263 53.2326 283.151 51.2181 280.95 49.4052L277.186 46.3032L272.596 51.8738Z" fill="white"/>
<path d="M289.751 88.7587L290.072 85.8163L300.349 87.0204L289.008 72.6685L291.387 70.7885L302.728 85.1403L303.907 74.8834L306.844 75.251L305.074 90.554L289.751 88.7587Z" fill="white"/>
<path d="M301.72 105.535L323.109 94.956L326.879 102.578C329.341 107.556 327.563 111.469 323.604 113.427C319.66 115.378 315.449 114.409 312.994 109.446L310.831 105.073L303.327 108.785L301.72 105.535ZM313.608 103.7L315.61 107.747C317.151 110.901 319.574 111.339 321.982 110.148C324.405 108.95 325.483 106.78 323.941 103.627L321.939 99.5792L313.608 103.7Z" fill="white"/>
<path d="M329.344 145.273C321.99 147.309 316.305 144.13 314.66 138.19C313.003 132.202 316.263 126.563 323.601 124.531C330.954 122.495 336.635 125.659 338.293 131.646C339.937 137.586 336.697 143.237 329.344 145.273ZM324.559 127.994C318.973 129.557 316.753 133.336 317.869 137.302C318.943 141.245 322.79 143.343 328.385 141.811C333.971 140.247 336.191 136.469 335.085 132.535C334.001 128.56 330.154 126.462 324.559 127.994Z" fill="white"/>
<path d="M319.095 156.924L342.879 154.995L343.567 163.471C344.015 169.006 341.164 171.965 336.778 172.321C333.575 172.581 331.043 171.331 329.708 168.53L320.526 174.565L320.193 170.459L328.769 164.902L328.751 164.672L328.356 159.81L319.388 160.538L319.095 156.924ZM331.477 159.557L331.842 164.058C332.142 167.555 333.805 168.892 336.482 168.675C339.16 168.458 340.717 166.86 340.449 163.36L340.084 158.859L331.477 159.557Z" fill="white"/>
<path d="M341.085 182.978L344.202 183.274L342.453 201.681L339.336 201.385L340.037 194.002L319.399 192.041L319.742 188.432L340.38 190.393L341.085 182.978Z" fill="white"/>
<path d="M317.084 207.312L340.121 213.531L336.264 227.818L333.241 227.002L336.153 216.215L329.185 214.334L326.548 224.102L323.557 223.295L326.194 213.526L316.139 210.812L317.084 207.312Z" fill="white"/>
<path d="M312.287 253.502C305.404 250.21 303.203 244.079 305.862 238.519C308.542 232.914 314.704 230.801 321.573 234.086C328.456 237.378 330.664 243.494 327.984 249.099C325.325 254.659 319.17 256.794 312.287 253.502ZM320.023 237.327C314.783 234.839 310.628 236.231 308.865 239.955C307.087 243.635 308.611 247.743 313.837 250.261C319.077 252.749 323.232 251.356 324.981 247.662C326.773 243.953 325.249 239.844 320.023 237.327Z" fill="white"/>
<path d="M296.851 255.553L316.153 269.583L314.022 272.515L297.252 260.326L290.916 269.044L288.383 267.203L296.851 255.553Z" fill="white"/>
<path d="M297.174 293.004L279.827 276.619L282.316 273.983L299.663 290.369L297.174 293.004Z" fill="white"/>
<path d="M264.072 305.868C259.363 299.865 260.109 293.394 264.958 289.589C269.846 285.754 276.306 286.593 281.005 292.583C285.715 298.586 284.982 305.047 280.094 308.882C275.245 312.686 268.782 311.871 264.072 305.868ZM278.179 294.801C274.585 290.247 270.244 289.652 267.013 292.208C263.787 294.718 263.331 299.076 266.899 303.65C270.492 308.204 274.834 308.799 278.039 306.263C281.291 303.733 281.746 299.375 278.179 294.801Z" fill="white"/>
<path d="M236.321 306.958L239.116 307.932L235.635 317.676L252.167 309.847L253.465 312.588L236.932 320.417L246.663 323.868L245.645 326.648L231.13 321.487L236.321 306.958Z" fill="white"/>
<path d="M203.154 317.596L205.632 319.214L199.907 327.833L217.838 324.217L218.437 327.189L200.506 330.806L209.119 336.499L207.461 338.952L194.617 330.447L203.154 317.596Z" fill="white"/>
</svg>
