<svg width="100" height="100" viewBox="0 0 100 100" fill="none" xmlns="http://www.w3.org/2000/svg">
<path d="M100 94.7699L72.0666 66.8365C78.7792 58.778 82.1265 48.4418 81.4123 37.9781C80.698 27.5144 75.9772 17.7289 68.2319 10.6573C60.4865 3.58563 50.313 -0.227719 39.8277 0.0105274C29.3424 0.248773 19.3526 4.52027 11.9364 11.9364C4.52027 19.3526 0.248773 29.3424 0.0105274 39.8277C-0.227719 50.313 3.58563 60.4865 10.6573 68.2319C17.7289 75.9772 27.5144 80.698 37.9781 81.4123C48.4418 82.1265 58.778 78.7792 66.8365 72.0666L94.7699 100L100 94.7699ZM7.52988 40.8191C7.52988 34.2351 9.48226 27.799 13.1401 22.3246C16.798 16.8502 21.9971 12.5835 28.0799 10.0639C34.1627 7.54429 40.856 6.88505 47.3135 8.16952C53.771 9.454 59.7026 12.6245 64.3582 17.2801C69.0138 21.9357 72.1843 27.8672 73.4687 34.3247C74.7532 40.7822 74.094 47.4756 71.5744 53.5584C69.0548 59.6412 64.788 64.8403 59.3136 68.4981C53.8392 72.156 47.4031 74.1084 40.8191 74.1084C31.9933 74.0986 23.5317 70.5882 17.2909 64.3474C11.0501 58.1065 7.53967 49.645 7.52988 40.8191Z" fill="#2B66C6"/>
<path d="M67.9999 40.6706C67.9999 47.9333 63.6392 52.3412 57.7725 52.3412C51.8588 52.3412 47.5137 47.9176 47.5137 40.6706C47.5137 33.4078 51.8588 29 57.7725 29C63.6392 29 67.9999 33.4078 67.9999 40.6706ZM50.9333 40.6706C50.949 46.1922 53.8509 49.1882 57.7725 49.1725C61.6627 49.1882 64.5647 46.1922 64.5803 40.6706C64.5647 35.149 61.6627 32.1529 57.7725 32.1686C53.8509 32.1529 50.949 35.149 50.9333 40.6706Z" fill="#547DBF"/>
<path d="M31.7158 52.0282V29.3145H45.959V32.2948H35.1668V39.1654H45.206V42.1145H35.1668V49.0478H46.0845V52.0282H31.7158Z" fill="#547DBF"/>
<path d="M26.2706 35.3059C26.051 33.1882 24.2 31.9804 21.5961 31.9804C18.8196 31.9804 17.0627 33.4078 17.0471 35.3373C17.0471 37.4863 19.3843 38.3333 21.1882 38.7569L23.3843 39.3529C26.2863 40.0588 29.9255 41.6431 29.9412 45.7529C29.9255 49.5961 26.8667 52.4039 21.502 52.4039C16.4196 52.4039 13.2196 49.8627 13 45.7216H16.451C16.6549 48.2 18.851 49.3765 21.502 49.3922C24.4039 49.3765 26.5059 47.9176 26.5216 45.6902C26.5059 43.7137 24.6235 42.9137 22.2235 42.2706L19.5255 41.549C15.8706 40.5451 13.6118 38.6941 13.5961 35.5255C13.6118 31.6039 17.0941 29 21.6902 29C26.302 29 29.5176 31.6353 29.6275 35.3059H26.2706Z" fill="#547DBF"/>
</svg>
