<svg width="101" height="100" viewBox="0 0 101 100" fill="none" xmlns="http://www.w3.org/2000/svg">
<g clip-path="url(#clip0_1366_2269)">
<path d="M62.9082 78.1419C61.1071 78.1419 59.7659 79.0176 59.7659 81.125C59.7659 82.7128 60.6498 83.8153 62.811 83.8153C64.6429 83.8153 65.8873 82.7463 65.8873 81.0591C65.8873 79.1472 64.7739 78.1419 62.9082 78.1419ZM59.3073 93.0228C58.881 93.5406 58.4562 94.0912 58.4562 94.7403C58.4562 96.0362 60.125 96.4262 62.4174 96.4262C64.316 96.4262 66.9026 96.2943 66.9026 94.5462C66.9026 93.5071 65.6582 93.4431 64.0859 93.3456L59.3073 93.0228ZM68.9974 78.2397C69.5856 78.9854 70.2086 80.0232 70.2086 81.5141C70.2086 85.1122 67.3605 87.2191 63.2364 87.2191C62.1877 87.2191 61.2384 87.0897 60.6498 86.9278L59.5689 88.6453L62.7769 88.8397C68.441 89.1972 71.779 89.3597 71.779 93.6693C71.779 97.398 68.4735 99.5039 62.7769 99.5039C56.8517 99.5039 54.5928 98.0127 54.5928 95.4521C54.5928 93.9934 55.2476 93.2168 56.3935 92.1452C55.3129 91.6931 54.9532 90.8831 54.9532 90.0072C54.9532 89.2934 55.3129 88.6456 55.9031 88.029C56.492 87.4141 57.1465 86.7975 57.9323 86.0844C56.3285 85.3063 55.1166 83.6206 55.1166 81.2213C55.1166 77.4941 57.6051 74.9342 62.6128 74.9342C64.0209 74.9342 64.8724 75.0623 65.6254 75.2582H72.0097V78.0126L68.9974 78.2397ZM77.7691 72.349C75.9027 72.349 74.8225 71.2784 74.8225 69.43C74.8225 67.5841 75.9024 66.5781 77.7691 66.5781C79.6677 66.5781 80.7482 67.5841 80.7482 69.43C80.7482 71.2784 79.668 72.349 77.7691 72.349ZM73.5453 91.8298V89.2701L75.2154 89.0439C75.6739 88.9786 75.7389 88.8817 75.7389 88.3945V78.864C75.7389 78.5084 75.6411 78.2802 75.3125 78.184L73.5453 77.5674L73.905 74.9425H80.6823V88.3945C80.6823 88.9139 80.7138 88.9786 81.2065 89.0442L82.8759 89.2705V91.8298H73.5453ZM95.8219 90.5731C94.4137 91.2534 92.3514 91.8693 90.4846 91.8693C86.5891 91.8693 85.1165 90.315 85.1165 86.65V78.1579C85.1165 77.9635 85.1165 77.8338 84.8536 77.8338H82.5625V74.9479C85.4441 74.6229 86.5891 73.1966 86.9491 69.6632H90.0596V74.2676C90.0596 74.4938 90.0596 74.5916 90.3218 74.5916H94.9373V77.8332H90.0596V85.5803C90.0596 87.4928 90.5184 88.2378 92.2854 88.2378C93.2031 88.2378 94.1515 88.0115 94.9369 87.7196L95.8219 90.5731Z" fill="white"/>
<path d="M82.8786 36.1457L48.3762 1.64519C47.9037 1.17253 47.3427 0.797583 46.7252 0.541773C46.1078 0.285962 45.446 0.154297 44.7777 0.154297C44.1093 0.154297 43.4476 0.285962 42.8301 0.541773C42.2127 0.797583 41.6517 1.17253 41.1792 1.64519L34.0148 8.81038L43.1032 17.8982C44.1715 17.5348 45.3202 17.478 46.4192 17.734C47.5181 17.99 48.5234 18.5487 49.3212 19.3468C50.1232 20.1499 50.6831 21.1623 50.9371 22.2686C51.191 23.3748 51.1287 24.5301 50.7571 25.6026L59.5148 34.3618C61.6339 33.6319 64.0794 34.1044 65.7713 35.7993C66.3338 36.3614 66.78 37.0289 67.0844 37.7636C67.3889 38.4982 67.5456 39.2857 67.5456 40.081C67.5456 40.8762 67.3889 41.6637 67.0844 42.3983C66.78 43.133 66.3338 43.8005 65.7713 44.3626C64.7816 45.3532 63.4793 45.9702 62.0859 46.1086C60.6925 46.247 59.2943 45.8983 58.1291 45.1217C56.9639 44.3452 56.1039 43.1888 55.6954 41.8495C55.2868 40.5102 55.3551 39.0707 55.8884 37.776L47.7205 29.608L47.7198 51.1036C48.3119 51.3963 48.8527 51.7831 49.3212 52.2488C49.8836 52.8111 50.3298 53.4787 50.6342 54.2135C50.9386 54.9483 51.0953 55.7359 51.0953 56.5312C51.0953 57.3266 50.9386 58.1141 50.6342 58.8489C50.3298 59.5837 49.8836 60.2513 49.3212 60.8137C46.955 63.1798 43.1203 63.1798 40.7579 60.8137C40.0521 60.1084 39.5315 59.2397 39.2424 58.2847C38.9534 57.3297 38.9047 56.3181 39.1008 55.3398C39.297 54.3615 39.7318 53.4469 40.3666 52.6771C41.0015 51.9074 41.8167 51.3065 42.7398 50.9278V29.2319C41.9972 28.9287 41.3232 28.4792 40.7579 27.9101C38.9658 26.1203 38.5349 23.4909 39.4532 21.2901L30.4945 12.3299L6.83775 35.9854C6.36502 36.4581 5.99003 37.0193 5.7342 37.637C5.47836 38.2546 5.34668 38.9166 5.34668 39.5851C5.34668 40.2536 5.47836 40.9156 5.7342 41.5332C5.99003 42.1509 6.36502 42.7121 6.83775 43.1848L41.3401 77.686C42.2946 78.6402 43.589 79.1762 44.9386 79.1762C46.2883 79.1762 47.5827 78.6402 48.5371 77.686L82.8786 43.3457C83.833 42.3907 84.3691 41.0958 84.3691 39.7457C84.3691 38.3955 83.833 37.1007 82.8786 36.1457Z" fill="#F05134"/>
</g>
<defs>
<clipPath id="clip0_1366_2269">
<rect width="99.3506" height="99.3506" fill="white" transform="translate(0.90918 0.154297)"/>
</clipPath>
</defs>
</svg>
