<svg width="71" height="100" viewBox="0 0 71 100" fill="none" xmlns="http://www.w3.org/2000/svg">
<path d="M70.2087 19.4746L63.8126 91.1282L35.0614 99.0988L6.38954 91.1392L0 19.4746H70.2087Z" fill="#E5A228"/>
<path d="M35.1055 93.0061L58.3378 86.5654L63.8035 25.334H35.1055V93.0061Z" fill="#F1BF26"/>
<path d="M52 34.5L53.5 50.5H46L44.5 42.5H27.5L26 54.5H53.5L51 79L35 84L19 79L18 67H25.5V72.5L35 75.5L44 72.5L44.5 62H18L20.5 34L52 34.5Z" fill="white"/>
<path fill-rule="evenodd" clip-rule="evenodd" d="M35.1055 42.5H27.5L26 54.5H35.1055V62H18L20.5 34L35.1055 34.2318V42.5ZM35.1055 75.4648L35 75.5L25.5 72.5V67H18L19 79L35 84L35.1055 83.967V75.4648Z" fill="#EBEBEB"/>
<path d="M28.68 0H32.3236V13.36H22V9.71636H28.68V0Z" fill="white"/>
<path d="M48.72 0H35.9673V3.03636L42.04 9.71636H35.9673V13.36H48.72V9.71636L42.04 3.03636H48.72V0Z" fill="white"/>
</svg>
