<svg width="100" height="100" viewBox="0 0 100 100" fill="none" xmlns="http://www.w3.org/2000/svg">
<path d="M21.5448 15.8495C15.8383 24.0498 16.5485 34.7198 20.9083 43.4347L21.2273 44.0541L21.4314 44.4468L21.5587 44.6727L21.7861 45.0794C21.9212 45.3177 22.0601 45.5544 22.2022 45.7927L22.4397 46.1839C22.5972 46.4369 22.7579 46.6884 22.9225 46.9391L23.1281 47.2565C23.3556 47.5957 23.5876 47.9334 23.8275 48.2663L23.8477 48.292L23.9656 48.4511C24.1729 48.7367 24.3863 49.0192 24.6029 49.2994L24.8427 49.6045C25.036 49.8474 25.2323 50.088 25.4318 50.3294L25.6569 50.598C25.9247 50.9131 26.1987 51.2282 26.4773 51.5356L26.4936 51.5526L26.5255 51.5876C26.7979 51.8848 27.0765 52.1759 27.3598 52.467L27.6268 52.7363C27.8457 52.9567 28.0685 53.1733 28.2928 53.3891L28.5652 53.6483C28.8656 53.9308 29.1683 54.2087 29.478 54.4788L29.492 54.4912L29.6511 54.6263C29.9235 54.863 30.2006 55.0959 30.48 55.3264L30.8231 55.6004C31.0513 55.7828 31.2818 55.9636 31.5139 56.1406L31.8841 56.4208C32.1403 56.6094 32.3987 56.7949 32.6595 56.9773L32.9413 57.1776L33.0197 57.2335C33.2665 57.4042 33.5203 57.568 33.7726 57.7318L34.0986 57.9491C34.4866 58.1936 34.8802 58.4365 35.2776 58.6709L35.6036 58.8549C35.8962 59.0233 36.1903 59.1894 36.4884 59.3509L36.9782 59.6039L37.6115 59.933L37.7574 60.0036L38.0167 60.1286C38.3481 60.2869 38.6826 60.4429 39.0203 60.5935L39.2322 60.6882C39.6187 60.8574 40.0091 61.0196 40.4026 61.1756L40.6883 61.2874C41.0523 61.4287 41.4217 61.566 41.7928 61.6964L41.9317 61.7446C42.3384 61.8874 42.7498 62.0186 43.1635 62.1482L43.4607 62.2367C43.8814 62.3639 44.2982 62.5145 44.7321 62.5953C72.3274 67.6272 80.3429 46.0131 80.3429 46.0131C73.6104 54.7839 61.6612 57.0968 50.3392 54.5215C49.91 54.4245 49.4939 54.2902 49.0756 54.1676L48.7604 54.0713C48.3524 53.9469 47.9466 53.8149 47.5434 53.6755L47.3765 53.6157C47.017 53.4883 46.6594 53.3556 46.3039 53.2175L46.0027 53.0996C45.6138 52.9459 45.2265 52.7852 44.8447 52.6183L44.6134 52.5151C44.2857 52.3678 43.96 52.2165 43.6362 52.061L43.3536 51.9252C43.0998 51.8018 42.8491 51.6706 42.5976 51.541L42.0939 51.2763C41.7873 51.1133 41.4869 50.9426 41.1881 50.7687L40.8823 50.5987C40.4854 50.3636 40.0921 50.1225 39.7025 49.8753L39.3843 49.6635C39.1016 49.4819 38.8219 49.2959 38.5452 49.1054L38.2744 48.9152C38.0077 48.7274 37.7433 48.5364 37.4811 48.3424L37.1295 48.0762C36.8889 47.8922 36.6498 47.7067 36.4139 47.5166L36.0949 47.2604C35.7937 47.0136 35.4964 46.7637 35.2031 46.5083L35.1053 46.4268C34.7885 46.1474 34.4759 45.8633 34.1676 45.5746L33.9037 45.32C33.6751 45.104 33.4505 44.8837 33.23 44.6595L32.9661 44.3956C32.6851 44.1084 32.4096 43.8173 32.1395 43.5216L32.0984 43.4774C31.8128 43.1649 31.5333 42.8468 31.2601 42.5234L31.0404 42.2627C30.836 42.0168 30.6349 41.7682 30.4374 41.5168L30.2161 41.2412C29.9794 40.9354 29.7471 40.6262 29.5191 40.3137C23.2337 31.7393 20.975 19.9136 25.9992 10.2021M39.257 8.94004C35.1309 14.8778 35.3544 22.8281 38.574 29.1073C39.1126 30.1629 39.7223 31.1807 40.3987 32.1538C41.0166 33.041 41.7027 34.095 42.5231 34.8067C42.8204 35.1343 43.1316 35.4541 43.4491 35.7676L43.6928 36.009C44.001 36.3079 44.3145 36.602 44.6382 36.8877L44.677 36.921L44.6863 36.9304C45.0449 37.2447 45.4151 37.5466 45.7908 37.8447L46.0415 38.0403C46.4187 38.329 46.8029 38.6131 47.1972 38.884L47.2306 38.9096L47.7584 39.2565L48.0083 39.4219C48.2901 39.6027 48.5749 39.7781 48.8652 39.9466L48.9863 40.018C49.2362 40.1616 49.4893 40.3028 49.7431 40.441L50.0124 40.5807L50.5418 40.8555L50.6217 40.8919C50.9857 41.0705 51.3521 41.2435 51.727 41.4065L51.9707 41.5074C52.2703 41.634 52.5722 41.7581 52.8765 41.8746L53.2646 42.0174C53.5409 42.1198 53.8172 42.2138 54.0966 42.3069L54.4723 42.4272C54.8689 42.5498 55.2617 42.7058 55.6746 42.7749C76.9805 46.3042 81.8991 29.8998 81.8991 29.8998C77.4656 36.2861 68.8788 39.3326 59.7161 36.9544C59.3111 36.8476 58.9087 36.7314 58.5092 36.6059L58.1467 36.4887C57.8636 36.3975 57.5823 36.3007 57.303 36.1984L56.9219 36.0564C56.6169 35.939 56.3139 35.8166 56.013 35.6893L55.7685 35.586C55.3939 35.4227 55.0233 35.2503 54.657 35.0691L54.0997 34.7858L53.7784 34.6205C53.5409 34.4916 53.3049 34.3581 53.0729 34.2215L52.9044 34.126C52.6162 33.9582 52.3316 33.7843 52.0506 33.6045L51.7929 33.4329L51.2403 33.0666C50.8495 32.7953 50.4655 32.5145 50.0885 32.2244L49.8292 32.0195C45.8188 28.8535 42.6396 24.5256 41.1283 19.6186C39.5442 14.5293 39.8857 8.81663 42.6302 4.17978M54.1541 3.77772C51.7215 7.35742 51.4825 11.8041 53.1707 15.7579C54.9504 19.9547 58.5976 23.2464 62.855 24.8081L63.3843 24.9905L63.6171 25.065C63.8679 25.1442 64.117 25.2358 64.3762 25.2839C76.1407 27.5573 79.3315 19.2476 80.1807 18.0236C77.3857 22.048 72.6883 23.0144 66.9244 21.6149C66.4529 21.4946 65.9876 21.3509 65.5304 21.1841C64.9668 20.9837 64.4139 20.7542 63.8741 20.4965C62.8501 20.0033 61.8775 19.41 60.9704 18.7252C55.8127 14.8118 52.6095 7.34733 55.975 1.26758" fill="#0868AC"/>
<path d="M51.5058 74.7411H48.2257C48.1329 74.7447 48.0437 74.7781 47.9714 74.8364C47.8991 74.8947 47.8476 74.9748 47.8244 75.0647L46.6602 80.4514L45.4959 85.838C45.473 85.928 45.4216 86.0081 45.3495 86.0664C45.2773 86.1247 45.1881 86.1582 45.0954 86.1617H42.7739C40.4772 86.1617 40.7426 84.5728 41.213 82.3965L41.227 82.3305L41.2782 82.0557L41.2875 82.0045L41.3923 81.4456L41.5048 80.8472L41.6244 80.2379L42.1537 77.6517L42.6838 75.0655C42.694 75.026 42.6947 74.9847 42.6859 74.9449C42.6772 74.905 42.6592 74.8678 42.6335 74.8362C42.6077 74.8046 42.5749 74.7794 42.5377 74.7628C42.5005 74.7461 42.4599 74.7384 42.4192 74.7403H39.0529C38.9602 74.7437 38.8711 74.7772 38.7991 74.8357C38.7271 74.8942 38.6762 74.9746 38.654 75.0647L37.9298 78.4985L37.2064 81.9331L37.2048 81.9377L37.1381 82.2575C36.3045 86.0631 36.5249 89.6932 41.0562 89.8073L41.1882 89.8097H48.3002C48.393 89.8062 48.4821 89.7728 48.5543 89.7144C48.6265 89.6561 48.6778 89.576 48.7007 89.486L50.2344 82.2761L51.7682 75.0655C51.8062 74.887 51.6882 74.7418 51.5058 74.7411ZM16.3794 74.703H12.7779C12.6849 74.7067 12.5955 74.7399 12.5227 74.798C12.4499 74.8561 12.3977 74.936 12.3735 75.0259L12.032 76.5333L11.6905 78.0406C11.6509 78.2183 11.7666 78.3635 11.949 78.3635H15.5784C15.6713 78.36 15.7607 78.3267 15.8331 78.2684C15.9056 78.21 15.9572 78.1299 15.9804 78.0398L16.3103 76.5333L16.6402 75.0267C16.6782 74.849 16.5618 74.703 16.3794 74.703ZM15.3346 79.3942H11.7045C11.6115 79.398 11.5221 79.4313 11.4494 79.4894C11.3766 79.5475 11.3243 79.6272 11.3001 79.7171L10.7902 81.9758L10.281 84.2337L10.139 84.881L9.64919 87.1862L9.1602 89.4922C9.12217 89.67 9.04377 89.9571 8.98556 90.1295C8.98556 90.1295 8.30718 92.1475 7.16699 92.1242L7.02417 92.1211L6.03766 92.1033C5.94498 92.1055 5.85468 92.1373 5.78147 92.1942C5.70826 92.2511 5.65523 92.3299 5.63017 92.4192L5.25372 94.0018L4.87806 95.5836C4.83537 95.7606 4.95024 95.9065 5.13109 95.9096C5.77764 95.9174 7.22598 95.9337 8.10228 95.9337C10.9501 95.9337 12.4519 94.3557 13.4136 89.8151L14.5398 84.6039L15.5962 79.7163C15.6342 79.5401 15.5163 79.3942 15.3346 79.3942ZM82.1762 78.1725L82.0257 77.5508L81.8774 76.9144L81.8021 76.593C81.5072 75.4466 80.6417 74.7861 78.7619 74.7861L75.8357 74.783L73.1408 74.7791H70.1083C70.0156 74.7825 69.9266 74.8159 69.8545 74.8743C69.7824 74.9326 69.7312 75.0128 69.7086 75.1028L69.5743 75.7361L69.416 76.4844L69.3717 76.6947L68.0064 83.0904L66.7102 89.1616C66.6714 89.3401 66.659 89.559 66.6807 89.6475C66.7025 89.7367 67.0525 89.8097 67.2342 89.8097H69.9694C70.1518 89.8097 70.3823 89.7771 70.4817 89.7367C70.581 89.6964 70.7277 89.3385 70.7642 89.1608L71.2501 86.7554L71.7367 84.3493L71.7375 84.3454L71.8027 84.0249L72.3926 81.2617L72.9134 78.8214C72.9364 78.7316 72.9876 78.6517 73.0597 78.5934C73.1317 78.5351 73.2206 78.5015 73.3131 78.4977L81.9201 78.4939C82.1025 78.4954 82.2174 78.3503 82.1762 78.1725ZM93.2561 72.553L92.5932 72.5554H89.8386C89.7377 72.561 89.6391 72.5885 89.5498 72.6358C89.4604 72.6831 89.3824 72.7491 89.3209 72.8294L83.2287 81.7538C83.1263 81.9044 83.0091 81.8826 82.9687 81.7057L82.5201 79.7396C82.4959 79.6496 82.4435 79.5696 82.3706 79.5115C82.2977 79.4534 82.2081 79.4202 82.1149 79.4167H78.1991C78.0167 79.4167 77.9088 79.5595 77.9585 79.7342L79.7134 85.8822C79.7631 86.0577 79.767 86.3448 79.722 86.5218L78.9574 89.4969C78.9117 89.6738 79.0234 89.8174 79.2058 89.8174H83.0766C83.1702 89.8136 83.2603 89.7807 83.3344 89.7232C83.4084 89.6658 83.4626 89.5866 83.4895 89.4969L84.2548 86.5218C84.3154 86.3121 84.4106 86.1141 84.5366 85.9358L94.4266 72.81C94.5368 72.664 94.477 72.5453 94.2954 72.5468L93.2561 72.553ZM62.1425 80.2519V80.2488C62.129 80.3425 62.0827 80.4284 62.0117 80.4911C61.9408 80.5538 61.8498 80.5893 61.7552 80.5911H56.79C56.6177 80.5911 56.5307 80.4747 56.5564 80.3303L56.561 80.3186L56.5579 80.3202L56.5602 80.3039L56.5827 80.2193C57.057 78.9588 58.0225 78.1314 59.838 78.1314C61.8824 78.1306 62.2814 79.1288 62.1425 80.2519ZM60.6856 74.5206C54.3124 74.5206 52.802 78.3891 51.9544 82.294C51.1076 86.2742 51.1798 89.9944 57.7757 89.9944H58.5752L58.7739 89.9936H58.8204L59.6121 89.9913H59.6261C61.3678 89.9843 63.115 89.9711 63.8221 89.9657C63.9142 89.961 64.0024 89.9268 64.0736 89.8681C64.1448 89.8094 64.1951 89.7293 64.2172 89.6397L64.4842 88.3349L64.5362 88.0811L64.8544 86.5241C64.8646 86.4847 64.8653 86.4434 64.8565 86.4036C64.8478 86.3638 64.8298 86.3266 64.8041 86.295C64.7783 86.2635 64.7455 86.2384 64.7083 86.2218C64.671 86.2053 64.6304 86.1977 64.5897 86.1997H58.6606C56.3018 86.1997 55.6017 85.5733 55.8601 83.7307H65.338L65.3372 83.7315L65.3434 83.7307C65.4184 83.7275 65.4908 83.7027 65.5521 83.6593C65.6134 83.6159 65.6608 83.5558 65.6888 83.4862L65.7113 83.4039L65.7105 83.4047C67.1177 78.0965 66.7141 74.5214 60.6856 74.5206ZM30.5624 80.2317L30.4723 80.5492L29.7567 83.0865L29.0411 85.6222C29.0118 85.7121 28.9557 85.7908 28.8804 85.8479C28.805 85.9049 28.714 85.9375 28.6196 85.9412H24.8319C21.9585 85.9412 21.2584 83.6934 21.9585 80.3792C22.6578 76.9889 24.0293 74.8816 26.8577 74.6681C30.723 74.3763 31.4961 77.0944 30.5624 80.2317ZM33.161 85.7464C33.161 85.7464 34.947 81.4092 35.3521 78.9052C35.9055 75.553 34.2267 70.6895 27.7425 70.6895C21.2956 70.6895 18.4952 75.3317 17.4272 80.3792C16.3592 85.4631 17.7586 89.9207 24.169 89.8842L29.2266 89.8656L33.9527 89.8485C34.0464 89.8438 34.1363 89.8105 34.2105 89.753C34.2846 89.6956 34.3393 89.6167 34.3672 89.5271L35.1907 86.3868C35.2365 86.2098 35.1255 86.0654 34.9431 86.0639L34.1537 86.0592L33.3643 86.0546C33.2099 86.0538 33.1214 85.9529 33.14 85.8202L33.161 85.7464ZM65.0772 82.8428C65.0772 82.8713 65.0716 82.8996 65.0608 82.926C65.0499 82.9523 65.0339 82.9763 65.0138 82.9965C64.9936 83.0168 64.9697 83.0328 64.9434 83.0438C64.917 83.0548 64.8888 83.0604 64.8602 83.0605C64.8317 83.0605 64.8034 83.055 64.777 83.0441C64.7506 83.0332 64.7267 83.0172 64.7064 82.9971C64.6862 82.9769 64.6702 82.953 64.6592 82.9267C64.6482 82.9003 64.6426 82.8721 64.6425 82.8435C64.6424 82.7859 64.6652 82.7306 64.7059 82.6897C64.7466 82.6489 64.8018 82.6259 64.8595 82.6258C64.9171 82.6257 64.9724 82.6485 65.0132 82.6892C65.0541 82.7299 65.0771 82.7851 65.0772 82.8428Z" fill="white"/>
</svg>
