<svg width="71" height="100" viewBox="0 0 71 100" fill="none" xmlns="http://www.w3.org/2000/svg">
<path d="M70.2087 19.4746L63.8126 91.1282L35.0614 99.0988L6.38954 91.1392L0 19.4746H70.2087Z" fill="#E44D26"/>
<path d="M35.1055 93.0061L58.3378 86.5654L63.8035 25.334H35.1055V93.0061Z" fill="#F16529"/>
<path d="M22.672 42.9124H35.106V34.123H13.0664L13.2767 36.481L15.4371 60.7022H35.106V51.9129H23.4754L22.672 42.9124ZM24.653 65.0971H15.8298L17.0611 78.8977L35.0656 83.8955L35.106 83.8845V74.7398L35.0675 74.75L25.2788 72.1069L24.653 65.0971Z" fill="#EBEBEB"/>
<path d="M6.53125 0H10.9979V4.41299H15.0839V0H19.5509V13.3636H15.0842V8.88872H10.9982V13.3636H6.53153L6.53125 0ZM25.4244 4.4317H21.4927V0H33.826V4.4317H29.8919V13.3636H25.4252V4.4317H25.4244ZM35.7833 0H40.4406L43.3056 4.69563L46.1678 0H50.8271V13.3636H46.3786V6.73988L43.3056 11.4914H43.2285L40.1536 6.73988V13.3636H35.7833V0ZM53.0499 0H57.518V8.94651H63.7993V13.3636H53.0496L53.0499 0Z" fill="white"/>
<path d="M35.0784 60.7022H45.9016L44.8811 72.1014L35.0781 74.7473V83.8914L53.0969 78.8977L53.229 77.4127L55.2947 54.2731L55.5091 51.9129H35.0784V60.7022ZM35.0784 42.8909V42.9124H56.3089L56.485 40.937L56.8857 36.481L57.0957 34.123H35.0784V42.8909Z" fill="white"/>
</svg>
