<svg width="72" height="100" viewBox="0 0 72 100" fill="none" xmlns="http://www.w3.org/2000/svg">
<path d="M71.0837 19.4746L64.6876 91.1282L35.9364 99.0988L7.26454 91.1392L0.875 19.4746H71.0837Z" fill="#0C73B8"/>
<path d="M14.432 39.9545L13.875 32H57.875L53.9763 76.8864L35.5965 82L18.3307 76.8864L16.6598 63.25H25.5712V70.0682C28.7273 71.0152 35.2623 72.9091 36.1535 72.9091C37.0446 72.9091 43.2083 71.0152 46.1788 70.0682L46.7358 58.1364H26.1282L25.5712 49.6136H48.4066V39.9545H14.432Z" fill="#EBEBEB"/>
<path d="M35.9805 93.0061L59.2128 86.5654L64.6785 25.334H35.9805V93.0061Z" fill="#30A9DC"/>
<path d="M14.432 39.9545L13.875 32H57.875L53.9763 76.8864L35.5965 82L18.3307 76.8864L16.6598 63.25H25.5712V70.0682C28.7273 71.0152 35.2623 72.9091 36.1535 72.9091C37.0446 72.9091 43.2083 71.0152 46.1788 70.0682L46.7358 58.1364H26.1282L25.5712 49.6136H48.4066V39.9545H14.432Z" fill="white"/>
<path fill-rule="evenodd" clip-rule="evenodd" d="M35.9805 32H13.875L14.432 39.9545H35.9805V32ZM35.9805 49.6136H25.5712L26.1282 58.1364H35.9805V49.6136ZM35.9805 72.8955C34.6228 72.7237 28.5709 70.9682 25.5712 70.0682V63.25H16.6598L18.3307 76.8864L35.5965 82L35.9805 81.8932V72.8955Z" fill="#EBEBEB"/>
<path d="M14.875 0H25.3307V3.48522H18.3602V9.87478H25.3307V13.36H14.875V0Z" fill="white"/>
<path d="M28.8159 0H40.4333V3.48522H34.6246L40.4333 9.87478V13.36H28.8159V9.87478H34.6246L28.8159 3.48522V0Z" fill="white"/>
<path d="M43.9185 0H56.1167V3.48522H49.7272L56.1167 9.87478V13.36H43.9185V9.87478H50.308L43.9185 3.48522V0Z" fill="white"/>
</svg>
