<svg width="65" height="21" viewBox="0 0 65 21" fill="none" xmlns="http://www.w3.org/2000/svg">
<path d="M58.7934 0.681641C62.2696 0.681641 64.1689 2.83181 64.1689 6.70212C64.1689 10.6083 62.2696 12.7943 58.7934 12.7943H48.2933V20.6424H44.7097V12.7943H44.6738V0.681641H58.7934ZM48.3292 9.56901H57.0374C59.331 9.56901 60.5853 8.5656 60.5853 6.73795C60.5853 4.91031 59.331 3.9069 57.0374 3.9069H48.3292V9.56901Z" fill="white"/>
<path d="M31.6294 17.7747C36.6823 17.7747 38.94 14.9078 38.94 10.5C38.94 6.09215 36.6823 3.22525 31.6294 3.22525C26.5406 3.22525 24.2829 6.09215 24.2829 10.5C24.2829 14.9078 26.5406 17.7747 31.6294 17.7747ZM20.6992 10.5C20.6992 4.73037 24.6054 0 31.6294 0C38.6175 0 42.5237 4.73037 42.5237 10.5C42.5237 16.2696 38.6175 21 31.6294 21C24.6054 21 20.6992 16.2696 20.6992 10.5Z" fill="white"/>
<path d="M19.6367 0.681641V3.94273H11.8602V20.6424H8.27654V3.94273H0.5V0.681641H19.6367Z" fill="white"/>
</svg>
